<svg id="Capa_1" data-name="Capa 1" xmlns="http://www.w3.org/2000/svg" viewBox="0 0 866.6 238.8"><defs><style>.cls-1{fill:#003f88;}.cls-1,.cls-2{stroke:#ffc300;stroke-miterlimit:10;stroke-width:14px;}.cls-3{fill:#ffc300;}</style></defs><path class="cls-1" d="M866,119A112.34,112.34,0,0,1,753.7,231.4H126.4a112.22,112.22,0,0,1-91.92-47.69,109.89,109.89,0,1,0,1.18-131A112.41,112.41,0,0,1,126.4,6.6H753.7A112.41,112.41,0,0,1,866,119Z" transform="translate(-6.4 0.4)"/><path class="cls-1" d="M233.2,119A109.89,109.89,0,0,1,34.48,183.71a112.4,112.4,0,0,1,1.18-131A109.9,109.9,0,0,1,233.2,119Z" transform="translate(-6.4 0.4)"/><path class="cls-2" d="M14,119a111.88,111.88,0,0,0,20.48,64.71,109.88,109.88,0,0,1,1.18-131A111.85,111.85,0,0,0,14,119Z" transform="translate(-6.4 0.4)"/><path class="cls-3" d="M308.6,139.3a24.07,24.07,0,0,1-4.8,3,25.45,25.45,0,0,1-5.7,1.9,37.28,37.28,0,0,1-7,.6,28.22,28.22,0,0,1-10.9-2.1,26.07,26.07,0,0,1-14.4-14.5,27.23,27.23,0,0,1-2.1-10.7v-.2a27.23,27.23,0,0,1,2.1-10.7,28.52,28.52,0,0,1,5.7-8.7,25.3,25.3,0,0,1,8.7-5.9,29,29,0,0,1,11.2-2.2,35.1,35.1,0,0,1,6.8.6,28.35,28.35,0,0,1,5.6,1.7,22.84,22.84,0,0,1,4.6,2.6,41.17,41.17,0,0,1,4,3.3l-7.4,8.6a30.07,30.07,0,0,0-6.3-4.4,16,16,0,0,0-7.3-1.6,14.37,14.37,0,0,0-6.2,1.3,16,16,0,0,0-4.9,3.6,16.69,16.69,0,0,0-3.2,5.3,16.9,16.9,0,0,0-1.1,6.4v.2a20.16,20.16,0,0,0,1.1,6.5,16.69,16.69,0,0,0,3.2,5.3,14.85,14.85,0,0,0,4.9,3.6,14.51,14.51,0,0,0,6.3,1.3,16.52,16.52,0,0,0,7.7-1.7,28,28,0,0,0,6.3-4.6l7.4,7.5A40,40,0,0,1,308.6,139.3Z" transform="translate(-6.4 0.4)"/><path class="cls-3" d="M374.3,128a27.35,27.35,0,0,1-5.9,8.7,26.56,26.56,0,0,1-9,5.9,30.46,30.46,0,0,1-11.4,2.2,27.79,27.79,0,0,1-11.3-2.2,27.14,27.14,0,0,1-8.9-5.9,26.28,26.28,0,0,1-5.9-8.7,27.23,27.23,0,0,1-2.1-10.7v-.2a26.81,26.81,0,0,1,8-19.4,26.56,26.56,0,0,1,9-5.9,30.46,30.46,0,0,1,11.4-2.2,27.79,27.79,0,0,1,11.3,2.2,27.14,27.14,0,0,1,8.9,5.9,26.28,26.28,0,0,1,5.9,8.7,27.23,27.23,0,0,1,2.1,10.7v.2A27.23,27.23,0,0,1,374.3,128Zm-10.1-10.7a17.85,17.85,0,0,0-1.2-6.5,15.74,15.74,0,0,0-8.4-8.9,15.71,15.71,0,0,0-18,3.6,17.26,17.26,0,0,0-4.5,11.7v.2a17.85,17.85,0,0,0,1.2,6.5,16.94,16.94,0,0,0,3.3,5.3,15.69,15.69,0,0,0,5.1,3.6,15.41,15.41,0,0,0,6.5,1.3,15.54,15.54,0,0,0,11.6-4.9,17.26,17.26,0,0,0,4.5-11.7v-.2Z" transform="translate(-6.4 0.4)"/><path class="cls-3" d="M428.5,143.9V109.2l-15,22.7h-.3l-14.8-22.5v34.5H386.8V90.7h12.6l14,22.5,14-22.5H440v53.2Z" transform="translate(-6.4 0.4)"/><path class="cls-3" d="M494.4,143.9V109.2l-15,22.7h-.3l-14.8-22.5v34.5H452.7V90.7h12.6l14,22.5,14-22.5H506v53.2Z" transform="translate(-6.4 0.4)"/><path class="cls-3" d="M518.7,143.9V90.7h40.1v10.4H530.3v10.8h25.1v10.4H530.3v11.2h28.9v10.4Z" transform="translate(-6.4 0.4)"/><path class="cls-3" d="M607,143.9l-25.8-33.8v33.8H569.6V90.7h10.8l24.9,32.8V90.7h11.6v53.2Z" transform="translate(-6.4 0.4)"/><path class="cls-3" d="M672.2,139.3a24.07,24.07,0,0,1-4.8,3,25.45,25.45,0,0,1-5.7,1.9,37.28,37.28,0,0,1-7,.6,28.22,28.22,0,0,1-10.9-2.1,26.07,26.07,0,0,1-14.4-14.5,27.23,27.23,0,0,1-2.1-10.7v-.2a27.23,27.23,0,0,1,2.1-10.7,28.52,28.52,0,0,1,5.7-8.7,25.3,25.3,0,0,1,8.7-5.9A29,29,0,0,1,655,89.8a35.1,35.1,0,0,1,6.8.6,28.35,28.35,0,0,1,5.6,1.7,22.84,22.84,0,0,1,4.6,2.6,41.17,41.17,0,0,1,4,3.3l-7.4,8.6a30.07,30.07,0,0,0-6.3-4.4,16,16,0,0,0-7.3-1.6,14.37,14.37,0,0,0-6.2,1.3,16,16,0,0,0-4.9,3.6,16.69,16.69,0,0,0-3.2,5.3,16.9,16.9,0,0,0-1.1,6.4v.2a20.16,20.16,0,0,0,1.1,6.5,16.69,16.69,0,0,0,3.2,5.3,14.85,14.85,0,0,0,4.9,3.6,14.51,14.51,0,0,0,6.3,1.3,16.52,16.52,0,0,0,7.7-1.7,28,28,0,0,0,6.3-4.6l7.4,7.5A40,40,0,0,1,672.2,139.3Z" transform="translate(-6.4 0.4)"/><path class="cls-3" d="M685.8,143.9V90.7h40.1v10.4H697.4v10.8h25.1v10.4H697.4v11.2h28.9v10.4Z" transform="translate(-6.4 0.4)"/><path class="cls-3" d="M769,143.9l-11.4-17h-9.2v17H736.7V90.7H761c6.3,0,11.3,1.5,14.8,4.6s5.3,7.4,5.3,12.9v.2a16.63,16.63,0,0,1-3.2,10.5,19.06,19.06,0,0,1-8.2,6l13,19Zm.2-35a6.91,6.91,0,0,0-2.4-5.7c-1.6-1.3-3.9-1.9-6.8-1.9H748.4v15.3h11.9q4.35,0,6.6-2.1a7.16,7.16,0,0,0,2.3-5.5Z" transform="translate(-6.4 0.4)"/></svg>