<?xml version="1.0" encoding="utf-8"?>
<!-- Generator: Adobe Illustrator 24.3.0, SVG Export Plug-In . SVG Version: 6.00 Build 0)  -->
<svg version="1.1" id="Calque_1" xmlns="http://www.w3.org/2000/svg" xmlns:xlink="http://www.w3.org/1999/xlink" x="0px" y="0px"
	 viewBox="0 0 561.9 539.7" style="enable-background:new 0 0 561.9 539.7;" xml:space="preserve">
<style type="text/css">
	.st0{fill:#FFFFFF;}
	.st1{fill:#143642;}
</style>
<g>
	
		<image style="overflow:visible;" width="597" height="597" xlink:href="D4BA3031A70A4B24.png"  transform="matrix(1 0 0 1 -18.8362 -27.3303)">
	</image>
	<g>
		<circle class="st0" cx="276.4" cy="271.4" r="253.1"/>
	</g>
</g>
<path class="st1" d="M373.4,334.8c8.3,8.3,8.3,21.8,0,30.2c-4.2,4.2-9.6,6.2-15.1,6.2c-5.5,0-10.9-2.1-15.1-6.2l-64.1-64.1
	l-64.1,64.1c-4.2,4.2-9.6,6.2-15.1,6.2c-5.5,0-10.9-2.1-15.1-6.2c-8.3-8.3-8.3-21.8,0-30.2l64.1-64.1l-64.1-64.1
	c-8.3-8.3-8.3-21.8,0-30.2c8.3-8.3,21.8-8.3,30.2,0l64.1,64.1l64.1-64.1c8.3-8.3,21.8-8.3,30.2,0c8.3,8.3,8.3,21.8,0,30.2
	l-64.1,64.1L373.4,334.8z"/>
</svg>
