<svg id="Capa_1" data-name="Capa 1" xmlns="http://www.w3.org/2000/svg" viewBox="0 0 477.84 477.9"><defs><style>.cls-1{fill:#ccc;}</style></defs><path class="cls-1" d="M187.64,102.9V17.1A17.09,17.09,0,0,0,170.56,0h0a17.61,17.61,0,0,0-12.7,5.6L4.34,176.3a17.12,17.12,0,0,0-.5,22.2l153.6,187.7a17,17,0,0,0,23.91,2.47l.09-.07a17.27,17.27,0,0,0,6.3-13.2v-85c134.8,4.4,219,62,256.9,175.8a17,17,0,0,0,16.2,11.7,24.52,24.52,0,0,0,2.7-.2,17,17,0,0,0,14.3-16.8C477.84,259.8,356.84,112.2,187.64,102.9Zm-17,153.1a17.09,17.09,0,0,0-17.1,17.08V327.7L39.44,188.3,153.54,61.5v57.9a17.09,17.09,0,0,0,17.08,17.1h0c134.1,0,234.5,92.8,264.1,234.5C379.74,294.6,291.34,256,170.64,256Z" transform="translate(0 0)"/><path class="cls-1" d="M434.74,371c-55-76.4-143.4-115-264.1-115a17.09,17.09,0,0,0-17.1,17.08V327.7L39.44,188.3,153.54,61.5v57.9a17.09,17.09,0,0,0,17.08,17.1h0C304.74,136.5,405.14,229.3,434.74,371Z" transform="translate(0 0)"/></svg>