<?xml version="1.0" encoding="utf-8"?>
<!-- Generator: Adobe Illustrator 24.3.0, SVG Export Plug-In . SVG Version: 6.00 Build 0)  -->
<svg version="1.1" id="Capa_1" xmlns="http://www.w3.org/2000/svg" xmlns:xlink="http://www.w3.org/1999/xlink" x="0px" y="0px"
	 viewBox="0 0 876.4 239.1" style="enable-background:new 0 0 876.4 239.1;" xml:space="preserve">
<style type="text/css">
	.st0{stroke:#FFC300;stroke-width:14;stroke-miterlimit:10;}
	.st1{fill:#FFC300;}
</style>
<path class="st0" d="M753.7,231.4H126.4C64.3,231.4,14,181.1,14,119l0,0C14,57,64.3,6.6,126.4,6.6h627.3C815.7,6.6,866,57,866,119
	l0,0C866,181.1,815.7,231.4,753.7,231.4z"/>
<circle class="st0" cx="123.3" cy="119" r="109.9"/>
<g>
	<path class="st1" d="M344.7,140.8V90.4h37.9v9.9h-27v10.2h23.8v9.9h-23.8v10.6H383v9.9H344.7z"/>
	<path class="st1" d="M428.3,140.8l-24.4-32v32H393V90.4h10.2l23.6,31v-31h10.9v50.4H428.3z"/>
	<path class="st1" d="M475.7,141.2h-9.8l-20.4-50.8h12.2l13.2,35.5l13.2-35.5h12L475.7,141.2z"/>
	<path class="st1" d="M553.2,125.7c-1.3,3.1-3.2,5.9-5.6,8.3c-2.4,2.4-5.2,4.2-8.5,5.6c-3.3,1.4-6.9,2.1-10.8,2.1
		c-3.9,0-7.5-0.7-10.7-2.1c-3.3-1.4-6.1-3.2-8.5-5.5c-2.4-2.3-4.2-5.1-5.5-8.2c-1.3-3.1-2-6.5-2-10.1v-0.1c0-3.6,0.7-7,2-10.1
		c1.3-3.1,3.2-5.9,5.6-8.3s5.2-4.2,8.5-5.6c3.3-1.4,6.9-2.1,10.8-2.1s7.5,0.7,10.7,2.1c3.3,1.4,6.1,3.2,8.5,5.5
		c2.4,2.3,4.2,5.1,5.5,8.2c1.3,3.1,2,6.5,2,10.1v0.1C555.2,119.2,554.5,122.6,553.2,125.7z M543.6,115.6c0-2.2-0.4-4.2-1.1-6.1
		c-0.7-1.9-1.8-3.6-3.2-5s-3-2.6-4.9-3.4c-1.9-0.8-3.9-1.3-6.1-1.3c-2.3,0-4.3,0.4-6.2,1.2c-1.8,0.8-3.4,1.9-4.8,3.4
		c-1.3,1.4-2.4,3.1-3.1,5c-0.7,1.9-1.1,3.9-1.1,6.1v0.1c0,2.2,0.4,4.2,1.1,6.1c0.7,1.9,1.8,3.6,3.2,5c1.4,1.4,3,2.6,4.8,3.4
		s3.9,1.3,6.2,1.3c2.2,0,4.2-0.4,6.1-1.2c1.9-0.8,3.5-1.9,4.8-3.4c1.3-1.4,2.4-3.1,3.1-5c0.7-1.9,1.1-3.9,1.1-6.1V115.6z"/>
	<path class="st1" d="M590.3,120.7v20.1h-11.1v-19.9l-19.4-30.5h13l12,20.2l12.2-20.2h12.6L590.3,120.7z"/>
	<path class="st1" d="M616.6,140.8V90.4h37.9v9.9h-27v10.2h23.8v9.9h-23.8v10.6h27.4v9.9H616.6z"/>
	<path class="st1" d="M695.4,140.8l-10.8-16.1h-8.7v16.1h-11.1V90.4h23c6,0,10.7,1.5,14,4.4c3.3,2.9,5,7,5,12.2v0.1
		c0,4.1-1,7.4-3,10c-2,2.6-4.6,4.5-7.8,5.7l12.3,18H695.4z M695.6,107.6c0-2.4-0.8-4.2-2.3-5.4c-1.5-1.2-3.7-1.8-6.4-1.8h-11v14.5
		h11.2c2.7,0,4.8-0.6,6.3-1.9c1.5-1.3,2.2-3,2.2-5.2V107.6z"/>
</g>
</svg>
