<svg id="Capa_1" data-name="Capa 1" xmlns="http://www.w3.org/2000/svg" viewBox="0 0 477.84 477.9"><path d="M187.7,102.9V17.1A17.09,17.09,0,0,0,170.6,0a17.58,17.58,0,0,0-12.7,5.6L4.4,176.3a17.12,17.12,0,0,0-.5,22.2L157.5,386.2a17,17,0,0,0,24,2.4,17.25,17.25,0,0,0,6.3-13.2v-85c134.8,4.4,219,62,256.9,175.8a17,17,0,0,0,16.2,11.7,24.52,24.52,0,0,0,2.7-.2,17,17,0,0,0,14.3-16.8C477.9,259.8,356.9,112.2,187.7,102.9ZM170.7,256a17.09,17.09,0,0,0-17.1,17.1v54.6L39.5,188.3,153.6,61.5v57.9a17.09,17.09,0,0,0,17.1,17.1c134.1,0,234.5,92.8,264.1,234.5C379.8,294.6,291.4,256,170.7,256Z" transform="translate(-0.06 0)"/><path d="M434.8,371c-55-76.4-143.4-115-264.1-115a17.09,17.09,0,0,0-17.1,17.1v54.6L39.5,188.3,153.6,61.5v57.9a17.09,17.09,0,0,0,17.1,17.1C304.8,136.5,405.2,229.3,434.8,371Z" transform="translate(-0.06 0)"/></svg>