<?xml version="1.0" encoding="utf-8"?>
<!-- Generator: Adobe Illustrator 24.3.0, SVG Export Plug-In . SVG Version: 6.00 Build 0)  -->
<svg version="1.1" id="Capa_1" xmlns="http://www.w3.org/2000/svg" xmlns:xlink="http://www.w3.org/1999/xlink" x="0px" y="0px"
	 viewBox="0 0 876.4 239.1" style="enable-background:new 0 0 876.4 239.1;" xml:space="preserve">
<style type="text/css">
	.st0{stroke:#FFC300;stroke-width:14;stroke-miterlimit:10;}
	.st1{fill:#FFC300;}
</style>
<path class="st0" d="M753.7,231.4H126.4C64.3,231.4,14,181.1,14,119v0C14,57,64.3,6.6,126.4,6.6h627.3C815.7,6.6,866,57,866,119v0
	C866,181.1,815.7,231.4,753.7,231.4z"/>
<circle class="st0" cx="123.3" cy="119" r="109.9"/>
<g>
	<path class="st1" d="M386.9,135.2c-1,2.1-2.3,3.8-4,5.2c-1.7,1.4-3.8,2.5-6.1,3.2c-2.4,0.7-5,1.1-7.9,1.1c-4.1,0-8-0.7-11.9-2.1
		c-3.9-1.4-7.4-3.5-10.6-6.4l6.9-8.3c2.4,2,4.9,3.5,7.5,4.7c2.6,1.2,5.4,1.7,8.4,1.7c2.4,0,4.3-0.4,5.7-1.3c1.3-0.9,2-2.1,2-3.7
		v-0.2c0-0.8-0.1-1.4-0.4-2c-0.3-0.6-0.8-1.1-1.6-1.6c-0.8-0.5-1.9-1-3.3-1.5c-1.4-0.5-3.2-1-5.4-1.6c-2.7-0.7-5.1-1.4-7.3-2.2
		c-2.2-0.8-4-1.8-5.6-3c-1.5-1.2-2.7-2.7-3.5-4.4c-0.8-1.8-1.3-4-1.3-6.6V106c0-2.4,0.5-4.6,1.4-6.6c0.9-1.9,2.2-3.6,3.8-5.1
		c1.6-1.4,3.6-2.5,5.9-3.3c2.3-0.8,4.8-1.1,7.5-1.1c3.9,0,7.5,0.6,10.8,1.7c3.3,1.2,6.3,2.8,9,5l-6.1,8.8c-2.4-1.6-4.7-2.9-7-3.8
		c-2.3-0.9-4.6-1.4-6.8-1.4s-4,0.4-5.1,1.3c-1.1,0.9-1.7,2-1.7,3.3v0.2c0,0.9,0.2,1.6,0.5,2.2c0.3,0.6,0.9,1.2,1.8,1.7
		c0.9,0.5,2,1,3.5,1.4c1.5,0.5,3.4,1,5.7,1.6c2.7,0.7,5.1,1.5,7.2,2.4c2.1,0.9,3.9,2,5.3,3.2c1.4,1.2,2.5,2.7,3.3,4.4
		c0.7,1.7,1.1,3.7,1.1,6v0.2C388.4,130.8,387.9,133.1,386.9,135.2z"/>
	<path class="st1" d="M442.4,131.3c-1.1,3-2.6,5.5-4.7,7.5c-2,2-4.5,3.5-7.4,4.5c-2.9,1-6.1,1.5-9.7,1.5c-7.1,0-12.8-2-16.9-5.9
		c-4.1-4-6.2-9.9-6.2-17.7V90.7h11.7v30.1c0,4.4,1,7.6,3,9.8c2,2.2,4.8,3.3,8.4,3.3s6.4-1.1,8.4-3.2c2-2.1,3-5.3,3-9.6V90.7h11.7v30
		C444.1,124.8,443.5,128.3,442.4,131.3z"/>
	<path class="st1" d="M456.5,143.9V90.7h11.7v53.2H456.5z"/>
	<path class="st1" d="M508.8,144.3h-10.3L477,90.7h12.9l13.9,37.5l13.9-37.5h12.6L508.8,144.3z"/>
	<path class="st1" d="M578.1,143.9l-4.9-11.9h-22.5l-4.9,11.9H534l22.8-53.6h10.8l22.8,53.6H578.1z M562,104.4l-7.1,17.3h14.1
		L562,104.4z"/>
	<path class="st1" d="M635.9,143.9l-25.8-33.8v33.8h-11.6V90.7h10.8l24.9,32.8V90.7h11.6v53.2H635.9z"/>
	<path class="st1" d="M682.7,101.5v42.4H671v-42.4h-16.2V90.7h44.1v10.8H682.7z"/>
</g>
</svg>
