<svg height="512" viewBox="0 0 64 64" width="512" xmlns="http://www.w3.org/2000/svg"><path d="m49 16a3 3 0 0 0 3-3v-6a3 3 0 0 0 -3.5-2.959 3.082 3.082 0 0 0 -2.5 3.066v2.893h-6v-5a3 3 0 0 0 -6 0v13h-3.571a3 3 0 0 0 -2.06-5.6l-.212.057-3.624-6.531a1 1 0 0 0 -1.133-.48l-9.659 2.588a1 1 0 0 0 -.741.983l.126 7.464-.212.057a3 3 0 1 0 1.553 5.795l7.533-2.018v.685a3 3 0 0 0 3 3h9v28h-7a5.006 5.006 0 0 0 -5 5v2a3 3 0 0 0 6 0v-1h6v1a3 3 0 0 0 6 0v-1h6v1a3 3 0 0 0 6 0v-2a5.006 5.006 0 0 0 -5-5h-7v-20h7a3 3 0 0 0 3-3v-4a3 3 0 0 0 -3.5-2.959 3.082 3.082 0 0 0 -2.5 3.066v.893h-4v-10zm-2-4a1 1 0 0 0 1-1v-3.893a1.086 1.086 0 0 1 .824-1.093 1 1 0 0 1 1.176.986v6a1 1 0 0 1 -1 1h-9v-2zm-31.987-2.236 8.151-2.184 3 5.407-11.047 2.961zm-1.064 10.636a1 1 0 0 1 -1.224-.708 1 1 0 0 1 .707-1.224l15.455-4.141a1.011 1.011 0 0 1 .26-.035 1 1 0 0 1 .257 1.967zm11.051 1.6a1 1 0 0 1 -1-1v-1.221l2.047-.548a.985.985 0 0 0 .953.769h7v2zm13 37a1 1 0 0 1 -2 0v-1h2zm12-2v2a1 1 0 0 1 -2 0v-1a2 2 0 0 0 -2-2h-18a2 2 0 0 0 -2 2v1a1 1 0 0 1 -2 0v-2a3 3 0 0 1 3-3h20a3 3 0 0 1 3 3zm-14-5v-47a1 1 0 0 1 2 0v47zm9-24a1 1 0 0 0 1-1v-1.893a1.086 1.086 0 0 1 .824-1.093 1 1 0 0 1 1.176.986v4a1 1 0 0 1 -1 1h-7v-2z"/></svg>