<?xml version="1.0" encoding="utf-8"?>
<!-- Generator: Adobe Illustrator 24.3.0, SVG Export Plug-In . SVG Version: 6.00 Build 0)  -->
<svg version="1.1" id="Calque_1" xmlns="http://www.w3.org/2000/svg" xmlns:xlink="http://www.w3.org/1999/xlink" x="0px" y="0px"
	 viewBox="0 0 512 512" style="enable-background:new 0 0 512 512;" xml:space="preserve">
<style type="text/css">
	.st0{fill:#FFC300;}
</style>
<g>
	<path class="st0" d="M480,144h-14L279.7,43.7c0.2-1.2,0.3-2.5,0.3-3.7c0-13.3-10.7-24-24-24s-24,10.7-24,24c0,1.2,0.1,2.5,0.3,3.7
		L46,144H32c-13.2,0-24,10.8-24,24v304c0,13.2,10.8,24,24,24h448c13.2,0,24-10.8,24-24V168C504,154.8,493.2,144,480,144z M256,32
		c4.4,0,8,3.6,8,8s-3.6,8-8,8s-8-3.6-8-8S251.6,32,256,32z M239.9,57.8c9.1,8.3,23.1,8.3,32.2,0L432.3,144H79.7L239.9,57.8z
		 M476.7,160l-16,16H51.3l-16-16H476.7z M211.5,391.7L312,261.1L455.9,448H252.1L211.5,391.7z M232.4,448H56v-0.5l88-121.9
		L232.4,448z M318.3,243.1c-2.7-3.5-7.7-4.2-11.2-1.5c-0.5,0.4-1,0.9-1.5,1.5l-104,135.1l-51.2-70.9c-2.6-3.6-7.6-4.4-11.2-1.8
		c-0.7,0.5-1.3,1.1-1.8,1.8L56,420.2V192h400v230L318.3,243.1z M24,468.7V171.3l16,16v265.4L24,468.7z M35.3,480l16-16h409.4l16,16
		H35.3z M488,468.7l-16-16V187.3l16-16V468.7z"/>
	<circle cx="256" cy="40" r="8"/>
	<polygon points="40,187.3 40,452.7 24,468.7 24,171.3 	"/>
	<polygon points="476.7,480 35.3,480 51.3,464 460.7,464 	"/>
	<polygon points="488,171.3 488,468.7 472,452.7 472,187.3 	"/>
	<polygon points="455.9,448 252.1,448 211.5,391.7 312,261.1 	"/>
	<polygon points="232.4,448 56,448 56,447.5 144,325.6 	"/>
	<path d="M56,192v228.2l81.4-112.9c0.5-0.7,1.1-1.3,1.8-1.8c3.6-2.6,8.6-1.8,11.2,1.8l51.2,70.9l104-135.1c0.5-0.6,1-1.1,1.5-1.5
		c3.5-2.7,8.5-2,11.2,1.5L456,422V192H56z M144,288c-22.1,0-40-17.9-40-40s17.9-40,40-40s40,17.9,40,40S166.1,288,144,288z"/>
	<polygon points="476.7,160 460.7,176 51.3,176 35.3,160 	"/>
	<path d="M432.3,144H79.7l160.2-86.2c9.1,8.3,23.1,8.3,32.2,0L432.3,144z"/>
	<path class="st0" d="M144,208c-22.1,0-40,17.9-40,40s17.9,40,40,40s40-17.9,40-40S166.1,208,144,208z M144,272
		c-13.3,0-24-10.7-24-24c0-13.2,10.8-24,24-24c13.3,0,24,10.7,24,24C168,261.3,157.3,272,144,272z"/>
	<circle cx="144" cy="248" r="24"/>
</g>
</svg>
