<svg id="Calque_1" data-name="Calque 1" xmlns="http://www.w3.org/2000/svg" viewBox="0 0 330.86 480.3"><defs><style>.cls-1{fill:#ebebeb;}</style></defs><path d="M392,128a24.07,24.07,0,0,0,24-24V56a24,24,0,0,0-24-24,26,26,0,0,0-4,.3,24.6,24.6,0,0,0-20,24.5V80H320V40a24,24,0,0,0-48,0V144H243.4a24,24,0,0,0-16.5-44.8l-1.7.5-29-52.2a8,8,0,0,0-9.1-3.8L109.8,64.4a8,8,0,0,0-5.9,7.9l1,59.7-1.7.5a24,24,0,0,0,11.9,46.6,1.42,1.42,0,0,0,.6-.2L176,162.8v5.5a24.07,24.07,0,0,0,24,24h72v224H216a40,40,0,0,0-40,40v16a24,24,0,0,0,48,0v-8h48v8a24,24,0,0,0,48,0v-8h48v8a24,24,0,0,0,48,0v-16a40,40,0,0,0-40-40H320V256h56a24.07,24.07,0,0,0,24-24V200a24,24,0,0,0-24-24,26,26,0,0,0-4,.3,24.6,24.6,0,0,0-20,24.5v7.1H320v-80ZM320,96h56a8,8,0,0,0,8-8V56.9a8.71,8.71,0,0,1,6.6-8.8,8,8,0,0,1,9.3,6.5A6.15,6.15,0,0,1,400,56v48a8,8,0,0,1-8,8H320ZM288,40a8,8,0,0,1,16,0V416H288ZM185.3,60.6l24,43.3-88.4,23.7-.8-49.5ZM111.6,163.2a8,8,0,0,1-4.1-15.5l123.6-33.1a7.61,7.61,0,0,1,2.1-.3,8,8,0,0,1,2,15.8ZM200,176a8,8,0,0,1-8-8v-9.8l16.4-4.4A8,8,0,0,0,216,160h56v16ZM304,472a8,8,0,0,1-16,0v-8h16Zm72-40a24.07,24.07,0,0,1,24,24v16a8,8,0,0,1-16,0v-8a16,16,0,0,0-16-16H224a16,16,0,0,0-16,16v8a8,8,0,0,1-16,0V456a24.07,24.07,0,0,1,24-24ZM360,224a8,8,0,0,0,8-8V200.9a8.71,8.71,0,0,1,6.6-8.8,8,8,0,0,1,9.3,6.5,1.93,1.93,0,0,1,.06.36,8.7,8.7,0,0,1,0,1v32a8,8,0,0,1-8,8H320V224Z" transform="translate(-85.14 -16)"/><path class="cls-1" d="M304,40V416H288V40a8,8,0,0,1,16,0Z" transform="translate(-85.14 -16)"/><path class="cls-1" d="M384,200v32a8,8,0,0,1-8,8H320V224h40a8,8,0,0,0,8-8V200.9a8.71,8.71,0,0,1,6.6-8.8,8,8,0,0,1,9.3,6.5l.06.36A8.7,8.7,0,0,1,384,200Z" transform="translate(-85.14 -16)"/><path class="cls-1" d="M400,56v48a8,8,0,0,1-8,8H320V96h56a8,8,0,0,0,8-8V56.9a8.71,8.71,0,0,1,6.6-8.8,8,8,0,0,1,9.3,6.5A6.15,6.15,0,0,1,400,56Z" transform="translate(-85.14 -16)"/><path class="cls-1" d="M241.2,122.3a8.1,8.1,0,0,1-6,7.8L111.6,163.2a8,8,0,0,1-4.1-15.5l123.6-33.1a7.61,7.61,0,0,1,2.1-.3A8,8,0,0,1,241.2,122.3Z" transform="translate(-85.14 -16)"/><polygon class="cls-1" points="124.16 87.9 35.76 111.6 34.96 62.1 100.16 44.6 124.16 87.9"/><path class="cls-1" d="M304,464v8a8,8,0,0,1-16,0v-8Z" transform="translate(-85.14 -16)"/><path class="cls-1" d="M400,456v16a8,8,0,0,1-16,0v-8a16,16,0,0,0-16-16H224a16,16,0,0,0-16,16v8a8,8,0,0,1-16,0V456a24.07,24.07,0,0,1,24-24H376A24.07,24.07,0,0,1,400,456Z" transform="translate(-85.14 -16)"/><path class="cls-1" d="M384,200v32a8,8,0,0,1-8,8H320V224h40a8,8,0,0,0,8-8V200.9a8.71,8.71,0,0,1,6.6-8.8,8,8,0,0,1,9.3,6.5,1.93,1.93,0,0,1,.06.36A8.7,8.7,0,0,1,384,200Z" transform="translate(-85.14 -16)"/><path class="cls-1" d="M272,160v16H200a8,8,0,0,1-8-8v-9.8l16.4-4.4A8,8,0,0,0,216,160Z" transform="translate(-85.14 -16)"/><path class="cls-1" d="M400,56v48a8,8,0,0,1-8,8H320V96h56a8,8,0,0,0,8-8V56.9a8.71,8.71,0,0,1,6.6-8.8,8,8,0,0,1,9.3,6.5A6.15,6.15,0,0,1,400,56Z" transform="translate(-85.14 -16)"/><path class="cls-1" d="M304,40V416H288V40a8,8,0,0,1,16,0Z" transform="translate(-85.14 -16)"/><path class="cls-1" d="M241.2,122.3a8.1,8.1,0,0,1-6,7.8L111.6,163.2a8,8,0,0,1-4.1-15.5l123.6-33.1a7.61,7.61,0,0,1,2.1-.3A8,8,0,0,1,241.2,122.3Z" transform="translate(-85.14 -16)"/><polygon class="cls-1" points="124.16 87.9 35.76 111.6 34.96 62.1 100.16 44.6 124.16 87.9"/></svg>