<svg id="OutLine" xmlns="http://www.w3.org/2000/svg" viewBox="0 0 495.8 368.1"><defs><style>.cls-1{fill:#ebebeb;}</style></defs><path d="M463.7,362.3C425.4,324.1,395.2,320,384,320a8.68,8.68,0,0,0-2.8.5l-16.1,6c-10.3-4.3-20-6.5-29.1-6.5a8.68,8.68,0,0,0-2.8.5l-21.1,7.9L118.3,75.1A7.91,7.91,0,0,0,112,72c-11.7,0-22.8,5.5-32.1,15.6L70.4,75.1A7.91,7.91,0,0,0,64.1,72c-31.4,0-56,38.7-56,88,0,5.4,14.4,245.2,16,272.5a8.07,8.07,0,0,0,8,7.5h24a8,8,0,0,0,8-7.7l5.1-121.9C74.7,373,80,431.9,80,432.7a8,8,0,0,0,8,7.3h24a8,8,0,0,0,8-8V293.3c29.8,41.6,64.5,117.3,64.8,118.1.1.2.2.5.3.7,10.9,18.8,28.8,28,54.8,28h256a8,8,0,0,0,8-8C504,410.4,482.3,381,463.7,362.3ZM90.44,99.73l.74-.85a36.48,36.48,0,0,1,11.07-8.59l.17-.08.86-.38.17-.07a24,24,0,0,1,4.85-1.46l188.1,246-21.7,8.1L89.7,100.6C89.94,100.31,90.18,100,90.44,99.73ZM104,424H95.3c-2.2-24.3-9.4-104.4-15.2-169.8l1.29.78c.43.26.87.54,1.32.83l1,.63a1.28,1.28,0,0,1,.21.14l1.21.82,1.23.86c.34.22.68.47,1,.73a126.68,126.68,0,0,1,15.47,13.59c.4.4.79.81,1.18,1.22Zm136-.2v.2c-19.9,0-32.9-6.2-40.8-19.6-3.2-7.1-41.4-90-73-129.4C92.8,233.2,66.8,232,64,232a8,8,0,0,0-8,7.7L48.3,424H39.5C34,330.9,24.1,165.7,24,160c0-36.8,16.3-68.2,36.3-71.7L265.7,356.8a7.93,7.93,0,0,0,9.2,2.6l62.6-23.5c7.3.2,15.4,2.4,24.1,6.4,18.2,8.4,38,24.3,54.3,43.7,11.4,13.6,19.7,27.5,22.8,37.8Zm215.1.2c-2.8-13.6-12.3-30.6-27-48.1A196.65,196.65,0,0,0,384,336.6l1.5-.5c19,.7,43.9,14.6,67,37.6,17,17,30.1,36.6,34.3,50.3Z" transform="translate(-8.1 -72)"/><path class="cls-1" d="M104,273.8V424H95.3c-2.2-24.3-9.4-104.4-15.2-169.8l1.29.78c.44.26.88.54,1.32.83l1,.63a1.28,1.28,0,0,1,.21.14l1.21.82,1.23.86c.34.22.68.47,1,.73a126.68,126.68,0,0,1,15.47,13.59C103.22,273,103.61,273.39,104,273.8Z" transform="translate(-8.1 -72)"/><path d="M102.82,272.58A126.68,126.68,0,0,0,87.35,259,118.75,118.75,0,0,1,102.82,272.58Z" transform="translate(-8.1 -72)"/><path class="cls-1" d="M486.6,424H455.1c-2.8-13.6-12.3-30.6-27-48.1A196.65,196.65,0,0,0,384,336.6l1.5-.5c19,.7,43.9,14.6,67,37.6C469.3,390.7,482.5,410.3,486.6,424Z" transform="translate(-8.1 -72)"/><path class="cls-1" d="M296.4,334.3l-21.7,8.1L89.7,100.6c.24-.29.48-.58.74-.87l.74-.85a36.48,36.48,0,0,1,11.07-8.59l.17-.08c.29-.14.58-.26.86-.38l.17-.07a23.21,23.21,0,0,1,4.75-1.36Z" transform="translate(-8.1 -72)"/><path d="M102.25,90.29a36.48,36.48,0,0,0-11.07,8.59A34.49,34.49,0,0,1,102.25,90.29Z" transform="translate(-8.1 -72)"/><path class="cls-1" d="M438.54,423.8H240v.2c-19.9,0-32.9-6.2-40.8-19.6-3.2-7.1-41.4-90-73-129.4C92.8,233.2,66.8,232,64,232a8,8,0,0,0-8,7.7L48.3,424H39.5C34,330.9,24.1,165.7,24,160c0-36.8,16.3-68.2,36.3-71.7L265.7,356.8a7.93,7.93,0,0,0,9.2,2.6l62.6-23.5c7.3.2,15.4,2.4,24.1,6.4,18.2,8.4,38,24.3,54.3,43.7C427.13,399.71,435.39,413.42,438.54,423.8Z" transform="translate(-8.1 -72)"/><path d="M438.6,424H240v-.2H438.54Z" transform="translate(-8.1 -72)"/></svg>