<?xml version="1.0" encoding="utf-8"?>
<!-- Generator: Adobe Illustrator 24.3.0, SVG Export Plug-In . SVG Version: 6.00 Build 0)  -->
<svg version="1.1" id="Calque_1" xmlns="http://www.w3.org/2000/svg" xmlns:xlink="http://www.w3.org/1999/xlink" x="0px" y="0px"
	 viewBox="0 0 1024 768" style="enable-background:new 0 0 1024 768;" xml:space="preserve">
<style type="text/css">
	.st0{fill-rule:evenodd;clip-rule:evenodd;}
	.st1{fill-rule:evenodd;clip-rule:evenodd;fill:#FFC300;}
	.st2{opacity:0.2;}
</style>
<desc>Created with Sketch.</desc>
<g id="Character_x2F_meditating">
	<path id="Accent" class="st0" d="M350,354.1c3.1,31.7,6.3,63.4,9.4,95.1c17.1-9.8,34.2-19.5,51.3-29.3v72.2v19c0,1.7-1,7.4,0,8.9
		c0.8,1.2,7.1,1.3,8.6,1.5c9.7,1.4,19.4,2.6,29.1,3.6c25.6,2.8,52.9,6.9,78.6,3.6c22.3-2.8,43.9-10.8,64.3-20
		c7.2-3.2,14.2-6.7,21.1-10.4c1.5-0.8,6.8-2.6,7.6-4.2c0.7-1.3-0.9-5.9-1.1-7.3c-0.9-5.8-1.7-11.6-2.6-17.4l-12-80.9l22.7,22.7
		c1.8,1.8,5.2,6.8,7.6,7.6c1.8,0.6,6.3-1.2,8.1-1.6c12.9-2.5,25.7-5,38.6-7.4c3-0.6,9.8-0.6,12.3-2.4c1.4-1,1.4-3,1.9-4.8
		c3.1-12.3,6.3-24.6,9.4-36.9c0.6-2.2,3.7-9.2,2.9-11.4c-0.3-0.8-1.7-1.3-2.5-1.9c-19.4-11.9-38.8-23.7-58.3-35.6
		c-10.6-6.5-21.3-13-31.9-19.5c-4.5-2.7-9.9-7.6-15-9.2c-3.1-0.9-7.7-0.2-10.9-0.3c-6.6-0.2-13.2-0.4-19.8-0.6c-1,0-4.6-0.8-5.5-0.2
		c-0.7,0.5-0.4,1.2-0.7,2.4c-0.6,2.9-0.6,6.1-0.9,9.1c-0.2,2.4,0.2,6.8-0.9,9c-0.7,1.4,0.2,0.8-0.7,1.5c-1.1,0.8-4.7,0.5-6,0.7
		c-6.5,0.8-12.9,1.5-19.4,2.3c-7.7,0.9-15.4,2.6-23.2,1.8c-11.7-1.2-24.3-1.1-35.8-3.6c-3-0.6-4.1-2.3-6.4-4.6
		c-4.5-4.5-8.9-9-13.5-13.5c-2.2-2.2-1.3-1.8-3.6-1c-2.9,1-5.8,3.5-8.4,5.1c-10,6.1-20,12.2-29.9,18.2l-60.9,37.1
		C352.5,352.6,351.3,353.3,350,354.1"/>
	<g id="Ink" transform="translate(80.999793, 52.973204)">
		<path id="ink-shape" class="st1" d="M851.6,305.1c-12.6,47.7-37.8,99.7-88.7,114.8c-12.4,3.7-24.4,6.5-37.3,5.1
			c-1.2-0.1-2.2,0-3.4,0.1c-2.1,0-0.3,0.8-2.6,0.1c-1.8-0.6-3.5-2-5.4-2.6c-5-1.7-10.4-2-15.6-3.3c-12.6-3.3-25.6-7.3-37.8-11.9
			c-5.8-2.1-11-5.1-16.4-7.9c-5.5-2.9-11.3-4.7-16.9-7.4c-4.4-2.1-11.9-4.8-15-8.8c-3.3-4.2,1.3-13.2,2.6-17.6
			c4.4-15.2,9.7-30.2,13-45.7c11.5,13.3,27.5,21.6,44,26.9c9,2.9,18.2,5,27.5,6.3c8.5,1.2,17.6,2.6,26.1,0.9
			c6.4-1.3,14.4-4.2,19-9.1c1.6-1.7,3.6-4.9,2.7-7.5c-1.2-3.2-4.5-1.7-6.4-4.1c-1.6-2.1-1.3-7-1.9-9.5c-0.9-4.5-2.1-8.9-3.6-13.2
			c-2.9-8.4-6.6-16.9-7.4-25.8c-0.8-7.8,1-15.1,4.9-21.9c1.8-3.2,6.4-11.9,10.9-11.5c4.9,0.4-1.7,21.2-1.9,25.4
			c-0.9,16.8,1.4,34.8,10,49.5c3.3,5.6,8.1,12.2,15.1,12.9c7.5,0.7,13.5-5.1,17.1-11.1c8.7-14.5,4.3-34.4-0.1-49.7
			c-5.4-18.7-19.5-31.5-28.4-48.3c13.3,1.3,20.4,9.8,27.2,20.5c7.5,11.8,13.4,26,16.2,39.7c1.5,6.9,0.5,13.9,0.5,20.9
			c0,2.3,0,10.9,3.8,10.6c4.1-0.4,5.4-10,6-13c1.4-6.8,2.8-13.5,4-20.4c2.1-12,3-24.4,5.5-36.3c0.4-2,1.3-7.6,4.3-6.1
			c2.3,1.2,2,9.8,2,11.9c0.2,5,0.5,9.9,0.5,14.9c0.1,7.4-1.4,15-0.7,22.3c0.5,4.8,3,10.1,6.2,3.6c3.2-6.4,3.8-14.4,5.6-21.3
			c1.9-7.2,3.8-14.6,7.7-21c1.1-1.8,2.3-4.6,4.7-3.8c1.8,0.6,3.1,4.8,3.6,6.2c2.5,6.6,2,14,1.9,21
			C854.7,288.5,853.8,296.8,851.6,305.1L851.6,305.1z M606.8,317.5c-0.7-0.2-3.5-0.5-4.2-0.5c-0.8-0.1,0.1-1.6-1.9-1.2
			c0.4,1,1.1,1.6,2.1,1.9c-3,1-5.2-1.5-7.3-1.8c-2-0.3-2.1,0-4,2.1c-2.1-2.6-1.7-1-3.4-1c-0.6,0-0.7,1-1.7,0.8
			c-0.9-0.1-1-1.5-1.5-1.6c-2.9-0.9-5.8,3.5-9.1-0.3c-0.8,4-9.9-1-13.3-0.3c-3.7,0.7-2.1,2-5-0.2c-2.8-2.1-2-0.7-5.3,1
			c0.1,0-1.8,1.3-1.7,1.3c-2.3-0.3-2.1-2.6-5-2.5c-3,0.1-4.3,2.5-7.1-0.4c-0.6,2.2-0.7,1.2-2.2,1.8c-0.8,0.2-1.5,0-2.1-0.6
			c-0.2,0.6-0.6,1-1.2,1.1c-1.6,0.1-4.5,0.4-5.9-0.4c-2.1-1.1-0.4-1.6-1.9-2.8c-0.7,3.5-2.1,2.7-5.1,3.1c-2.3,0.2-2.8-0.5-5-0.8
			c-2.2-0.3-5,0.5-7.1,0.9c-0.9,0.1-2.1,0.8-2.9,0.5c-0.8-0.2-1.2-0.8-1.6-1c-0.6-0.2-0.5-0.7-1.5-1c-0.7-0.2-1.9,0.5-2.6,0.6
			c-5,0.8-9.7,0.8-14.4-1.1c2.3,4.1-5.4,1.9-6.8,0.2c-1.7,2.7-3.8,0.8-7.3,1c-3.4,0.2-8.4,1.2-9.8-3c-0.3,0.9-2.2,3.3-2.9,3.7
			c-2.2,1.1-2.5-0.5-4.5-1.2c-2.8-0.9-2.2,0.8-3.9,1.1c-2.9,0.6-4.5-1.5-7.1-2.6c-0.1,1.7-0.2,2.7-1.6,3.8c-1.3-4.7-5.9,0.4-5.1-5.9
			c-1.8,1.1-4.3,2-4.8,4.4c3-0.8,0.3,1.1,0.2,1.2c-0.4,0.2-1.7-1.6-2-1.9c-0.1,0.9-0.2,1.7-0.2,2.6c-1.2-0.6-2.3-1.6-3.2-2.2
			c-0.9-0.5,0.4-1.5-1.1-1.5c-0.8,0-1.6,1.6-2.4,1.8c-1.2,0.2-0.6-1.5-1.2-1.5c-0.8,0.1-2.1,1.2-2.7,1.2c-1.9-0.1-0.6-1-2.1-1.4
			c-2.7-0.7-2.5,1-4.4,1.6c-4.4,1.4-3.9-5.2-8.4-0.8c-1.1,1.1-1.7,2.7-3.2,2.6c-3-0.2-2-3.8-1.3-5.5c0.6,0.3-11,6.3-10.9,6.1
			c0.1-1.4,1.9-2.5,0.3-3.8c-1.3,2.9-2.7,2.9-5.8,3.5c-1.5,0.3-1.8,0.6-3.4,0c-1-0.4-1.7-2-2.7-2.1c0.1,0-1.7,1.4-2,1.6
			c-1.7,0.8-2.7-0.1-4.4,0.2c-1.4,0.3-1.9,1.5-3.3,1.1c-1.9-0.4-0.8-2.6-3.3-2c-0.9,0.2-1.4,1.9-2.8,2.2c-2.1,0.5-4.8-0.5-7,0.1
			c-1.8,0.4-3.1,0.6-4.7,0.7c-1.3,0.1-0.7-0.9-3.1,0.2l-1-2.5c-1.2,1.1-2.3,2.1-3.5,3.2c-0.2-0.9-0.4-1.9-0.4-2.9
			c-1.7,1.7-3.9,2-6.3,2.2c-2.5,0.2-4.4,0.7-6.9,1.2c-0.8,0.1-2.8,0.4-3.4,0.1c0.1,0-1.2-0.5-0.8-0.4c-0.2-0.3-0.3-0.7-0.5-1
			c-0.2-1-0.9-1-2.1-0.1c-0.6-0.1-1.8-0.9-2.4-0.7c-1.6,0.5-1.4,1.8-3,1.6c-1-0.1-1.6-1.6-2.6-1.7c-1.6-0.2-3.1,1.7-4.5,2.1
			c4.5-1.2-5.8-0.3-2.6-0.2c-2.1-0.1-4.3-0.2-6.2,0.8c-1.1-0.7,0.2-2.2-0.9-2.8c-1-0.6-1.1,0.9-1.2,0.9c0.6-0.2,0.3,1.1-0.3,1.3
			c-1.9,0.7-3.5-1.1-3.6-2.8c-1.6,2.5-2.1,1.5-4.5,1.6c-2.4,0.2-4.4,1.4-6.8,1.4c-4.7,0-7.9-1.7-9.5-5.9c5,0.6,10.1-2.6,15-1.9
			c1.6,0.3,2.6,1.5,4,1.2c1.7-0.3,3-2.2,5.2-2.4c4.9-0.5,9.8,0,14.8-0.8c5.9-0.9,12.1-1.4,18.1-1c4.6,0.3,8.4-1.4,13.1-1.8
			c6.1-0.4,12.2-0.5,18.3-0.8c6.2-0.3,13-1.3,19.2-1c1.9,0.1,3.6,0.3,5.5,0.2c0.8,0,1.6-0.6,2.4-0.5c1.1,0.1,1.6,1.2,2.8,1.2
			c2-0.1,4.1-1.7,6.4-1.7c3.8-0.1,7.7-0.1,11.5-0.3c3.4-0.2,7-1,10.4-0.9c2.4,0,3,2.1,4.4,2.3c2.5,0.4,15.1-6.8,16.2-0.4
			c6.6-4.5,15.4-0.7,22.7-1.5c9.4-1.1,19-0.1,28.4-0.5c9.6-0.4,19.5,0,29.1,0.9c4,0.4,7.8,0.7,11.8,0.5c1.8-0.1,3.8-0.6,5.6-0.1
			c0.4,0.1,3.7,2.4,3.3,2.5c1.8-1.6,0.6-1.9,3.7-1.9c2.4-0.1,4.7,0.5,7.2,0.6c4.4,0.3,8.7-0.3,13.1-0.2c3.6,0.1,7.2,0.6,10.8,0.7
			c3.9,0,8.6,0.1,11.4,3.3c-0.3-1-0.6-2-0.9-3c4.4,0.3,8.7,1.9,13.2,1.2c-1.1,1.1-2.3,2-2.7,3.5c2.4-0.3,4-2,6.5-2
			c2.1,0,2.6,1,4.8-0.3c0.3,1.7,0.5,3.4,0.8,5c3.1-0.7,1.1-3,1.3-5.1c2.5,0.8,4.6-0.1,3.7,3.5C612.9,316.9,609.4,318.3,606.8,317.5
			L606.8,317.5z M602.4,348.5c-1.1,3-10.4,1.3-12.6,1c-2.9-0.4-6.1-1.1-8.7-1.4c-0.3-0.4-0.7-0.8-1.1-1.1c-0.3,0.5-0.7,0.8-1.3,1
			c-1.2,0.3-1.2,1.5-2.8,1.2c-0.1,1.8,1.2,0.8,2.2,1.5c-2.5,1.7-1.3-0.3-2.7-0.2c-0.3-0.5-0.8-0.7-1.4-0.6c-0.8,0.2-1.5,0.5-2.2,1
			c-0.6,0.7-1.1,0.7-1.6,0.1c-0.4-0.4-0.9-0.7-1.5-0.8c-2.4,0.4-3.1,1.5-5.9,1.3c-3.9-0.3-8.1,0.8-12,0.2c-2.4-0.3-6.4-4.1-7.5-0.4
			c-1.7-2.7-4.3-4.6-5.9-7.3c7.4-0.4,14.7-0.9,22.1-1.2c6.5-0.2,13.5,0.5,19.5,0.2c5.6-0.3,11.6-0.9,17.4-1.4
			C602.6,341,604.6,342.4,602.4,348.5L602.4,348.5z M410.4,349c2.7,0.7,5.2-0.9,7.8-0.4c0.9,0.2,2.6,1.7,3,1.8
			c0.7,0.1,2.8-1.5,3.7-1.7c5.7-1.3,12.6-1.2,18.3-0.4c3,0.4,3.5-1,6.1-1.6c2.7-0.7,6.6-0.2,9.5-0.4c6.8-0.5,13.6-0.1,20.3-0.6
			c6.9-0.5,13.8-0.8,20.7-1.1c4.7-0.2,16-2.9,19.9,0.6c3.2,2.9-0.9,7.9-4.1,9c-2.4,0.9-3.6-0.9-5.3-0.8c-2,0.2-1.3,2.6-3.1,0.4
			c-1.1,2.2-8.2,1.3-10.2,1.4c-4.4,0.3-8.2,1.2-11.2-2.9c0.2,1.2,0.4,2.4,0.6,3.6c-4-2.1-8.3-1.4-11.7-0.7c-1.7,0.4-7,2.9-8.8,1.8
			c-1.3-0.8,1-2-1.2-2.7c-1.1-0.3-3.1,1.5-4.5,1.4c-3.8-0.3-2.7-2.8-6.5,0.4c-1.3-1.1-1.7-3-1.5-4.6c-2.7,2.3-2.5,6.2-7.4,5.5
			c-1.8-0.3-2.2-2.1-3.1-2.5c-2-0.7-2.2,0.6-4,1.6c-0.7,0.4-1.5,1-2.2,1.1c-1.6,0.2-1.8-0.6-2.1-0.5c-1.1,0.1-2.4,0.7-3.7,0.3
			c-1.1-0.3-1.5-2.3-3.5-1.9c-1.9,0.4-1.9,1.7-1.6,3.7c-1.9-0.2-3-1.2-4.4-2.4c-1.4,3.3-4.4,0.6-6.1,3.4c-2.2-2.6-3.5-1.9-6.2-4.4
			c0.1,1,0.3,2.1,0.4,3.1c-2.1-0.4-3-1.9-4.8,0.1c-1.7-3.2-7,1.4-9.7-1.7c-1.2,3.9-9.1,3-12.5,3.1c-3,0.1-5.2-0.2-8.1,0.5
			c-2.6,0.6-6.1,1.2-8.5,1c-1.6-0.2-3.3-0.5-5.3-0.3c-2.8,0.3-5.3,1.8-8.2,1.1c-4.4-1-7.1-6.8-2.2-9.4c3.4-1.7,9.4-1.1,13.1-1.4
			c6.1-0.5,13-1.7,19.2-1.1c4.8,0.4,9.2-0.7,14-1.2c3.7-0.4,9.7-1,12.1,2.6C408.5,350.6,408.4,348.4,410.4,349L410.4,349z
			 M343.2,398.9c-0.7-3.3,27.4-5.1,30.2-5.3c5.8-0.5,11.7-0.8,17.6-0.9c4.8-0.1,9.3,0.8,14.1,0.1c4.5-0.7,9.9-2.1,13.8,1.1
			c0.6-4.4,17.5-2.2,20.7-2.2c14,0.1,27.4,0.1,40.9-0.8c7.7-0.5,15.9-1.2,23.7-0.8c3.5,0.2,6.3,1.1,9.8,0.3c2.3-0.5,4.7-1.6,6.9-0.1
			c2.5,1.8,3.6,8,1.9,10.5c-1.3,1.9-2.4,1.7-4.4,1.3c-3.1-0.5-5.4-1.2-8.6,0.1c0.5-0.2-2.1,0.4-1.9,0.4c-3.6,0.3-8.5,2.8-11.6-0.1
			c1.2,0.2,3.1-2,1.5-2.2c-1.2-0.1-1.9,1.1-2.8,1.5c-3.1,1.4-4.8,1-6.6-2c-3.8,3.3-4.2,2.4-5.9-1.7c-1.3,1-1.6,3.3-2.6,4.1
			c-0.1,0.1,0.5,1.5-0.3,1.5c-0.7-0.1-0.9-1.2-1.4-1.2c-0.3-0.1-0.5-1-0.8-1.1c-0.3-0.1-0.7,0.6-1.1,0.5c-1,0-4,2.2-2.9-0.9
			c-1.6,2-2.3,0.7-2.8-1.1c-1.8,1.4-3.6,2.8-5.5,4.1c-0.8-2.4-2.3-1.7-4.1-0.9c0.6-1.6,0.2-3.2-1.2-2c-0.8,0.7-1.3,2.7-2.2,3.6
			c-3.3-3.4-4.5-2.4-9.1-2c-1.8,0.2-3.9,0.5-5.5-0.6c-1.4-0.9-2.2-4.3-4.5-1.6c0.5-0.6-0.3,4.1-0.4,4.8c-1-0.7-1.9-1.6-2.6-2.6
			c-1.4,2.7-4.9,0.3-7.8,0.8c-4.6,0.9-9.3,2.3-13.4-1.1c-0.3,1.1-3.6,2.5-3.6,2.5c0.2-2,1.4-1.3-1.1-1.6c-0.5-0.1-1,0.8-1.4,0.9
			c-1.5,0.3-3.3,0-4.8,0c-6.3-0.2-12,1.2-18.2,1.7c-2.1,0.2-4.6,0.5-6.5-0.3c-2-0.8-2-1.7-4-1.2c0.6-0.2-1.3,1.9-1.2,1.8
			c-0.3,0.2-1.4-0.8-1.8-0.7c-0.1,0.4-0.2,0.9-0.4,1.3c-0.5-0.1-1-0.1-1.5-0.2c-1.3,0.2-2.6-1.2-3.8-1.2c0.2,0-3.4,1.4-3.3,1.5
			c-2.6-1.3-1.8-0.9-5.1-0.1c-3.1,0.7-6.1,0.6-9.2,1C338.9,409.1,344.4,404.5,343.2,398.9L343.2,398.9z M335.2,444.5
			c-1.7-2.4,2.9-3.3,4.3-3.5c2.4-0.4,5.6,0.3,7.2,0c2.4-0.6,4.8-2,7.5-2.3c3.5-0.5,6.9-0.5,10.4-0.8c1.2-0.1,2.6-0.5,3.7-0.4
			c1.7,0.1,2.4,1,3.7,1c2.3,0,5.2-1.4,7.5-1.7c3-0.3,6.1-0.5,9.1-0.7c6.4-0.3,12.7-0.2,19.2-0.2c2.9,0,10.7-3,12.2,0.4
			c2-2.6,7.2-2.2,10.1-2.3c5.1-0.1,10.1-0.6,15.2-0.9c4.4-0.2,9.2,0.7,13.5,0.1c2.4-0.4,3.1-1.1,5.8-0.8c2,0.3,5-0.8,6.7-0.3
			c-0.1,0,2.1,1.4,1.4,1.4c0.8,0,0.7,0.5,1.6,0.2c1.1-0.3,0.6-1.7,2.9-2.2c3.6-0.8,8.3,0.1,12-0.1c3.6-0.2,7.2-0.3,10.8-0.3
			c1.7,0,3.7-0.4,5.3-0.1c0.8,0.2,2.5,1.2,3.1,1.1c1.9-0.3,2.9-1.6,5.4-1.5c2.9,0.1,5.5,0.1,8.4-0.2c2.8-0.2,3.3-0.6,4.6,1.7
			c1.4,2.3,1.8,5.3-0.8,6.9c1.6-0.1,3.7,2.1,1.7,3.3c-1.2,0.8-3.6-0.9-5-0.8c-1.8,0.2-3.2,1.1-5.1,1.1c-2,0.1-4.1,0.6-6.1,0.6
			c-2.1,0-3.6-0.9-5.6-0.5c-1.7,0.3-1.9,1.8-4,0.5c-1-0.6-1.2-2.9-2.6-2.9c-1.9,0-1.1,2.4-2.2,3.6c-0.3-3.5-3,2.3-4.1-2
			c-1,1.4-4.7,3.4-6.4,2.3c-1.6-1-1.1-3.4-1.8-5.1c-1.1,3-4.1,6.2-3.9,0.7c-1.5,1.8-5.4,1.5-4.4,4.7c-1.2,0-1.5-1.7-2.5-1.9
			c-0.9-0.1-1.6,0.6-1.7,0.5c0.5,0-1.4,0.7-1.4,0.7c1.3-0.3-3.7-0.7-2.9-0.7c-1.2,0-2.6,0.9-3.9,0.9c-1.2,0-2.5-0.5-3.7-0.6
			c-3.2-0.4-2.5,0.3-4.5,1.3c-0.7,0.4-0.9,1-2,0.9c-0.8-0.1-1.1-1.1-1.1-1.1c-1.1-0.1-0.3-0.5-2-0.3c-0.2,0.3-0.4,0.7-0.6,1
			c-0.6,0.8-1.4,1-2.4,0.6c-2.5,0.5-10.7,2.8-9.9-1.4c-1.3,0.6-2.5,1.2-3.8,1.8c-0.5-3.4-7.4,1.1-8.9,1.4c-2,0.3-2.1-0.5-4-0.9
			c-0.3-0.1-1,1-1.8,0.9c-2-0.4-2.4-0.6-2.7-2.8c-1.5,2.7-2.7,1.5-5.3,1.9c-0.6,0.1-1,1.2-1.8,1c-0.6-0.1-0.6-1.2-1-1.4
			c-0.4-0.1-0.3-1-0.9-1.1c-0.6-0.1-2.8,1.6-3.4,1.9c-1.4,0.6-3.7,1.6-5,1.3c-1.7-0.4-0.9-1.6-3.3-1.5c-3.8,0.2-5.3,3.4-7.6-1.6
			c-1.1,2-0.9,2.6-2.6,3.2c-1.3,0.5-4.4,0-6.1-0.1c-7-0.3-13.9,2.1-20.9,1.5c-3.1-0.3-5.6-0.9-8.7-0.4c-3.2,0.5-6.4,1.3-9.7,1.6
			c-1.7,0.2-5.2,0.6-6-1.5C334,448,336.7,446.7,335.2,444.5L335.2,444.5z M349,521.9c-9.1,6.1-16.7,14.4-25,21.5
			c-8.4,7.1-15.1,14.9-22.6,22.8c-7,7.2-13.4,14.1-21.8,19.6c-5.3,3.5-10.1,7.7-15.6,11c-4.1,2.4-10.3,5.7-8.3-1.8
			c2.1-7.7,5.8-15.4,9.1-22.6c4.7-10.2,9.4-20.3,14.5-30.2c1.9-3.7,3-7.5,6-10.5c3.3-3.3,5.6-7.5,9.2-10.6
			C309.5,508.1,332.3,518.1,349,521.9L349,521.9z M377.6,526.3c-4.1,2.2-8.8,2.7-13.1,4.1c-3.7,1.2-7.2,3.4-11.2,3.6
			c3.7-2.7,6.8-6.5,10.9-8.6C368.7,523,372.9,524.8,377.6,526.3L377.6,526.3z M559.1,544.3c-15.2-5.1-29.4-12.7-44.2-18.8
			c-2.6-1.1-22.6-7.6-22.2-10.8c14-2.6,28.5-7,42.5-2.2c12.8,4.4,23.2,14.9,33.1,23.6c2.6,2.3,18.5,12.7,17.1,16
			c-1,2.3-8.7,1.7-10.5,1.2c-2.3-0.6-3.7-2-5.5-3.6C566.3,547.3,562.9,545.6,559.1,544.3L559.1,544.3z M531,458.6
			c2.3-2.1,3.7-5.4,5.9-7.3c2.8-2.5,7.4-1.3,10.5,0c9.3,3.9,17.3,10.5,26.5,14.6c10.2,4.5,19.1,10.6,28.4,16.9
			c8.4,5.7,17.6,10.5,26.2,15.9c8.8,5.6,18.6,9.2,27.5,14.6c9.1,5.5,18.1,10.9,26.8,17c15.5,10.7,31.7,21.8,43.2,37
			c5.9,7.8,11.4,16.7,15.8,25.6c3.9,8,8.2,19.1,3.1,27.5c-4.9,8-13.3,14.3-20.3,20.3c-2.7,2.3-5.2,5-8.7,6
			c-4.2,1.2-9.2,0.9-13.5,1.2c-23.2,1.9-44.9,0.1-67.7-4c-22.1-4-44.2-6.2-66.5-9c-12.5-1.6-25.1-3.4-37.5-6
			c-5.3-1.1-10.7-2.4-15.8-3.9c-4.5-1.3-8.3-4.3-13-5.4c-19.7-4.9-42.3-6.8-61.8-15.1c17.3-7.2,35.6-11.5,53.4-17.5
			c18.6-6.3,36.8-11.6,56.5-13.3c10.1-0.9,19.2-3.5,28.9-6.2c9.3-2.6,18.9-3.4,28.5-4.5c4.2-0.5,16.3,0.3,17.7-5.3
			c2.1-8.2-9.8-9.2-14.8-8.5c-7.2,1-13.1,2.8-18.6-3.1c-5.6-6-11.1-12.2-16.8-18.1c-10.6-11-21.5-23.7-36.5-28.7
			c-18.3-6-39.4-0.3-57.7,3.1c-19.2,3.6-38.5,7.1-57.4,12.3c-7.8,2.2-17.9,7-26,6.2c-8-0.8-17.1-2.1-24.8-4.4c-3.5-1-6.4-3-9.5-4.8
			c-4.1-2.3-8.5-3.8-12.8-5.7c-8.7-3.7-17.2-7.1-26.7-8.5c-7.9-1.2-16.4-1.9-24.1,0.8c-7.5,2.7-14.2,8.3-19.5,14.2
			c-5.7,6.4-10.4,13.7-15.1,20.9c-2.3,3.5-5,6.5-7.3,9.9c-2,2.8-3.1,6-5.2,8.8c-4.6,6.2-7.8,14.1-10.6,21.3
			c-3.1,8-6.6,17.5-5.8,26.1c0.3,3.3,0.6,7.6,1.8,10.7c1.6,3.9,3.9,3.8,7.2,5.2c5.7,2.5,7.3,9.4,14.7,8.1c6.9-1.3,12.9-7,17.9-11.5
			c6.6-5.9,12.9-12.1,19.1-18.4c6.5-6.4,12.8-13.4,17.9-20.9c2-3,3.6-6.3,6-9c3-3.4,6.5-3.8,10.6-5.2
			c36.1-11.9,72.4-23.4,109.6-31.3c8.9-1.9,17.9-4.3,26.7-6.8c9.3-2.7,14.1,0.2,21.8,5.2c16,10.6,35,18.1,52.8,25
			c5.6,2.2,14.6,2.3,19,6.6c-26,4-50.8,11.6-75.9,19.2c-12.4,3.7-24.9,7-37.3,10.6c-12.4,3.6-24.4,8.2-36.6,12.3
			c-12.2,4-25.1,5.7-37.4,9.4c-12.6,3.8-25.1,6.4-38,8.7c-13,2.3-26,5-39.1,7.1c-6,1-12,1.9-17.9,3.3c-5.8,1.3-11.4,4.4-17.2,5.1
			c-26,3.2-51.5,10.3-77.4,14.3c-19.3,3-53,7.2-65.5-12.2c-12.6-19.5,2.9-42.3,16.7-56.2c8.6-8.7,18.2-16.3,28.3-23.1
			c10.8-7.3,21.2-15.1,32.1-22.4c24.5-16.4,51.1-29.8,77.4-43c12.6-6.3,24.8-13.1,37.1-20.1c6.1-3.4,9.5,2.1,14.3,5.9
			c3.8,3,10.8,10.3,16.1,6.9c0.2,1.2,0.4,2.4,0.6,3.7c1.6-0.7,3.1-1.4,4.7-2.1c1,2.7,0.9,4.4,3.8,5.9c1.8,0.9,5.6,1.9,7.3,0.4
			c0.3,1.1,0.7,2.2,1,3.2c1.5-0.1,1.8-4.4,2.1-5.4c2.6,3.7,6.1,6.9,10.6,7.9c0-0.2-0.7-3.3-0.7-3.3c1.4-0.9,3.2,2.9,4,3.7
			c2.5,2.6,4,2.2,6.8,0.1c0.2,0.2,1.1,2.7,1.3,2.6c0.6-0.2,1.7-2.4,1.9-2.5c-0.2,2.8,5.3,3.4,7.3,2.8c-0.4-0.8-0.9-1.7-1.3-2.5
			c6.8-0.9,9.4,6.3,15.9,5.9c4.8-0.3,0.9-1.3,3.7-3.4c2.4-1.8,2.8,2.1,3,2c0.5-0.5,0.8-1,1.1-1.6c0.9,3.4,7.9,6.4,7.1,0.8
			c2.7,1.1,4.7,2.9,7.7,3.3c3.7,0.5,7.6-0.3,11.3-0.6c7.9-0.7,15.4-2.3,22.6-5.9c4.2-2.2,8.8-4.1,12.8-6.7c3.3-2.2,9.7-8.8,14.1-5.9
			c-1.1-3.4,4.2-0.2,4.4-4.6c0.9,0.6,1.7,1.3,2.6,1.9c0.5-1.1,0.4-2.9,1.1-3.9c0.9-1.4,1.4-0.6,2.2-1.3c0.9-0.9,1.7-3.1,2.8-3.8
			c1.1-0.7,2.4,0.1,3.6-0.5c1.8-0.9,9.7-9.6,8.4-2.1c3.4-1.2,0.8-2.2,1.2-4.5c0.9-4.5,2.9-1.3,5-0.9c3.4,0.6,3.3-2.1,5.2-4.2
			c1.7-1.9,5-2.7,3.8-5.9C530.6,455.9,530.9,457.3,531,458.6L531,458.6z M327.4,361.8c-2.7,3-4.7,1.7-7.6,1.3
			c-0.3-1.1-0.9-1.2-1.6-0.4c-0.9,0.5-1.8,0.8-2.8,1c-2.4,0.6-4.9,0.3-7.3,1.2c0.1-0.8,0.9-2.2,0.4-3c-2.5,1.7-4,2.8-7.1,2.9
			c-2.5,0-6.8-1.9-8.9,0.4c-0.1-0.9-0.1-1.8-0.2-2.6c-1,0.5-1.9,1.2-2.6,2c-0.1-1.3-0.2-2.3-1.1-3.4c-1.6,3.4-3.4,3.5-6.6,2.2
			c0.4,0.2-3.2-2-3.1-1.4c-1.1-4.8,17-4.4,18.9-4.6c4.8-0.5,9.5-0.8,14.3-1.2c4.5-0.4,7.9-1.1,11,2.7
			C321.6,353.3,334.8,353.6,327.4,361.8L327.4,361.8z M119.3,277.4c0.5,8.2,2.3,17-0.9,24.9c-2.6,6.4-7.7,13.6-13.2,17.7
			c-11.3,8.5-20.9-1.9-22.5-13.4c-1.6-11.9,1.6-26.5,11.9-33.9c6.1-4.4,12.1-4.1,19.2-2.6c1.7,0.3,4.4,0.2,5.3,1.9
			C119.2,272.4,119,277.4,119.3,277.4L119.3,277.4z M269.7,387.1c-2,1-4,1.6-5.7,2.9c-0.6,0.5-0.8,1.5-1.4,1.9
			c-1.2,0.7-2.8,0.2-4,0.8c-2,1-3.4,2.4-5.8,3.3c-3.5,1.3-6.6,3.2-9.9,4.9c-5.5,2.9-11.5,5.4-17.3,7.7c-2.9,1.2-11,3.5-10.7,7.8
			c-0.7,0.2-1.3-1.3-2.7-1.1c-1.9,0.2-4.4,2.3-6.3,2.9c-3.6,1-6.5,1.1-6.5,5.7c-1.2-0.8-1.5-2.7-3-3c-1.7-0.3-2.5,1.6-3.9,2.2
			c-1.6,0.7-3.7,0-5.3,0.8c-0.7,0.7-1.5,1.4-2.4,2c-0.9,0.1-1.8,0.1-2.6-0.1c-3.4,0.7-6.6,2-10.1,2.7c-3.4,0.7-5.7,0.9-4.3,4.9
			c-3.6,0.7-4.5-3.1-8.5-1.7c-5,1.7-9.6,2.9-14.8,4c-2.6,0.5-5.4,1.7-8.1,2c-1.9,0.2-3.7-0.5-5.6-0.3c-2.3,0.3-4.1,1.3-6.4,1.3
			c-2.2,0-4.5-0.4-6.7-0.7c0.3,0.9,0.7,1.7,1.2,2.5c-1.5-0.3-2.2-2.1-3.5-2.4c-1.3-0.3-2.5,1.1-3.7,0.8c-0.5-0.1-0.2-1.6-1-1.9
			c-0.8-0.3-1.1,0-1.9-0.1c-0.3,0-3.5-0.2-4,0.1c-0.9,0.5,0,1.4-0.2,1.5c-3,2.2-3.1,1-4.4-1.3c-2-3.4-4.4-1.3-8-1.9
			c-4-0.7-7.2,1.1-11.1,0.8c-4.3-0.3-9.2-3.5-13-5.3c-8.1-4-16-7.8-22.8-13.9c-13.3-11.9-24.2-26.5-30.6-43.2
			c-6.9-18-8.2-36.7-7.6-55.8c0.3-11.5,1.2-22.9,3.1-34.2c1.2-7.8,1.5-21.6,10.3-25.2c1.5,18.2-3.3,36.8-0.3,55
			c0.9,5.5,3.1,12.7,7.3,16.8c6.2,6,7.6-2.7,8.2-7.4c1-8.9,3-17.7,4.3-26.5c1.4-8.8,2.3-17.8,4.2-26.5c0.7-3.2,6.3-26.5,10.4-25.4
			c-0.8,17-3,33.7-3.1,50.7c0,6.8-0.6,14,0.3,20.8c0.5,3.5,3.7,13.7,9.2,12.9c5.1-0.8-0.5-8-1-10.8c-1.3-7.4,0.3-16.5,1.5-23.9
			c2.2-13.8,7.1-28,15.2-39.6c7.2-10.4,18.3-20.2,31.7-18.4c5.7,0.8,10.2,2.2,13.1,7.4c2.3,4.1,11.1,8.8,6,13.9
			c-4.7,4.7-12.3,0.9-17.5-0.2c-6.4-1.4-13.2,0.3-18.5,4c-9.1,6.4-14.4,17.9-16.1,28.6c-2.3,14.5,3.8,52.4,26.4,43.9
			c15-5.6,26.3-26,25-41.5c-0.5-6.2-2.9-18,5.7-19.7c11-2.2,12.6,10,11.5,17.9c-1.6,11.5-7.7,22.2-14.7,31.3
			c-6.1,7.9-13.1,12.9-20.4,19.4c-2.2,1.9-7.7,6.3-6.7,9.9c1,3.9,9.7,5.1,13.1,5.7c17.1,3.2,36.5,0.3,53.6-2
			c35.2-4.6,69.9-16,98.7-36.8c1.2,12.9,2.6,25.8,3.2,38.7c0.3,6.3,0.3,12.7,1,18.9C272.5,379.5,274.1,384.9,269.7,387.1
			L269.7,387.1z M172.2,432.1c-1.4,0.7,0.1-3.6-0.3-2.2C174,430.6,174.1,431.3,172.2,432.1L172.2,432.1z M318.1,275.9
			c2.2-2.4,8.2-8.2,10.1-2.7c0.7-2.3,0.8-5.8,3.5-2.6c1.1-3.9,13.1-3.5,16-3.7c9.5-0.5,19.1-0.8,28.5-1.8c19.5-1.9,39.3-0.9,58.8-1
			c4.2,0,8.5-0.2,12.7,0.4c4.1,0.6,8.3,2.3,12.4,1.6c3.7-0.5,6.1-1.6,9.9-1.1c4.5,0.5,8.9,0.9,13.5,0.9c20.2-0.1,40.4,0.7,60.6,0.8
			c3.9,0,8.7-0.8,12.3,0.9c1.4,0.6,2.9,2.7,3.9,2.9c1.2,0.3,0.5-1.6,2.1-0.8c2.1,1.1,0.5,4.6-0.9,5.2c0.8-0.3-1.5-0.7-1.3-0.7
			c-1.1,0.1-2.1,0.9-3.3,0.9c-1.8-0.1-3.4-1.2-4.9-2.2c0,0.4,0.8,3.1-0.1,3.2c-0.8,0.1-1.6-2.5-1.6-3.2c-4.5,4-9.3,1.8-14.9,2.3
			c-4,0.4-12.3,3-15-1.1c-0.1,0.9-0.5,1.7-1.1,2.3c-0.8,1.2-1.5,1.1-2.1-0.3c-0.2,0-2.1,0.4-2.2,0.4c-1.4-0.1-3.1-0.6-4.5-0.7
			c-2.1-0.2-1.7,1.4-3.5,1.4c-0.9,0-3.3-1.3-4.9-1.4c-2.8-0.1-5.7,1-8.5,0.7c-1.9-0.2-3.6-1.8-5.5-1.9c-2.3-0.1-3.1,1.7-4.9-0.8
			c-0.4-0.1-0.6,1.4-0.8,1.4c0,0-1.8,0.3-2,0.3c-0.4,0.1-1.8,0.8-2.2,0.8c-0.9,0-1.5-0.7-2.5-0.7c-1.7,0-6.9,1.4-6.8-1.6
			c-5.9,2.2-11,1.3-17,1.9c-2.8,0.2-4.5-0.1-7.2-0.6c-3.3-0.6-5.5,0.2-8.8,0.3c-3.2,0.2-4.2-1.2-6.9-2.4c-1.1-0.5-1.8-1.1-3.1-0.8
			c-0.7,0.2-0.2,1.4-0.4,1.5c-1.1,0.4-1.9,0-3.5,0.1c-2.9,0.2-4,2.6-7,0.3c1-0.1,2-0.2,3-0.4c-2.8-1.2-6.6-1.8-5.9,2.6
			c-2.4-0.3-0.3-2-1.5-2.6c-1.2-0.6-2.5,0.4-4,0.9c-4,1.3-7.3,0.6-11.4,0.4c-4.7-0.3-15.7,3.6-19-1.4c-0.1,1-1.2,4-2.7,3.8
			c-0.5,0,0.9-3.1,1-3.5c-0.8,1.6-4.3,2-6,2.8c0.2-0.9,0.4-1.8,0.6-2.6c-1.6,1.7-2.4,0.7-4.3,1.2c-0.8,0.3-2,2-2.7,2.1
			c-0.8-1-1.9-1.4-3.1-1.2c-0.8-0.2-1.7-0.2-2.5-0.1c-3.3,0.2-6.3,2.1-9.6,0.8c-2.9-1.1-4-3.9-5.7,0.6c-0.4-0.8-0.9-1.6-1.3-2.4
			c-0.6,0.9-1.1,1.7-1.7,2.6c-2.2-1.4-2.3-2.2-4.8-1.7c-0.6,0.2-1.2,0.2-1.8-0.1c-0.1,0.4-0.3,0.9-0.4,1.3c-0.1,1.1-0.4,1.5-1,1.1
			c-0.5-0.2-0.9-0.5-1.3-0.8c-1.6,0.1-3.7,0.6-5.5,0.3C322.7,277.8,318.4,275.5,318.1,275.9L318.1,275.9z M368.5,246.4
			c0.2,0.3,0.4,0.6,0.6,0.9c-2.7,1.4-3.3,0.6-3.6-2.2C366.8,245.1,367,247.4,368.5,246.4L368.5,246.4z M370.1,244.7
			c1.3,0.6,2.8,1.7,4,0.2C374.9,247.3,368.9,250.5,370.1,244.7L370.1,244.7z M378.4,245.8c2.7,1.8-3.8,0.4-3.8,0.4
			C375.8,245.1,377.1,244.9,378.4,245.8L378.4,245.8z M401.7,235.6c0.9,4.7,3.5,4.5,7.6,2.4c6-3.2,7-8.4,7.5-14.6
			c0.4-5.9,1.1-8.2,7.3-7c4.3,0.9,7.9,0.1,12.2,0c4.6-0.1,6.2,0.6,6.6,5.3c0.4,4.7,1.2,8.3,4.7,12c3.5,3.7,8.2,5.9,12.7,7.9
			c2.3,1.1,4.5,2.2,7.1,2.4c1,0.1,6.2-0.6,6.3,1.1c0.1,1.2-7.1,4.7-7.9,5.2c-3.4,1.8-6.7,3.5-10.4,4.6c-8.4,2.5-17.3,2.7-26.1,2.5
			c-14.1-0.2-33.5-6.2-41.9-18.7C392.1,237.7,396.9,236.6,401.7,235.6L401.7,235.6z M400.4,195.1c-2.2-1.9-3.7-4.7-5.5-6.9
			c-0.9-1.1-1.6-1.5-2.5-2c-0.9-0.6-1.5,0.2-2.2-1.1c-2-3.6,4.2-8.6-2.4-10c-2.2-0.5-7.6,1.3-8.2-1.9c-0.9-4.5,7.7-4.8,9.7-7.1
			c4-4.6,1.3-12.3,3.8-17.5c2.3-5,8.3-5.9,13.1-7.4c6.6-2.1,13.3-3.3,20-5c4.7-1.2,12.5-5.9,16.8-1.7c-6.7,1.5-2.8,3.8,1.7,5.1
			c5.1,1.5,10.4,2.1,15.7,2.5c5.4,0.4,10.9,0.5,16.2-0.6c4.9-1,10.4-5.3,15.6-4.2c-2.9,5-11.4,7.7-16.6,9c-2.6,0.7-4.3,0.5-4,3.8
			c0.3,3.2,3.1,6.4,3.8,9.7c0.8,4.4,0.1,8.5-1.5,12.6c-1.5,4.1-1.9,4.6-0.6,8.5c2.1,6.1-2.4,12.8-6.6,17.2
			C449.7,216.1,417.4,209.3,400.4,195.1L400.4,195.1z M443.4,88.5C443.4,88.7,443.4,88.6,443.4,88.5L443.4,88.5z M448.6,133.5
			c-0.7,0.5-4.7,1.6-4.6,0C444.3,131.4,447.9,132.2,448.6,133.5L448.6,133.5z M457.8,90.8c-0.9-0.7-3.6-0.4-1.7-3.1
			C456.8,88.9,457.3,89.9,457.8,90.8L457.8,90.8z M394.2,73.9c1.2-3.1,2.5-6.1,3.1-9.4c0.3-2.1-0.3-4.4,2.5-4.7
			c-3.7-1.6-3.7-7.9-3.9-11.2c-0.3-4.5-1.7-10.5,0.3-14.7c2-4.3,4.8-4.2,5.6,0.9c0.3,2-0.9,2.7-1.1,4.1c-0.5,2.8,0.5,2.2,2.2,0.1
			c0.7,2.1,1,5.4,4,5.2c-0.2-0.6-1.3-1.9-1-2.6c0.6-1.1,3.5,0.6,3.8,0.8c2.6,1.8,3.2,3.5,1.3,5.8c2.6,0.3,0.4,2.6,2.1,3.1
			c2.6,0.9,0.8-3.4,0.6-4.1c1.6,0.6,2.1,1.3,3.1,2.5c0.6,0.8,1.1,1.7,1.6,2.6c0.5,1.7,1.6,2.1,3.3,1.3c3.3,1,7.9,0.9,10.9,2.7
			c1.4,0.8,1.8,2.6,3,3.3c1.3,0.8,3,0.4,4.4,0.9c-0.5,1.1-0.1,1.8,1.2,1.8c1,0.1,2,0.3,3,0.7c0.7-0.5,1.5-1,2.3-1.3
			c0.6,1,1.4,1.2,2.4,0.7c3.1,0.6,4.5,1.7,6.5,3.5c1.7,1.6,0.3,1.7,2.2,1.5c0.8-0.1,2.1-1.4,3.9-1.1c1,0.2,2,0.5,2.9,0.9
			c1,0.9,2.1,1,3.2,0.3c1.8,0.9,2,2.5,4.3,2.7c2.5,0.2,1.7-2.9,3.4,1.5c2.3-4.6,3.2,2.8,5.5,3.4c2.5,0.6,2.7-1.4,4.8,0.8
			c0.6,0.7,0.6,1.7,1.3,2.4c1.2,1.1,2.7,0.9,3.8,2.5c-0.6-0.9,0.1,3.1,0.1,2.9c0.2,1.7-1.4,3.7,1.8,3.5c0,0.2-1.6,2.4-1.8,2.1
			c-0.1-0.3-0.1-0.5-0.2-0.8c-0.3,0.1-0.5,2.3-0.4,2.6c0.3,0,0.4-0.2,0.3-0.6c-0.5,1.6,0.3,2.7-0.7,4.2c-0.6,1-2.4,1.7-3.3,2.3
			c-2.2,1.5-4.4,2.9-6.6,4.5c-5.1,3.6-10.8,8-17.2,8.8c3.2-3.2,21.8-15.1,12.5-18.6c-1.7-0.6-4.9-1.2-6.7-1.4
			c-2.2-0.2-4.6,1.1-7,0.3c-3-1-1.9-3.8-3.7-4.8c-3.9-2.1-3,2.9-4.2,4.2c-1.3-1.3-1-2-3-2.1c-2.1-0.1-2.5,1.8-4.9,0.6
			c-3.3-1.6-1.6-4.9-6.2-4.9c0.1-0.7,0.8-2.7-0.1-3.3c-1.2,1.6-0.3,3.3-1.4,4.8c-0.6,0.8-1.8,1.4-2.7,1.6c-2.1,0.6-2.4,1.7-2-1.5
			c-1.5,2.8-6.3,1.6-9.1,1.4c-4.6-0.5-9.4-1.3-13.8-2.8c-4-1.4-6.2-3.7-9.5-5.8c-1.3-0.8-1.9-0.5-3.7-1
			C395.1,77,393.3,76.1,394.2,73.9L394.2,73.9z M403.8,24.9c0.7-0.4,1.2,5.8,0.3,6.9C402.6,29.4,399.9,25.8,403.8,24.9L403.8,24.9z
			 M406,22.4c2.2-2,0.7,3.2,0.3,4c-0.8-0.5-1.6-1.1-2.5-1.6C404.8,24.2,405.1,23.2,406,22.4L406,22.4z M489.5,14.1
			c20.5,4.3,40.7,12.3,57.1,25.5c14.9,12,25.5,29.1,31.4,47.2c6.1,18.8,4.1,39.7-10.5,54.2c-7.7,7.6-17.8,12.2-27.5,16.6
			c-4.6,2.1-9.4,3.9-14.1,6c-3.3,1.5-7.4,3.9-11.2,3.5c1.9-2,4.8-2.1,7.1-3.3c2.8-1.5,5.2-4.4,7.6-6.5c2.4-2.1,7.8-8.6,11.6-7
			c-0.5-3.5,3.4-5.1,5.2-7.3c1.9-2.4,2-5.2,5.5-6c-3.7-2.9-2.6-8.4-1.8-12.3c1-5.1,1.5-9.7,1.9-14.9c0.7-9.3,1.3-21.1-3.8-29.3
			c-1.7-2.7-3.8-5.1-5.3-7.8c-1.8-3.3-1.4-6.2-1.4-9.9c-3.3,2.2-4-2.3-5.3-4.5c-1-1.6-2.4-2.6-2.7-4.6c-0.2-1.5,1.4-1.8,0.5-3.3
			c-1.1,0.8-1.5,2.1-2.1,3.3c-1-0.4,0.2-1.8-0.4-2.3c0,0-2-0.9-1.9-0.7c-1.3-1.6-1.7-4.2-2.3-6.1c-2.3,1.2-1.9,1-4.4-0.9
			c-0.5-0.3-2.7-1.9-2.9-2.4c-1-2.4,0.7-1,0.3-2.5c-1.4-4.3-9.2-3.5-9.9-9.9c-3.8,2.4-5.3-1-7.5-3.5c-2.3-2.5-6.2-3.5-6-7.4
			c-1.2,0.4-2.4,0.8-3.6,1.2c0.6-3.7-4.8-3.4-6.8-5.3C487.3,13.8,488.4,13.9,489.5,14.1L489.5,14.1z M492.6,241.2
			c1.9-1.7,1.3,0.6,2.5,0.3c1-0.2,1.2-1,2.2-1.3c4.1-1,10.3,0.3,14.6,0c5-0.2,13.6,0.8,16,6.7c1.4,3.5-0.8,2.3-3.2,2.1
			c-1.9-0.2-3.5,0.2-5.4,0.2c-0.9,0.1-1.8,0.1-2.7,0c-0.4-0.3-0.7-0.7-0.8-1.2c-2.6-0.4-5.3,1.1-8.2,1.2c-3.8,0.1-7.2-0.6-10.1-3.2
			c-1.2,1.7-1.9,2.6-4,2.8c-0.1,0-2.1-0.8-2.4-0.9c-0.4-0.1-1.5,0.8-2.3,0.5C490.3,246,490.5,243,492.6,241.2L492.6,241.2z
			 M753.7,261.6c0.7-2.3,1.2-4.7,1.9-7.1c9.4,10.7,17.7,25.1,21.4,38.9c2.4,9,6.2,25.2-5.3,29.8c-9.4,3.8-14.6-9.7-17-16.4
			C749.4,292.2,749.4,276.5,753.7,261.6L753.7,261.6z M331.5,93.3c0.1,0-6.1,3.6-4.1,0.7c0.8-1.2,4-2,5.3-2L331.5,93.3z M325.6,94.8
			c-0.7,0.6-1.4,1.2-2.2,1.8c-0.7-1.1-1.4-2.2-2.1-3.3C322.6,92.7,328.6,92.2,325.6,94.8L325.6,94.8z M321.2,207.5
			c-1.3-0.9-2.3-0.4-2.7,1.1c0-1.5,0.8-4.9,1.9-5.3c0.8-0.3-2.5-4.2-1.6-5.2c2.4,1.4,0.9,2.6,1.6,4.4c0.3,0.8,1.2,1.5,1.5,2.1
			C322.2,205.6,323.6,209.1,321.2,207.5L321.2,207.5z M314.8,198.7c-1.3,0.3,1,2.5,1,3.5c0,0.7-0.9,1.3-1.3,2.3
			c-0.8,2.2,0.6,3.7-1.7,5.3c0-4.8-3.2-17.5,3-19.8c-3-2.4-0.5-5.1,1.8-2.3C319.9,190.5,318.5,197.7,314.8,198.7L314.8,198.7z
			 M311.6,179.8c-1.2-4.3-4.9-5.8-9-5.5c0.2-2.2,1.8-5.4,3-1.4c0.5-1.2,0.8-2.7,2-3.5c1.9,6,11.4,9.3,5.5,15.7
			C312.5,183.3,312.1,181.6,311.6,179.8L311.6,179.8z M300.5,174.6c-22,1.6-52.8,6.2-70.4-10.7c-11.5-11-10.8-28.1-1.6-40.3
			c5.3-7,12.5-11.9,19.7-16.5c2.8-1.8,5.2-3,8.2-4c0.5-0.1,1,0.1,1.4,0.3c0.2-0.7,0.6-1.3,1.3-1.6c1.2-0.6,2.9-0.9,3.6-2.2
			c-0.7,2.5-1.1,5-1.4,7.6c-0.6-0.7-1.2-1.4-1.8-2.1c-0.5,4.7-5.4,1.8-8.3,2.4c1.9,2.6,3.3,3.6,3.4,7.1c-1.4-2.6-4.4-4.4-7.2-5.2
			c1.5,4.4,2.6,7.1,1.1,12c-1.8-1-1.9-3.5-4.2-4.1c-0.6,2.9-0.7,6.1-1.4,8.9c-5.7-2.6-5.1,4.4-2.8,7.8c1.2,1.8,1.8,4,2.9,5.7
			c2.7,4.3,0.6-2.1,3.6-1.8c-0.7,4.6-0.9,5,2.4,8.3c3.3,3.3,4.9,7.8,8.4,10.8c1-1.3-0.6-2.6-0.7-3.9c3.2,0.5,4.8,3.8,7.9,0.9
			c1.4,2.6,2.8,5.6,6.1,6.1c-2.1-4.1,4.1-1.3,5.7-0.7c1.2,0.4,3.4,0.8,3.9,1c2.7,1,0.8-0.8,2.4,2.4c2.4-0.7,3.3-2.7,6.1-1
			c2.3,1.3,2.3,3.7,2.8,6c0.5-1.5,1.1-3.1,1.7-4.6c0.6,0.3,3.2,3.1,2.9,3.1C302.5,166,302.3,169.8,300.5,174.6L300.5,174.6z
			 M269.7,97.4c1.2-0.9,2.7,0.3,4.1,0c1.9-0.4,3-2,5.1-2.2c-0.6,1.9-1.7,1.7-2.6,3.2c-0.3,0.5-0.2,1.7-0.4,2
			c-2.4,2.4-3.2,0.4-5.6-1.4c0.2,2.2,0.6,2.9-1.4,3.5c-1.9,0.5-5-1.4-6-3C263.6,97.9,268.2,98.5,269.7,97.4L269.7,97.4z M284.8,94
			c2.1,0.2-0.4,6.2-3.4,0.4C282.5,94.1,283.6,94,284.8,94L284.8,94z M295.3,92.8c3.2-0.7,14-3.7,15.2,1.3c0.2-0.1,1-3,1.4-2.6
			c1.5,1.4,1.7,3.2,1.5,5.2c-1.8-3.8-1.2-0.5-2.4-0.7c-0.3-0.1-0.8,0.5-1.6,0.3c-1.1-0.3-1.8-2.6-2.5-3.3c-1.1,1.6-2.5,3.6-4.7,3.5
			c-1.6-0.1-4.1-4.2-2.1,0.3c-1.2-0.4-2.6-1.3-3.9-1.1c-1.5,0.2-2.3,1.7-3.7,1.9c-3.1,0.5-3.6-2.5-5.6-4.1
			C289.7,93.2,292.6,93.4,295.3,92.8L295.3,92.8z M314.9,92.8c0.2-1,3.1-1.4,3.8-1.1c1.8,0.8,1.1,1.9,0.8,3.6
			c-1.3-0.6-2.6-1.2-3.9-1.9C317.5,96.5,314,97,314.9,92.8L314.9,92.8z M862.8,276.6c-0.2-7.5-0.4-15.2-2.4-22.5
			c-1.3-5.1-4.6-14.3-10.8-15.2c-9.3-1.3-14.5,17.1-17.1,23.5c-0.5-7.5-0.1-15.4-2.9-22.5c-2.3-5.7-8-11.1-12.9-4.7
			c-4.4,5.7-5.2,14.1-6.4,20.9c-1.5,8.8-2.4,17.8-3.5,26.7c-4.3-8.3-5-17.7-8.4-26.3c-3.2-8.1-8.2-15.8-13-23
			c-3.9-5.9-8.7-11.4-14.9-15c-5.4-3.1-14.8-6.5-19.9-1.3c-4.3,4.3-3.6,10.1-3.4,15.6c0.1,2.4,0.5,4.1-1.7,5.3
			c-1.1,0.6-2.7,0.3-3.9,0.6c-1.9,0.5-3.3,1.4-4.9,2.6c-11.1,8.2-16.2,23-17.7,36.2c-2,16.7,4.5,31.1,10.1,46.4
			c0.9,2.4,3.7,7.6,3.3,10.3c-0.4,3-4.2,3.1-6.7,3.1c-7.6,0.2-15.6-0.4-23.2-1.1c-18.1-1.7-36.1-10.4-52.3-18.2
			c-3-1.4-7.1-2.2-9.5-4.5c-2.3-2.1-2.9-5.5-4.8-7.9c-4.8-5.9-7.9-10.9-14.9-14.5c-7.2-3.6-14.5-7-21.6-11
			c-8.7-4.9-16.7-11.2-25-16.7c-15.5-10.2-30.8-21.5-47.2-30.2c-7.6-4-16.1-4.7-24-8c-7.7-3.2-17.2-3.2-25.2-1.2
			c-3.9,1-6.6,3.3-10.2,4.9c-4.2,1.8-7.7-0.2-11.4-2.3c-5.7-3.3-11.3-8.6-3.2-12.2c2.7-1.2,6.2-1.7,8.6-3.5c2.6-2,4.6-5.7,6.7-8.3
			c4.6-5.6,7.4-12.1,14.1-15.6c7.5-3.9,16.3-4.9,24.3-7.4c8.6-2.7,17.1-6,25.5-9.2c15.3-5.7,31.1-11.9,42.1-24.6
			c9.5-10.9,13.6-25,13.2-39.3c-0.8-29.2-16.4-58.9-38.9-77.2C521.3,7.1,486.2-0.4,451.4,0c-16.3,0.2-35.8,2.3-49.5,12.2
			c-11.8,8.6-13.7,23.6-12,37.1c0.7,5.5,3.1,12.7-0.7,17.6c-2.2,2.7-6.1,3.4-9,5.1c-3.7,2.1-6.9,4.2-11.1,5.3
			c-17.7,4.8-36.2,3.1-54.3,2.8c-30.1-0.4-60.9,7.7-83.3,28.9c-18.1,17.1-23.5,49.4-1.5,66c17.8,13.5,45.8,12,66.9,9.6
			c6.5-0.7,11-1.8,11,6.2c0,8.7-1.4,17.8,0.8,26.4c3.5,13.5,16.5,13.8,27.9,10.9c6-1.5,11.9-3.8,17.6-6.2
			c8.4-3.5,16.1-8.7,24.5-12.3c5.6-2.4,9.9,5.3,14.9,0c0.9-1,1.1-2.5,2.5-3c2.2-0.8,5.8,2,7.8,2.9c2.9,1.3,5.8,2.3,6.9,5.5
			c1.1,3,0.6,7.7-0.4,10.6c-2.2,6.4-8.2,5.1-13.7,4.7c-9.6-0.7-19.1-2.3-28.6-3c-8.6-0.6-16.6,2-24,6.2c-15.5,8.9-28.3,23-41.7,34.6
			c-6.9,6-13.6,12.4-21.2,17.7c-3.3,2.3-6.8,4.3-9.7,7.2c-2.8,2.8-3.1,5.3-4.1,9c-1.7,6.6-10.3,9.9-15.6,13.3
			c-7.6,4.9-15.6,8.4-24.1,11.4c-18,6.4-36.1,10.9-54.8,14.2c-9.2,1.6-18.3,2.7-27.6,3.6c-8,0.8-16.5,3.2-24.5,1.2
			c2.3-3.7,6.4-6,9.6-8.9c4.1-3.7,7.6-8.1,10.7-12.7c6-8.9,10.3-18.4,11.2-29.2c0.9-9.7-0.1-21.3-6-29.5c-2-2.8-6-3.6-7.8-6.2
			c-1.8-2.5-1.1-6.9-2.1-9.9c-2.5-7.5-10-16.8-16.5-21.2c-7.1-4.7-17.5-6.5-25.7-4c-15.2,4.6-24.6,20.8-31.5,34
			c-3.8-8,2.6-19.9-4.9-26.4c-6.3-5.5-11.2,5.2-13.3,9.8C34.5,263.2,32.3,286,28.2,309c-1.7-1.7-0.8-5.9-0.7-7.9
			c0.3-3.7,0.3-7.3,0.3-11c0-9.3,1.8-18.7,1-28c-0.5-5.4-2.2-16.7-10-15C12.1,248.7,8,258,5.9,263.7c-3,8.2-3.7,16.4-3.5,25.1
			c0.2,9.6-1.6,19.1-2.1,28.7c-0.9,18.6,0,37.1,5.3,55.1c8.8,29.5,28.9,53.9,55.8,68.7c14.8,8.1,31.2,13.3,48.1,14.4
			c9.2,0.6,18-0.5,27.1-1.4c9-0.9,18-1.4,26.9-2.5c19.9-2.4,39.3-8.7,57.4-17.2c9.5-4.5,18.5-9.9,27.8-14.7c3.8-1.9,6.3-4.3,9.5-7
			c3.2-2.6,4.1-2.8,7.7-2.8c-1.1-2.8,2-3.7,3.4-5.5c-0.1,0.9-0.2,1.7-0.2,2.6c1.1-2.3,2-2.3,2.9,0.1c0.9-2.6,1.6-5.3,2.6-7.8
			c4.1,2.1,3.8,7.1,9.3,3.4c4.5-3,8.7-6.5,13.4-9.4c10.6-6.7,19.7-15.3,30.3-21.9c0,6.4,0.5,12.9-0.4,19.3
			c-0.8,6.1-3.1,11.7-4.9,17.6c-3.3,10.7-3.6,22.2-7.2,32.8c-1.5,4.4-5.5,8.1-6.6,12.4c-1.2,4.4,1.5,7.9-3,10.7
			c-3.2,2-7.1,2.9-10.6,4.1c-5.4,1.9-10.4,4.5-15.6,6.7c-24.4,10.5-48.3,21.1-70.9,35.2c-21.5,13.4-43.3,27.2-63,43
			c-17.1,13.8-34.4,31.6-38.6,54c-4,21.8,6.7,45.2,28.4,52.3c11.3,3.7,24,3.3,35.7,3.4c12.6,0.2,26-2.9,38.4-5.1
			c13.1-2.3,26-6,39.1-8c12.6-2,24.2-6.4,36.5-9.2c13.2-2.9,26.7-4.5,40-7.1c6-1.2,11.8-2.9,17.8-4c6.6-1.2,13.2-1.6,19.7-3.2
			c12.6-3.1,24.7-8,37.3-10.9c5.7-1.3,11.3-3,17-4.2c5.2-1.1,9.3-4.1,14.6-1.6c4.2,2,7.6,5.3,11.6,7.6c5.2,3,10.7,5.7,16.1,8.3
			c10.9,5.2,22.2,8.9,33.6,12.8c12,4.1,23.7,8.8,36.2,11.6c12.7,2.8,25.7,3.6,38.5,5.8c26.2,4.5,52.3,6.6,78.9,6.7
			c13.5,0.1,26.9-1.5,40.4-1.3c11.9,0.2,22.2,2.8,33.1-3.5c17.4-10.1,37.5-25.3,37.1-47.4c-0.4-20-12.4-39.1-23.7-54.9
			c-13.7-19.2-33.2-32.7-52.3-45.9c-20.4-14.1-43.2-23.8-64.7-36.1c-10.9-6.3-21-13.1-32.9-17.5c-5.7-2.1-11.2-4.6-16.8-6.9
			c-4.5-1.8-11-2.9-14.9-5.9c-2.4-1.9-2.6-4.8-3.3-7.7c-1.4-6.3-3.6-12.3-5.8-18.3c-4.1-11.7-6.9-23.7-8.7-36
			c-1.7-11.7-5.5-23.9-3.5-35.8c12.8,12.4,26,24.4,39.2,36.4c4.9,4.5,9.8,9.2,14.7,13.7c3.7,3.4,8.4,8.4,13.5,9.4
			c6.6,1.3,4.2-6,8.7-7.2c2.8-0.7,11.1,6.4,13.3,7.8c13.9,8.8,29.3,14.4,44.6,20.4c16,6.3,32.5,11.9,49.8,13.5
			c15.9,1.5,32.2-0.4,47.6-4.8c30.6-8.7,53.2-29.2,69.7-55.8C850.2,348.3,863.9,312.8,862.8,276.6L862.8,276.6z"/>
		<path id="ink-shape_1_" class="st0" d="M394.5,210.5c0,0-0.1,0.1-0.1,0.1C394.5,210.5,394.5,210.5,394.5,210.5"/>
		<path id="ink-shape_2_" class="st0" d="M396,210.9c-0.1-1-0.4-1.9-0.7-2.8c-1,1.6-1.9,2.3-0.6,4
			C395.1,211.6,395.6,211.3,396,210.9"/>
		<path id="ink-shape_3_" class="st0" d="M466.7,440.7c1.1-1.2-0.8-1.7-1.6-1.7c0.1,1.3-0.6,4.4,1.2,5
			C465.8,442.9,466,441.7,466.7,440.7"/>
		<path id="ink-shape_4_" class="st1" d="M436.7,188.1c-1.9,3.8,2.4,4.9,4.9,3.1c1.9-1.4,3-4.9,3.3-7.1c1-7.2-4.1-14.1-6.6-20.6
			c-0.7-1.7-1.5-7.4-3.6-7.5c-2.4-0.2-2.6,5.1-2.6,6.4c-0.1,4.1,1,8.2,2.3,12.1C435.6,178.7,439,183.7,436.7,188.1"/>
		<path id="ink-shape_5_" class="st1" d="M446,173c7.5,6.7,13.5-4.4,13-11c-0.1-1.6-1.2-7.6-4.3-5.4c-1.6,1.1-0.2,4.7-1,6.2
			c-3.6,7.6-7-4.2-9.5-5.1c-2.9-1.1-3.2,2.7-3.2,4.8C441,166.5,443,170.3,446,173"/>
		<path id="ink-shape_6_" class="st1" d="M418.8,174c1.8-2.8,3.9-6.5,4.2-9.8c0.4-5.2-2.6-4.7-5.1-1.1c-1.8,2.6-3.1,6.9-6.9,5.8
			c-4.8-1.3-3.3-7.8-6-10.8C398.1,167.1,410.9,186.4,418.8,174"/>
		<path id="ink-shape_7_" class="st1" d="M428.9,201.8c2.8,0.6,10.1,0.4,7.6-3.9C433.3,192.5,422.7,200.4,428.9,201.8"/>
		<path id="ink-shape_8_" class="st0" d="M526.8,41c0.5-1.5-0.2-1.8-1.4-3C524.3,39.1,525.7,40.2,526.8,41"/>
		<path id="ink-shape_9_" class="st0" d="M579,317c1.8,0.3,2.4-0.7,1.8-2.9C577.8,313.9,577.2,314.8,579,317"/>
		<path id="ink-shape_10_" class="st0" d="M478.3,81.6c2,0.9,1.3,2.8,1.2,4.5c1-1.1,3.2-3.2,2.3-4.9C480.5,78.7,477,81,478.3,81.6"
			/>
		<path id="ink-shape_11_" class="st0" d="M409,49.8c-0.3-0.6-0.6-1.2-0.9-1.8c-1.3,1-3.2,3.7-1.2,5C407.7,52,408.4,51,409,49.8"/>
		<path id="ink-shape_12_" class="st0" d="M433.4,67.6c2.5,2,1.3-4.1,1.2-4.6C434.3,63.7,432.1,66.6,433.4,67.6"/>
		<path id="ink-shape_13_" class="st0" d="M432,64.5c-0.2-0.5-0.4-1-0.6-1.5c-1,0.9-2.3,2.9-0.6,4C431.3,66.2,431.7,65.4,432,64.5"
			/>
		<path id="ink-shape_14_" class="st0" d="M448.1,85.5c0.2,0.2,0.4,0.4,0.6,0.6c0.8-1.7-0.1-2.9-1.7-3
			C447.1,84,447.5,84.8,448.1,85.5"/>
		<path id="ink-shape_15_" class="st0" d="M380.3,274.9c1-0.7,1.9-1.5,2.7-2.3c-3-1.8-1.2,2.1-4.8-0.3
			C377.5,273.3,378.7,275.7,380.3,274.9"/>
		<path id="ink-shape_16_" class="st0" d="M505.1,440c1.1-1.7,1.3-1.7-0.2-3C503.6,439.2,503.7,438.6,505.1,440"/>
		<path id="ink-shape_17_" class="st0" d="M269,164.1c0.6,0.6,1.2,1.3,1.8,1.9c0.3-0.8,1.9-3.2,0.8-4
			C270.8,162.7,269.9,163.4,269,164.1"/>
		<path id="ink-shape_18_" class="st0" d="M290.9,170.4c-1-0.2-3.3-0.9-3.9,0C288.4,171.7,291.7,170.6,290.9,170.4"/>
	</g>
</g>
<g class="st2">
	
		<image style="overflow:visible;" width="785" height="124" xlink:href="A16D6A80B2F7341E.png"  transform="matrix(1 0 0 1 107 666.3776)">
	</image>
</g>
</svg>
