<?xml version="1.0" encoding="utf-8"?>
<!-- Generator: Adobe Illustrator 24.3.0, SVG Export Plug-In . SVG Version: 6.00 Build 0)  -->
<svg version="1.1" id="Calque_1" xmlns="http://www.w3.org/2000/svg" xmlns:xlink="http://www.w3.org/1999/xlink" x="0px" y="0px"
	 viewBox="0 0 512 512" style="enable-background:new 0 0 512 512;" xml:space="preserve">
<style type="text/css">
	.st0{fill:#FFC300;}
</style>
<path class="st0" d="M392,128c13.2,0,24-10.8,24-24V56c0-13.2-10.7-24-24-24c-1.4,0-2.7,0.1-4,0.3c-11.7,2.2-20.2,12.6-20,24.5V80
	h-48V40c0-13.2-10.8-24-24-24s-24,10.8-24,24v104h-28.6c11.9-5.9,16.8-20.2,10.9-32.1c-5-10.2-16.4-15.4-27.4-12.7l-1.7,0.5
	l-29-52.2c-1.8-3.2-5.5-4.8-9.1-3.8l-77.3,20.7c-3.5,0.9-6,4.2-5.9,7.9l1,59.7l-1.7,0.5c-12.8,3.3-20.6,16.3-17.3,29.2
	s16.3,20.6,29.2,17.4c0.2,0,0.4-0.1,0.6-0.2l60.3-16.1v5.5c0,13.2,10.8,24,24,24h72v224h-56c-22.1,0-40,17.9-40,40v16
	c0,13.2,10.8,24,24,24s24-10.8,24-24v-8h48v8c0,13.2,10.8,24,24,24s24-10.8,24-24v-8h48v8c0,13.2,10.8,24,24,24s24-10.8,24-24v-16
	c0-22.1-17.9-40-40-40h-56V256h56c13.2,0,24-10.8,24-24v-32c0-13.2-10.7-24-24-24c-1.4,0-2.7,0.1-4,0.3c-11.7,2.2-20.2,12.6-20,24.5
	v7.1h-32v-80L392,128L392,128z M320,96h56c4.4,0,8-3.6,8-8V56.9c-0.2-4.1,2.6-7.8,6.6-8.8c4.3-0.8,8.5,2.1,9.3,6.5
	C400,55,400,55.5,400,56v48c0,4.4-3.6,8-8,8h-72V96z M288,40c0-4.4,3.6-8,8-8s8,3.6,8,8v376h-16V40z M185.3,60.6l24,43.3l-88.4,23.7
	l-0.8-49.5L185.3,60.6z M111.6,163.2c-4.3,1.1-8.7-1.4-9.8-5.7c-1.1-4.3,1.4-8.6,5.7-9.8l123.6-33.1c0.7-0.2,1.4-0.3,2.1-0.3
	c4.4,0,8,3.6,8,8c0,3.6-2.4,6.8-6,7.8L111.6,163.2z M200,176c-4.4,0-8-3.6-8-8v-9.8l16.4-4.4c0.8,3.6,4,6.1,7.6,6.2h56v16H200z
	 M304,472c0,4.4-3.6,8-8,8s-8-3.6-8-8v-8h16V472z M376,432c13.2,0,24,10.8,24,24v16c0,4.4-3.6,8-8,8s-8-3.6-8-8v-8
	c0-8.8-7.2-16-16-16H224c-8.8,0-16,7.2-16,16v8c0,4.4-3.6,8-8,8s-8-3.6-8-8v-16c0-13.2,10.8-24,24-24H376z M360,224c4.4,0,8-3.6,8-8
	v-15.1c-0.2-4.1,2.6-7.8,6.6-8.8c4.3-0.8,8.5,2.1,9.3,6.5c0.1,0.5,0.1,0.9,0.1,1.4v32c0,4.4-3.6,8-8,8h-56v-16L360,224L360,224z"/>
<path d="M304,464v8c0,4.4-3.6,8-8,8s-8-3.6-8-8v-8H304z"/>
<path d="M400,456v16c0,4.4-3.6,8-8,8s-8-3.6-8-8v-8c0-8.8-7.2-16-16-16H224c-8.8,0-16,7.2-16,16v8c0,4.4-3.6,8-8,8s-8-3.6-8-8v-16
	c0-13.2,10.8-24,24-24h160C389.2,432,400,442.8,400,456z"/>
<path d="M384,200v32c0,4.4-3.6,8-8,8h-56v-16h40c4.4,0,8-3.6,8-8v-15.1c-0.2-4.1,2.6-7.8,6.6-8.8c4.3-0.8,8.5,2.1,9.3,6.5
	C384,199,384,199.5,384,200z"/>
<path d="M272,160v16h-72c-4.4,0-8-3.6-8-8v-9.8l16.4-4.4c0.8,3.6,4,6.1,7.6,6.2H272z"/>
<path d="M400,56v48c0,4.4-3.6,8-8,8h-72V96h56c4.4,0,8-3.6,8-8V56.9c-0.2-4.1,2.6-7.8,6.6-8.8c4.3-0.8,8.5,2.1,9.3,6.5
	C400,55,400,55.5,400,56z"/>
<path d="M304,40v376h-16V40c0-4.4,3.6-8,8-8S304,35.6,304,40z"/>
<path d="M241.2,122.3c0,3.6-2.4,6.8-6,7.8l-123.6,33.1c-4.3,1.1-8.7-1.4-9.8-5.7c-1.1-4.3,1.4-8.6,5.7-9.8l123.6-33.1
	c0.7-0.2,1.4-0.3,2.1-0.3C237.6,114.3,241.2,117.9,241.2,122.3z"/>
<polygon points="209.3,103.9 120.9,127.6 120.1,78.1 185.3,60.6 "/>
</svg>
