<?xml version="1.0" encoding="utf-8"?>
<!-- Generator: Adobe Illustrator 24.3.0, SVG Export Plug-In . SVG Version: 6.00 Build 0)  -->
<svg version="1.1" id="Calque_1" xmlns="http://www.w3.org/2000/svg" xmlns:xlink="http://www.w3.org/1999/xlink" x="0px" y="0px"
	 viewBox="0 0 1024 768" style="enable-background:new 0 0 1024 768;" xml:space="preserve">
<style type="text/css">
	.st0{fill-rule:evenodd;clip-rule:evenodd;}
	.st1{fill-rule:evenodd;clip-rule:evenodd;fill:#FFC300;}
	.st2{opacity:0.2;}
</style>
<desc>Created with Sketch.</desc>
<g id="Character_x2F_running">
	<path id="Accent" class="st0" d="M260,332.2c32.9,8.8,65.5,19.1,98.1,28.8c3.7,1.1,3.7,1.3,6.9-0.7c8.9-5.4,18-10.5,27.2-15.4
		c27.8-14.8,56.3-26.6,86.9-34.1c21.7-5.3,43.7-9.6,65.8-12.7c-2.2,6.9-6.6,14.1-12,19c-4.2,3.8-9.9,5.8-15,7.9
		c-15.4,6-31.4,10.2-46.5,16.9c-15.4,6.8-25.1,21-28,37.5c-0.5,3.1-0.5,3.5,2,5.1c2.8,1.7,6.3,2.8,9.4,3.8
		c25.1,8.5,51.5,13.8,77.5,19c13.8,2.8,27.6,5.3,41.5,7.4c8.6,1.3,17.7,3,26.5,2.5c37.5-2.2,59.8-46.8,70.7-77.1
		c33.9,18.4,72.8,30.1,110.8,35.8c46,6.9,104,7.2,140.4-26.7c17.3-16.2,28-38,35.8-60.1c-25.5-2.2-50.9-6-76.2-9.9
		c-4.4-0.7-8.8-1.4-13.2-2.1c-1.8-0.3-4.5-1.3-6.3-1c-2.8,0.4-6.3,3.4-8.8,4.7c-18.7,10.2-38.1,19.5-58.2,26.6
		c-10.8,3.8-21.9,7.2-33.3,8.4c-12.2,1.2-24.8-1.3-36.6-4.3c-29.6-7.5-60.7-20.2-85.4-38.5c-6,8.6-16.9,14.4-27.2,10.2
		c-11.3-4.5-17.6-16.4-23.7-26.2c-2.2-3.6-6.4-3.6-10.5-4.6c-11.5-2.9-23.1-5.3-34.8-7.3c-38.4-6.5-77.9-8.7-116.7-4.2
		c-37.8,4.4-75.1,16.6-108.4,34.9c-14.5,8-28.6,17.2-40.7,28.6C270.3,311.9,261.4,321.3,260,332.2"/>
	<path id="Ink" class="st1" d="M374.2,84.1c11.9,4,22.6,9.8,33,16.6c5.1,3.3,10.2,7.2,15.8,9.5c5,2.1,10.5,3,15.6,4.7
		c23,7.7,48,9.2,71.4,1.8c23.9-7.5,44.1-23.6,68.8-28.7c24.1-4.9,48.5-3.8,71.6,5.1c11.2,4.3,20.7,11.6,30.3,18.7
		c9.2,6.8,18.8,13.5,25.9,22.6c7,8.9,11,20,14.1,30.8c1.8,6.2,2.6,12.7,2.5,19.1c-0.1,4.5-2.5,8.9-1.1,13.3c2,6.1,4.9,10.7,4.1,17.5
		c-0.6,5.5-3.1,10.3-7,14.1c-4,4-8.8,6.7-14.2,8.4c-4,1.3-5.3,1-7.7-2.6c-6.6,6-11.3,13.5-19.5,17.4c-4.1,2-8.3,2.9-12.8,3.2
		c-3.4,0.2-6.6,0.3-9.4,2.4c-3,2.2-14.1,11.9-9.9,15.8c2.5,2.2,8.2,2.7,11.4,4c4.4,1.8,8.6,4,12.6,6.6c14.6,9.4,29.2,15.3,46,19.5
		c17.5,4.4,35.2,6.8,53.3,6.8c16.4,0.1,33.7-1.2,48.9-7.8c7.3-3.2,14.4-7.4,20.4-12.7c6-5.3,9.6-12.7,15.8-17.6
		c4-3.2,0.3-8.1-0.9-12.5c-2.5-8.9-4.4-19-5.2-28.2c-0.7-8.9-2-17.9-3.6-26.7c-1.7-9.4-5.2-18.1-7.7-27.3
		c-1.8-6.8-3.7-14.7-1.5-21.6c1.1-3.4,3.4-7,6.7-8.7c3-1.5,4.8-0.1,7.4-0.2c7.8-0.5,13.8,2.7,19.7,7.9c3.2,2.8,6.9,5.3,9.9,8.2
		c2.4,2.3,2.9,6,5.4,8c4.1-10.5,8.4-23.9,22.4-17.9c11,4.8,12.5,22.6,17.8,31.9c3-2.5,3.4-7.4,4.5-10.8c1.2-3.6,3.3-7.4,6.1-9.9
		c6.3-5.5,14-3.3,18.3,3.3c2.3,3.5,0.9,7.6,3.2,11.1c2.3,3.5,1.6,7.5,2.5,11.6c1.2,5.1,2.6,10.2,3.6,15.3c0.4,2.4,1.1,5.1,1,7.5
		c0,1-0.9,2.8-0.6,3.8c0.3,1.3,1.9,2.5,2.5,3.8c0.8,1.7,0.5,3,0.6,4.8c0.2,3.2,1,5.9,2,9.1c2.3,8.1,1.8,18.3-1.7,25.9
		c-1.8,4-3.1,6.8-3.6,11.1c-0.3,2.7-2.4,5.2-2.3,8.2c0.2,4.1,11.1,10.4,2.5,13.1c-3.6,1.1-4.4,0.5-5.4,4.7c-1,4.1-2.1,8.1-3.7,12
		c-3.4,8.3-8.4,15.7-13.2,23.2c-5.1,8.2-10.6,16.1-18.2,22.1c-7.1,5.6-15.1,10.2-23.2,14.3c-17,8.6-35.8,13.3-54.9,12.9
		c-20.3-0.5-40.9,1.4-61-2c-20.6-3.5-40.7-9.4-61.2-13.3c-9.2-1.8-17.8-3.7-26.2-8c-8.5-4.4-17-8.9-24.8-14.5
		c-5.4,12.9-8.3,26.3-15.9,38.1c-6.7,10.3-14.8,20-24.7,27.4c-9.7,7.2-22.3,12.6-34.5,13.1c-3.7,0.1-9.4-1.5-12.1,1.3
		c-1.3,1.4-1.5,4.2-2,6c-0.9,3.1-2.2,6.1-2.9,9.2c-1.1,4.7,3.3,4.8,7.2,6.7c5.2,2.6,10.3,5.4,15.3,8.3c5.1,3,10,6.4,15.2,9.3
		c4.4,2.5,9,4.4,13.3,7.3c10.1,6.7,21.1,11.1,31.9,16.4c11.6,5.7,22.8,12,34.2,18c22.5,12,45.1,24.4,66.4,38.6
		c9.9,6.6,19.5,13.5,29.6,19.7c9.5,5.8,20.3,12.6,26.4,22.2c4.7,7.4,11.5,11,19.3,15c4.6,2.4,7.4,2.8,11.2-1.1
		c3.7-3.8,7.2-7.7,11.1-11.3c15.8-15,29.4-31.5,42.6-48.8c9.8-12.8,23.2-28.3,41.3-25.5c5.4,0.8,9,3.4,13,6.9c2.7,2.4,7.6,4,9.4,7.1
		c1,1.8,1.5,4.1,2.5,6c1.1,2,2.5,3.9,3.2,6c1.2,3.6-1.4,9.4,1.2,12.4c2,2.2,0.1,7.3-0.4,9.7c-1,4.5-1.8,9.1-3.4,13.5
		c-1.2,3.4-2.4,8.2-5,10.9c-2.3,2.4-5,2.2-4.4,6.3c-2.5-0.8-4.6,5.2-5.4,6.7c-1.9,4.1-4,7.4-7,10.7c-7.7,8.5-16.5,14.2-26.5,19.6
		c-3.6,2-11.2,4.7-12.1,9.3c-0.8,4.4,1.7,7.9-0.1,12.6c-3.6,9.7-11.8,20-18.5,27.8c-6,7-11.9,11.8-21.5,10.1
		c-8.6-1.5-17-5.8-24.1-10.7c-8.6-5.8-17.6-10.2-26.9-14.8c-4.6-2.3-9.1-4.4-13.1-7.6c-3.7-3-6.9-6.5-11.1-8.7c-3-1.6-7-2.7-8.2-6.3
		c-1.4-3.9,1.1-6.3,3.3-9.1c1.4-1.9,2.2-2.2,1-3.7c-1-1.2-3.7-2.2-5.1-3c-3.3-1.8-6.6-3.3-10.1-1.4c-3.9,2.2-6.6,6.7-9.6,9.9
		c-3.5,3.9-7.5,7.5-11.4,11c-7.7,7.1-16.1,13.4-23.6,20.7c-1.7,1.7-5.1,5.9-7.9,5.1c-2.1-0.6-1-1.8-2.1-2.8c-1.2-1-2.1-1-3.6-2.2
		c-3.7-2.8-4.8-8.1-8.7-11c-4-2.9-8.9-5.1-13.2-7.5c-19.7-11.1-38.9-23-56.9-36.7c-9-6.9-17.6-14.3-26.3-21.5
		c-4.1-3.4-8.3-7.1-12.9-9.9c-4.2-2.5-8.8-4.3-13.1-6.7c-9.1-5.2-18.9-9.1-27.9-14.5c-4.2-2.5-7.4-5.9-11.3-8.7
		c-3.5-2.4-6.3-3.9-8.9-7.5c-1.2,2.7-4.6-0.8-5.8-1.6c-1-0.7-2.2-1.1-3.1-1.9c-0.9-0.7-1.4-2.4-2.1-2.9c-1.5-1.2-3.2-0.9-5.2-1.6
		c-2.7-1-6.2-3.5-8.3-5.5c-1.4-1.4,0.9-0.3-1.5-2c-1.1-0.8-3-1-4.3-1.8c-3-1.9-5.7-4.4-8.6-6.6c-5.2-3.9-11.9-7.4-14.8-13.5
		c-15.8,13-31.1,27.1-49.2,36.8c-17.5,9.4-37.8,13.6-56.5,20.1c-19.3,6.7-38.7,13.4-58.3,19c-9.5,2.7-19.3,4.7-29.1,6.6
		c-10,1.9-19.8,1.3-29.8,2.4c-4.9,0.5-9.9,0.4-14.8,0.8c-4.5,0.4-8.9,1.6-13.4,2.2c-4,0.5-8.4,0.1-12.3,1.2
		c-2.8,0.8-6.5,3.6-8.5-0.1c-1.5,2.2-2,1.2-3.9,1c-2.1-0.2-2.7-0.1-4.8,0.3c-3.3,0.6-7,0.9-9.8-1.7c-1.3,4.7-13.8,0.4-15.3-2.7
		c-1.7,4.9-16.9,0.7-17.1-4c-0.2-3.9,2.4-9.6,3.5-13.3c1.8-6,3.9-11.9,6.2-17.8c2.4-6.2,4.9-12.4,7.4-18.5c1.1-2.7,2.1-5.5,3.4-8.1
		c0.6-1.3,2.2-3.2,2.2-4.7c-0.1-4.4-7.9-4.7-11.2-5.8c-2.5-0.8-5-1.7-7.4-2.8c-1.7-0.8-3.8-2.7-5.7-3c-4.4-0.6-3.4,4.4-3.9,7.4
		c-0.6,3.9-2.8,5.9-6.9,6c-4.8,0-18.7-8.3-21.3-1.9c-1.2,3-0.9,8.7-1.3,11.9c-0.7,5.2-0.4,10.5,0.3,15.7c1.2,8.6,5.1,19.5,0.7,27.8
		c-8.7,16.5-39.1,6.5-48.7-3.8c-14.3-15.3-13.8-38.2-7-56.7c3.3-9,8.1-18.6,14.4-26c2.8-3.3,8.1-6.4,9-10.9
		c0.8-3.7-2.1-7.1-1.5-10.9c0.7-4.5,4.5-7.2,7.8-10c3.4-2.8,6.7-5.9,10.6-8.1c9-5.1,19.1-2,28.1,1.7c9.8,4.1,19.1,9.6,27.8,15.6
		c4.3,3,8,5.6,13.1,7c3.9,1.1,7.9,2.2,11.8,3.2c3.7,1,6.9,1.7,9.5-1.5c2.9-3.5,3.8-5,8.8-5.1c5.3-0.2,10.6,0.1,15.9,0.3
		c1.1,0,3.7-0.3,4.5,0.6c0.8,0.8-0.4,2.6,0.4,3.1c1.2,0.8,7.7-8.4,8.3-0.9c0.4-3.6,4.2-1.9,6.3-1.4c0.8,0.2,1.5,0.4,2.3,0.6
		c0.8-0.3,1.5-0.1,2.1,0.6c0.9,0.2,1.5-0.1,1.8-1c9.3-0.1,18.6,0.4,27.9,0.4c10.7-0.1,21.5-0.2,32.1-1.7c3.9-0.6,7.9-1.4,11.8-1.9
		c1.8-0.2,3.3,0,5.1,0.1c0.6,0.1,1.2,0.4,1.8,0.8c0.3-0.5,0.7-0.9,1.2-1.2c6.7-2,13.7-3.3,20.5-5c4.8-1.2,8.8-2.1,13.6-2.5l0.9-0.1
		l1.9,0.6c0.3-0.7,0.7-1.2,1.4-1.6c1.6-0.6,2.9-0.9,4.6-1.1c6.7-0.7,13.2-0.6,19.6-1.6c3.3-0.5,15.5-2.4,17.7,0.9
		c1.7-4,14.1,1.5,17.7-0.9c-5.6-7.7-8.1-15.9-9.7-25.2c-1.7-10.1-2.8-20.7-0.3-30.8c2.4-9.3,7.5-18.8,14.6-25.3
		c6.8-6.3,8.4-13.9,12.9-21.6c9.5-16.2,25.1-26.1,42.4-32.1c9.5-3.3,19.1-6,28.6-9c7.8-2.4,14.2-5.9,18.2-13.4
		c-33,0-64.6,10.2-94.8,22.6c-15,6.2-30,12.6-44.8,19.2c-7.6,3.4-15,7-22.1,11.3l-1.9,1.2c-2.3,1.4-4.5,2.8-6.6,4.5
		c-0.5,0.4-3.3,2-3.4,2.5c-1.3,4.2,5.7,10.9,7.5,14.5c2.5,4.9,4.9,10.6,5.2,16.1c0.4,6.6-3.8,9.9-10.3,8.5
		c-7.9-1.7-13.9-8.2-20.2-12.8c-1.4,4.2,0.4,9,1.4,13.1c1.3,5.6,2.7,11.3,3.6,17c1.4,8.1,0.4,17.1-7.6,21.4
		c-20.4,10.8-30.8-17.6-35-31.8c-2.8,2-2.5,9.4-3,12.5c-1,6-2.1,12.4-4.8,17.8c-2,4.2-5.5,9.1-10.5,9.5c-5.5,0.5-9.9-4.2-12.4-8.6
		c-4.3-7.5-5.3-15.9-5.6-24.4c-0.1-1.9,0.5-19.1-1.4-19.6c-5.5,9.9-8.6,20.9-15.1,30.4c-5.7,8.3-14.3,13.9-22,4.3
		c-11.9-14.8-8.1-36.3-3.2-53c2.8-9.7,6.7-19,11.9-27.7c2.2-3.6,4.8-6.3,7.5-9.5c2.2-2.6,3.1-3.8,2.1-6.9c-0.6-1.8-1.1-1.8-0.6-3.8
		c0.4-1.4,1.4-3.1,2-4.4c1.7-3.7,3.6-7.4,5.7-10.9c4.6-7.5,10.8-13.7,17.4-19.4l0.7-0.6l0,0c-0.4,0.4,2.6-1.9,2.6-2l0,0l0.1,0
		c1.1-0.7,1.6-3.2,2.8-1l0.1,0.2c0.2-3.2,2.9-5,5.2-6.8c0.9-0.7,1.7-1.6,2.8-2c0.7-0.3,2.4,0,2.9-0.4c1-0.8,1.5-2.2,2.5-3.1
		c1-0.9,2.3-1.3,3.4-2c2.7-1.7,5.2-3.7,7.8-5.4c5.6-3.7,11.5-7.1,17.5-10.2c12.6-6.5,26.1-11.7,39.5-16.3
		c11.8-4.1,24.1-7.8,36.3-10.8c12.5-3,25.6-2.3,38.3-3.5c26-2.5,53.4-2,79.4,0.5c12.7,1.2,25.4,3.2,37.9,5.6
		c12.2,2.4,24.8,5,35.6,11.4c2.3,1.4,6.5,5.7,9.2,5.5c2.3-0.1,4.2-4.3,5.3-6c2.5-3.9,5.7-7.5,7.9-11.7c2.7-5.1,4-10.8,6-16.2
		c-9.3,1.3-19,2.1-27.9-1.4c-8.1-3.2-13.5-9.6-19.5-15.6c-6.3-6.2-13.1-10.5-22.2-11.1c-10.3-0.7-19.6,3-29,6.5
		c-20,7.3-40,15.2-60.5,20.7c-10,2.7-20.4,4.8-30.8,5.3c-5.3,0.2-10.7,0-15.9,1c-2.2,0.4-2.8,0.7-4.5-0.2c0.2,0.1-2.2-3.9-2.7-2.3
		c-0.5,1.5,0.3,2.7-1,3.8c-1.6,1.3-4.9,0.7-6.7,0.5c-2.7-0.2-4.8-1.1-7.4-1.8c-4-0.9-8.5-0.3-12.6-0.8c-1.9-0.2-3.3-0.7-5-1.2
		c-1.8-0.6-0.6-0.5-2.5-0.7c-1.6-0.2-2.6,0-4.5-0.6c-1.8-0.6-3.4-1-5.2-1.4c-1.7-0.4-3-1.1-4.5-1.5c1.9,0.6-2.5-1.2-2.3-0.7l0,0l0,0
		c-0.5-0.5-1-1.6-2-1.8l-0.2,0c3.1,4.8-10.6-0.3-11.5-0.5c-7.6-2.3-15.4-7.6-23.3-8c-7.8-0.5-15.3,4.8-21.5,8.7
		c-7.5,4.7-15,9.5-22.5,14.3c-16.6,10.6-34.6,20-53.2,26.4c-9.1,3.1-18.3,5.6-27.5,8.3c-4.1,1.2-8.7,1.7-12.6,3.5
		c-2.7,1.2-6.5,4.7-9.2,1.6c-1.1,2.7-6.4,2.6-8.6,2.7c-0.3,0,0.2,0.7-0.6,0.6c-1.2-0.1-1.5-1.2-2.4-1.4c-1.9-0.5-2.1,0.2-3.9,0.9
		c-2.4,0.9-1.9,0.1-4.1-0.1c-1.2-0.1-2.5,0.5-3.7,0.6c-0.5,0-1.1-0.8-1.9-0.8c-0.7,0-2.3,0.8-3.2,1c-2.3,0.3-4.9,0.1-7.2,0
		c-3.3-0.1-36.1-3.1-33.8-9.9c-4,3.6-13.1-2.3-17.2-4.2c-1.5-0.7-1.6-1.4-2.5-2.2c0.2-1-0.2-1.4-1.2-1.3c-0.2,0-0.5-0.1-0.7-0.1
		c-1.8-0.9-2.5-0.9-3.9-2.5c-1.9-2.2-5.5-4.1-6.5-6.9c-0.3-0.8,0-2.1-0.3-2.7c-0.3-0.8-1.3-0.7-1.5-1.3c-0.1-0.2,0.3-1.6,0.3-1.7
		c-1.7-1.4-4-0.7-5.9-2.4c-5.3-4.6-8.5-13.9-10.1-20.5c-4-17.2-5.4-34.5,2.4-50.8c3.8-7.9,8.4-15.4,13.5-22.6c1.4-2,2.9-4.6,4.7-6.2
		c0.8-0.7,1.9-0.9,2.3-1.3c2.1-2.4,3.2-5.5,6-7.8c3.1-2.6,6.2-5.2,9.7-7.4c3.2-2,7.2-3.2,10.1-5.1c0.8-0.5,0.5-1.3,1.4-1.9
		c0.9-0.6,2.1-0.7,3.2-1c1.2-0.4,2.8-1,4.1-1.1c2.4-0.2,3.2,0.5,5,2.2c0-6.6,12.1-7.5,17-7.5c2.3,0,13.6-1,13.4,2.4
		c2.6-3.4,10.4-0.9,13.9,0.2c4.1,1.2,6.7,4.2,9.3,7.4c0.5-1,1-2,1.5-3.1c0.7,0.5,3.3,1.4,2.5,2.8c3-2.6,1.3-0.5,3.8,0
		c1.1,0.2,2.1-0.2,3.2-0.3c0.1,1.5-0.6,2-1.5,3.1c2.3,0,11.1-0.9,4.6,2c0.9,1.6,5,1,6.5,1.2c0.8,0.1,2.7,0.2,3.2,0.7
		c0.3,0.4-0.2,1.4-0.2,1.5c0.6,0.8-0.7,1.3,0.6,1.5c0.3,0.1,1.3-0.9,1.5-0.9c1.7,0,0.5-0.3,2.2-0.1c0.6,0.1,1.8,0.8,2.6,1
		c12,2.5,26.6-6.8,35.3-13.9c10.4-8.5,19.5-17.7,32-23.2c12.1-5.4,25.6-9.6,38.4-12.7C327.2,76.4,350.8,76.3,374.2,84.1z M677,630.3
		c0.4,0.2,0.8,0.4,1.2,0.6c0.5-0.3,1.1-0.6,1.6-0.8C678.2,629.4,678.1,629,677,630.3z M804.7,596.3c-2.9,1.8-5.4,5.9-7.9,8.4
		c-3.5,3.4-7.2,6.7-10.9,10c4.3,1.5,10.4,7.5,15.1,4.8c2.3-1.3,3.7-5.3,5.2-7.4c2.2-3.2,4.9-6.3,7.5-9.2
		C816.3,599.8,807.8,594.4,804.7,596.3z M534.4,534.2c1.1,0.5,3.6,3.2,2.5,4.2C535.8,537,534.2,536.1,534.4,534.2z M167.5,490.5
		c-2.1,1.8-4.4,5.6-5.9,7.9c-1.6,2.7-1.7,4,0.8,5.8c4.8,3.4,11.8,4.5,17.5,6.1c3,0.9,6.7,3,9.2,0.3c2.5-2.7,2.5-7.7,3.7-11.1
		c0.9-2.7,1.9-5.4,2.8-8.1c-5.3,0.5-10.6,0.6-15.8-0.6C176,490,170.8,487.7,167.5,490.5z M258.7,346.2c-4.3,5.8-8.1,11.9-11.4,18.3
		c-5.6,10.5-9.9,21.7-12.6,33.3c-1.9,8.2-4.8,19.8-0.3,27.6c9.6,17.2,29.2-32.4,32.2-37.6c1.8-3.1,4.5-6.4,7.6-2.4
		c2.5,3.3,1.7,8.5,1.8,12.3c0.3,11.4-1.2,25,3.3,35.8c1.5,3.5,5.5,8.6,9.9,7c4-1.4,6-8.3,7.2-11.9c3.9-11.2,6.7-25,6.8-36.9
		c0-2.4-2.1-18.2,3.4-14.7c3.6,2.3,3.5,13.4,3.8,17c1.4,14.2,4.2,38.3,21.8,40.7c3.9,0.5,8.3-0.4,10.5-3.9c2.8-4.3,0-10.1-1-14.7
		c-1.7-7.8-3.6-15.9-3.8-24c-0.1-4.9,0.4-13.2,7.3-11.3c8.4,2.3,11.9,13.3,21.3,13.6c0-2.2-1.2-4-2.2-5.8c-3.3-6-9.4-11.1-11.5-17.6
		c-0.7-2.2,0-5.4-1.3-7.2c-1.3-1.7-4.1-2.1-6-2.5c-12.7-2.6-25.2-6-37.9-9c-13.5-3.2-26.1-6.6-38.7-12.1
		C263.3,337.6,261.9,341.8,258.7,346.2z M561.9,435c1.9,0.9,3.7,1.8,5.6,2.6c1.6,0.7,2.3,0.1,2.9-1.4
		C569.3,436.1,562.6,433.7,561.9,435z M481.8,242.9c-24.2,0.7-47.8,1-71.7,5.6c-11.4,2.2-22.6,4.7-33.8,7.9c-4.7,1.3-8.9,2.7-13,5.3
		c-1.5,1-5.6,4-6.2,0.5c-2,2-6,7.9-9.3,4.6c-0.6,2.4-2.3,2.3-4.1,3.1c-0.6,0.3-0.9,1.3-1.7,1.6c-0.2,0.1-0.3-1.3-0.6-1.3
		c-1-0.1-1.9,2.1-2.5,2.7c-1.4,1.3-2.8,1.9-4.7,2.4c-0.8,0.3-1.7,0.5-2.5,0.5c-1,0.4-1.6,0.1-1.8-0.9c-1.4,0-2.4,0.5-3.9,1.2
		c3.2,0.7-2.2,1.5-2.9,1.6c-0.1,2.4,1.9,0.9,3.3,1.4c-0.6,3-6.1,5.3-8.4,6.7c-0.4-0.8-0.8-1.7-1.2-2.5c-0.6,0.6-1.1,1.3-1.5,2.1
		c-0.2,1-0.9,1.3-2,1c-1.1,0.8-1.2,0.5-1.9,1.6c-0.7,1.2,1.3,3.6-1.6,2.6c0,4.1-3.8,1.6-3.1,0.5c-2.9-0.3-4.1,4.9-3.8,7
		c-1.4-1.4-2.2-1.2-3.6-0.1l-0.1,0.1l0.1-0.1c1.1-0.7,0,2.2,0.1,2.2l0,0c-2.9,3.8-2.6-0.5-1.7-2.7c-2,0.8-2.3,2.9-3.9,4.1
		c-1.4,1.1-1.8,0.6-3,0.7c-1.9,0.2-1.3-1.3-2.1,0.8c-0.3,0.9,0.2,2.4,0.2,3.4c0.8-1.1,0.5-2.8,2-3.5c-0.4,3.2-6.6,14.2-9.3,7.7
		c-2.5,1.8,0.3,3.7-1.4,6.1c-1.2-1.2-1.5-3.1-1.4-4.7c-0.8,1-0.8,2.3-1.4,3.4c-0.6,1.1-1.3,1.2-1.6,2.4c-0.5,1.8,1.1,0.9,0.3,2.8
		c-0.4,1-2.4,1.8-3.2,2.3c-2.7,1.9-5.5,4.1-2.8,7.2c4.1,4.9,15,5.5,20.9,6.3c12.5,1.8,24.6,4.7,36.9,7.4c7.4,1.6,14.6,3.5,21.9,5.6
		c5.2,1.6,12.4,2.5,15.2,7.9c14.5-13.9,33.9-21.1,51.8-29.5c19.4-9,39.5-17.4,60-23.4c18.2-5.3,36.9-7.4,55.8-9.2
		c5-0.5,12.6-1.7,17,1.3c2.7,1.9,2.9,4.7,0.8,7.2c-1.1,1.4-2.4,1-3,3.4c-0.5,1.9-0.2,3.3,0.2,5.2c-1.3-1-3.5-0.4-4.1-2.1l-0.1-0.2
		l-0.1,0.2c-0.9,3.4,5.1,3.9,3.3,7.9l-0.1,0.2c-0.6,1.2-0.6-2.7-1.2-2.8c-1.5-0.1-2.8,3.5-3.4,4.5c2.8,0,1.8,2.1,0.2,3.1
		c-1.1,0.7-2.9,1-4.2,1.6c-2.5,1.2-4.7,3-7.3,4.2c-2.8,1.3-5.3,1.4-8.1,2.1c-0.4,0.1-2.2,0.8-2.3,0.8c-0.2,0-0.3,0.7-0.5,0.8
		c-1.8,0.3-3.1-1.4-4.9-0.7c-0.7,0.3-0.3,1.9-0.9,2.2c-0.6,0.4-2.4-0.1-3.2-0.2c-1.8-0.1-2.1-0.4-3.6,0.5c-2.5,1.5-3.8,3.5-7.2,3.8
		c-2.7,0.3-4.4-0.2-6.9,0.8c-2.6,1-5,1.2-7.5,1.9c-0.3,0.1-0.4,1.2-0.7,1.2c-0.8,0.2-1.8,0.1-2.6,0.3c-1.8,0.6-3.3,1.1-5,2.1
		c-7.4,4.4-15.5,11-21.3,17.3c-2.6,2.9-10,10.2-7.6,14.3c1.5,2.7,6.9,4,9.5,5.1c4,1.7,8.1,2.9,12.1,4.5c5,1.9,9.5,5,14.6,6.7
		c4.9,1.6,10.2,2,15.2,2.8c21.9,3.8,43.4,9.9,65.3,13.6c12,2.1,24.3,4.5,36.5,2.6c10.8-1.7,21.1-6.5,29.7-13.1
		c15.6-12.1,26.6-29.3,32-48.2c1.1-3.9,1.4-13.7,5-16.1c3-2,4.6,2.4,6.6,4.1c3.2,2.8,7.9,3.9,11.8,5.5c9.6,4,18.2,8.2,28.3,10.9
		c10.2,2.7,20.6,4.9,31,7.1c21,4.6,41,8.9,62.6,8.9c21.3,0.1,42.8,0.9,63.9-3.1c18.5-3.4,37-12.8,50.8-25.6
		c7-6.4,12.3-14.6,17.8-22.3c2.9-4.1,5.7-8.4,8-12.9c1.7-3.3,4.6-8.1,4.9-11.9c0.3-3.4-1.7-2.9-5.1-3.2c-5.2-0.5-10.4-0.9-15.5-1.4
		c-10.4-1.1-20.8-2.4-31.3-3.5c-10.6-1.1-21.2-2.7-31.6-5.5c-3.1-0.8-5.4-1.9-7.6,1.1c-1.4,1.9-1.4,6.3-4.3,3.1
		c-5.6,7.1-13.9,11.4-21.6,15.9c-8.3,4.8-16.5,10.2-25.3,14.1c-19.1,8.4-40.1,7.8-60.3,5.1c-20.6-2.7-41.4-6.3-60.7-14.1
		c-8.9-3.6-16.5-9-24.4-14.3c-3.7-2.5-7.6-4.5-11.6-6.5c-4.5-2.3-7.2-5.7-11.3-8.4c-2.7,8.9-13.2,11.9-21.5,12.3
		c-10.4,0.5-18.7-4.4-25-12.5c-5.2-6.7-6.2-16.6-14.3-20.3c-9.2-4.2-20-5.8-29.9-7.8C529.9,244.9,505.4,242.2,481.8,242.9z
		 M604.6,311.2c2.6,1.2,10.2,9.9,4.2,10c-3.8,0.1-6.1-4.7-10.3-4c-1.9,0.3-4.7,1-5.2,2.4c-1.2,3.6,4.2,6,6.5,7
		c3.6,1.6,6.5,3.1,8.4,6.7c3,5.5,3.8,14.3-3.2,16.7c-5.2,1.8-11.7,0.4-16.8-1c-4.3-1.2-7.6-5.7-5.6-10.1c0.6-1.3,2.1-3.5,3.8-2.6
		c1.4,0.7,0.7,1.9,1.1,3c1.7,4.5,14.5,10.9,17.5,4.1c3.6-8.3-10.1-10.8-14.3-13.5c-5.4-3.6-5.5-9.7-1.4-14.3
		C593,311.5,599.4,308.9,604.6,311.2z M627.2,339.2c-0.2,1.9-0.5,4-0.8,5.9c-0.3,1.7-0.3,3.4-2.2,4c-1.3,0.4-2.5-0.9-3.7-0.1
		c-1.4,1-0.7-6.2-0.6-6.6c0.4-2.7,1.1-8.2,3.7-9.8C627.9,329.8,627.5,336.8,627.2,339.2z M626.9,327.9c-4.7,2.9-5.9-5.4-4-8.1
		C627.5,313,634.3,323.3,626.9,327.9z M532.4,323.8c1.3,1,0.9,0.4,0.9,3.1C531.7,326.9,532,324.8,532.4,323.8z M537.6,321.5
		c-0.4,1,1.6,2.3,2.2,2.5C539.9,323.7,538.9,318.6,537.6,321.5z M285.1,306.3c-1.2,1.8-0.5,2.9,1.4,2.2l0.2-0.1L285.1,306.3z
		 M310,289l-1.2,0.5c-0.6,0.5-1.1,1.1-1.7,1.6C308.8,290.8,309.9,291,310,289z M316.5,286.5c-0.8-1.7-3.6,1.6-3.7,2.4
		C313.5,288.5,317.5,288.4,316.5,286.5z M319.1,280.7c-0.7,1-0.5,1.7,0.4,2.3c0.8-1.1,1.4-2.2,1.8-3.5
		C320.3,278.7,319.5,279.7,319.1,280.7z M852.7,162.6c-2,0.9-1,4.1-0.8,5.8c0.9,8.1,2.5,16.2,3.4,24.3c1.3,11.4,1.5,23,3.6,34.4
		c2,10.3,5.3,20.4,7,30.8c1.2,7-1.1,15,7.2,17.1c7.5,1.9,16,2,23.6,2.8c9.8,1.1,19.7,1.6,29.6,2.1c4.7,0.2,9.5,0.3,14.1,1
		c2.7,0.4,6.1,2.2,8.2-0.3c2-2.5,2-8.7,2.7-11.9c0.8-4.1,1.6-8.3,2-12.5c0.9-9.5-0.4-19-1.7-28.4c-1.4-10.2-2.4-20.4-3.8-30.6
		c-0.9-6.6-0.8-17.1-5.3-22.4c-4.1,12.3-5.2,25.3-5.4,38.2c0,2.8-1.9,18.6-6.7,10.9c-1.3-2.2-1.4-3.4-3.4-5.2
		c-2.1-1.9-2.9-3.4-3.6-6.2c-1.3-5.1-1.5-9.7-4.4-14.3c-5.8-9.4-8.1-21.1-16.7-28.7c-0.1,8.8-1.4,18.4,0.3,27.1
		c1,5.5,5.3,13.4,1.8,18.8c-1.7,2.7-2.7,1.9-4.8,0.5c-1.3-0.9-1.1-1.3-2.8-2.2c-1.6-0.8-2.8-0.8-4.3-2c-5.3-4.1-5.7-11.3-7.4-17.2
		c-3.8-13.1-16.9-21.1-27-29.2C857.2,164.6,854.4,161.8,852.7,162.6z M654.1,189c-7.7,3.1-15.7,4.3-23.9,2.5c0,1.8,2.6,4.7,0.6,5.8
		c-0.5,0.2-3.2-0.9-3.7-1.1c-3-0.8-6.9-2.1-10-1.5c-3.3,0.7-3.2,2.8-1,5.2c3,3.4,10.5,3.5,10.6,9.1c0,2.4-1.5,5.4-1.8,7.9
		c-0.5,3.7-1,7.4-1.9,11.1c-1.5,6.3-3.9,12.3-6.8,18.1c-2.5,5-5.5,10.2-10.2,13.4c-3,2.1-1.9,1.2-1.3,4.3c0.4,2.1,0.3,3.6-2.4,3.1
		c-0.5-0.2-1-0.3-1.5-0.5c6.3,10.4,22.3,16.9,33.3,10c-4.6-3.7,1.7-10.2,4.3-13c4-4.1,8.1-8.9,12.4-12.6c6.5-5.8,15-3,22.7-5.4
		c7.8-2.5,13.5-8,18.5-14.2c4.5-5.5,10.4-12.3,11.1-19.7c0.1-1.5-0.6-3.2-0.3-4.6c0.3-1.4,1.1-1.6,1.6-2.5c0.9-1.9,1.1-3.9,1.3-6
		c0.5-7.1-1.8-8.2-8.4-10c-3.9-1.1-7.8-1.9-11.7-2.9c-3.7-1-7-2.9-10.7-4C667.1,179.3,660.9,186.3,654.1,189z M673.9,233.6
		c6.1,3.7-3.5,6.1-7.1,4.4C662,235.8,670.5,231.5,673.9,233.6z M685.5,202.7c5.6,6.6,11.7,20.1-0.4,22.9c-3.8,0.8-9.6,2.2-13.3,1.2
		c-5.4-1.5-4-8.5,1.4-8.8c3.2-0.2,10.5,2.3,12.4-1.4c1-2-1.3-5.2-1.7-7.2C683.4,206.8,683.8,204.7,685.5,202.7z M353.7,222.6
		L353.7,222.6c0,0,0.1,0.1,0.1,0.1l0,0L353.7,222.6L353.7,222.6z M696.5,205.1c3.9,0,1.9,8.2,0,9.6
		C693.1,217.2,691.6,205.1,696.5,205.1z M671,211.3c-4.5,0.5-3.5-10.2,0.6-10.5C677,200.3,676.2,210.6,671,211.3z M709.8,193.5
		c-0.5,1.1-0.1,11.7,1.2,11.9c0.3-2.6,0.2-5.2,0.1-7.8l0-0.7C711.1,197,711.3,190.4,709.8,193.5z"/>
</g>
<g class="st2">
	
		<image style="overflow:visible;" width="1021" height="125" xlink:href="A17E409A2713DCAF.png"  transform="matrix(1 0 0 1 0.2341 649.0001)">
	</image>
</g>
</svg>
