<?xml version="1.0"?>
<svg xmlns="http://www.w3.org/2000/svg" id="OutLine" viewBox="0 0 512 512" width="512" height="512"><path d="M463.657,362.343C425.439,324.126,395.219,320,384,320a8,8,0,0,0-2.809.51L365.1,326.544C354.823,322.205,345.046,320,336,320a8,8,0,0,0-2.809.51l-21.14,7.927-193.7-253.3A8,8,0,0,0,112,72c-11.676,0-22.834,5.472-32.125,15.59L70.354,75.141A8,8,0,0,0,64,72C32.6,72,8,110.654,8,160c0,5.412,14.375,245.159,16.015,272.479A8,8,0,0,0,32,440H56a8,8,0,0,0,7.993-7.667L69.074,310.4c5.583,62.586,10.885,121.512,10.958,122.318A8,8,0,0,0,88,440h24a8,8,0,0,0,8-8V293.276c29.83,41.573,64.448,117.276,64.819,118.089.107.235.224.462.352.685C196.03,430.857,213.965,440,240,440H496a8,8,0,0,0,8-8C504,410.363,482.268,380.954,463.657,362.343ZM108.3,88.331,296.4,334.306l-21.65,8.119L89.8,100.569C95.39,93.724,101.773,89.5,108.3,88.331ZM95.312,424c-2.18-24.259-9.379-104.409-15.178-169.847,6.775,4,14.946,10.254,23.866,19.637V424ZM240,424c-19.939,0-32.911-6.24-40.788-19.634-3.245-7.095-41.439-89.956-72.965-129.364-33.436-41.8-59.4-43-62.247-43a8,8,0,0,0-7.993,7.667L48.326,424H39.534C33.955,330.943,24.106,165.687,24,160c0-36.782,16.271-68.185,36.293-71.678L265.646,356.859a7.994,7.994,0,0,0,9.163,2.631l62.579-23.467c7.277.246,15.386,2.4,24.131,6.419,18.2,8.363,37.989,24.3,54.294,43.72,11.407,13.586,19.679,27.468,22.81,37.838Zm215.1,0c-2.836-13.587-12.337-30.619-27.035-48.126-13.235-15.765-28.715-29.48-44.13-39.306l1.45-.544c19.047.654,43.939,14.616,66.956,37.633,16.99,16.989,30.149,36.6,34.289,50.343Z"/></svg>
