<svg id="Capa_1" data-name="Capa 1" xmlns="http://www.w3.org/2000/svg" viewBox="0 0 77.9 77.9"><defs><style>.cls-1{fill:#ebebeb;}</style></defs><path d="M38.9,0A39,39,0,0,0,0,38.9a35.43,35.43,0,0,0,.7,7.3l-.1.2.2.2A38.93,38.93,0,1,0,38.9,0ZM56.13,41.1A66.48,66.48,0,0,0,57.88,33c.21-1.32.38-2.63.51-3.9,0-.43.09-.85.12-1.27.08-.84.14-1.67.18-2.48,0-.29,0-.58,0-.86A87.69,87.69,0,0,0,58,8.6c.78.49,1.53,1,2.27,1.55.37.26.73.54,1.09.84a12.24,12.24,0,0,1,1,.88,12.46,12.46,0,0,1,1,.92l1,1c.33.32.65.66,1,1s.56.61.82.92a1,1,0,0,1,.13.15,37,37,0,0,1,5.78,9.47c0,.36,0,.72,0,1.06s0,.71-.09,1.06h0C70.79,38.21,60.53,40.64,56.1,41.2ZM35.27,3.27l1.18-.09c.83-.05,1.68-.08,2.55-.08q1,0,2,.06l.91.06.85.08h0c.26,0,.53,0,.79.09l.1,0c.59.08,1.18.17,1.76.28.39.07.78.15,1.16.24s.79.18,1.17.28.73.19,1.1.3c.92.26,1.82.57,2.7.91l.74.29L53,6c.49.21,1,.43,1.46.67.7,3.4,3.1,18.58-1.69,34.27v0c-9.1-2.4-10.4-9.1-12.1-18.1-1.2-6.1-2.5-13-6.7-19.5C34.42,3.35,34.84,3.3,35.27,3.27ZM30.8,4c4.5,6.3,5.8,13.3,7,19.4a65.82,65.82,0,0,0,2.1,8.9c.17.5.36,1,.55,1.48a15.22,15.22,0,0,0,.64,1.43c.24.49.5,1,.79,1.44,2,3.25,5,5.8,10.12,7.15a63.11,63.11,0,0,1-2.9,6.6l0,0L48.18,50l-.88-.44L46.21,49c-.61-.32-1.21-.64-1.8-1s-1.22-.67-1.81-1-1.19-.69-1.77-1h0c-.66-.4-1.31-.8-2-1.22-.21-.12-.41-.25-.6-.38-.55-.35-1.1-.71-1.63-1.07L35,42.17c-.53-.36-1-.73-1.55-1.1s-.79-.57-1.18-.86c-.75-.55-1.48-1.11-2.2-1.67l-1.83-1.47-1.83-1.52c-.47-.4-.93-.79-1.38-1.19l-1.21-1.09c-.4-.35-.79-.71-1.17-1.06L21.51,31.1c-.59-.56-1.16-1.12-1.71-1.66l-.67-.66s0,0,0,0l-1.45-1.5c-.47-.48-.91-1-1.34-1.42q-.33-.34-.63-.69L14,23.28C12,20.89,10.55,19,9.8,18A36.09,36.09,0,0,1,30.8,4ZM8.1,20.7C12.3,26.2,26,42.6,47.6,53.1a37.13,37.13,0,0,1-2.8,4.1l-.07,0h0C38.85,54.3,33.28,53.8,28,53.4c-7.4-.6-15.1-1.2-24.4-8.6a28.79,28.79,0,0,1-.5-5.9,35.57,35.57,0,0,1,5-18.18S8.1,20.71,8.1,20.7ZM4.7,49.5c8.6,5.8,15.9,6.4,23,7,1.19.09,2.37.19,3.54.31l1.17.13c.64.07,1.27.16,1.9.25s1.22.2,1.83.34l1.41.33.63.16.79.22c.63.18,1.26.4,1.9.65s1.28.51,1.93.81A51.07,51.07,0,0,1,26.2,72.4,35.75,35.75,0,0,1,4.7,49.5ZM50,73a36.87,36.87,0,0,1-11.1,1.8,40.47,40.47,0,0,1-8.6-1A54,54,0,0,0,45.6,61.2c1.6.9,4.9,3,5.7,6.1C51.8,69,51.3,71,50,73Zm4.1-1.6,0-.11h0a9.37,9.37,0,0,0,.37-2.08,7.36,7.36,0,0,0,0-1.15c0-.15,0-.29,0-.44a7.28,7.28,0,0,0-.27-1.21c-1.1-3.9-4.6-6.4-6.7-7.7l0-.07A39.73,39.73,0,0,0,50.3,54.4c2.47,1.12,5.06,2.15,7.76,3.07l.6.21c2.92,1,5.94,1.82,9,2.52A36.15,36.15,0,0,1,54.1,71.4Zm6.28-16.35A83.92,83.92,0,0,1,51.8,51.7,66.19,66.19,0,0,0,55,44.3c2.7-.2,10.2-1.2,15.3-6.4a16.13,16.13,0,0,0,3.8-6.1l0,.17h0c.12.52.21,1,.29,1.56A34.84,34.84,0,0,1,74.79,38c0,.3,0,.6,0,.9a35.63,35.63,0,0,1-5.2,18.6A80.73,80.73,0,0,1,60.38,55.05Z" transform="translate(0 0)"/><path class="cls-1" d="M47.5,53.1a36.5,36.5,0,0,1-2.77,4.07h0C38.85,54.3,33.28,53.8,28,53.4c-7.4-.6-15.1-1.2-24.4-8.6a28.79,28.79,0,0,1-.5-5.9,35.57,35.57,0,0,1,5-18.18A115.51,115.51,0,0,0,47.5,53.1Z" transform="translate(0 0)"/><path d="M44.72,57.17l0,0c-5.9-2.9-11.5-3.4-16.8-3.8-7.4-.6-15.1-1.2-24.4-8.6a38.33,38.33,0,0,1-.5-6A35.52,35.52,0,0,1,8,20.6l.09.12a35.57,35.57,0,0,0-5,18.18,28.79,28.79,0,0,0,.5,5.9c9.3,7.4,17,8,24.4,8.6C33.28,53.8,38.85,54.3,44.72,57.17Z" transform="translate(0 0)"/><path class="cls-1" d="M42.8,59.7A51.07,51.07,0,0,1,26.2,72.4,35.75,35.75,0,0,1,4.7,49.5c8.6,5.8,15.9,6.4,23,7,1.19.09,2.37.19,3.54.31l1.17.13c.64.07,1.27.16,1.9.25s1.22.21,1.83.34l1.41.33.63.16.79.22c.63.2,1.26.41,1.9.65S42.15,59.4,42.8,59.7Z" transform="translate(0 0)"/><path class="cls-1" d="M50,73a36.87,36.87,0,0,1-11.1,1.8,40.47,40.47,0,0,1-8.6-1A54,54,0,0,0,45.6,61.2c1.6.9,4.9,3,5.7,6.1C51.8,69,51.3,71,50,73Z" transform="translate(0 0)"/><path class="cls-1" d="M67.7,60.2A35.75,35.75,0,0,1,54.13,71.28a9.37,9.37,0,0,0,.37-2.08,7.36,7.36,0,0,0,0-1.15,7,7,0,0,0-.31-1.75c-1.09-3.87-4.55-6.36-6.65-7.67A39.73,39.73,0,0,0,50.3,54.4c2.47,1.12,5.06,2.15,7.76,3.07l.6.21A73.38,73.38,0,0,0,67.7,60.2Z" transform="translate(0 0)"/><path d="M58.06,57.47c-2.7-.92-5.29-1.95-7.76-3.07a39.73,39.73,0,0,1-2.75,4.23l0,0a39.55,39.55,0,0,0,2.8-4.3C52.8,55.46,55.39,56.53,58.06,57.47Z" transform="translate(0 0)"/><path d="M54.1,71.3a11.1,11.1,0,0,0,.4-2.1,9.37,9.37,0,0,1-.37,2.08h0Z" transform="translate(0 0)"/><path class="cls-1" d="M74.8,38.9a35.63,35.63,0,0,1-5.2,18.6,80.73,80.73,0,0,1-9.22-2.45A77.91,77.91,0,0,1,51.9,51.7a66.19,66.19,0,0,0,3.2-7.4c2.7-.2,10.2-1.2,15.3-6.4A16,16,0,0,0,74.13,32c.12.52.21,1,.29,1.56.18,1.47.32,3,.37,4.46C74.8,38.3,74.8,38.6,74.8,38.9Z" transform="translate(0 0)"/><path d="M74.42,33.54c-.08-.53-.17-1-.29-1.56,0,0,0,0,0,0a1.22,1.22,0,0,0,.07-.17C74.28,32.38,74.35,33,74.42,33.54Z" transform="translate(0 0)"/><path class="cls-1" d="M72.1,25.29c0,.36,0,.72,0,1.06C71.4,37.94,60.7,40.51,56.13,41.1A66.48,66.48,0,0,0,57.88,33c.21-1.32.38-2.63.51-3.9,0-.43.09-.85.12-1.27.08-.84.14-1.67.18-2.48,0-.29,0-.58,0-.86A87.69,87.69,0,0,0,58,8.6c.78.49,1.53,1,2.27,1.55.36.27.73.55,1.09.84l1,.88c.35.3.69.61,1,.92l1,1c.33.33.64.66,1,1s.56.61.82.92a1,1,0,0,1,.13.15A37,37,0,0,1,72.1,25.29Z" transform="translate(0 0)"/><path d="M56.1,41.1A65.9,65.9,0,0,0,57.88,33a66.48,66.48,0,0,1-1.75,8.12Z" transform="translate(0 0)"/><path d="M72.1,25.2v.09a37,37,0,0,0-5.78-9.47A35.83,35.83,0,0,1,72.1,25.2Z" transform="translate(0 0)"/><path class="cls-1" d="M52.81,41c-9-2.42-10.32-9.1-12-18.07-1.2-6.1-2.5-13-6.7-19.5.78-.1,1.56-.17,2.35-.22S38.13,3.1,39,3.1q1,0,2,.06A35.37,35.37,0,0,1,54.5,6.7C55.2,10.1,57.6,25.28,52.81,41Z" transform="translate(0 0)"/><path d="M52.9,41l-.09,0C57.6,25.28,55.2,10.1,54.5,6.7A35.37,35.37,0,0,0,41,3.16,35.15,35.15,0,0,1,54.6,6.7C55.2,10,57.7,25.2,52.9,41Z" transform="translate(0 0)"/><path class="cls-1" d="M51.9,43.9a62.86,62.86,0,0,1-2.84,6.48A111.15,111.15,0,0,1,15.71,25.16L14,23.28C12,20.89,10.55,19,9.8,18a36.09,36.09,0,0,1,21-14c4.5,6.3,5.8,13.3,7,19.4a65.82,65.82,0,0,0,2.1,8.9c.17.5.35,1,.55,1.48a15.22,15.22,0,0,0,.64,1.43C43,39.16,46.16,42.31,51.9,43.9Z" transform="translate(0 0)"/><path d="M14,23.28l1.67,1.88C15.11,24.5,14.56,23.87,14,23.28Z" transform="translate(0 0)"/><path d="M49.06,50.38,49,50.5A112.33,112.33,0,0,1,15.71,25.16,111.15,111.15,0,0,0,49.06,50.38Z" transform="translate(0 0)"/></svg>