<?xml version="1.0" encoding="utf-8"?>
<!-- Generator: Adobe Illustrator 24.3.0, SVG Export Plug-In . SVG Version: 6.00 Build 0)  -->
<svg version="1.1" id="Capa_1" xmlns="http://www.w3.org/2000/svg" xmlns:xlink="http://www.w3.org/1999/xlink" x="0px" y="0px"
	 viewBox="0 0 77.8 77.8" style="enable-background:new 0 0 77.8 77.8;" xml:space="preserve">
<style type="text/css">
	.st0{fill:#FFC300;}
</style>
<g>
	<path class="st0" d="M38.9,0C17.5,0,0,17.5,0,38.9c0,2.5,0.2,4.9,0.7,7.3l-0.1,0.2c0.1,0.1,0.1,0.1,0.2,0.2
		c3.5,17.8,19.3,31.3,38.2,31.3c21.5,0,38.9-17.5,38.9-38.9C77.8,17.5,60.4,0,38.9,0z M58,8.6c6.3,3.9,11.2,9.8,14.1,16.7
		c0,12.6-11.3,15.3-16,15.9C60,27.5,58.8,14.5,58,8.6z M38.9,3.1c5.6,0,10.9,1.3,15.6,3.6c0.7,3.4,3.1,18.6-1.7,34.3
		c-9.1-2.4-10.4-9.1-12.1-18.1c-1.2-6.1-2.5-13-6.7-19.5C35.6,3.2,37.3,3.1,38.9,3.1z M30.8,4c4.5,6.3,5.8,13.3,7,19.4
		c1.7,9,3.3,17.5,14.2,20.4c-0.8,2.2-1.8,4.4-2.9,6.6C26.6,39.6,12.8,22.1,9.8,18C14.8,11.1,22.2,6,30.8,4z M3.1,38.9
		c0-6.6,1.8-12.8,5-18.2c4.2,5.5,17.9,21.9,39.5,32.4c-0.8,1.4-1.8,2.8-2.8,4.1c-5.9-2.9-11.5-3.4-16.8-3.8
		c-7.4-0.6-15.1-1.2-24.4-8.6C3.2,42.9,3.1,40.9,3.1,38.9z M4.7,49.5c8.6,5.8,15.9,6.4,23,7c5.1,0.4,10,0.8,15.1,3.2
		c-4.1,4.9-9.6,9.2-16.6,12.7C15.9,68.5,7.9,60,4.7,49.5z M50,73c-3.5,1.1-7.2,1.8-11.1,1.8c-3,0-5.8-0.4-8.6-1
		c6.4-3.6,11.4-7.9,15.3-12.6c1.6,0.9,4.9,3,5.7,6.1C51.8,69,51.3,71,50,73z M54.1,71.4c0.5-1.7,0.6-3.4,0.1-5
		c-1.1-3.9-4.6-6.4-6.7-7.7c1-1.4,2-2.8,2.8-4.3c5.3,2.4,11.2,4.4,17.4,5.8C64.2,65,59.5,68.8,54.1,71.4z M51.8,51.7
		c1.3-2.5,2.3-5,3.2-7.4c2.7-0.2,10.2-1.2,15.3-6.4c1.7-1.7,3-3.8,3.8-6.1c0.5,2.3,0.7,4.7,0.7,7.1c0,6.8-1.9,13.2-5.2,18.6
		C63.2,56.2,57.3,54.2,51.8,51.7z"/>
	<path d="M47.5,53.1c-0.8,1.4-1.8,2.8-2.8,4.1c-5.9-2.9-11.5-3.4-16.8-3.8c-7.4-0.6-15.1-1.2-24.4-8.6c-0.3-1.9-0.5-3.9-0.5-6
		c0-6.6,1.8-12.8,5-18.2C12.2,26.2,26,42.6,47.5,53.1z"/>
	<path d="M42.8,59.7c-4.1,4.9-9.6,9.2-16.6,12.7C15.9,68.5,7.9,60,4.7,49.5c8.6,5.8,15.9,6.4,23,7C32.8,56.9,37.6,57.3,42.8,59.7z"
		/>
	<path d="M50,73c-3.5,1.1-7.2,1.8-11.1,1.8c-3,0-5.8-0.4-8.6-1c6.4-3.6,11.4-7.9,15.3-12.6c1.6,0.9,4.9,3,5.7,6.1
		C51.8,69,51.3,71,50,73z"/>
	<path d="M67.7,60.2c-3.5,4.7-8.2,8.6-13.6,11.1c0.5-1.7,0.6-3.4,0.1-5c-1.1-3.9-4.6-6.4-6.7-7.7c1-1.4,2-2.8,2.8-4.3
		C55.7,56.8,61.5,58.9,67.7,60.2z"/>
	<path d="M74.8,38.9c0,6.8-1.9,13.2-5.2,18.6c-6.4-1.3-12.3-3.3-17.7-5.8c1.3-2.5,2.3-5,3.2-7.4c2.7-0.2,10.2-1.2,15.3-6.4
		c1.7-1.7,3-3.8,3.8-6.1C74.5,34.1,74.8,36.5,74.8,38.9z"/>
	<path d="M72.1,25.2c0,12.6-11.3,15.3-16,15.9C60,27.5,58.8,14.5,58,8.6C64.2,12.5,69.2,18.3,72.1,25.2z"/>
	<path d="M52.9,41c-9.1-2.4-10.4-9.1-12.1-18.1c-1.2-6.1-2.5-13-6.7-19.5c1.6-0.2,3.2-0.3,4.9-0.3c5.6,0,10.9,1.3,15.6,3.6
		C55.2,10,57.7,25.2,52.9,41z"/>
	<path d="M51.9,43.9c-0.8,2.2-1.8,4.4-2.9,6.6C26.6,39.6,12.8,22.1,9.8,18c5-6.9,12.4-12,21-14c4.5,6.3,5.8,13.3,7,19.4
		C39.5,32.4,41.1,40.9,51.9,43.9z"/>
</g>
</svg>
