<?xml version="1.0" encoding="utf-8"?>
<!-- Generator: Adobe Illustrator 24.3.0, SVG Export Plug-In . SVG Version: 6.00 Build 0)  -->
<svg version="1.1" id="Calque_1" xmlns="http://www.w3.org/2000/svg" xmlns:xlink="http://www.w3.org/1999/xlink" x="0px" y="0px"
	 viewBox="0 0 1024 768" style="enable-background:new 0 0 1024 768;" xml:space="preserve">
<style type="text/css">
	.st0{fill-rule:evenodd;clip-rule:evenodd;}
	.st1{fill-rule:evenodd;clip-rule:evenodd;fill:#FFC300;}
	.st2{opacity:0.2;}
</style>
<desc>Created with Sketch.</desc>
<g id="Character_x2F_selfie">
	<path id="Accent" class="st0" d="M530.2,382h0.2c2.2,0.4,5.9,6.8,7.5,8.6c4.9,5.9,9.8,11.7,14.7,17.6c2,2.3,4.8,4.8,6.2,7.5
		c1.1,2.1,1.4,5,2.1,7.2c8,27.8,15.7,55.8,21.5,84.1c1.2,6.1,2.4,12.2,3.1,18.4c0.3,3.1,1.2,7.6-0.1,10.5c-1.5,3.3-6.3,4.7-9.5,5.8
		c-6.1,2-12.5,3.2-18.8,4.3c-15.3,2.6-30.7,4.1-46.1,5.3c-4.7,0.4-9.6,0.4-14.2,1c-2.2,0.3-1.6-0.3-2.3,1.2c-1,2.1-0.3,6.4-0.4,8.7
		c-0.3,5.4-0.5,10.7-0.8,16.1l0,0l-2.2,43.8c-0.8,14.8-1.5,29.6-2.3,44.4c-0.3,5.6-0.6,11.2-0.9,16.8c-0.2,3,0.3,6.9-0.5,9.8
		c-0.6,2.2,0.4,1.5-2.3,1.7c-6.2,0.3-12.7-0.5-18.9-0.7c-7.1-0.3-14.2-0.5-21.2-0.8c-2-0.1-4.3,0.5-5.1-0.9c-1-1.8-0.2-6.6-0.3-8.6
		c-0.2-5.5-0.4-11-0.6-16.5c-0.5-15.1-1.1-30.1-1.6-45.2c-0.7-20.6-1.5-41.1-2.2-61.7c-7.9,1.6-15.7,3.2-23.6,4.8
		c-11.6,2.3-23.3,4.7-34.9,7c-5.3,1.1-11.7,3.5-17.2,2.7s-7.7-3.1-8-8.3c-0.3-5.6-0.2-11.2-0.1-16.7c0.1-9.1,0.4-18.2,0.7-27.3
		c15.5-1.4,31.1-2.8,46.6-4.2c8.3-0.7,16.5-1.5,24.8-2.2c1.9-0.2,6.5,0.2,7.3-1.2c1.3-2.2-0.1-9.4-0.2-11.9l0,0l-0.4-23.5l0,0
		l-1.4-86.5c3.7,0.1,7.4,0.2,11.2,0.3c16.2,0.5,32.4,1.1,48.6,0.6c8.1-0.2,15.8-2.4,23.5-5c4.1-1.4,8.1-2.9,12.1-4.4
		c1.3-0.5,5-2.8,6.3-2.6L530.2,382z M508.4,462.5l-8.3,40.4l28.3-1.9L508.4,462.5z"/>
	<g id="Ink" transform="translate(257.000308, 20.000000)">
		<path id="ink-shape" class="st1" d="M487.7,114.6c-0.6,4.5-0.2,9.4-5.2,10.6c-4.7,1.1-9.9,0.8-14.6,1.2c-5.4,0.4-10.8,1-16.1,1.6
			c-6.8,0.7-5.8-1.9-7.3-7.7c-1.4-5.3-3.5-10.6-5.3-15.7c-0.8-2.4-1.8-4.6-3-6.9c-1-2-0.5-4.8-1.7-6.5c-3.8-5.9-22.3,10.2-24,7
			c3.1-2.4,8.5-5.2,9.5-9.3c1.1-4.9-2-6.4-5.9-4.6c-9.6,4.4-20.7,7.9-31.2,9.5c3.4-2.3,34.1-20.2,23.8-25.5
			c-2.3-1.2-5.4,1.1-7.5,1.9c-3.3,1.4-6.8,2.3-10.3,3.1c-3.7,0.9-7.3,1.8-11,2.7c-2.6,0.6-7.2,2.7-9.7,2.2c-2.6-0.5,2-2.1,2.7-2.5
			c3.2-1.6,6.4-3.4,9.6-5.1c5.6-3.1,10.8-6.8,15-11.6c3.2-3.7,8.5-11.7,6.3-16.7c-1.3-2.9-4.1-5.6-5.8-8.4
			c-1.9-3.2-3.5-6.7-5.2-10.1c2.8,1.2,6,1.6,8.9,2.7s5.8,2,8.8,2.9c6,1.7,12,2,18,3.3c6.8,1.5,13.8,3.2,20.7,4.1
			c6,0.8,11.4,2.4,16.5,5.7c10.5,6.7,17.7,16.2,21.4,28c2.1,6.9,2.7,14.2,2.9,21.4C488.1,99.3,488.7,107.1,487.7,114.6 M429,115.2
			c-7.3,5.3-15.8,9.5-23.7,14c-4.5,2.6-9.1,5-13.6,7.4c-3.2,1.7-7.2,4.9-10.8,5.8c-2.3,0.6-2.1,0.6-3.5-1.5c-1.4-2-2.6-4.1-3.8-6.1
			c-2.4-3.7-4.7-7.5-7.1-11.2c-5.3-8.3-10.7-16.7-16.3-24.9c-5.6-8.2-11-16.5-16.5-24.9c-2.5-3.9-5.1-7.7-7.7-11.5
			c-2.1-2.9-7.3-7.2-4.8-10.6c2.3-3.1,7.6-5.7,10.7-8.1c3.8-2.9,7.7-5.8,11.5-8.7c8.2-6.3,16.2-12.8,24.4-19.1
			c7,12.2,15.1,23.6,23.4,35c-7.5,4.8-15,9.3-22.9,13.4c-5.8,3-14.7,7.1-18.4,12.8c-3.6,5.6-0.1,12.1,6.4,12.2
			c3.9,0.1,7.7-1,11.5-1.5c2.7-0.4,7.7-2.4,10.2-1c-4.4,2.8-20.4,11-11.8,18.2c6.2,5.1,16.6-2.4,23.3-0.8c-2,3.9-4.1,10.1,1.5,12.2
			c4.7,1.8,10.8-1.5,15.1-3.3c3.1-1.3,6.1-2.6,9.1-3.9c2.4-1.1,5.2-3.3,7.8-3.8C425.8,104.8,431.9,113.1,429,115.2 M293.2,402.7
			c4.2-0.8,6.3-2.5,7.6,2.6c1.2,4.5,2.3,8.9,3.9,13.4c-6.5,0.6-12.3,3.7-17,8.1c-3.4,3.1-10.1,10.6-8.5,15.8
			c4.1,12.7,24.6-15.8,27-18.9c3,4.4,4.1,10.1,5.6,15.1c1.1,3.5,5,10.3-0.2,11.2c-7.3,1.2-20.9,3.9-20,14.2
			c1,12.1,16.5,12.1,25.1,12.6c4.9,0.3,4.9,4.2,5.6,8.6c0.3,2,1.3,4.6-0.4,6c-1.5,1.3-6,1.3-7.9,1.7c-5.6,1.2-11.2,2.4-16.8,3.6
			c-6.4,1.4-9.7-0.5-15.7-2.3c-2.2-0.6-4.4-0.4-4.6-2.8c-0.1-1.5,1.4-3.9,1.9-5.4c1.9-5.9,3.6-12,4.1-18.2c0.8-9-0.2-22.6-11.3-24.4
			c-5.3-0.8-6.3-1.1-8.7-6.1c-2.6-5.4-6.7-10.3-5.7-16.5c0.7-4.5-0.5-13,2.4-16.7c1.3-1.7,3.9-2.7,5.7-4c2.2-1.6,4.4-3.3,6.5-5.1
			c1.8-1.5,3.9-4.5,5.9-5.6c2.4-1.3,2.5-0.4,4.3,1.7C284.4,394.4,288.5,403.5,293.2,402.7 M305,422.8c-1.4,2.9-4.8,5.6-6.9,8.1
			s-4.2,5-6.6,7.3c-2.6,2.4-12,8.4-9.9,0.4c1.6-6.2,7.6-11.2,12.9-14.3C295.5,423.6,307.5,417.8,305,422.8 M315.3,452.2
			c0.9,4.1,1.4,8.4,2.2,12.6c0.4,2.1,2.6,7.3,1.7,9.3c-1.5,3.5-15.5-0.6-18.4-1.8c-6.9-2.8-10-10.2-3.7-15.4
			C299.5,455,314.3,448.1,315.3,452.2 M324.4,502c0.8,4,3,7.6-0.7,10.6c-3.1,2.5-8.2,4.2-12.1,5.1c-5.2,1.2-6.9-1.7-9.7-5.5
			c-3-4.1-6.2-8-9.4-11.8c10.3-2.3,20.7-4.6,31-6.9C323.5,496.3,323.9,499.2,324.4,502 M299.6,520.4c-5.4-0.3-11.2,1.3-16.7,1.8
			c-6.8,0.5-13.6,1.3-20.5,1.8c1.8-5.6,4.9-10.6,7.4-15.9c2.5-5.3,4.2-5.9,9.9-6.3c5.3-0.4,9-2.2,12.9,2.3c4,4.6,7.7,9.7,11.4,14.6
			C302.7,519.5,301.2,520.4,299.6,520.4 M261.1,521.5c-1.3,1-5.4-1.8-6.8-2.3c-2.7-1-3.3-1.4-4.7-4c-1.2-2.3-3.1-4.8-3.5-7.4
			c-0.5-3.4,1-7.9,1.6-11.2c1.5,3.5,6.2,3.9,9.5,4.5c2.4,0.4,9.7-0.3,11.5,1.5c2,1.9-1.7,7.3-2.7,9.3
			C264.8,514.2,263.3,519.9,261.1,521.5 M258.5,524.3c-1.6,0.3-6.2,1.9-6.1-1.1C252.5,519.9,258.8,523.5,258.5,524.3 M250.3,524.1
			c-0.3,2.8-6.3,2.6-6.5,0.1C243.6,520,250.8,519.6,250.3,524.1 M243.4,448.2c-1.5,4.4-11,6-14.6,7.3c-3.3,1.2-13.2,7-16.6,4.9
			c11.5-7.9,23.4-15.7,33.1-25.8c0.4,2.5-0.2,4.6-0.9,7C243.8,443.7,244.1,446.3,243.4,448.2 M240.6,464.3
			c-1.7,10.8-3.3,21.7-5.5,32.4c-4.3-1.3-7.8-4-12.3-4.9c-4.1-0.8-8.3-0.9-12.5-0.2c-8.8,1.3-16.7,5.7-24.4,9.9
			c-0.7-7.4-2.2-15.3-2-22.8c0.1-6.2,10.7-8,15.5-10.6c2.9-1.5,5.5-3.7,8.8-4.3c3.4-0.6,6.7-0.5,10-1.6c7.9-2.4,15.4-6.3,23.2-9.2
			C242,456.9,241.1,460.7,240.6,464.3 M233.1,510c-0.4,2.5,0.1,6.8-1.8,8.7c-1.8,1.8-5.5,1.8-7.8,2.3c-7.1,1.5-14.1,2.9-21.2,4.4
			c-3.2,0.7-6.3,1.3-9.5,1.9c-1.5,0.3-5.3,1.7-6.6,0.5c-1.2-1.1-0.3-4.8-0.2-6.3c0.1-3.1,0.3-6.1,0.1-9.2c-0.4-5.9,0-8.1,5.4-11.2
			c5.8-3.2,11.8-5.4,18.4-6.6c6.6-1.2,12.9-0.5,19.2,2c1.8,0.7,4.4,1.6,5.2,3.5C235.4,502.6,233.5,507.4,233.1,510 M225.2,604.8
			c-2.6,1.6-8.2,1.3-11.2,1.7c-4.8,0.5-9.7,0.2-14.4-0.5c-3.6-0.6-9-1.3-11.7-3.9c-3.9-3.6,0.6-3.8,3.6-3.5
			c8.7,0.7,17.5,0.2,26.3-0.4c1.7-0.1,6.3-1.6,7.9-0.9C227.6,598.1,227,603.6,225.2,604.8 M220.2,662.8c-16.2-1.6-25.7-15-31.5-28.8
			c-3.2-7.4-2-15.1-2.3-22.9c-0.1-1.4-1-5,0.5-6c1.4-1,6.9,2.1,8.5,2.5c7.7,1.9,16.3,2.1,24,0.2c3.4-0.8,5.2-2.3,6.3,1
			c0.9,2.7-0.6,7.6-0.7,10.4C224.7,624,225.4,663.3,220.2,662.8 M187.8,662.8c-0.1-2.4-1.3-26.2-0.1-26.2c3.4,7.4,6.9,14,13.2,19.4
			c3.2,2.8,6.8,5.3,10.8,6.8c1.5,0.6,10,1,10.4,2.8c0.7,3.3-5.1,1.9-6.8,1.7c-1.4-0.2-2.6-0.8-4-1c-2.6-0.5-5,0.2-7.6,0.2
			c-3.9,0.1-7.8-0.3-11.7,0C188.3,666.8,187.9,666.3,187.8,662.8 M190.2,556c13.9-4.5,25.5,4,32.9,15.2c4.2,6.4,5.1,10.8,4.4,18.3
			c-0.3,2.7,0.2,4.5-2.3,5.6s-8,0.3-10.7,0.4c-7.6,0.4-15.2,0.8-22.8,0.4c-5-0.3-5.7-1.1-5.6-5.9c0.1-5.8-0.4-11.5-0.7-17.3
			C185,566.3,182.9,558.4,190.2,556 M185.6,547.7c0-4.3-0.2-8.6,0-12.9c0.3-4.2,2.1-4,6-4.7c8.6-1.6,17.2-3.3,25.7-5.4
			c3.4-0.8,7.2-2.4,10.7-2.4c3.7,0,3.5,1.9,3.2,5.1c-0.5,7.2-1.9,14.3-2.3,21.5c-0.4,7.7-0.7,15.6-0.6,23.3c0,2.6,0.6,4.5-1.6,2.1
			c-2.2-2.4-3.3-6.3-5.3-9.1c-4.1-5.6-10.1-10.2-16.9-12.1c-3.7-1.1-7.6-1.2-11.4-0.5c-1.2,0.2-6.9,3-7.6,2.4
			C185,554.6,185.6,547.8,185.6,547.7 M236.5,695c5.5,3.9,11.6,7.1,17.8,9.9c3.5,1.6,17.2,4.8,17.7,8.3c0.2,1.9-2,4-3.5,4.2
			c-1.9,0.3-5-1-7-1.2c-7-0.9-14-0.9-20.9-2.8c-13.7-3.9-27.9-5-41.7-8.4c-3.3-0.8-6.6-1.6-9.9-2.3c-3.1-0.7-4.5-0.6-4.7-3.9
			c-0.2-7.4,1.9-14.9,1.9-22.4c11.2,1.3,22.4,1.3,33.6,2.3c4.8,0.4,4.7,1.4,6.8,5.6C228.9,688.7,232.6,692.2,236.5,695 M182,455.8
			c-0.1-2.7-0.3-5.5-0.5-8.2c-0.2-1.8-1.8-6.9-0.9-8.4c1.1-1.7,2.2-0.7,4.2-0.7c2.6-0.1,4.8-1.1,7-2.5c4.1-2.6,7.2-6.1,9.9-10.1
			c2.4-3.6,1.9-8.4,1.9-12.7c-0.1-11,0.7-21.7,0.1-32.8c-0.3-5.1,4-2,7.5-1.3c5.7,1.1,11.9,0.3,17.7,0.3c-0.2,1.4-12.1,4.7-14,6
			c-4.9,3.3-7.8,8.5-7.3,14.5c0.9,12,14.1,14,23.8,14c-8,7.1-15.9,13.8-22.2,22.6c-4.6,6.4-12.8,19.1-5.2,26.3
			c-6.7,3.8-13.4,8-20.9,9.9C182.6,467.1,182.3,461.4,182,455.8 M178.9,236.8c2.7,1.8,3.9-0.7,6-2c2.9-1.8,3.9-1.6,4.3-5.7
			c0.7-7.5-2.5-14.3-6.4-20.4c-1.8-2.8-3.6-6.1-6.1-8.3c-2.3-2-4.7-1.3-6.8-3.4c-0.8-0.8-0.7-1.9-2.1-1.9c-0.9,0-3.1,2.9-3.9,3.5
			c-2.4,2-5.3,3.5-8.5,1.9c-4.6-2.4-3.1-11,0.4-13.8c2.7-2.2,6-1.8,9.1-2.2c2.3-0.3,2.8-0.2,1.9-2.8c-0.7-1.9-2.2-3.3-3-5.2
			c-1.5-3.5-1.2-7.8-1.8-11.5c-0.6-3.3-1.9-6.9-1.9-10.3c0.1-4.3,1.5-5.4,5.2-6.6c3.6-1.2,6.6-3.7,9.7-5.9c3.5-2.4,7.3-4.1,10.9-6.3
			c2.4-1.5,4-4.6,6.7-3.2c3.2,1.7,6.5,6.6,9.2,9.2c-3.9,2.5-4.9,3.6-4.3,8.5c0.5,4.5,1.4,8.5,4.9,11.6c1.3,1.2,3.8,2.2,4.8,3.6
			c1.2,1.6,0.4,0.2,0.3,2c-0.1,1-0.9,1.6-0.7,2.8c0.8,5.1,6.6,2.1,9,0.3c8.5-6.3-7.4-11.3-11.2-13.5c-2.6-1.6-3.9-6.6,0.2-5.3
			c2.8,0.9,9,8.4,9.6,1.6c6.8,4,11.1,12.4,16.8,17.8c4.1,3.9,9.7,8.1,6.4,14.3c-4.2,7.8-12.5,11.4-20.1,14.8
			c-7.3,3.3-5.8,12.6-1.9,18.2c2.3,3.3,5.2,5.2,8.8,6.8c3.7,1.6,4.4,3.5,5.2,7.3c0.9,4.2-0.1,5.9-3.7,8.1c-3.5,2.1-7.3,4.2-11,5.8
			c-8.2,3.6-16.7,3.8-25.4,5c-3.1,0.4-6,1.3-7.6-1.7C179.9,246.5,179.8,240.6,178.9,236.8 M177.6,220.5c-2.1-1.1-7,2.5-9.6,2.7
			c-4.2,0.3-6.9,0.2-10.7,2.4c-7,4.2-12.9,9.6-18.5,15.5c-6.4,6.6-12.7,13.3-19,19.9c-2.9,3-5.8,6-8.7,8.9c-2.3,2.3-4.5,5.6-7.4,7.3
			c0.1-2,1.4-3.4,1.8-5.2c0.3-1.1-0.2-2,0-3c0.1-0.3,0.9-1.5,1.1-1.9c0.4-1,0.8-2,1.2-3c0.4-1,0.3-2,0.8-3c0.4-1,1.6-1.7,2-2.8
			c1.2-3-0.8-4.4-3.9-4.3c1.2-6,1.7-9,8-11.1c6-2,11.9-4.3,17.4-7.5c4.9-2.8,9-6.9,13.7-10c4.2-2.8,9.5-5.8,9.5-11.5
			c2.4,1.6,4.6,3,7.4,1.4c2.3-1.4,2.6-2.5,5.3-2.7c2.2-0.2,3.5-0.3,5.5,0.7c2.3,1.1,2.6,1.9,3.9-1.4c1.5,1.3,5.4,6.6,5.2,8.7
			c-0.1,1.2-0.2,1.7-1.7,2C179,222.8,179.1,221.3,177.6,220.5 M168,535.6c-1,1.5-5.2,1.2-6.8,1.2c-5-0.1-6.7-4.2-8.9-8.2
			c-3.4-6.3-8.5-19.5-2.9-26.1c4.4-5.2,13.1,1.4,16.1,5.3c2.6,3.4,1.8,8.6,2.1,12.7C167.8,524,170,532.6,168,535.6 M154.5,537.9
			c-2,2-8.4,1.6-11,2c-4.7,0.8-9.3,1.7-13.9,3.1c-3.4,1-6.7,3.8-7.6-0.9c-0.7-4-0.4-8.7-0.3-12.7c0.1-4.3,0.5-8.6,0.9-12.9
			c0.3-2.9-0.4-8.2,2-10.5c2-1.9,7-2.1,9.7-2.7c4.4-1,8.9-2.4,13.4-1.9c-2.6,7.2-2.9,14.7,0,21.8
			C148.5,525.2,155.7,536.7,154.5,537.9 M121.2,509.4c-1.1,10.8-2.2,21.6-1.2,32.5c0.1,0.6,0.8,3.6,0.5,4.1s-3.1,0.7-3.7,0.9
			c-2.5,0.6-5,1.2-7.4,1.7c-4.9,1-5.5-2.1-6.4-6.6c-2-9.6,1.9-20.1,4.3-29.4c1.2-4.5,2-5,6.5-5.4C116.8,507,121.7,504.8,121.2,509.4
			 M102.5,549.6c-1.9,1.7-3.7-6.3-3.9-7.1c-0.6-3.2-0.3-6.5-0.3-9.8c0-5.1-0.4-10.2-0.4-15.3c0-2.8-2.1-8.4,1.2-9.8
			c1-0.4,4.8-0.2,5.6,0.3c1.8,1.2,1.1,1.9,0.6,4c-1.2,4.6-2.2,9.1-3.2,13.8c-1,4.5-2,8.9-1.5,13.5
			C100.7,540.7,103.7,548.5,102.5,549.6 M161.7,499.4c4.5-1.3,4.8,2.2,4.8,5.5C165.7,504.3,159.3,500,161.7,499.4 M101.1,255.9
			c-1.1,1.8-8.1,2.3-10.1,2.8c-3.9,0.9-7.9,1.9-11.8,2.9c-7.4,1.8-14.6,3.9-22.1,4.9c4.2-6.6,5.4-12.4,4.7-20.7
			c-1-10.5-2.2-20.8-4.6-31.1c-2.4-10.1-5.1-20.2-7.8-30.2c-1.3-4.9-2.7-9.8-4.4-14.6c-1.4-3.8-3.6-8.7-1.2-12.6
			c6,4.4,10.8,9.1,14.2,15.7c3.7,7.1,6.8,14.4,11.1,21.2c1.9,3.1,4.2,5.9,6.3,9c1.2,1.8,2.1,4.4,3.7,5.9c1.8,1.7,3.7,2.6,4.8-0.4
			c1.1-3.2-2.4-9.4-3.5-12.3c-2.5-7.1-5-14.3-7-21.6c-1.6-5.9-4.2-13.1-3.3-19.3c0.9-6.2,5.1-1.8,7.2,1.1c4.4,5.9,7,12.8,9.9,19.6
			c2.6,6.2,5.7,12.1,8.7,18.1c1,2.1,2.4,7.5,5,8.1c3.9,0.9,3.5-4.6,3.2-6.8c-2.5-14.7-8.9-28.7-10.2-43.7c-0.1-0.7-1-6.3-0.2-6.7
			c1.4-0.9,3.4,4.7,4,6.1c3.2,7.2,5.5,14.7,7.6,22.3c1.8,6.4,3.4,12.9,5.3,19.3c1.1,3.5,2.3,7,3.6,10.4c1.1,3.1,2.2,8.5,5.1,10.6
			c4.1,2.9,18.8-4,20.3,2.2c1.1,4.4-12.6,8-15.5,9.3c-3.8,1.8-7.6,3.7-11.4,5.5c-2.9,1.3-7.1,1.9-9.2,4.4c-2.2,2.7-2.6,6.4-2.6,9.7
			C100.7,247.5,102.5,253.7,101.1,255.9 M91.8,304.2c-0.2,1.4-1.3,3.2-1.8,4.6c-1,2.7-1.9,5.9-3.3,8.4c-1.2,2.2-3,4.1-4.2,6.3
			c-1.1,2.1-1.3,4.5-2.6,6.6c-1.5,2.4-3.9,4.1-5.4,6.5c-0.7,1.2-1.5,2.5-2.5,3.8c-3.6,4.4-7.2,8.6-10.2,13.3
			c-0.7,1.2-4.4,6.5-5.9,6.8c-3,0.6,0.5-3.7,1.1-4.6c4.3-6.5,8.1-13.3,12.3-19.8c4-6.4,8.1-12.7,12-19.1c3.2-5.3,5.3-12.8,10.5-16.5
			C92,301.7,92,303,91.8,304.2 M232.3,244.8c2.5,10.3,5.5,20.3,8.3,30.5c2.6,9.5,6.1,19.6,7.2,29.3c1.1,9.7,3.5,19.4,6.9,28.6
			c1.5,4.2,3.1,8.5,4.8,12.7c0.9,2.3,1.9,4.6,3,6.8c0.8,1.7,2.9,4.6,3,6.4c0.1,1.5,0.6,0.9-0.9,2c-1.5,1.2-4.1,0.7-5.9,0.9
			c-4.6,0.5-9.1,2.3-13.6,3.4c-8.7,2.2-19,3.9-27.8,2.4c-3.7-0.6-7.6-1.2-11.3-2c-4.5-1-5.5-2.9-6.4-7.4c-2-9.8-3.8-19.5-5.5-29.3
			c-2-11.7-4.2-23.4-5.7-35.1c-1.6-11.9-2.7-23.8-5.1-35.6c9.9,1.6,19.1,3.5,29,0.8C221,256.9,227.3,252.2,232.3,244.8 M270.9,372.2
			c2.2,4.5-3.1,8.6-5.7,12.1c-3.4,4.6-6.6,9.4-10.5,13.6c-1.2-4.7-2.2-10.1-5.4-14c-4-5-8.7-2.9-13.7-5.3c5.2-2.5,11.8-1.6,17.3-3.8
			c5.4-2.2,10.9-4,16-6.8C269.6,369.4,270.2,370.8,270.9,372.2 M251.7,478.2c-3.3,0.2-1.1-6.8-0.9-8.5c0.6-4.8,1.2-9.5,1.7-14.3
			c2.7,7.2,5.5,14.4,8.2,21.6C257.7,477.3,254.7,478,251.7,478.2 M246.3,512.7c0.5,1,2.6,4.4,0.9,5
			C244.9,518.5,244.6,513,246.3,512.7 M242.3,435c-10.6,8.4-21,16.9-32.5,24.1c-2.5,1.6-5,2.3-6.7-0.9c-1.3-2.5,0.1-5.3,0.9-7.7
			c2.1-6.2,5.8-11.6,10-16.6c8.2-10.1,18-18.7,30.5-22.6c2-0.6,5.2-2.6,5.9,0.1c0.4,1.6-1.4,5.6-1.7,7.1
			C247.3,424.7,247.6,430.8,242.3,435 M272.7,496.5c0.2,7.2-19.3,1.4-21.8,0.1C253.5,495.8,272.6,493.3,272.7,496.5 M280,496.6
			c1.2,0.3,5.6,0.7,4,2.2c-1.5,1.4-8.2,0.8-10,1C275.1,495.8,276,495.5,280,496.6 M276.4,487c-0.4,1.6-0.6,4-2,5.1
			c-1.8,1.4-5.6,0.5-7.6,0.5c-3.4,0-6.8,0.2-10.2,0.5c-1.3,0.1-6.6,1.7-7.8,0.6c-0.9-0.8-0.6-4.5,0.1-5.4c1.3-1.7,4.4-1.1,6.4-1.2
			C262.3,487,269.3,487,276.4,487 M271.8,460.5c-1-1.5-1.2-1.5-1.6-3.7c-0.5-2.4-1.6-4.5-2.3-6.8c-1.5-5.1,3.3-4.6,6.8-2.8
			c9.1,4.9,6.9,21.8,4.7,29.8c-3.3-2.4-4.5-3.5-5.6-7.4c-0.4-1.5-0.9-2.9-1.4-4.4C272.1,464.1,272.3,461.3,271.8,460.5 M272.6,378
			c2.5-0.3,4.9,7.6,4.1,9.3c-1.5,3.5-7.2,6.6-10.1,8.8c-1.9,1.5-3.8,3.2-5.9,4.5c-1.9,1.2-3,0.5-4.8,1.1c-2.6,0.8-3.2,3.6-5.8,4.7
			c-3.7,1.6-8.2,2.1-12.1,3.6c-4.7,1.8-9,1.9-13.9,1c-7.1-1.2-15.4-4.7-14.7-13.3c1.1-15.2,31.3-23,39.5-10.1
			c2.1,3.4,2.1,7.3,3.5,10.9c1.5,3.9,3,2.4,5.2-0.5c3-3.8,5.7-7.7,8.6-11.6C267.1,385.1,270.8,378.2,272.6,378 M87.8,525.8
			c-0.1,2.6,0,5.2-0.9,7.7s-2.7,4.5-3.8,6.9c-2.1,4.9-2.1,10.8-2,16.1c0.2,12.2,3.1,24,4.6,36.1c-5.1,0-10.3,0-15.3-1.4
			c-4.4-1.3-5.1-4.5-6.4-8.6c-3.5-11.4-7.3-22.7-8.4-34.7c-0.5-5.7-0.8-11.4-1-17.1c-0.2-5,0.9-7.2,5.4-9.7
			c9.8-5.4,20-9.9,29.7-15.5C88.8,512.3,88.2,519,87.8,525.8 M506.8,126.1c-2.4-0.4-4.8-0.7-7.2-1c-1.3-0.2-5.2,0.1-6.1-0.8
			c-1.1-1,0.8-8.4,0.9-9.9c0.6-9.5-0.1-19.3-1-28.8c-1.6-17.2-7-33.1-19.4-45.5c-6.2-6.2-13.2-11-21.6-13.4c-4.9-1.4-10-2.1-15-3.4
			c-4-1.1-7.7-2.3-11.9-2.7c-8.3-0.9-15.8-4-23.9-5.8c-5.9-1.3-15.5-4.5-19.3,2.2c-3-3.6-6.1-6.2-9.9-8.9c-3.7-2.5-4.3-5.1-8.7-2.1
			c-8.7,5.7-16.9,12.6-25,19.1c-7.6,6.1-14.9,12.4-22.9,18c-8.1,5.7-6.6,15.3-2.8,23.3c7.2,15,18.3,27.9,28,40.8
			c6.1,8.1,12.2,16.2,18.2,24.2c5.8,7.7,10.8,16.7,17.5,23.6c4.3,4.4,9.3-1.3,13.2-4c4.8-3.3,9.5-6.7,14.2-10
			c10-6.8,20.6-13.2,31.1-19.2c0.8,2.2,1.5,4.3,2.3,6.5c-2.3,0.2-5.4-0.3-6.6,2.1c-1.7,3.5,2.4,4,3.2,6c0.6,1.8-2,6.6-2.8,8.2
			c-1.8,3.7-4.2,6.9-6.9,9.9c-10.7,12-24.2,20.6-38,28.8c-14.7,8.8-30.5,14.1-46.6,19.7c-8.2,2.9-16.7,4.2-25.1,6
			c-8.1,1.8-16.3,4.1-24.6,4.8c-17,1.4-35.1,2.4-51.9-1.3c-1.8-0.4-3.8-1.3-5.7-1.4c-1.5-0.1-2.6,0.5-4,0.6c-3,0.2-4.8-2.5-7.2,0
			c-1.2,1.3-1.2,3.4-2.9,1c-2.1-3,3.3-3.6,5.4-4.4c6.8-2.9,12.3-8.7,16.7-14.5c4.3-5.9,5-12.1,2.3-19c-2.6-6.9-8.6-11.5-13.2-17.1
			c-2.2-2.7-4.2-5.5-6.6-8.1c-1.3-1.3-3.3-2.6-3.4-4c-0.1-1.6,0.8-2.4,0.3-4.3c-0.1-0.5-0.8-0.8-0.9-1.3c-0.2-0.9,0.1-1.6,0-2.5
			c-0.3-1.9-1-3.2-2.1-4.8c-0.7-1-1.7-3-2.6-3.7c-1.6-1.3-3.8-0.8-5.5-2.1c-2.6-2.1-3.5-6.5-5.8-9.1c-3.3-3.6-3.9,0-7.4-1.1
			c-2.9-1-2.9-5.4-5.3-6.9c-3.4-2.1-6.2,1.8-9.2,2.6c-3.9,1.1-2.4-3.3-5.9-3.7c-3.2-0.4-7.5,6-9.1,8.3c-1.6-1.9-3.4-5.1-6.2-3.9
			c-3,1.2-3.6,6.8-5.8,8.8c-0.8,0.7-0.6,1.2-1.6,1.5c-1.2,0.4-2.9-1.4-4.4-0.8c-3.2,1.1-2.8,5.4-2.8,8.1c-3.8-0.6-6.4-0.8-7.7,3.2
			c-1.2,4-1.7,2.2-5.7,3.5c-3.4,1.1-3.9,4.4-4.5,7.6c-0.3,2,0,2.8,0.5,4.6c0.7,2.3,0.7,2.2-0.4,4.4c-1.9,3.8-2,8-2.3,12.1
			c-0.3,4.4-1.1,8.5,0.2,12.8c0.8,2.7,0.8,6.3,3.5,7.9c1,0.6,2.8,0.3,3.7,0.9c1.7,1.1,1.2,2.8,2.3,4.5c0.8,1.2,2.2,1.4,3.2,2.4
			c1,1.1,1.1,2.4,1.7,3.7c1.7,3.9,3.4,5.8-2.3,6.1c-3.5,0.1-7.2,1.2-10.7,0.9c-4.1-0.4-5.1-2.7-6.4-6.2
			c-6.6-17.6-10.1-36.7-18.8-53.5c-1.9-3.7-9.7-18.7-13-7.8c-2.8,9.2,0.9,20.5,2.3,29.7c-4.4-4-6-11.1-9.4-16
			c-2.5-3.6-10.2-12.4-14.7-7.3c-3.6,4-2.7,12.4-2,17.1c1,7.5,3.4,14.7,5.2,22.1c-2.2-2.8-3.2-6.3-4.7-9.4c-1.9-4-4.2-7.8-6.9-11.3
			c-2.3-3.1-4.9-5.9-7.8-8.5c-2.2-2-6-6.4-9.1-6.6c-7.9-0.6-5.4,13.9-4.2,18c2.5,8.6,5.2,16.9,7.1,25.7c3.8,17.1,8.4,33.8,11.2,51.2
			c0.6,3.8,1.4,6.9-0.2,10.6c-1.3,3.3-2.7,7.1-5.2,9.6c-5.6,5.7-10.2,11.7-14.4,18.5c-4.5,7.3-9.1,14.7-12.7,22.5
			c-1.7,3.6-3.1,7.4-5,10.9c-1.7,3.1-3.8,5.6-5.1,9C7.1,340,2.7,356.1,0.7,373.5C-1.1,388,0.4,407,17.6,410.3c7.9,1.5,15-2,22.1-4.9
			c7.4-3,12.7-7.9,18.7-13C66,386,73.7,380,81.3,373.6c7.6-6.3,14.5-13.3,22.1-19.7c7.4-6.3,14.1-13,20.6-20.4
			c6.4-7.3,11.5-15.3,17.7-22.7c0,9.5-1.4,19-1.8,28.5c-0.4,8.7-0.4,17.5,0,26.2s-2,17-2,25.8c0,8.5-0.4,17-0.5,25.4
			c-0.1,3.8-0.8,8.1,0.6,11.8c1.1,2.7,4.4,3.6,7.3,4.3c4.4,1.1,17.7-1.1,19.6,3.6c1.1,2.6,0,7.2,0.1,10.1c0.1,4.7,0.3,9.3,0.5,14
			c0.2,4.8,0.3,9.7,0.5,14.5c0.2,4.3,1,9,0.5,13.2c-0.4,3.6-2.5,3.1-5.9,3.3c-5,0.3-10.1,0.5-15.1,0.7c-7.4,0.3-15.1,0.2-22.2,1
			c-3,0.4-6.2,0.2-9.4,0.8c-3.9,0.7-7.6,0.9-11.6,1.1c-3.2,0.2-7.4-0.1-9.9,2.3c-0.9,0.8-1.1,1.8-1.7,2.7c-1.2,1.7-0.5,1.3-2.4,1.7
			c-7.5,1.5-14.5,3.2-21.8,5.8c-3.7,1.3-7,3-10.7,4.2c-3.2,1-5.6,2.3-7.2,5.5c-2.8,5.6-2.1,13.8-1.9,19.9c0.3,9.5,2.4,18.5,4.7,27.7
			c2.4,9.5,4.2,19.3,8.8,28.1c1.5,2.9,3.1,6.6,6.2,8.1c4,1.9,10.1,0.8,14.5,0.8c2.9,0,10.7,1,12.9-1.4c2.1-2.4,0-9.1-0.3-12
			c-1-10.3-2.9-20.7-2.9-31.1c2.4,3.5,6.5,9.6,10.6,4.2c1-1.3,0.6-1.9,2.4-2.7c1-0.4,3.1-0.7,4.2-0.6c1.5,0.1,2,0.7,3.4,0.4
			c1.2-0.3,2.6-1.3,3.9-1.7c17.1-4.1,34.1-8.4,51.3-12.1c4.5-1,3.9,2.5,4.2,6.5c0.3,4.3-0.3,8.7,0.3,13c0.5,3.7,0.9,7.4,0.2,11.1
			c-0.9,4.4-0.3,8.1,0.6,12.5c3.3,16.9,2.7,35.3,3.5,52.5c0.4,9-0.4,18.1,0.4,27c0.3,3.4,2.2,5.2,3,8.3c0.9,3.5-1.5,8-2.2,11.4
			c-1.5,6.8-4,16.6,0.7,22.6c2.5,3.2,5.8,3.7,9.6,4.8c4.5,1.3,8.9,2.8,13.4,4c16.4,4.5,34.2,5.4,51.1,7.9c4.1,0.6,8,0.5,12.1,0.3
			c2.6-0.2,8.9,0.7,11-0.9c1.1-0.8,0.6-1.8,1.1-2.8c0.8-1.4,1.8-2,3.2-2.9c2.3-1.5,5-2.3,5.4-5.4c1-7.4-8.3-11.3-13.3-14.6
			c-6.3-4.1-14-5.7-20.7-9c-3.7-1.8-7.3-3.9-10.9-6c-1.5-0.9-4.7-1.9-5.8-3.4s0-3.5,0.4-5.6c1.9-8.6,1.2-17.4,2.2-26.1
			c1-8.7,0.7-17.5,1-26.3c0.3-9,1.1-18,1.6-27c0.5-8.3,1.1-16.8,1.1-25.1c0.1-7.7,1.1-15.3,1.4-23.1c0.1-2.6-0.4-7.4,1.4-9.7
			c1.5-2,6.6-1.7,9-2.1c6.4-0.9,12.5-1.7,18.8-2.3c15.1-1.3,31.8-2.3,46-7.6c5.9-2.2,13.7-5.1,15.6-11.9c2.2-7.7-0.7-17.3-0.8-25.2
			c-0.1-8.5-2.6-16.7-4.4-24.9c-2-8.8-3.2-17.8-5.4-26.6c-2-8.1-5.1-15.2-8.2-22.9c-1.2-3.1-8.2-13.8-6-16.4c1.2-1.4,5.3-1.8,7-2.4
			c3.7-1.4,7.3-3,10.7-5c4.5-2.7,14.4-7.1,14.8-13c0.4-5.7-5.1-11.4-8-15.8c-4.6-7.2-10.3-13.4-14.6-20.7
			c-8.8-14.8-15.7-30.9-22.1-46.8c-3.3-8.3-4.4-16.2-5-25c9.7,0,19.6,1.2,29.2-0.1c10.5-1.5,21-4,31.4-6c18.9-3.7,37.1-8,54.7-16.4
			c16.4-7.9,33.1-16.5,46.7-29c7-6.5,14.2-13,20.3-20.4c6.2-7.6,10.9-16.2,15.8-24.7c5.3-9.4,9.5-19.3,12.9-29.6
			c0.7-2.1,0.7-4.7,1.5-6.7c1-2.2,2.7-2.3,4.6-3.4C509.6,132.4,511.3,126.9,506.8,126.1"/>
		<path id="ink-shape_1_" class="st1" d="M280.9,20.8c2.2,1.9,11.8,8.6,14.9,7c3.8-2-2.2-8.1-3.8-9.6c-2.1-1.9-9.5-7.7-12.3-7.1
			C274,12.1,278.9,19,280.9,20.8"/>
		<path id="ink-shape_2_" class="st1" d="M285.6,89.7c1.3-2.5,4.6-3.4,6.1-5.8c1.9-2.9,2.7-5.4,2-8.9c-4.7,1.6-10.1,6.4-13.3,10.2
			c-2.7,3.2-6.4,9.8,0.5,9.8c-0.1-0.9-0.1-1.9-0.2-2.8C282.8,92.5,284.7,91.5,285.6,89.7"/>
		<path id="ink-shape_3_" class="st1" d="M263,48.6c3.1,0.9,5.6,0.8,8.7,0.8c2.3,0.1,5.4,1.3,7.2-0.1c-1.6-0.9,0.4-1,0-1.9
			c-0.3-0.8-1-0.5-1.5-1.1c-1.9-2.2-3.5-2.2-6.5-2.6c-2.3-0.4-5.7-1.2-7.9,0C260.8,44.8,259.9,47.7,263,48.6"/>
		<path id="ink-shape_4_" class="st1" d="M306.6,116.6c2-1.7,4.1-6.5,4.5-8.9c0.2-1-0.5-1.7-0.5-2.4c0.2-1.4,3-4,0-5.1
			c-2.6-1-5,6.6-5.6,8.3c-0.7,1.7-2.5,5-1.9,6.6C303.6,116.4,305.2,117.7,306.6,116.6"/>
		<path id="ink-shape_5_" class="st1" d="M330.2,13.7c1.8-1.7,2.9-3.5,2.7-5.8c-0.1-1.8-1.5-8-3-7.8
			C324.9,0.6,327.2,16.5,330.2,13.7"/>
		<path id="ink-shape_6_" class="st1" d="M223.9,291.2c-0.4-1.5-1.9-10.8-4.5-10.2c-2,0.5,0.1,8.6,0.2,9.7c0.2,2.2-4.1,2.2-6.1,1.9
			c-3.2-0.5-2.9-2.3-3.4-5.2c-0.2-1.1-0.9-6-3.2-4.2c-1.5,1.2-0.4,7.3-0.3,8.7c0.4,4.8,1,13,3.8,17.4c1.1,1.7,2.2,2.6,3.4,0.4
			c1.2-2.3-1.5-9.2-2-11.5c2.3,0.2,8.8-0.5,10.2,1.8c1.2,2.1-0.7,8.3,3.3,8.8c2.4,0.3,1.9-2.5,1.7-4.6
			C226.3,299.8,225,295.5,223.9,291.2"/>
		<path id="ink-shape_7_" class="st1" d="M229.9,289.1c-2.6,1.2,0.7,18.5,4.5,17.9C238.9,306.3,232.4,287.9,229.9,289.1"/>
		<path id="ink-shape_8_" class="st1" d="M227,283.3c-0.3,3.9,4.7,5.3,5,1.1C232.2,281.2,227.4,279.2,227,283.3"/>
		<path id="ink-shape_9_" class="st1" d="M199.2,180c2.3,8.6,23.4,12.3,20.5,0.7c-1.4-5.8-7.3-0.6-11.5-1.3
			C205.6,178.9,197.6,173.9,199.2,180"/>
		<path id="ink-shape_10_" class="st1" d="M193.9,164.6c1-4.6-9.1-9.7-12.8-8.4c-5.4,1.9-5.3,13.7-1.2,16.9c0.5,0.4,2.2,1.4,3,0.6
			c1.3-1.2-0.1-0.9-0.4-2.2c-0.5-2-2-4.5-0.5-6.8C184.9,160.5,192.5,171.2,193.9,164.6"/>
		<path id="ink-shape_11_" class="st1" d="M163.2,187c-3.6-0.2-6.6,5.4-1.3,5c1-0.1,3.2-0.3,3.8-1.4
			C166.7,188.8,164.8,187.1,163.2,187"/>
		<path id="ink-shape_12_" class="st1" d="M339.6,52.5c-1.2-1.8-3.9-4.7-6.1-2.9c-2,1.6-1.6,5.6-0.9,7.5c2.1,5.3,6.9,10,12.4,7
			C343.1,60.2,342,56,339.6,52.5"/>
	</g>
</g>
<g class="st2">
	
		<image style="overflow:visible;enable-background:new    ;" width="81" height="76" xlink:href="A175D58D6D058861.png"  transform="matrix(1 0 0 1 437 679)">
	</image>
</g>
<g class="st2">
	
		<image style="overflow:visible;enable-background:new    ;" width="640" height="125" xlink:href="A175D58D6D058863.png"  transform="matrix(1 0 0 1 166 675)">
	</image>
</g>
</svg>
