<?xml version="1.0" encoding="utf-8"?>
<!-- Generator: Adobe Illustrator 24.3.0, SVG Export Plug-In . SVG Version: 6.00 Build 0)  -->
<svg version="1.1" id="OutLine" xmlns="http://www.w3.org/2000/svg" xmlns:xlink="http://www.w3.org/1999/xlink" x="0px" y="0px"
	 viewBox="0 0 512 512" style="enable-background:new 0 0 512 512;" xml:space="preserve">
<style type="text/css">
	.st0{fill:#FFC300;}
</style>
<path class="st0" d="M463.7,362.3C425.4,324.1,395.2,320,384,320c-1,0-1.9,0.2-2.8,0.5l-16.1,6c-10.3-4.3-20-6.5-29.1-6.5
	c-1,0-1.9,0.2-2.8,0.5l-21.1,7.9L118.3,75.1c-1.5-2-3.9-3.1-6.3-3.1c-11.7,0-22.8,5.5-32.1,15.6l-9.5-12.5c-1.5-2-3.9-3.1-6.3-3.1
	c-31.4,0-56,38.7-56,88c0,5.4,14.4,245.2,16,272.5c0.3,4.2,3.8,7.5,8,7.5h24c4.3,0,7.8-3.4,8-7.7l5.1-121.9
	C74.7,373,80,431.9,80,432.7c0.4,4.1,3.8,7.3,8,7.3h24c4.4,0,8-3.6,8-8V293.3c29.8,41.6,64.5,117.3,64.8,118.1
	c0.1,0.2,0.2,0.5,0.3,0.7c10.9,18.8,28.8,28,54.8,28h256c4.4,0,8-3.6,8-8C504,410.4,482.3,381,463.7,362.3z M108.3,88.3l188.1,246
	l-21.7,8.1l-185-241.8C95.4,93.7,101.8,89.5,108.3,88.3z M104,424h-8.7c-2.2-24.3-9.4-104.4-15.2-169.8c6.8,4,15,10.3,23.9,19.6
	C104,273.8,104,424,104,424z M240,424c-19.9,0-32.9-6.2-40.8-19.6c-3.2-7.1-41.4-90-73-129.4c-33.4-41.8-59.4-43-62.2-43
	c-4.3,0-7.8,3.4-8,7.7L48.3,424h-8.8C34,330.9,24.1,165.7,24,160c0-36.8,16.3-68.2,36.3-71.7l205.4,268.5c2.1,2.8,5.9,3.9,9.2,2.6
	l62.6-23.5c7.3,0.2,15.4,2.4,24.1,6.4c18.2,8.4,38,24.3,54.3,43.7c11.4,13.6,19.7,27.5,22.8,37.8H240V424z M455.1,424
	c-2.8-13.6-12.3-30.6-27-48.1c-13.2-15.8-28.7-29.5-44.1-39.3l1.5-0.5c19,0.7,43.9,14.6,67,37.6c17,17,30.1,36.6,34.3,50.3H455.1z"
	/>
<path d="M104,273.8V424h-8.7c-2.2-24.3-9.4-104.4-15.2-169.8C86.9,258.2,95.1,264.4,104,273.8z"/>
<path d="M486.6,424h-31.5c-2.8-13.6-12.3-30.6-27-48.1c-13.2-15.8-28.7-29.5-44.1-39.3l1.5-0.5c19,0.7,43.9,14.6,67,37.6
	C469.3,390.7,482.5,410.3,486.6,424z"/>
<path d="M296.4,334.3l-21.7,8.1l-185-241.8c5.6-6.9,12-11.1,18.5-12.2L296.4,334.3z"/>
<path d="M438.6,424H240c-19.9,0-32.9-6.2-40.8-19.6c-3.2-7.1-41.4-90-73-129.4c-33.4-41.8-59.4-43-62.2-43c-4.3,0-7.8,3.4-8,7.7
	L48.3,424h-8.8C34,330.9,24.1,165.7,24,160c0-36.8,16.3-68.2,36.3-71.7l205.4,268.5c2.1,2.8,5.9,3.9,9.2,2.6l62.6-23.5
	c7.3,0.2,15.4,2.4,24.1,6.4c18.2,8.4,38,24.3,54.3,43.7C427.2,399.8,435.5,413.6,438.6,424z"/>
</svg>
