<svg id="OutLine" xmlns="http://www.w3.org/2000/svg" viewBox="0 0 495.8 368.1"><defs><style>.cls-1{fill:#fff;}.cls-2{fill:#ebebeb;}</style></defs><path d="M455.6,290.3c-38.3-38.2-68.5-42.3-79.7-42.3a8.65,8.65,0,0,0-2.8.5l-16.1,6c-10.3-4.3-20-6.5-29.1-6.5a8.65,8.65,0,0,0-2.8.5L304,256.4,110.2,3.1A7.9,7.9,0,0,0,103.9,0C92.2,0,81.1,5.5,71.8,15.6L62.3,3.1A7.9,7.9,0,0,0,56,0C24.6,0,0,38.7,0,88c0,5.4,14.4,245.2,16,272.5a8.07,8.07,0,0,0,8,7.5H48a8,8,0,0,0,8-7.7l5.1-121.9C66.6,301,71.9,359.9,71.9,360.7a8,8,0,0,0,8,7.3h24a8,8,0,0,0,8-8V221.3c29.8,41.6,64.5,117.3,64.8,118.1.1.2.2.5.3.7,10.9,18.8,28.8,28,54.8,28h256a8,8,0,0,0,8-8C495.9,338.4,474.2,309,455.6,290.3ZM82.34,27.73l.74-.85a36.49,36.49,0,0,1,11.07-8.59l.17-.08.86-.38.17-.07a23.56,23.56,0,0,1,4.85-1.46l188.1,246-21.7,8.1L81.6,28.6C81.84,28.31,82.08,28,82.34,27.73ZM95.9,352H87.2C85,327.7,77.8,247.6,72,182.2l1.29.78c.44.26.88.54,1.32.83l1,.63.21.14,1.21.82,1.23.86a11.59,11.59,0,0,1,1,.73q.51.38,1,.78c.35.25.69.51,1,.78a2.11,2.11,0,0,1,.23.19.49.49,0,0,1,.14.11.41.41,0,0,1,.13.1c.5.38,1,.78,1.49,1.17s.67.55,1,.83c0,0,0,0,0,0s0,0,0,0l.9.74.17.14,1.23,1.06a2.05,2.05,0,0,1,.23.2l.44.38a1.07,1.07,0,0,1,.16.14l.24.21h0a.44.44,0,0,1,.11.09c.53.47,1.05,1,1.58,1.44q1.78,1.64,3.51,3.35h0q.47.45.9.9l.91.93c.19.21.39.41.59.61l.59.61Zm136-.2v.2c-19.9,0-32.9-6.2-40.8-19.6-3.2-7.1-41.4-90-73-129.4-33.4-41.8-59.4-43-62.2-43a8,8,0,0,0-8,7.7L40.2,352H31.4C25.9,258.9,16,93.7,15.9,88c0-36.8,16.3-68.2,36.3-71.7L257.6,284.8a7.92,7.92,0,0,0,9.2,2.6l62.6-23.5c7.3.2,15.4,2.4,24.1,6.4,18.2,8.4,38,24.3,54.3,43.7,11.4,13.6,19.7,27.5,22.8,37.8ZM447,352c-2.8-13.6-12.3-30.6-27-48.1a196.59,196.59,0,0,0-44.1-39.3l1.5-.5c19,.7,43.9,14.6,67,37.6,17,17,30.1,36.6,34.3,50.3Z" transform="translate(0 0)"/><path class="cls-1" d="M95.9,201.8V352H87.2C85,327.7,77.8,247.6,72,182.2l1.29.78c.44.26.88.54,1.32.83l1,.63.21.14,1.21.82,1.23.86a11.59,11.59,0,0,1,1,.73c.69.51,1.37,1,2,1.56-.68-.53-1.37-1-2.06-1.55a127.7,127.7,0,0,1,9.93,8.19q1.91,1.74,3.73,3.56c.61.6,1.21,1.21,1.81,1.83l-.9-.93.91.93c.19.21.39.41.59.61S95.7,201.6,95.9,201.8Z" transform="translate(0 0)"/><path class="cls-2" d="M84.53,191.15c-.91-.75-1.82-1.5-2.75-2.22C82.71,189.66,83.62,190.4,84.53,191.15Z" transform="translate(0 0)"/><path class="cls-2" d="M86.21,192.57l-1.68-1.42Z" transform="translate(0 0)"/><path class="cls-2" d="M81.31,188.55l.47.38c-.83-.65-1.68-1.3-2.53-1.93C79.94,187.51,80.63,188,81.31,188.55Z" transform="translate(0 0)"/><path class="cls-2" d="M89.18,195.19c-1-.9-2-1.76-3-2.62C87.21,193.43,88.21,194.3,89.18,195.19Z" transform="translate(0 0)"/><path class="cls-2" d="M94.72,200.58c-.6-.62-1.2-1.23-1.81-1.83h0q.47.45.9.9Z" transform="translate(0 0)"/><path d="M94.72,200.58c-.6-.62-1.2-1.23-1.81-1.83q-1.83-1.81-3.73-3.56c-1-.9-2-1.76-3-2.62l-1.68-1.42c-.91-.75-1.82-1.5-2.75-2.22s-1.68-1.3-2.53-1.93c.69.51,1.38,1,2.06,1.55,1.34,1,2.64,2.09,3.93,3.18l.17.14q3.9,3.28,7.51,6.88.47.45.9.9Z" transform="translate(0 0)"/><path class="cls-1" d="M478.5,352H447c-2.8-13.6-12.3-30.6-27-48.1a196.59,196.59,0,0,0-44.1-39.3l1.5-.5c19,.7,43.9,14.6,67,37.6C461.2,318.7,474.4,338.3,478.5,352Z" transform="translate(0 0)"/><path class="cls-1" d="M288.3,262.3l-21.7,8.1L81.6,28.6c.24-.29.48-.58.74-.87l.74-.85a36.49,36.49,0,0,1,11.07-8.59l.17-.08.86-.38.17-.07a23,23,0,0,1,4.75-1.36Z" transform="translate(0 0)"/><path d="M94.15,18.29a36.49,36.49,0,0,0-11.07,8.59A34.51,34.51,0,0,1,94.15,18.29Z" transform="translate(0 0)"/><path class="cls-1" d="M430.44,351.8H231.9v.2c-19.9,0-32.9-6.2-40.8-19.6-3.2-7.1-41.4-90-73-129.4-33.4-41.8-59.4-43-62.2-43a8,8,0,0,0-8,7.7L40.2,352H31.4C25.9,258.9,16,93.7,15.9,88c0-36.8,16.3-68.2,36.3-71.7L257.6,284.8a7.92,7.92,0,0,0,9.2,2.6l62.6-23.5c7.3.2,15.4,2.4,24.1,6.4,18.2,8.4,38,24.3,54.3,43.7C419,327.71,427.29,341.42,430.44,351.8Z" transform="translate(0 0)"/><polygon points="430.5 352 231.9 352 231.9 351.8 430.44 351.8 430.5 352"/></svg>