<?xml version="1.0" encoding="utf-8"?>
<!-- Generator: Adobe Illustrator 24.3.0, SVG Export Plug-In . SVG Version: 6.00 Build 0)  -->
<svg version="1.1" id="Capa_1" xmlns="http://www.w3.org/2000/svg" xmlns:xlink="http://www.w3.org/1999/xlink" x="0px" y="0px"
	 viewBox="0 0 710 634" style="enable-background:new 0 0 710 634;" xml:space="preserve">
<style type="text/css">
	.st0{fill:#FFC300;}
	.st1{display:none;}
	.st2{display:inline;}
	.st3{fill:none;}
	.st4{font-family:'Gotham-Bold';}
	.st5{font-size:90px;}
</style>
<g>
	<path class="st0" d="M617.2,608.5H120.4c-16,0-29-13-29-29V31.5c0-16,13-29,29-29h496.7c16,0,29,13,29,29v548.1
		c0.1,7.6-2.9,14.9-8.3,20.4C632.3,605.5,625,608.5,617.2,608.5z M120.4,17.5c-7.7,0-14,6.3-14,14v548.1c0,7.7,6.3,14,14,14h496.8
		c3.7,0,7.2-1.5,9.9-4.1c2.6-2.6,4-6.1,4-9.8V31.5c0-7.7-6.3-14-14-14H120.4z"/>
	<g class="st1">
		<path class="st2" d="M411.9,315h-30.1c-2.3,0-4.3,1.9-4.3,4.3s1.9,4.3,4.3,4.3h23.6l-21.4,48.7c-1,2.2,0.1,4.7,2.2,5.7
			c0.6,0.2,1.1,0.3,1.7,0.3c1.7,0,3.2-1,3.9-2.6l24.1-54.7c0.6-1.3,0.5-2.9-0.3-4.1C414.7,315.8,413.3,315,411.9,315L411.9,315z"/>
		<path class="st2" d="M462.3,341.7c2.7-2.9,4.3-6.7,4.3-10.9c0-8.7-7.1-15.8-15.8-15.8c-8.7,0-15.8,7.1-15.8,15.8
			c0,4.2,1.7,8,4.3,10.9c-5.2,3.7-8.6,9.7-8.6,16.5c0,11.1,9,20.1,20.1,20.1c11.1,0,20.1-9,20.1-20.1
			C471,351.4,467.5,345.3,462.3,341.7L462.3,341.7z M443.6,330.8c0-4,3.3-7.2,7.2-7.2s7.2,3.3,7.2,7.2c0,4-3.3,7.2-7.2,7.2
			S443.6,334.8,443.6,330.8z M450.9,369.8c-6.4,0-11.5-5.2-11.5-11.5s5.2-11.5,11.5-11.5c6.3,0,11.5,5.2,11.5,11.5
			S457.3,369.8,450.9,369.8z"/>
		<path class="st2" d="M292.1,296.5c2.3,0,4.3-1.9,4.3-4.3v-54.6c0-2.3-1.9-4.3-4.3-4.3h-11.7c-2.3,0-4.3,1.9-4.3,4.3
			s1.9,4.3,4.3,4.3h7.4v50.3C287.8,294.6,289.7,296.5,292.1,296.5z"/>
		<path class="st2" d="M286.2,336.4c-2.3,0-4.3,0.2-6,0.5l2.3-13.9h16.9c2.3,0,4.3-1.9,4.3-4.3s-1.9-4.3-4.3-4.3h-20.5
			c-2.1,0-3.9,1.5-4.2,3.6l-4.1,24.5c-0.3,1.6,0.4,3.2,1.7,4.2s3,1.1,4.5,0.3c2.9-1.5,6.1-2,9.4-2c3.4,0,6.6,1.4,9,3.9
			c2.4,2.5,3.6,5.8,3.4,9.2c-0.3,6.5-5.7,11.6-12.2,11.8c-6.9,0.1-12.7-5.5-12.7-12.4c0-2.3-1.9-4.3-4.3-4.3c-2.3,0-4.3,1.9-4.3,4.3
			c0,10.3,7.8,19.3,17.9,20.8c1,0.2,2,0.2,3,0.2c0.1,0,0.3,0,0.5,0c11-0.2,20-9,20.5-19.9c0.3-5.8-1.7-11.4-5.8-15.6
			C297.5,338.7,292,336.4,286.2,336.4z"/>
		<path class="st2" d="M468,273h-2.7c0.1-13.5,0.1-28.8,0-30.8c-0.3-3.6-2.4-6.5-5.4-7.4c-1.4-0.5-5-1-8.4,3.2
			c-3.1,3.8-18.6,31.7-21.6,37.2c-0.7,1.3-0.7,3,0.1,4.2c0.7,1.3,2.2,2.1,3.7,2.1h23c-0.1,4.2-0.1,8.2-0.1,11.8
			c0,2.3,1.9,4.3,4.2,4.3h0.1c2.3,0,4.3-1.9,4.3-4.2c0-1.4,0.1-6,0.1-11.9h2.7c2.3,0,4.3-1.9,4.3-4.3C472.3,275,470.4,273,468,273
			L468,273z M456.8,273H441c5.7-10.3,12.7-22.6,15.9-27.6C456.9,250.3,456.9,261.5,456.8,273z"/>
		<path class="st2" d="M359.3,253.8c1.1-5.1-0.9-11.7-4.5-15.5c-3.4-3.7-8.3-5.8-13.3-5.8c-8.7,0-16.3,6.2-17.9,14.7
			c-0.5,2.3,1,4.6,3.4,5c2.3,0.5,4.6-1.1,5-3.4c0.9-4.5,4.9-7.8,9.5-7.8c5.3,0,9.6,4.2,9.7,9.5c0.1,4.1-3.1,8.6-5.3,11.8
			c-8.7,12.4-13.9,19.2-16.6,22.8c-3.4,4.4-4.4,5.8-3.6,8.2c0.5,1.4,1.5,2.5,3,3c0.6,0.2,21.5,0.4,29.2,0.3c2.3-0.1,4.3-2,4.2-4.3
			c-0.1-2.3-1.9-4.3-4.3-4.2c-7.1,0.1-14.7,0.1-20.1,0.1c3-4,7.9-10.6,15.2-21C355.8,263.1,358.2,258.7,359.3,253.8L359.3,253.8z"/>
		<path class="st2" d="M396.8,289.1c-4.8,0-9-3.6-9.6-8.3c-0.1-0.5-0.1-0.9-0.1-1.4c0-2.3-1.9-4.3-4.3-4.3s-4.3,1.9-4.3,4.3
			c0,0.9,0.1,1.7,0.2,2.6c1.3,9,9,15.7,18.1,15.7c10,0,18.3-8.2,18.3-18.3c0-5.6-2.6-10.6-6.5-14c4-3.4,6.5-8.4,6.5-14
			c0-10-8.2-18.3-18.3-18.3c-8.7,0-16.3,6.2-17.9,14.7c-0.5,2.3,1,4.6,3.4,5c2.3,0.5,4.6-1,5-3.4c0.9-4.5,4.9-7.8,9.5-7.8
			c5.4,0,9.7,4.3,9.7,9.7c0,5.4-4.3,9.7-9.7,9.7c-2.3,0-4.3,1.9-4.3,4.3c0,2.3,1.9,4.3,4.3,4.3c5.4,0,9.7,4.3,9.7,9.7
			S402.1,289.1,396.8,289.1L396.8,289.1z"/>
		<path class="st2" d="M342.8,337.5c-2.1,0-4.2,0.3-6.1,0.9c5.3-10.2,12.3-15.6,12.4-15.7c1.9-1.4,2.3-4.1,0.9-6s-4.1-2.3-6-0.9
			c-3.7,2.7-6.8,6.3-9.5,9.9c-6.9,9.1-11.9,20.2-11.9,31.8c0,11.1,9,20.1,20.1,20.1c11.1,0,20.1-9,20.1-20.1
			C362.8,346.5,353.8,337.5,342.8,337.5L342.8,337.5z M342.8,369.1c-6.3,0-11.5-5.2-11.5-11.5s5.2-11.5,11.5-11.5
			c6.3,0,11.5,5.2,11.5,11.5C354.3,363.9,349.1,369.1,342.8,369.1z"/>
	</g>
</g>
<rect x="159.3" y="250.3" class="st0" width="117.4" height="117.4"/>
<rect x="313.3" y="250.3" class="st0" width="117.4" height="117.4"/>
<rect x="463.3" y="250.3" class="st0" width="117.4" height="117.4"/>
<rect x="163.3" y="96.8" class="st0" width="117.4" height="117.4"/>
<rect x="317.2" y="96.8" class="st0" width="117.4" height="117.4"/>
<rect x="467.3" y="96.8" class="st0" width="117.4" height="117.4"/>
<rect x="163.3" y="404.8" class="st0" width="117.4" height="117.4"/>
<rect x="317.2" y="404.8" class="st0" width="117.4" height="117.4"/>
<rect x="467.3" y="404.8" class="st0" width="117.4" height="117.4"/>
<rect x="163.3" y="96.8" class="st3" width="117.4" height="117.4"/>
<text transform="matrix(1 0 0 1 202.9689 188.3496)" class="st4 st5">1</text>
<rect x="317.2" y="95.8" class="st3" width="117.4" height="117.4"/>
<text transform="matrix(1 0 0 1 347.8916 187.3496)" class="st4 st5">2</text>
<rect x="467.3" y="95.8" class="st3" width="117.4" height="117.4"/>
<text transform="matrix(1 0 0 1 498.0226 187.3496)" class="st4 st5">3</text>
<rect x="159.3" y="250.8" class="st3" width="117.4" height="117.4"/>
<text transform="matrix(1 0 0 1 187.0283 342.3496)" class="st4 st5">4</text>
<rect x="313.2" y="250.3" class="st3" width="117.4" height="117.4"/>
<text transform="matrix(1 0 0 1 343.6012 341.8496)" class="st4 st5">5</text>
<rect x="463.3" y="250.3" class="st3" width="117.4" height="117.4"/>
<text transform="matrix(1 0 0 1 492.252 341.8496)" class="st4 st5">6</text>
<rect x="163.3" y="404.8" class="st3" width="117.4" height="117.4"/>
<text transform="matrix(1 0 0 1 194.1047 496.3496)" class="st4 st5">7</text>
<rect x="317.2" y="403.8" class="st3" width="117.4" height="117.4"/>
<text transform="matrix(1 0 0 1 347.5767 495.3496)" class="st4 st5">8</text>
<rect x="467.3" y="404.8" class="st3" width="117.4" height="117.4"/>
<text transform="matrix(1 0 0 1 496.1779 496.3496)" class="st4 st5">9</text>
</svg>
