<?xml version="1.0" encoding="utf-8"?>
<!-- Generator: Adobe Illustrator 24.3.0, SVG Export Plug-In . SVG Version: 6.00 Build 0)  -->
<svg version="1.1" id="Capa_1" xmlns="http://www.w3.org/2000/svg" xmlns:xlink="http://www.w3.org/1999/xlink" x="0px" y="0px"
	 viewBox="0 0 512 512" style="enable-background:new 0 0 512 512;" xml:space="preserve">
<style type="text/css">
	.st0{fill:#FFC300;}
</style>
<g>
	<path class="st0" d="M471.2,512H40.8c-10.3,0-18.6-8.3-18.6-18.6V18.6C22.2,8.3,30.6,0,40.8,0h430.3c10.3,0,18.6,8.3,18.6,18.6
		v474.8C489.8,503.7,481.4,512,471.2,512z"/>
	<path class="st0" d="M489.8,18.6v474.8c0,10.3-8.3,18.6-18.6,18.6h-20.6c10.3,0,18.6-8.3,18.6-18.6V18.6c0-10.3-8.3-18.6-18.6-18.6
		h20.6C481.4,0,489.8,8.3,489.8,18.6L489.8,18.6z"/>
	<g>
		<path d="M62.2,131.9c4.1,0,7.5-3.4,7.5-7.5V105l15.7,22.8c2.1,3,5.7,4.3,9.1,3.3c3.5-1.1,5.7-4.3,5.7-8.2l-0.4-42.1
			c0-4.1-3.4-7.4-7.5-7.4c0,0-0.1,0-0.1,0c-4.1,0-7.5,3.4-7.4,7.6l0.2,19.8L68.4,76.7c-1.9-2.7-5.3-3.9-8.4-2.9
			c-3.1,1-5.3,3.9-5.3,7.2v43.5C54.7,128.6,58.1,131.9,62.2,131.9L62.2,131.9z"/>
		<path d="M131.7,131.9h0.9c12.7,0,22.7-9.7,22.7-22V80.3c0-4.1-3.4-7.5-7.5-7.5s-7.5,3.4-7.5,7.5v29.7c0,4.6-3.9,7-7.7,7h-0.9
			c-3.8,0-7.7-2.4-7.7-7V80.3c0-4.1-3.4-7.5-7.5-7.5s-7.5,3.4-7.5,7.5v29.7C109.1,122.3,119,131.9,131.7,131.9z"/>
		<path d="M436.8,116.9c-3.7,0-7.3-1.5-9.5-3.9c-2.8-3.1-7.5-3.3-10.6-0.5c-3.1,2.8-3.3,7.5-0.5,10.6c5.1,5.6,12.6,8.9,20.6,8.9
			c10.1,0,18.6-6.5,20.3-15.6c1.9-10.5-6.3-17.5-13.9-20.3c-4.9-1.8-9.5-3.8-11.3-4.6c-0.1-0.1-0.2-0.4-0.2-0.7
			c0.1-0.8,0.8-1.4,2-1.8c5-1.5,9.8,2.2,10,2.4c3.2,2.6,7.9,2.2,10.5-1c2.7-3.2,2.3-7.9-0.9-10.6c-4-3.4-13.6-8.3-23.9-5.2
			c-6.8,2-11.5,7.4-12.5,14c-0.4,3.1,0,6.2,1.3,9c1.3,2.9,3.7,5.8,6.8,7.2c0.3,0.1,6.3,2.8,13,5.3c2.7,1,4.5,2.5,4.3,3.5
			C442,115.1,440,116.9,436.8,116.9z"/>
		<path d="M390.1,131.9c4.1,0,7.5-3.4,7.5-7.5V98.5c0-0.2,0.4-2,4.5-6.3c1.7-1.8,3.2-2.8,3.9-3.3c3.5-2.2,4.6-6.8,2.4-10.3
			c-2.2-3.5-6.8-4.6-10.3-2.4c-0.4,0.3-0.9,0.6-1.4,0.9c-1.3-2.3-3.7-3.8-6.5-3.8c-4.1,0-7.5,3.4-7.5,7.5v43.5
			C382.6,128.6,385.9,131.9,390.1,131.9L390.1,131.9z"/>
		<path d="M173.4,131.9c4.1,0,7.5-3.4,7.5-7.5c0,0,0-22.6,0-22.7c0-3.6,0.6-8,3.4-10.7c2.3-2.2,5.6-2.5,8.1-0.2
			c2.4,2.1,2.3,5.9,2.4,8.9c0,0.4,0,24.7,0,24.7c0,4.1,3.4,7.5,7.5,7.5s7.5-3.4,7.5-7.5l0-25.6c0-9.8,5.3-9.8,7.4-9.8
			c2.1,0,3.6,0.4,4.3,1.1c0.7,0.7,2.2,3.3,1.8,11.7c0,0.1,0,0.2,0,0.3v22.3c0,4.1,3.4,7.5,7.5,7.5s7.5-3.4,7.5-7.5v-22.1
			c0.5-10.6-1.5-17.8-6-22.5c-3.6-3.8-8.7-5.7-15.1-5.7c-5.7,0-10.6,1.7-14.3,4.9c-4-3.9-9.1-5.1-13.8-5.1c-3.6,0-6.8,0.8-9.8,2.2
			c-1.4-1.8-3.5-2.9-5.9-2.9c-4.1,0-7.5,3.4-7.5,7.5v43.8C165.9,128.6,169.3,131.9,173.4,131.9L173.4,131.9z"/>
		<path d="M318,102.7c0,16.1,13.1,29.2,29.3,29.2c3.3,0,6.4-0.5,9.3-1.6c3.9-1.4,5.9-5.8,4.4-9.6c-1.4-3.9-5.8-5.9-9.6-4.4
			c-1.2,0.4-2.6,0.7-4,0.7c-4.8,0-9.1-2.4-11.7-6.1c0,0,28.7,0.1,28.8,0.1c6,0,7.5-5.7,7.5-10.5c0-14.9-12.1-27-27-27
			C328.3,73.4,318,87.3,318,102.7L318,102.7z M344.9,88.4c5,0,9.3,3.1,11.1,7.5l-22.2,0C335.6,91.5,339.9,88.4,344.9,88.4z"/>
		<path d="M256.5,131.9c2.9,0,5.5-1.7,6.7-4.2c4.4,2.7,9.6,4.2,15.1,4.2c16.1,0,29.3-13.1,29.3-29.3s-13.1-29.3-29.3-29.3
			c-5.2,0-10,1.4-14.3,3.7V59.5c0-4.1-3.4-7.5-7.5-7.5s-7.5,3.4-7.5,7.5v64.9C249,128.6,252.4,131.9,256.5,131.9L256.5,131.9z
			 M278.3,88.4c7.9,0,14.3,6.4,14.3,14.3s-6.4,14.3-14.3,14.3s-14.3-6.4-14.3-14.3S270.4,88.4,278.3,88.4z"/>
		<path d="M451.8,156.5H60.2c-4.1,0-7.5,3.4-7.5,7.5s3.4,7.5,7.5,7.5h391.6c4.1,0,7.5-3.4,7.5-7.5S455.9,156.5,451.8,156.5z"/>
		<path d="M331.5,349.1h-52.8c-4.1,0-7.5,3.4-7.5,7.5s3.4,7.5,7.5,7.5H320l-37.5,85.4c-1.7,3.8,0.1,8.2,3.8,9.9c1,0.4,2,0.6,3,0.6
			c2.9,0,5.6-1.7,6.9-4.5l42.2-95.9c1-2.3,0.8-5-0.6-7.1S334,349.1,331.5,349.1L331.5,349.1z"/>
		<path d="M419.9,395.9c4.7-5,7.6-11.7,7.6-19.1c0-15.3-12.4-27.7-27.7-27.7c-15.3,0-27.7,12.4-27.7,27.7c0,7.4,2.9,14.1,7.6,19.1
			c-9.1,6.4-15.1,17-15.1,28.9c0,19.4,15.8,35.2,35.2,35.2s35.2-15.8,35.2-35.2C435,412.8,429,402.2,419.9,395.9L419.9,395.9z
			 M387.1,376.8c0-7,5.7-12.7,12.7-12.7s12.7,5.7,12.7,12.7s-5.7,12.7-12.7,12.7S387.1,383.8,387.1,376.8z M399.8,445
			c-11.2,0-20.2-9.1-20.2-20.2s9.1-20.2,20.2-20.2s20.2,9.1,20.2,20.2S411,445,399.8,445z"/>
		<path d="M121.7,316.6c4.1,0,7.5-3.4,7.5-7.5v-95.7c0-4.1-3.4-7.5-7.5-7.5h-20.5c-4.1,0-7.5,3.4-7.5,7.5s3.4,7.5,7.5,7.5h13v88.2
			C114.2,313.3,117.5,316.6,121.7,316.6z"/>
		<path d="M111.4,386.5c-4.1,0-7.5,0.3-10.5,0.8l4.1-24.4h29.6c4.1,0,7.5-3.4,7.5-7.5s-3.4-7.5-7.5-7.5h-36c-3.7,0-6.8,2.7-7.4,6.3
			l-7.1,43c-0.5,2.8,0.7,5.6,3,7.3c2.3,1.7,5.3,1.9,7.8,0.6c5.1-2.6,10.7-3.5,16.5-3.5c6,0,11.6,2.4,15.8,6.8
			c4.2,4.4,6.3,10.1,6,16.2c-0.6,11.3-9.9,20.4-21.3,20.6c-12.1,0.2-22.2-9.7-22.2-21.8c0-4.1-3.4-7.5-7.5-7.5s-7.5,3.4-7.5,7.5
			c0,18,13.6,33.8,31.4,36.4c1.8,0.3,3.5,0.4,5.3,0.4c0.2,0,0.5,0,0.8,0c19.2-0.4,35-15.7,36-34.8c0.5-10.2-3-19.9-10.1-27.3
			C131.2,390.6,121.5,386.5,111.4,386.5z"/>
		<path d="M429.8,275.5h-4.7c0.1-23.6,0.2-50.5,0-53.9c-0.5-6.3-4.2-11.4-9.4-13c-2.4-0.8-8.8-1.7-14.7,5.6
			c-5.4,6.6-32.5,55.5-37.8,65.2c-1.3,2.3-1.2,5.2,0.1,7.4s3.8,3.7,6.5,3.7h40.3c-0.1,7.3-0.1,14.4-0.2,20.7c0,4.1,3.3,7.5,7.4,7.6
			h0.1c4.1,0,7.5-3.3,7.5-7.4c0-2.5,0.1-10.5,0.2-20.8h4.8c4.1,0,7.5-3.4,7.5-7.5S434,275.5,429.8,275.5L429.8,275.5z M410.2,275.5
			h-27.7c10-18,22.3-39.6,27.8-48.4C410.3,235.7,410.3,255.3,410.2,275.5z"/>
		<path d="M239.3,241.9c2-8.9-1.5-20.5-7.8-27.2c-6-6.4-14.5-10.1-23.3-10.1c-15.3,0-28.5,10.8-31.4,25.8c-0.8,4.1,1.8,8,5.9,8.8
			c4.1,0.8,8-1.9,8.8-5.9c1.6-7.9,8.6-13.7,16.7-13.7c9.2,0,16.8,7.4,17,16.6c0.2,7.1-5.4,15.1-9.3,20.6
			c-15.2,21.7-24.3,33.6-29.1,40c-5.9,7.7-7.7,10.1-6.3,14.4c0.8,2.5,2.7,4.4,5.2,5.2c1,0.3,37.6,0.7,51.2,0.5
			c4.1-0.1,7.5-3.5,7.4-7.6s-3.4-7.5-7.6-7.4c-12.5,0.2-25.8,0.2-35.2,0.2c5.3-7,13.9-18.5,26.7-36.8
			C233.2,258.1,237.4,250.4,239.3,241.9L239.3,241.9z"/>
		<path d="M305.1,303.7c-8.4,0-15.7-6.3-16.8-14.6c-0.1-0.8-0.2-1.6-0.2-2.4c0-4.1-3.4-7.5-7.5-7.5s-7.5,3.4-7.5,7.5
			c0,1.5,0.1,3,0.3,4.5c2.2,15.7,15.8,27.5,31.7,27.5c17.6,0,32-14.4,32-32c0-9.8-4.5-18.6-11.4-24.5c7-5.9,11.4-14.7,11.4-24.5
			c0-17.6-14.4-32-32-32c-15.3,0-28.5,10.9-31.4,25.8c-0.8,4.1,1.8,8,5.9,8.8c4.1,0.8,8-1.8,8.8-5.9c1.6-7.9,8.6-13.7,16.7-13.7
			c9.4,0,17,7.6,17,17s-7.6,17-17,17c-4.1,0-7.5,3.4-7.5,7.5s3.4,7.5,7.5,7.5c9.4,0,17,7.6,17,17S314.4,303.7,305.1,303.7
			L305.1,303.7z"/>
		<path d="M210.5,388.4c-3.7,0-7.3,0.6-10.6,1.6c9.2-17.8,21.6-27.3,21.8-27.5c3.3-2.5,4-7.2,1.5-10.5c-2.5-3.3-7.2-4-10.5-1.5
			c-6.4,4.7-11.9,11-16.6,17.3c-12.1,16-20.8,35.4-20.8,55.7c0,19.4,15.8,35.2,35.2,35.2s35.2-15.8,35.2-35.2
			C245.6,404.2,229.8,388.4,210.5,388.4L210.5,388.4z M210.5,443.8c-11.1,0-20.2-9.1-20.2-20.2s9.1-20.2,20.2-20.2
			s20.2,9.1,20.2,20.2C230.6,434.7,221.6,443.8,210.5,443.8z"/>
	</g>
</g>
</svg>
