<?xml version="1.0"?>
<svg xmlns="http://www.w3.org/2000/svg" width="512" height="512" viewBox="0 0 512 512"><g><path d="M480,144H466.02L279.72,43.69A25.045,25.045,0,0,0,280,40a24,24,0,0,0-48,0,25.045,25.045,0,0,0,.28,3.69L45.98,144H32A24.032,24.032,0,0,0,8,168V472a24.032,24.032,0,0,0,24,24H480a24.032,24.032,0,0,0,24-24V168A24.032,24.032,0,0,0,480,144ZM256,32a8,8,0,1,1-8,8A8.011,8.011,0,0,1,256,32ZM239.88,57.77a23.97,23.97,0,0,0,32.24,0L432.27,144H79.73ZM476.69,160l-16,16H51.31l-16-16ZM211.46,391.74,312,261.12,455.86,448H252.09ZM232.35,448H56v-.49l88-121.85Zm85.99-204.88a8,8,0,0,0-12.68,0L201.68,378.2l-51.19-70.88a8,8,0,0,0-12.98,0L56,420.18V192H456V421.95ZM24,468.69V171.31l16,16V452.69ZM35.31,480l16-16H460.69l16,16ZM488,468.69l-16-16V187.31l16-16Z"/><path d="M144,288a40,40,0,1,0-40-40A40.045,40.045,0,0,0,144,288Zm0-64a24,24,0,1,1-24,24A24.028,24.028,0,0,1,144,224Z"/></g></svg>
