<svg id="Calque_1" data-name="Calque 1" xmlns="http://www.w3.org/2000/svg" viewBox="0 0 271.91 512"><defs><style>.cls-1{fill:#fff;}</style></defs><path d="M280,68.1v.2a8,8,0,0,1-8,7.8,8.43,8.43,0,0,1-1-.06,8,8,0,0,1-7-7.94,4,4,0,0,0-8,0,8,8,0,0,1-7,7.93,7.17,7.17,0,0,1-1,.07,8,8,0,0,1-8-7.83V68.1c0-.15,0-.3,0-.45a20,20,0,0,1,40,0C280,67.8,280,68,280,68.1Z" transform="translate(-120.06)"/><path d="M280,68.1V472.21s0,0,0,0a0,0,0,0,0,0,0s0,0,0,0a8,8,0,0,1-16-.29V68.1a8,8,0,0,1,16-.45C280,67.8,280,68,280,68.1Z" transform="translate(-120.06)"/><path d="M256,68.1V472a8,8,0,1,1-16,0V68.1c0-.15,0-.3,0-.45a8,8,0,0,1,16,.45Z" transform="translate(-120.06)"/><path d="M312,504a8,8,0,0,1-7.45,8l-.55,0-1.28,0a40.11,40.11,0,0,1-37.91-32,40.5,40.5,0,0,1-.8-8c0-.14,0-.28,0-.41a8,8,0,0,1,16,.41,1.48,1.48,0,0,0,0,.21,0,0,0,0,0,0,0,0,0,0,0,0,0,0s0,0,0,0a0,0,0,0,0,0,0s0,0,0,0a23.47,23.47,0,0,0,1.33,7.57A24,24,0,0,0,303.18,496c.27,0,.54,0,.82,0A8,8,0,0,1,312,504Z" transform="translate(-120.06)"/><path d="M256,472a40.5,40.5,0,0,1-.8,8,40.11,40.11,0,0,1-37.9,32L216,512l-.55,0a8,8,0,0,1,.55-16c.28,0,.55,0,.82,0a24,24,0,0,0,21.83-16.1h0A23.92,23.92,0,0,0,240,472c0-.14,0-.28,0-.41a8,8,0,0,1,16,.41Z" transform="translate(-120.06)"/><path d="M288,448a8,8,0,0,1-8,8H240a8,8,0,0,1,0-16h40A8,8,0,0,1,288,448Z" transform="translate(-120.06)"/><rect class="cls-1" x="135.96" y="456.01" width="8" height="8"/><path d="M288,472a8,8,0,0,1-6.64,7.89A8.58,8.58,0,0,1,280,480H240.05a7.56,7.56,0,0,1-1.36-.12h0A8,8,0,0,1,240,464h40A8,8,0,0,1,288,472Z" transform="translate(-120.06)"/><path d="M296,80a8,8,0,0,1,0-16,24,24,0,0,0,24-24,8,8,0,0,1,16,0A40,40,0,0,1,296,80Z" transform="translate(-120.06)"/><path d="M296,128a32,32,0,1,1,0-64,8,8,0,1,1,0,16,16,16,0,1,0,0,32,8,8,0,0,1,0,16Z" transform="translate(-120.06)"/><path d="M224,80a40,40,0,0,1-30.68-14.31A8,8,0,0,1,205.62,55.4,24,24,0,0,0,224,64a8,8,0,1,1,0,16Z" transform="translate(-120.06)"/><path d="M256.06,96c0,.55,0,1.1,0,1.64A32,32,0,0,1,224.07,128a8,8,0,0,1,0-16,16,16,0,0,0,16-15q0-.48,0-1c0-.32,0-.64,0-1a16,16,0,0,0-16-15h-.41A8,8,0,0,1,224,64h0A32,32,0,0,1,256,94.34C256.05,94.88,256.06,95.43,256.06,96Z" transform="translate(-120.06)"/><path class="cls-1" d="M272,496H248a39.73,39.73,0,0,0,7.21-16h9.59A39.87,39.87,0,0,0,272,496Z" transform="translate(-120.06)"/><path d="M352,504a8,8,0,0,1-8,8H176a8,8,0,1,1,0-16H344A8,8,0,0,1,352,504Z" transform="translate(-120.06)"/><path d="M232,312a8,8,0,1,1,0-16,8,8,0,0,0,8-8,8,8,0,1,1,16,0A24,24,0,0,1,232,312Z" transform="translate(-120.06)"/><path d="M288,312a24,24,0,0,1-24-24,8,8,0,0,1,16,0,8,8,0,0,0,8,8,8,8,0,0,1,0,16Z" transform="translate(-120.06)"/><path class="cls-1" d="M264,68.1V280h-8V97.62c0-.54,0-1.09,0-1.64s0-1.1,0-1.64V68.1a4,4,0,0,1,8,0Z" transform="translate(-120.06)"/><rect class="cls-1" x="135.96" y="296.03" width="8" height="143.98"/><path d="M280,288a8,8,0,0,1-8,8H248a8,8,0,0,1,0-16h24A8,8,0,0,1,280,288Z" transform="translate(-120.06)"/><path d="M208.08,80c0,18.76-1.74,80-24,80-8.43,0-14.39-8.18-18.57-25.65-.42-1.72-.81-3.54-1.19-5.44A8,8,0,1,1,180,125.77c.61,3,1.22,5.63,1.82,7.8a57.22,57.22,0,0,0,2.37,7.1c3.5-8.52,7.88-29.4,7.88-60.67s-4.38-52.15-7.88-60.67a57,57,0,0,0-2.37,7.09c-.6,2.17-1.21,4.75-1.82,7.8a8,8,0,1,1-15.68-3.13c.38-1.9.78-3.72,1.2-5.44C169.7,8.19,175.66,0,184.08,0c16.18,0,21.52,32.34,23.23,57.22.51,7.53.7,14.38.75,19.44C208.08,77.88,208.08,79,208.08,80Z" transform="translate(-120.06)"/><path d="M181.82,26.42c-.18-.18-.36-.35-.56-.52a8,8,0,0,0-6.5-1.79l-9.24,1.54-38.78,6.47a8,8,0,0,0-6.52,9.47L127.93,80l-7.71,38.42a8,8,0,0,0,6.53,9.46l38.76,6.46,9.26,1.54a7.24,7.24,0,0,0,1.31.11,8,8,0,0,0,5.18-1.9c.2-.17.38-.34.56-.52a8,8,0,0,0,2.27-5.58V32A8,8,0,0,0,181.82,26.42Zm-37.89,52-6.4-31.88,30.55-5.1v77.1l-30.55-5.09,6.4-31.89A8.29,8.29,0,0,0,143.93,78.44Z" transform="translate(-120.06)"/><path class="cls-1" d="M192.07,80c0,31.27-4.38,52.15-7.88,60.67a57.22,57.22,0,0,1-2.37-7.1,8,8,0,0,0,2.27-5.58V32a8,8,0,0,0-2.27-5.58,57,57,0,0,1,2.37-7.09C187.69,27.85,192.07,48.73,192.07,80Z" transform="translate(-120.06)"/><path class="cls-1" d="M168.08,41.46v77.1l-30.55-5.09,6.4-31.89a8.29,8.29,0,0,0,0-3.14l-6.4-31.88Z" transform="translate(-120.06)"/><path d="M311.91,128H296a8,8,0,0,1,0-16h16a8,8,0,0,1,0,16Z" transform="translate(-120.06)"/><path d="M312,144a8,8,0,0,1-8-8l-.06-16a8,8,0,0,1,8-8h0a8,8,0,0,1,8,8l0,16a8,8,0,0,1-8,8Z" transform="translate(-120.06)"/><path d="M392,160V344a8,8,0,0,1-16,0V160a8,8,0,0,1,8-8h0a7.93,7.93,0,0,1,5.65,2.34,7.49,7.49,0,0,1,1,1.18,7.33,7.33,0,0,1,.64,1.13c.08.17.15.34.22.52a8.22,8.22,0,0,1,.34,1.2q.07.35.12.69C392,159.37,392,159.68,392,160Z" transform="translate(-120.06)"/><path d="M304,168V344a8,8,0,0,1-16,0V168c0-.14,0-.28,0-.41a8,8,0,0,1,16,.41Z" transform="translate(-120.06)"/><path d="M360,200a8,8,0,1,1-16,0,8,8,0,0,0-16,0,8,8,0,0,1-16,0c0-.14,0-.28,0-.41a24,24,0,0,1,48,0C360,199.72,360,199.86,360,200Z" transform="translate(-120.06)"/><path d="M328,200V360a8,8,0,0,1-16,0V200c0-.14,0-.28,0-.41a8,8,0,0,1,16,.41Z" transform="translate(-120.06)"/><path d="M360,200V360a8,8,0,0,1-16,0V200a8,8,0,0,1,16-.41C360,199.72,360,199.86,360,200Z" transform="translate(-120.06)"/><path d="M360,360a8,8,0,0,1-8,8H320a8,8,0,1,1,0-16h32A8,8,0,0,1,360,360Z" transform="translate(-120.06)"/><path d="M392,344a8,8,0,0,1-8,8H352a8,8,0,0,1,0-16h32A8,8,0,0,1,392,344Z" transform="translate(-120.06)"/><path d="M327.17,344a8,8,0,0,1-8,8H296a8,8,0,0,1,0-16h23.2A8,8,0,0,1,327.17,344Z" transform="translate(-120.06)"/><path d="M320,152a8,8,0,0,1-8,8,8,8,0,0,0-8,8,8,8,0,0,1-16,0c0-.14,0-.28,0-.41a24,24,0,0,1,16-22.21,23.54,23.54,0,0,1,8-1.38A8,8,0,0,1,320,152Z" transform="translate(-120.06)"/><path d="M320,136v16a8,8,0,1,1-16,0V136a8,8,0,0,1,16,0Z" transform="translate(-120.06)"/><path d="M368,136v8a8,8,0,0,1-16,.41c0-.13,0-.27,0-.41v-8a8,8,0,0,1,16,0Z" transform="translate(-120.06)"/><path d="M392,160v0a8,8,0,0,1-8,8l-8,0h-.43a8,8,0,0,1,.39-16h8a8,8,0,0,1,6.63,3.52,7.33,7.33,0,0,1,.64,1.13c.08.17.15.34.22.52a8.22,8.22,0,0,1,.34,1.2q.07.35.12.69C392,159.37,392,159.68,392,160Z" transform="translate(-120.06)"/><path d="M368,136a7.85,7.85,0,0,1-1.08,4,8,8,0,0,1-6.92,4H312a8.05,8.05,0,0,1-2.74-.48l-.59-.24-.25-.12c-.19-.1-.38-.2-.56-.31h0c-.21-.14-.42-.28-.62-.43h0a8.67,8.67,0,0,1-.85-.74l-.27-.28a2.55,2.55,0,0,1-.26-.3c-.14-.17-.27-.34-.4-.53a5.56,5.56,0,0,1-.46-.75c-.09-.17-.18-.35-.26-.53a4.68,4.68,0,0,1-.19-.45,7.57,7.57,0,0,1-.34-1.2A5.5,5.5,0,0,1,304,137,7,7,0,0,1,304,136v0a8,8,0,0,1,8-8h48A8,8,0,0,1,368,136Z" transform="translate(-120.06)"/><path class="cls-1" d="M376,168V336H360V200c0-.14,0-.28,0-.41a24,24,0,0,0-48,0c0,.13,0,.27,0,.41V336h-8V168a8,8,0,0,1,8-8,8,8,0,0,0,8-8v-8h32c0,.14,0,.28,0,.41A24,24,0,0,0,375.56,168Z" transform="translate(-120.06)"/><path d="M384,160a8,8,0,0,1-8,8h-.43A24,24,0,0,1,352,144.42c0-.13,0-.27,0-.41a8,8,0,0,1,14.92-4,7.85,7.85,0,0,1,1.08,4,8,8,0,0,0,8,8h0a8,8,0,0,1,8,8Z" transform="translate(-120.06)"/><path class="cls-1" d="M336,336a8,8,0,0,0,8,8v8H328V200a8,8,0,0,1,16,0V328A8,8,0,0,0,336,336Z" transform="translate(-120.06)"/><path d="M360,336a8,8,0,0,1-8,8h-8a8,8,0,0,1,0-16h8A8,8,0,0,1,360,336Z" transform="translate(-120.06)"/></svg>