<svg id="Capa_1" data-name="Capa 1" xmlns="http://www.w3.org/2000/svg" viewBox="0 0 77.9 77.87"><defs><style>.cls-1{fill:#fff;}.cls-2{fill:#ebebeb;}</style></defs><path d="M21.51,31.1c-.59-.56-1.16-1.12-1.71-1.66l-.67-.66.2.21L21,30.67l.94.88Zm55.62.16A38.95,38.95,0,0,0,0,38.9a35.08,35.08,0,0,0,.7,7.3l-.1.2.2.2A38.93,38.93,0,1,0,77.13,31.26Zm-21,9.86v0l.08-.29c.07-.24.14-.47.19-.71.18-.66.35-1.33.49-2,0-.15.07-.3.1-.46a.06.06,0,0,0,0,0s0,0,0,0l0-.16a1.16,1.16,0,0,0,0-.18,1,1,0,0,0,0-.14c.08-.37.16-.73.23-1.1a1,1,0,0,0,0-.17c0-.14,0-.28.07-.43l.09-.43a10.13,10.13,0,0,0,0-.25,4.37,4.37,0,0,0,.09-.5h0s0,0,0,0c.07-.38.13-.76.19-1.14.21-1.32.38-2.63.51-3.9,0-.43.09-.85.12-1.27.08-.84.14-1.67.18-2.48v-.86A87.9,87.9,0,0,0,58,8.6c.78.49,1.53,1,2.27,1.55.37.26.73.54,1.09.84a11.87,11.87,0,0,1,1,.88c.35.3.69.61,1,.92l1,1c.33.33.64.66,1,1a9.24,9.24,0,0,1,.82.92l.13.15.66.81c.21.26.41.51.6.78s.35.46.51.69.33.46.48.69.17.25.25.37.35.52.5.79c0,0,0,0,0,0l.46.74a7.18,7.18,0,0,1,.43.75l.27.5c.06.1.11.2.16.3a8.36,8.36,0,0,1,.4.79.91.91,0,0,1,.13.26c.11.21.22.43.32.65.21.44.4.88.59,1.32v1.16a3.75,3.75,0,0,1-.07.81.43.43,0,0,1,0,.05c0,.15,0,.29-.05.43s-.07.44-.1.65-.12.61-.19.9a13.68,13.68,0,0,1-6.41,8.82A23.47,23.47,0,0,1,56.1,41.2ZM35.27,3.27l1.18-.09c.62,0,1.25-.06,1.9-.07H39c.67,0,1.33,0,2,.06.3,0,.59,0,.88.06h0l.86.08a2.32,2.32,0,0,1,.78.09h.1l.87.13c.69.11,1.37.24,2,.39l.82.19.81.22.25.07.38.09.06,0q.28.07.57.18c.72.22,1.42.47,2.12.74l.7.27L53,6c.49.21,1,.43,1.46.67h0c.7,3.42,3.1,18.58-1.69,34.26A17.8,17.8,0,0,1,49,39.51a10.49,10.49,0,0,1-1.12-.69,5.12,5.12,0,0,1-.55-.4,12.27,12.27,0,0,1-3.43-4.06c-1.67-3.1-2.42-7-3.27-11.52-1.2-6.1-2.5-13-6.7-19.5C34.42,3.35,34.84,3.3,35.27,3.27ZM30.8,4c4.5,6.3,5.8,13.3,7,19.4a64.64,64.64,0,0,0,2.1,8.9c.17.5.36,1,.55,1.48a15.22,15.22,0,0,0,.64,1.43c.18.38.37.74.58,1.1a3.87,3.87,0,0,0,.21.34c2,3.25,5,5.8,10.12,7.15a63.48,63.48,0,0,1-2.9,6.6l0,0L48.18,50l-.88-.44L46.21,49c-.61-.32-1.21-.64-1.8-1s-1.22-.67-1.81-1l-1.41-.8-.36-.2-2-1.22c-.21-.12-.41-.25-.6-.38-.55-.35-1.1-.71-1.63-1.07l-1-.72-.19-.13L35,42.17l-.39-.27c-.38-.28-.75-.55-1.16-.83l-.19-.13-.17-.12a1,1,0,0,1-.17-.12l-.49-.36c-.8-.58-1.58-1.18-2.36-1.8l-1.83-1.47-1.83-1.52a.17.17,0,0,1-.08-.07c-.36-.29-.72-.6-1.07-.92s-.66-.56-1-.87L23.54,33l-.42-.38-.12-.1-.35-.32-.57-.55L22,31.55l-.46-.45c-.59-.56-1.16-1.12-1.71-1.66l-.67-.66-.41-.42c-.48-.48-.94-1-1.39-1.45-.22-.22-.42-.44-.63-.67a2.09,2.09,0,0,1-.2-.22c-.27-.28-.52-.57-.79-.85h0l-.57-.62a1.19,1.19,0,0,1-.15-.18l-1-1.08C12,20.89,10.55,19,9.8,18A36.11,36.11,0,0,1,30.8,4ZM8.1,20.7l.36.47c.42.54.85,1.08,1.28,1.61s.63.78,1,1.16.65.78,1,1.16.94,1.08,1.45,1.65,1.06,1.19,1.62,1.77A123.59,123.59,0,0,0,25.52,38.7l.73.61c.64.53,1.29,1,1.94,1.55.24.2.49.39.73.56.69.54,1.4,1.08,2.12,1.6l.25.19c.77.57,1.57,1.14,2.38,1.69,2.48,1.74,5.12,3.42,7.92,5,.24.15.49.28.73.41.59.35,1.19.68,1.8,1,1.13.61,2.3,1.2,3.48,1.78a37.06,37.06,0,0,1-2.8,4.1h-.07a32.5,32.5,0,0,0-4.35-1.76c-.72-.23-1.42-.43-2.13-.61l-.07,0-.5-.12-.49-.11h0l-.08,0-.94-.19-1-.19-.7-.11L33,53.87l-1.27-.15c-1.27-.13-2.53-.23-3.77-.32A57,57,0,0,1,16.5,51.65l-.07,0-.67-.2h0l-.05,0h0L15,51.18l-.08,0-.69-.24,0,0h0l-.45-.17h0l-.07,0,0,0-.09,0-.08,0c-.25-.09-.51-.19-.76-.3L11.88,50l-.07,0-.72-.34-.87-.43c-.25-.13-.5-.26-.74-.4l-.72-.4-.1-.06L8,47.92l-.19-.12c-.55-.34-1.11-.7-1.67-1.09-.84-.58-1.7-1.21-2.57-1.91a28.45,28.45,0,0,1-.5-5.9c0-.39,0-.79,0-1.18,0-.13,0-.26,0-.39s0-.52,0-.79,0-.74.09-1.11.09-.81.14-1.22c0-.11,0-.21,0-.32s0-.36.08-.54,0-.2,0-.3c.07-.41.15-.82.23-1.23,0-.12,0-.24.08-.36S4,31,4,30.8a.11.11,0,0,1,0-.07.43.43,0,0,1,0-.11h0a1.74,1.74,0,0,0,0-.22.31.31,0,0,1,0-.13,5.83,5.83,0,0,1,.17-.66c.18-.67.38-1.33.6-2s.46-1.31.72-1.95c.14-.37.3-.74.47-1.11s.23-.54.36-.8.3-.63.46-.94.36-.71.56-1.06l.6-1ZM4.7,49.5c8.6,5.8,15.9,6.4,23,7,1.19.09,2.37.19,3.54.31l1.17.13c.64.07,1.27.16,1.9.25s1.22.21,1.83.34l1.41.33.63.16.79.22c.63.18,1.26.4,1.9.65s1.28.51,1.93.81A51.06,51.06,0,0,1,26.2,72.4,35.75,35.75,0,0,1,4.7,49.5ZM50,73a37.05,37.05,0,0,1-11.1,1.8,40.16,40.16,0,0,1-8.6-1A54,54,0,0,0,45.6,61.2c1.6.9,4.9,3,5.7,6.1C51.8,69,51.3,71,50,73Zm14.84-9.42c-.25.27-.51.53-.77.79s-.53.52-.8.76l-.83.74A35.89,35.89,0,0,1,54.1,71.4v-.1c0-.17.1-.35.14-.52s.11-.52.15-.78a6.82,6.82,0,0,0,.08-.79,7.36,7.36,0,0,0,0-1.15v-.44s0-.06,0-.09a.2.2,0,0,0,0-.11,7,7,0,0,0-.23-1c-1.1-3.9-4.6-6.4-6.7-7.7v-.07a39.82,39.82,0,0,0,2.8-4.24h0c2.47,1.12,5,2.15,7.75,3.07l.6.21A85.05,85.05,0,0,0,67,60a2.49,2.49,0,0,0,.37.09l.32.08a34.52,34.52,0,0,1-2.56,3.1A1.69,1.69,0,0,1,64.84,63.58Zm-4.46-8.53c-.56-.18-1.11-.37-1.66-.57l-1-.35c-.55-.2-1.11-.41-1.66-.63-1.45-.55-2.88-1.16-4.29-1.8A66.33,66.33,0,0,0,55,44.3c2.7-.2,10.2-1.2,15.3-6.4a16.11,16.11,0,0,0,3.8-6.1V32a.17.17,0,0,1,0,.07h0c.12.49.2,1,.28,1.48,0,.25.08.51.11.76s.06.51.08.76,0,.5.07.74.07.72.09,1.09,0,.77.05,1.14v.88a35.67,35.67,0,0,1-5.2,18.6A79.06,79.06,0,0,1,60.38,55.05ZM21.51,31.1c-.59-.56-1.16-1.12-1.71-1.66l-.67-.66.2.21L21,30.67l.94.88Z" transform="translate(0 0)"/><path class="cls-1" d="M47.5,53.1a36.44,36.44,0,0,1-2.77,4.07h0c-.36-.18-.73-.35-1.09-.51h0l-1.08-.45h0a0,0,0,0,0,0,0l-1.09-.41a49.6,49.6,0,0,0-13.51-2.41,56.84,56.84,0,0,1-11.49-1.75l-.67-.2-.08,0L15,51.18l-.08,0-.69-.24,0,0h0l-.69-.27-.08,0c-.25-.09-.51-.19-.76-.3L11.88,50l-.78-.37h0c-.53-.26-1.07-.53-1.6-.83h0c-.54-.3-1.09-.61-1.64-1s-1.11-.71-1.67-1.09c-.84-.58-1.7-1.21-2.57-1.91a28.45,28.45,0,0,1-.5-5.9A35.56,35.56,0,0,1,6.94,22.82c.18-.36.36-.71.56-1.06l.6-1,.36.45c.42.54.85,1.08,1.28,1.61s.63.78,1,1.16.65.78,1,1.16A115,115,0,0,0,28.19,40.86c.24.2.49.39.73.56.69.54,1.4,1.08,2.12,1.6l.25.19c.77.57,1.57,1.14,2.38,1.69,2.48,1.74,5.12,3.42,7.92,5,.24.15.49.28.73.41.59.35,1.19.68,1.8,1C45.23,51.94,46.36,52.53,47.5,53.1Z" transform="translate(0 0)"/><path class="cls-2" d="M15.68,51.39l.08,0h0S15.7,51.41,15.68,51.39Z" transform="translate(0 0)"/><path class="cls-2" d="M33.67,44.9q3.86,2.67,7.92,5C38.79,48.32,36.15,46.64,33.67,44.9Z" transform="translate(0 0)"/><path class="cls-2" d="M41.43,55.78l-1.17-.39.12,0Z" transform="translate(0 0)"/><path class="cls-2" d="M27.92,53.37a53.16,53.16,0,0,1,12.34,2,36.47,36.47,0,0,0-4.12-1,69.91,69.91,0,0,0-8.15-1A57,57,0,0,1,16.5,51.65l-.07,0A56.84,56.84,0,0,0,27.92,53.37Z" transform="translate(0 0)"/><path class="cls-2" d="M43.62,56.65h0Z" transform="translate(0 0)"/><path d="M7.84,47.8c.55.34,1.1.65,1.64,1a40.63,40.63,0,0,1-6-4,38.86,38.86,0,0,1-.5-6A35.45,35.45,0,0,1,8,20.6l.09.12c-.2.34-.4.69-.59,1s-.38.7-.56,1.06A35.44,35.44,0,0,0,3.09,38.9a28.45,28.45,0,0,0,.5,5.9h0c.87.7,1.73,1.33,2.57,1.91C6.73,47.1,7.29,47.46,7.84,47.8Z" transform="translate(0 0)"/><path d="M9.49,48.75l.73.4c-.25-.13-.5-.26-.74-.4Z" transform="translate(0 0)"/><path d="M11.1,49.58l.71.34-.72-.34Z" transform="translate(0 0)"/><path d="M13.46,50.61l.69.27-.71-.27Z" transform="translate(0 0)"/><path d="M15.68,51.39l.08,0h0L15,51.18Z" transform="translate(0 0)"/><path d="M40.38,55.43l1,.35c-.35-.12-.7-.24-1-.34h0l-.12,0Z" transform="translate(0 0)"/><path d="M27.92,53.37a53.16,53.16,0,0,1,12.34,2,36.47,36.47,0,0,0-4.12-1,69.91,69.91,0,0,0-8.15-1A57,57,0,0,1,16.5,51.65l-.74-.23.67.2A56.84,56.84,0,0,0,27.92,53.37Z" transform="translate(0 0)"/><path d="M43.63,56.66h0l-1.08-.46,1.08.45Z" transform="translate(0 0)"/><path class="cls-1" d="M42.8,59.7A51.06,51.06,0,0,1,26.2,72.4,35.75,35.75,0,0,1,4.7,49.5c8.6,5.8,15.9,6.4,23,7,1.19.09,2.37.19,3.54.31l1.17.13c.64.07,1.27.16,1.9.25s1.22.21,1.83.34l1.41.33.63.16.79.22c.63.2,1.26.41,1.9.65S42.15,59.4,42.8,59.7Z" transform="translate(0 0)"/><path class="cls-1" d="M50,73a37.05,37.05,0,0,1-11.1,1.8,40.16,40.16,0,0,1-8.6-1A54,54,0,0,0,45.6,61.2c1.6.9,4.9,3,5.7,6.1C51.8,69,51.3,71,50,73Z" transform="translate(0 0)"/><path class="cls-1" d="M67.66,60.2a34.52,34.52,0,0,1-2.56,3.1,1.69,1.69,0,0,1-.26.28c-.25.27-.51.53-.77.79l-.8.76-.83.74a35.56,35.56,0,0,1-8.31,5.41,9.17,9.17,0,0,0,.37-2.08,7.36,7.36,0,0,0,0-1.15c0-.11,0-.22,0-.33v-.1s0-.06,0-.09a.2.2,0,0,0,0-.11,5.46,5.46,0,0,0-.24-1.12c-1.09-3.86-4.54-6.35-6.64-7.67l.74-1v0l.36-.53.36-.54c.45-.69.88-1.4,1.29-2.12,2.47,1.12,5,2.15,7.75,3.07l.6.21A72.74,72.74,0,0,0,67,60a2.49,2.49,0,0,0,.37.09Z" transform="translate(0 0)"/><path class="cls-2" d="M48.28,57.61l0,0v0l-.74,1h0Z" transform="translate(0 0)"/><path class="cls-2" d="M50.3,54.4h0c-.41.72-.84,1.43-1.29,2.12C49.47,55.83,49.89,55.12,50.3,54.4Z" transform="translate(0 0)"/><path class="cls-2" d="M54.45,67.53s0,.06,0,.09v.1A1.11,1.11,0,0,0,54.45,67.53Z" transform="translate(0 0)"/><path class="cls-2" d="M65.1,63.3a34.52,34.52,0,0,0,2.56-3.1l-.32-.08.36.08A33.33,33.33,0,0,1,65.1,63.3Z" transform="translate(0 0)"/><path d="M48.28,57.61h0l-.74,1C47.8,58.29,48.05,58,48.28,57.61Z" transform="translate(0 0)"/><path d="M50.3,54.4h0c-.41.72-.84,1.43-1.29,2.12C49.47,55.83,49.89,55.12,50.3,54.4Z" transform="translate(0 0)"/><path d="M58.06,57.47c-2.7-.92-5.28-1.95-7.75-3.07l0-.07C52.8,55.46,55.39,56.53,58.06,57.47Z" transform="translate(0 0)"/><path d="M54.5,69.2a9.17,9.17,0,0,1-.37,2.08l0,0c0-.17.1-.35.14-.52s.11-.52.15-.78S54.47,69.47,54.5,69.2Z" transform="translate(0 0)"/><path class="cls-1" d="M74.79,38v.88a35.67,35.67,0,0,1-5.2,18.6,79.06,79.06,0,0,1-9.21-2.45c-.56-.18-1.11-.37-1.66-.57l-1-.35c-.55-.2-1.11-.41-1.66-.63-1.41-.56-2.81-1.16-4.19-1.8a66.33,66.33,0,0,0,3.2-7.4c2.7-.2,10.2-1.2,15.3-6.4a15.94,15.94,0,0,0,3.71-5.85c.12.49.2,1,.28,1.48,0,.25.08.51.11.76s.06.51.08.76,0,.5.07.74l.09,1.09C74.76,37.27,74.78,37.65,74.79,38Z" transform="translate(0 0)"/><path class="cls-2" d="M74.39,33.53c-.08-.53-.16-1-.28-1.48h0a.08.08,0,0,0,0,0c.12.55.21,1,.29,1.54v0c0,.24.06.49.08.73C74.47,34,74.43,33.78,74.39,33.53Z" transform="translate(0 0)"/><path class="cls-2" d="M74.8,38.9a35.67,35.67,0,0,1-5.2,18.6h0a35.67,35.67,0,0,0,5.2-18.6V38C74.8,38.3,74.8,38.6,74.8,38.9Z" transform="translate(0 0)"/><path d="M74.42,33.54c-.08-.53-.17-1-.29-1.56h0a.87.87,0,0,0,.07-.17C74.28,32.38,74.35,33,74.42,33.54Z" transform="translate(0 0)"/><path class="cls-1" d="M72.09,25.33v1.16c0,.28,0,.55-.07.81a.43.43,0,0,1,0,.05c0,.15,0,.29-.05.43s-.07.44-.1.65C70.08,38.25,60.43,40.54,56.14,41.1c0-.1,0-.19.07-.29s.14-.47.19-.71c.18-.66.35-1.33.49-2s.33-1.41.46-2.12a1,1,0,0,0,0-.17c.06-.26.1-.51.15-.77s.1-.56.14-.84h0s0,0,0,0c.07-.38.13-.76.19-1.14.21-1.32.38-2.63.51-3.9,0-.43.09-.85.12-1.27.08-.84.14-1.67.18-2.48v-.86A87.9,87.9,0,0,0,58,8.6c.78.49,1.53,1,2.27,1.55.36.27.73.55,1.09.84l1,.88c.35.3.69.61,1,.92l1,1c.33.33.64.66,1,1a9.24,9.24,0,0,1,.82.92l.13.15.66.81c.21.26.41.51.6.78s.35.46.51.69.33.46.48.69.17.25.25.37A37.6,37.6,0,0,1,72.09,25.33Z" transform="translate(0 0)"/><path class="cls-2" d="M56.13,41.1l.08-.29c0,.1-.05.19-.07.29Z" transform="translate(0 0)"/><path class="cls-2" d="M57.57,34.83c0-.21.08-.42.11-.63,0,.28-.09.56-.14.84,0,0,0-.06,0-.09S57.56,34.87,57.57,34.83Z" transform="translate(0 0)"/><path class="cls-2" d="M72.1,25.29v1.06s0,.08,0,.12V25.33a37.6,37.6,0,0,0-3.28-6.13A36.14,36.14,0,0,1,72.1,25.29Z" transform="translate(0 0)"/><path d="M57,37.64s0-.06,0-.08,0,0,0,0-.07.34-.11.5c-.14.67-.31,1.34-.49,2,0,.24-.12.47-.19.71s-.05.19-.07.29h0v0l0,0C56.43,40,56.72,38.79,57,37.64Z" transform="translate(0 0)"/><path d="M57,37.49s0-.06,0-.09l0,.16S57,37.51,57,37.49Z" transform="translate(0 0)"/><path d="M57.59,34.7a4.54,4.54,0,0,0,.09-.51h0c0,.28-.09.56-.14.84s-.09.51-.15.77a1,1,0,0,1,0,.17c-.07.37-.15.73-.23,1.1,0,.1,0,.21-.08.32.06-.27.13-.55.18-.83s.17-.79.24-1.19l.09-.43s0-.08,0-.12A.51.51,0,0,0,57.59,34.7Z" transform="translate(0 0)"/><path d="M72.1,25.2v.09a37.07,37.07,0,0,0-5.78-9.47A35.69,35.69,0,0,1,72.1,25.2Z" transform="translate(0 0)"/><path class="cls-1" d="M52.77,40.94A17.8,17.8,0,0,1,49,39.51a10.49,10.49,0,0,1-1.12-.69l-.55-.4c-4.24-3.32-5.3-8.76-6.56-15.49-1.2-6.1-2.5-13-6.7-19.5.78-.1,1.56-.17,2.35-.22.59,0,1.24-.08,1.89-.1H39c.67,0,1.33,0,2,.06.3,0,.59,0,.88.06h0A35.69,35.69,0,0,1,54.46,6.68C55.16,10.1,57.56,25.26,52.77,40.94Z" transform="translate(0 0)"/><path class="cls-2" d="M52.81,41A16.29,16.29,0,0,1,49,39.51a17.8,17.8,0,0,0,3.73,1.43c4.79-15.68,2.39-30.84,1.69-34.26l0,0C55.2,10.1,57.6,25.28,52.81,41Z" transform="translate(0 0)"/><path d="M52.9,41h-.09C57.6,25.28,55.2,10.1,54.5,6.7l0,0A35.69,35.69,0,0,0,41.91,3.22l.86.08q.39,0,.78.09l1,.13c.69.11,1.37.24,2,.39l.82.19c.48.11,1,.24,1.44.38l.06,0A34.7,34.7,0,0,1,54.6,6.7C55.2,10,57.7,25.2,52.9,41Z" transform="translate(0 0)"/><path class="cls-1" d="M51.9,43.9a61.14,61.14,0,0,1-2.84,6.48A110.86,110.86,0,0,1,23.54,33l-.42-.38c-.35-.32-.7-.64-1-1L22,31.55l-.46-.45c-.59-.56-1.16-1.12-1.71-1.66l-.67-.66-.41-.42c-.48-.48-.94-1-1.39-1.45-.22-.22-.42-.44-.63-.67a2.09,2.09,0,0,1-.2-.22c-.27-.28-.52-.57-.79-.85h0l-.57-.62a1.19,1.19,0,0,1-.15-.18c-.34-.37-.66-.73-1-1.08C12,20.89,10.55,19,9.8,18a36.11,36.11,0,0,1,21-14c4.5,6.3,5.8,13.3,7,19.4a64.64,64.64,0,0,0,2.1,8.9c.17.5.35,1,.55,1.48a15.22,15.22,0,0,0,.64,1.43c.18.38.37.74.58,1.1C43.62,39.74,46.71,42.46,51.9,43.9Z" transform="translate(0 0)"/><path class="cls-2" d="M22,31.55,21,30.67,19.33,29l-.2-.21.67.66c.55.54,1.12,1.1,1.71,1.66Z" transform="translate(0 0)"/><path d="M15.67,25.16,14,23.28l1,1.08a1.19,1.19,0,0,0,.15.18Z" transform="translate(0 0)"/><path d="M49.06,50.38,49,50.5q-4-2-7.81-4.3-2.85-1.71-5.58-3.59l-.19-.13-.81-.58c-.51-.34-1-.71-1.52-1.08a1,1,0,0,1-.17-.12l-.49-.36c-.8-.58-1.58-1.18-2.36-1.8q-1.86-1.44-3.66-3a.17.17,0,0,1-.08-.07c-.36-.29-.72-.6-1.07-.92s-.66-.56-1-.87c-.55-.47-1.09-1-1.63-1.48s-1.09-1-1.62-1.54l.94.88.11.11c.34.33.69.65,1,1l.42.38A110.86,110.86,0,0,0,49.06,50.38Z" transform="translate(0 0)"/></svg>