<?xml version="1.0" encoding="utf-8"?>
<!-- Generator: Adobe Illustrator 24.3.0, SVG Export Plug-In . SVG Version: 6.00 Build 0)  -->
<svg version="1.1" id="Layer_1" xmlns="http://www.w3.org/2000/svg" xmlns:xlink="http://www.w3.org/1999/xlink" x="0px" y="0px"
	 viewBox="0 0 512 512" style="enable-background:new 0 0 512 512;" xml:space="preserve">
<style type="text/css">
	.st0{fill:#FFC300;}
</style>
<g>
	<g>
		<path class="st0" d="M512,104c0,8.8-7.2,16-16,16H16c-8.8,0-16-7.2-16-16s7.2-16,16-16h480C504.8,88,512,95.2,512,104z"/>
	</g>
</g>
<g>
	<g>
		<path class="st0" d="M496,104v256.5c0,17.4-13.8,31.5-30.7,31.5H46.9C29.9,392,16,377.9,16,360.5V104c0-8.8,7.2-16,16-16
			s16,7.2,16,16v256.5l12.1,0l7.8,0l172.1-0.2l32,0l175.2-0.2c0,0,0,0,0,0h1.6c0,0,0,0,0,0l16.5,0l-1.2-240l-0.1-16
			c0-8.8,7.2-16,16-16S496,95.2,496,104z"/>
	</g>
</g>
<g>
	<g>
		<path class="st0" d="M272,104v272c0,8.8-7.2,16-16,16s-16-7.2-16-16V104c0-8.8,7.2-16,16-16S272,95.2,272,104z"/>
	</g>
</g>
<g>
	<g>
		<path class="st0" d="M80,376v32c0,8.8-7.2,16-16,16s-16-7.2-16-16v-32c0-7.5,5.1-13.8,12.1-15.5c1.3-0.3,2.6-0.5,3.9-0.5
			c1.3,0,2.7,0.2,3.9,0.5C74.8,362.2,80,368.5,80,376z"/>
	</g>
</g>
<g>
	<g>
		<path class="st0" d="M464,376v32c0,8.8-7.2,16-16,16s-16-7.2-16-16v-32c0-8.5,6.7-15.5,15.2-16c0,0,0,0,0,0c0.3,0,0.5,0,0.8,0
			c0.3,0,0.5,0,0.8,0c0,0,0,0,0,0C457.3,360.5,464,367.5,464,376z"/>
	</g>
</g>
<g>
	<g>
		<path d="M48,120v240.5l12.1,0c1.3-0.3,2.6-0.5,3.9-0.5c1.3,0,2.7,0.2,3.9,0.5l172.1-0.2V120H48z M207.8,248.1
			c-8.8,0-16.2-7.3-16.2-16.1s7.4-16.1,16.2-16.1c8.8,0,16.2,7.3,16.2,16.1S216.6,248.1,207.8,248.1z"/>
		<ellipse class="st0" cx="207.8" cy="232" rx="16.2" ry="16.1"/>
	</g>
</g>
<g>
	<g>
		<path d="M464.1,120H272v240.2l175.2-0.2c0,0,0,0,0,0c0.3,0,0.5,0,0.8,0c0.3,0,0.5,0,0.8,0c0,0,0,0,0,0l16.5,0L464.1,120z
			 M304,248.1c-8.8,0-16.2-7.3-16.2-16.1s7.4-16.1,16.2-16.1s16.2,7.3,16.2,16.1S312.8,248.1,304,248.1z"/>
		<ellipse class="st0" cx="304" cy="232" rx="16.2" ry="16.1"/>
	</g>
</g>
</svg>
