<?xml version="1.0" encoding="utf-8"?>
<!-- Generator: Adobe Illustrator 24.3.0, SVG Export Plug-In . SVG Version: 6.00 Build 0)  -->
<svg version="1.1" id="Calque_1" xmlns="http://www.w3.org/2000/svg" xmlns:xlink="http://www.w3.org/1999/xlink" x="0px" y="0px"
	 viewBox="0 0 512 512" style="enable-background:new 0 0 512 512;" xml:space="preserve">
<style type="text/css">
	.st0{fill:#FFC300;}
</style>
<g>
	<path class="st0" d="M480,144h-14L279.7,43.7c0.2-1.2,0.3-2.5,0.3-3.7c0-13.3-10.7-24-24-24c-13.3,0-24,10.7-24,24
		c0,1.2,0.1,2.5,0.3,3.7L46,144H32c-13.2,0-24,10.8-24,24v304c0,13.2,10.8,24,24,24h448c13.2,0,24-10.8,24-24V168
		C504,154.8,493.2,144,480,144z M256,32c4.4,0,8,3.6,8,8s-3.6,8-8,8s-8-3.6-8-8C248,35.6,251.6,32,256,32z M239.9,57.8
		c9.1,8.3,23.1,8.3,32.2,0L432.3,144H79.7L239.9,57.8z M476.7,160l-16,16H51.3l-16-16H476.7z M211.5,391.7L312,261.1L455.9,448
		H252.1L211.5,391.7z M232.4,448H56v-0.5l88-121.9L232.4,448z M318.3,243.1c-2.7-3.5-7.7-4.2-11.2-1.5c-0.5,0.4-1,0.9-1.5,1.5
		l-104,135.1l-51.2-70.9c-2.6-3.6-7.6-4.4-11.2-1.8c-0.7,0.5-1.3,1.1-1.8,1.8L56,420.2V192h400v230L318.3,243.1z M24,468.7V171.3
		l16,16v265.4L24,468.7z M35.3,480l16-16h409.4l16,16H35.3z M488,468.7l-16-16V187.3l16-16V468.7z"/>
	<path class="st0" d="M144,288c22.1,0,40-17.9,40-40s-17.9-40-40-40s-40,17.9-40,40C104,270.1,121.9,288,144,288z M144,224
		c13.3,0,24,10.7,24,24c0,13.3-10.7,24-24,24s-24-10.7-24-24C120,234.8,130.8,224,144,224z"/>
</g>
</svg>
