<svg id="Layer_1" data-name="Layer 1" xmlns="http://www.w3.org/2000/svg" viewBox="0 0 479.5 488.14"><defs><style>.cls-1{fill:#ebebeb;}</style></defs><path d="M465.2,236.3l-14.4-10.7a10.7,10.7,0,0,0-1.6-1.4c-2.4-1.6-59-38.4-120.5-.1-17.9,11.2-32.2,27.3-43.6,44.5,7.8-24.2,18.1-49.6,31.4-71.4A186.78,186.78,0,0,0,437.6,94.6l1.5-3.3a8.15,8.15,0,0,0-1.3-8.7,8,8,0,0,0-8.5-2.3c-2,.7-50.7,17.4-107.5,82.3-28.6,32.7-47,80.7-58.2,121.1l-.3-94.5.9-.3-.9-3L262.9,16a8,8,0,0,0-15.3-3.1L217.6,82a7.47,7.47,0,0,0-.3,5.5l30.2,101.1.2,65.8c-10.6-53.8-26.1-111.2-46.3-128.5C161.2,91.3,126.9,74.5,96.5,74.5,65,74.5,22.7,101,20.9,102.1a7.89,7.89,0,0,0-3.5,8.6,8.09,8.09,0,0,0,6.9,6.2l30.6,3.4a327.7,327.7,0,0,1,94.7,25.2l7.5,3.3,57,36.1c8.6,27.4,16,62.2,21.9,94.9-11.8-21.1-27.9-41.9-49.7-55.5-61.5-38.3-118.1-1.5-120.5.1a10.7,10.7,0,0,0-1.6,1.4L49.8,236.5a77.69,77.69,0,0,0-31.2,68l5,72.4a8,8,0,0,0,7.2,7.4h.8a7.92,7.92,0,0,0,5.9-2.8l.1.1L64.5,351a257.05,257.05,0,0,0,54.3-100.5l7.6-27.5a94.76,94.76,0,0,1,51.4,14.8c44.3,27.6,63.3,91.6,68.8,114.4H168a8,8,0,0,0-8,8c0,50.7,11.8,98.9,32.3,132.2a8.15,8.15,0,0,0,6.8,3.8H312.9a7.8,7.8,0,0,0,6.8-3.8C340.2,458.9,352,410.7,352,360a8,8,0,0,0-8-8H266.2c6.6-24.1,27.4-87.2,71-114.3a94.76,94.76,0,0,1,51.4-14.8l7.6,27.5a259.65,259.65,0,0,0,54.3,100.5l26.9,30.6.1-.1a7.92,7.92,0,0,0,5.9,2.8h.8a7.93,7.93,0,0,0,7.2-7.4l5.1-72.4A78,78,0,0,0,465.2,236.3ZM332.72,174.85c.45-.55.82-1.09,1.28-1.55,31.74-36.24,61-56.73,79.6-67.44l.1-.06A171.06,171.06,0,0,1,332.6,175ZM247.2,131.66l-13.8-46L247,54.2l.3,77.8Zm-82.1,3a10.91,10.91,0,0,0-1.1-.6l-8.1-3.5a341.86,341.86,0,0,0-99.3-26.5l-5-.58-.17,0a194.93,194.93,0,0,1,19.23-7.93c1.55-.53,3.09-1,4.64-1.52s2.93-.87,4.39-1.26l2.91-.72c1-.22,1.93-.42,2.89-.61a58.56,58.56,0,0,1,11-1.16c26.4,0,57.3,15.6,94.4,47.6,4.9,4.2,9.6,11.9,14.1,22.1ZM36.2,327.5l-1.7-24.3a62.05,62.05,0,0,1,20.6-50.67c.43-.38.86-.76,1.3-1.13ZM77,236c.78-.44,1.73-.95,2.83-1.52l1.16-.59c.57-.29,1.17-.58,1.81-.88.84-.41,1.75-.82,2.71-1.24l1.92-.82,1.7-.69c1.15-.46,2.37-.92,3.64-1.37q2.87-1,6.1-2c.71-.22,1.45-.42,2.19-.62l.71-.19c.84-.22,1.7-.44,2.57-.64l1.32-.3,2.4-.51,1.24-.25v0l-6,21.58a241.58,241.58,0,0,1-50.9,94.2L48.14,345l-.14.16ZM335.9,368c-1.1,42.9-11,83.1-27.5,112H203.6c-16.6-28.9-26.4-69.1-27.5-112Zm131-23-4.26-4.84A241.58,241.58,0,0,1,411.7,246l-6-21.58v0A105.65,105.65,0,0,1,438,236l29,109.2ZM480.5,303.2l-1.7,24.4-20.2-76.1A61.63,61.63,0,0,1,480.5,303.2Z" transform="translate(-17.18 -8.06)"/><path class="cls-1" d="M176.1,368c1.1,42.9,10.9,83.1,27.5,112H308.4c16.5-28.9,26.4-69.1,27.5-112Zm121.1,94.4-13.8-8.1c12-20.3,19.5-62.8,19.6-63.2l15.8,2.8C318.5,395.8,310.7,439.6,297.2,462.4Z" transform="translate(-17.18 -8.06)"/><path d="M318.8,393.9c-.3,1.9-8.1,45.7-21.6,68.5l-13.8-8.1c12-20.3,19.5-62.8,19.6-63.2Z" transform="translate(-17.18 -8.06)"/><path class="cls-1" d="M56.4,251.4,36.2,327.5l-1.7-24.3a62.05,62.05,0,0,1,20.6-50.67C55.53,252.15,56,251.77,56.4,251.4Z" transform="translate(-17.18 -8.06)"/><path d="M34.5,303.2a61.63,61.63,0,0,1,20.6-50.67A62.05,62.05,0,0,0,34.5,303.2Z" transform="translate(-17.18 -8.06)"/><path class="cls-1" d="M109.29,224.42l-6,21.58a241.58,241.58,0,0,1-50.9,94.2L48.14,345,77,236c.78-.44,1.73-.95,2.83-1.52A108.66,108.66,0,0,1,109.29,224.42Z" transform="translate(-17.18 -8.06)"/><path d="M109.4,224.4l-6,21.6a241.58,241.58,0,0,1-50.9,94.2l-4.4,5,0-.16,4.26-4.84A241.58,241.58,0,0,0,103.3,246l6-21.58Z" transform="translate(-17.18 -8.06)"/><path class="cls-1" d="M480.5,303.2l-1.7,24.4-20.2-76.1A61.63,61.63,0,0,1,480.5,303.2Z" transform="translate(-17.18 -8.06)"/><path class="cls-1" d="M466.86,345l-4.26-4.84A241.58,241.58,0,0,1,411.7,246l-6-21.58A105.77,105.77,0,0,1,437.9,236Z" transform="translate(-17.18 -8.06)"/><path d="M466.9,345.2l-4.4-5A241.58,241.58,0,0,1,411.6,246l-6-21.6.11,0,6,21.58a241.58,241.58,0,0,0,50.9,94.2l4.26,4.84Z" transform="translate(-17.18 -8.06)"/><path class="cls-1" d="M413.6,105.86a171,171,0,0,1-80.88,69c.45-.55.82-1.09,1.28-1.55C365.74,137.06,395,116.57,413.6,105.86Z" transform="translate(-17.18 -8.06)"/><path d="M413.7,105.7l-.1.16c-18.6,10.71-47.86,31.2-79.6,67.44-.46.46-.83,1-1.28,1.55l-.12.05,1.4-1.7C365.8,136.9,395.1,116.4,413.7,105.7Z" transform="translate(-17.18 -8.06)"/><polygon class="cls-1" points="230.02 123.6 216.22 77.64 229.82 46.14 230.02 123.6"/><polygon points="230.02 123.6 230.02 124.04 216.22 77.64 230.02 123.6"/><path class="cls-1" d="M205,160l-39.9-25.3a10.91,10.91,0,0,0-1.1-.6l-8.1-3.5a341.86,341.86,0,0,0-99.3-26.5l-5-.58a177.62,177.62,0,0,1,23.7-9.47c1.47-.45,2.93-.87,4.39-1.26l2.91-.72c1-.22,1.93-.42,2.89-.61a58.56,58.56,0,0,1,11-1.16c26.4,0,57.3,15.6,94.4,47.6C195.8,142.1,200.5,149.8,205,160Z" transform="translate(-17.18 -8.06)"/><path d="M205,160l-39.9-25.2a10.91,10.91,0,0,0-1.1-.6l-8.1-3.5a341.86,341.86,0,0,0-99.3-26.5l-5.2-.6.17-.08,5,.58a341.86,341.86,0,0,1,99.3,26.5l8.1,3.5a10.91,10.91,0,0,1,1.1.6Z" transform="translate(-17.18 -8.06)"/><path d="M318.8,393.9c-.3,1.9-8.1,45.7-21.6,68.5l-13.8-8.1c12-20.3,19.5-62.8,19.6-63.2Z" transform="translate(-17.18 -8.06)"/></svg>