<svg id="Capa_1" data-name="Capa 1" xmlns="http://www.w3.org/2000/svg" viewBox="0 0 512 452.26"><defs><style>.cls-1{fill:#fff;}</style></defs><path d="M469.33,29.87H42.67A42.71,42.71,0,0,0,0,72.53v332.8a42.74,42.74,0,0,0,34.13,41.81v9.39a25.63,25.63,0,0,0,25.6,25.6h51.2a25.62,25.62,0,0,0,25.6-25.6V448H375.47v8.53a25.62,25.62,0,0,0,25.6,25.6h51.2a25.62,25.62,0,0,0,25.6-25.6v-9.39A42.74,42.74,0,0,0,512,405.33V72.53A42.71,42.71,0,0,0,469.33,29.87ZM119.47,456.53a8.56,8.56,0,0,1-8.54,8.54H59.73a8.55,8.55,0,0,1-8.53-8.54V448h68.27Zm341.33,0a8.55,8.55,0,0,1-8.53,8.54h-51.2a8.56,8.56,0,0,1-8.54-8.54V448H460.8Zm34.13-51.2a25.62,25.62,0,0,1-25.6,25.6H42.67a25.61,25.61,0,0,1-25.6-25.6V72.53a25.62,25.62,0,0,1,25.6-25.6H469.33a25.62,25.62,0,0,1,25.6,25.6Z" transform="translate(0 -29.87)"/><path class="cls-1" d="M460.8,448v8.53a8.55,8.55,0,0,1-8.53,8.54h-51.2a8.56,8.56,0,0,1-8.54-8.54V448Z" transform="translate(0 -29.87)"/><path class="cls-1" d="M119.47,448v8.53a8.56,8.56,0,0,1-8.54,8.54H59.73a8.55,8.55,0,0,1-8.53-8.54V448Z" transform="translate(0 -29.87)"/><path class="cls-1" d="M469.33,46.93H42.67a25.62,25.62,0,0,0-25.6,25.6v332.8a25.61,25.61,0,0,0,25.6,25.6H469.33a25.62,25.62,0,0,0,25.6-25.6V72.53A25.62,25.62,0,0,0,469.33,46.93Zm8.54,358.4a8.54,8.54,0,0,1-8.54,8.54H42.67a8.54,8.54,0,0,1-8.54-8.54V72.53A8.53,8.53,0,0,1,42.67,64H469.33a8.53,8.53,0,0,1,8.54,8.53Z" transform="translate(0 -29.87)"/><path d="M469.33,64H42.67a8.53,8.53,0,0,0-8.54,8.53v332.8a8.54,8.54,0,0,0,8.54,8.54H469.33a8.54,8.54,0,0,0,8.54-8.54V72.53A8.53,8.53,0,0,0,469.33,64ZM460.8,396.8H51.2V302.93H460.8Zm0-110.93H51.2V192H460.8Zm0-110.94H51.2V81.07H460.8Z" transform="translate(0 -29.87)"/><path class="cls-1" d="M51.2,302.93V396.8H460.8V302.93ZM256,371.2a25.6,25.6,0,1,1,25.6-25.6A25.63,25.63,0,0,1,256,371.2Z" transform="translate(0 -29.87)"/><path class="cls-1" d="M51.2,192v93.87H460.8V192ZM256,260.27a25.6,25.6,0,1,1,25.6-25.6A25.6,25.6,0,0,1,256,260.27Z" transform="translate(0 -29.87)"/><path class="cls-1" d="M51.2,81.07v93.86H460.8V81.07ZM256,149.33a25.6,25.6,0,1,1,25.6-25.6A25.6,25.6,0,0,1,256,149.33Z" transform="translate(0 -29.87)"/><path d="M256,98.13a25.6,25.6,0,1,0,25.6,25.6A25.6,25.6,0,0,0,256,98.13Zm0,34.14a8.54,8.54,0,1,1,8.53-8.54A8.53,8.53,0,0,1,256,132.27Z" transform="translate(0 -29.87)"/><path class="cls-1" d="M264.53,123.73A8.53,8.53,0,1,1,256,115.2,8.55,8.55,0,0,1,264.53,123.73Z" transform="translate(0 -29.87)"/><path d="M256,209.07a25.6,25.6,0,1,0,25.6,25.6A25.6,25.6,0,0,0,256,209.07Zm0,34.13a8.54,8.54,0,1,1,8.53-8.53A8.53,8.53,0,0,1,256,243.2Z" transform="translate(0 -29.87)"/><path class="cls-1" d="M264.53,234.67a8.53,8.53,0,1,1-8.53-8.54A8.54,8.54,0,0,1,264.53,234.67Z" transform="translate(0 -29.87)"/><path d="M256,320a25.6,25.6,0,1,0,25.6,25.6A25.6,25.6,0,0,0,256,320Zm0,34.13a8.53,8.53,0,1,1,8.53-8.53A8.53,8.53,0,0,1,256,354.13Z" transform="translate(0 -29.87)"/><circle class="cls-1" cx="256" cy="345.6" r="8.53" transform="translate(-112.77 94.4) rotate(-22.5)"/></svg>