<svg xmlns="http://www.w3.org/2000/svg" height="511pt" version="1.1" viewBox="1 0 511.99904 511" width="511pt">
<g id="surface1">
<path d="M 493.375 213.011719 L 401.71875 213.011719 L 401.71875 145.921875 C 401.71875 65.734375 336.484375 0.5 256.296875 0.5 C 176.113281 0.5 110.875 65.734375 110.875 145.921875 L 110.875 213.011719 L 18.625 213.011719 C 8.355469 213.011719 0 221.367188 0 231.640625 L 0 458.023438 C 0 487.515625 23.996094 511.511719 53.492188 511.511719 L 458.507812 511.511719 C 488.003906 511.511719 512 487.515625 512 458.023438 L 512 231.640625 C 512 221.367188 503.644531 213.011719 493.375 213.011719 Z M 140.878906 145.921875 C 140.878906 82.277344 192.652344 30.503906 256.296875 30.503906 C 319.9375 30.503906 371.714844 82.277344 371.714844 145.921875 L 371.714844 213.011719 L 140.878906 213.011719 Z M 481.996094 458.023438 C 481.996094 470.972656 471.460938 481.511719 458.507812 481.511719 L 53.492188 481.511719 C 40.539062 481.511719 30.003906 470.972656 30.003906 458.023438 L 30.003906 243.015625 L 481.996094 243.015625 Z M 481.996094 458.023438 " style=" stroke:none;fill-rule:nonzero;fill:rgb(0%,0%,0%);fill-opacity:1;" />
<path d="M 165.242188 337.988281 C 163.976562 337.988281 162.789062 338.222656 161.6875 338.699219 L 136.546875 347.234375 L 137.496094 322.570312 C 137.335938 318.777344 136.09375 315.929688 133.765625 314.035156 C 131.4375 312.136719 128.570312 311.1875 125.164062 311.1875 C 121.601562 311.1875 118.652344 312.179688 116.328125 314.152344 C 113.996094 316.132812 112.75 318.9375 112.59375 322.570312 L 113.78125 346.761719 L 88.59375 338.699219 C 87.476562 338.222656 86.273438 337.988281 84.996094 337.988281 C 81.316406 337.988281 78.195312 339.332031 75.640625 342.019531 C 73.082031 344.707031 71.804688 347.710938 71.804688 351.03125 C 71.804688 357.988281 74.492188 362.019531 79.867188 363.125 L 104.53125 370.238281 L 88.878906 392.53125 C 86.984375 394.75 86.035156 397.277344 86.035156 400.121094 C 86.035156 403.761719 87.703125 406.726562 91.042969 409.015625 C 94.382812 411.308594 97.726562 412.453125 101.066406 412.453125 C 104.882812 412.453125 107.667969 411.03125 109.414062 408.183594 L 125.164062 384.230469 L 140.339844 407.949219 C 142.238281 410.953125 145.238281 412.453125 149.351562 412.453125 C 152.988281 412.453125 156.308594 411.230469 159.3125 408.777344 C 162.3125 406.328125 163.820312 403.285156 163.820312 399.648438 C 163.820312 396.644531 163.183594 394.351562 161.921875 392.769531 L 145.320312 368.816406 L 169.511719 363.125 C 174.882812 362.019531 177.574219 358.542969 177.574219 352.691406 C 177.574219 349.054688 176.386719 345.695312 174.015625 342.613281 C 171.648438 339.527344 168.71875 337.988281 165.242188 337.988281 Z M 165.242188 337.988281 " style=" stroke:none;fill-rule:nonzero;fill:rgb(0%,0%,0%);fill-opacity:1;" />
<path d="M 295.914062 337.988281 C 294.648438 337.988281 293.460938 338.222656 292.359375 338.699219 L 267.21875 347.234375 L 268.167969 322.570312 C 268.007812 318.777344 266.761719 315.929688 264.4375 314.035156 C 262.109375 312.136719 259.242188 311.1875 255.835938 311.1875 C 252.269531 311.1875 249.324219 312.179688 246.996094 314.152344 C 244.667969 316.132812 243.421875 318.9375 243.265625 322.570312 L 244.453125 346.761719 L 219.265625 338.699219 C 218.144531 338.222656 216.945312 337.988281 215.667969 337.988281 C 211.988281 337.988281 208.867188 339.332031 206.3125 342.019531 C 203.753906 344.707031 202.476562 347.710938 202.476562 351.03125 C 202.476562 357.988281 205.160156 362.019531 210.539062 363.125 L 235.203125 370.238281 L 219.550781 392.53125 C 217.65625 394.75 216.707031 397.277344 216.707031 400.121094 C 216.707031 403.761719 218.375 406.726562 221.714844 409.015625 C 225.054688 411.308594 228.398438 412.453125 231.738281 412.453125 C 235.554688 412.453125 238.339844 411.03125 240.085938 408.183594 L 255.835938 384.230469 L 271.011719 407.949219 C 272.910156 410.953125 275.910156 412.453125 280.023438 412.453125 C 283.660156 412.453125 286.980469 411.230469 289.984375 408.777344 C 292.984375 406.328125 294.488281 403.285156 294.488281 399.648438 C 294.488281 396.644531 293.855469 394.351562 292.59375 392.769531 L 275.992188 368.816406 L 300.183594 363.125 C 305.554688 362.019531 308.246094 358.542969 308.246094 352.691406 C 308.246094 349.054688 307.058594 345.695312 304.6875 342.613281 C 302.320312 339.527344 299.390625 337.988281 295.914062 337.988281 Z M 295.914062 337.988281 " style=" stroke:none;fill-rule:nonzero;fill:rgb(0%,0%,0%);fill-opacity:1;" />
<path d="M 398.839844 322.570312 C 398.679688 318.777344 397.433594 315.929688 395.109375 314.035156 C 392.78125 312.136719 389.914062 311.1875 386.507812 311.1875 C 382.941406 311.1875 379.996094 312.179688 377.667969 314.152344 C 375.339844 316.132812 374.09375 318.9375 373.9375 322.570312 L 375.125 346.761719 L 349.9375 338.699219 C 348.816406 338.222656 347.617188 337.988281 346.339844 337.988281 C 342.660156 337.988281 339.539062 339.332031 336.984375 342.019531 C 334.425781 344.707031 333.148438 347.710938 333.148438 351.03125 C 333.148438 357.988281 335.832031 362.019531 341.210938 363.125 L 365.875 370.238281 L 350.222656 392.53125 C 348.328125 394.75 347.378906 397.277344 347.378906 400.121094 C 347.378906 403.761719 349.042969 406.726562 352.386719 409.015625 C 355.726562 411.308594 359.070312 412.453125 362.410156 412.453125 C 366.226562 412.453125 369.007812 411.03125 370.757812 408.183594 L 386.507812 384.230469 L 401.683594 407.949219 C 403.582031 410.953125 406.582031 412.453125 410.695312 412.453125 C 414.332031 412.453125 417.652344 411.230469 420.65625 408.777344 C 423.65625 406.328125 425.160156 403.285156 425.160156 399.648438 C 425.160156 396.644531 424.527344 394.351562 423.265625 392.769531 L 406.664062 368.816406 L 430.855469 363.125 C 436.226562 362.019531 438.917969 358.542969 438.917969 352.691406 C 438.917969 349.054688 437.730469 345.695312 435.359375 342.613281 C 432.988281 339.527344 430.0625 337.988281 426.585938 337.988281 C 425.320312 337.988281 424.132812 338.222656 423.027344 338.699219 L 397.890625 347.234375 Z M 398.839844 322.570312 " style=" stroke:none;fill-rule:nonzero;fill:rgb(0%,0%,0%);fill-opacity:1;" />
</g>
</svg>