<svg id="Calque_1" data-name="Calque 1" xmlns="http://www.w3.org/2000/svg" viewBox="0 0 496 480"><defs><style>.cls-1{fill:#ebebeb;}.cls-2{fill:#003f88;}</style></defs><path d="M480,144H466L279.7,43.7A23.08,23.08,0,0,0,280,40a24,24,0,0,0-48,0,23.08,23.08,0,0,0,.3,3.7L46,144H32A24.07,24.07,0,0,0,8,168V472a24.07,24.07,0,0,0,24,24H480a24.07,24.07,0,0,0,24-24V168A24.07,24.07,0,0,0,480,144ZM248,39.23c0-.11,0-.23,0-.35s0-.27.07-.41,0-.13,0-.2a1.17,1.17,0,0,1,.05-.2c0-.1,0-.21.08-.31a6.28,6.28,0,0,1,.24-.69c.07-.19.15-.37.23-.54a7.89,7.89,0,0,1,.69-1.16,2.43,2.43,0,0,1,.24-.32,4.82,4.82,0,0,1,.36-.43l.54-.54a4.82,4.82,0,0,1,.43-.36,2.43,2.43,0,0,1,.32-.24,7.89,7.89,0,0,1,1.16-.69c.17-.08.35-.16.54-.23a6.28,6.28,0,0,1,.69-.24l.31-.08.2-.05.2,0,.41-.07.35,0a7.43,7.43,0,0,1,1.54,0l.35,0,.41.07.2,0,.2.05.31.08a6.28,6.28,0,0,1,.69.24c.19.07.37.15.54.23a7.89,7.89,0,0,1,1.16.69,2.43,2.43,0,0,1,.32.24,4.82,4.82,0,0,1,.43.36,6.88,6.88,0,0,1,.54.54,4.82,4.82,0,0,1,.36.43,2.43,2.43,0,0,1,.24.32,7.89,7.89,0,0,1,.69,1.16c.08.17.16.35.23.54a6.28,6.28,0,0,1,.24.69c0,.1.06.21.08.31a1.17,1.17,0,0,1,.05.2c0,.07,0,.13,0,.2s0,.27.07.41,0,.23,0,.35a7.43,7.43,0,0,1,0,1.54c0,.11,0,.23,0,.35s-.05.33-.08.49-.1.42-.16.63a6.28,6.28,0,0,1-.24.69c-.07.19-.15.37-.23.54a7.89,7.89,0,0,1-.69,1.16,2.43,2.43,0,0,1-.24.32,4.82,4.82,0,0,1-.36.43,6.88,6.88,0,0,1-.54.54,4.82,4.82,0,0,1-.43.36,2.43,2.43,0,0,1-.32.24,7.89,7.89,0,0,1-1.16.69c-.17.08-.35.16-.54.23a6.28,6.28,0,0,1-.69.24l-.63.16-.49.08-.35,0a7.43,7.43,0,0,1-1.54,0l-.35,0-.49-.08-.63-.16a6.28,6.28,0,0,1-.69-.24c-.19-.07-.37-.15-.54-.23a7.89,7.89,0,0,1-1.16-.69,2.43,2.43,0,0,1-.32-.24,4.82,4.82,0,0,1-.43-.36,6.88,6.88,0,0,1-.54-.54,4.82,4.82,0,0,1-.36-.43,2.43,2.43,0,0,1-.24-.32,7.89,7.89,0,0,1-.69-1.16c-.08-.17-.16-.35-.23-.54a6.28,6.28,0,0,1-.24-.69c-.06-.21-.11-.41-.16-.63s-.06-.32-.08-.49,0-.24,0-.35a7.43,7.43,0,0,1,0-1.54ZM239.9,57.8a23.93,23.93,0,0,0,32.2,0L432.3,144H79.7ZM476.7,160l-16,16H51.3l-16-16ZM211.5,391.7,312,261.1,455.9,448H252.1ZM232.4,448H56v-.5l88-121.9Zm85.9-204.9a8,8,0,0,0-11.2-1.5,10.61,10.61,0,0,0-1.5,1.5l-104,135.1-51.2-70.9a8,8,0,0,0-11.2-1.8,7.69,7.69,0,0,0-1.8,1.8L56,420.2V192H456V422ZM24,468.7V171.3l16,16V452.7ZM35.3,480l16-16H460.7l16,16ZM488,468.7l-16-16V187.3l16-16Z" transform="translate(-8 -16)"/><path class="cls-1" d="M264,40a6.51,6.51,0,0,1,0,.77c0,.11,0,.23,0,.35s-.05.33-.08.49-.1.42-.16.63a6.28,6.28,0,0,1-.24.69c-.07.19-.15.37-.23.54a7.89,7.89,0,0,1-.69,1.16,2.43,2.43,0,0,1-.24.32,4.82,4.82,0,0,1-.36.43,6.88,6.88,0,0,1-.54.54,4.82,4.82,0,0,1-.43.36,2.43,2.43,0,0,1-.32.24,7.89,7.89,0,0,1-1.16.69c-.17.08-.35.16-.54.23a6.28,6.28,0,0,1-.69.24l-.63.16-.49.08-.35,0a7.43,7.43,0,0,1-1.54,0l-.35,0-.49-.08-.63-.16a6.28,6.28,0,0,1-.69-.24c-.19-.07-.37-.15-.54-.23a7.89,7.89,0,0,1-1.16-.69,2.43,2.43,0,0,1-.32-.24,4.82,4.82,0,0,1-.43-.36,6.88,6.88,0,0,1-.54-.54,4.82,4.82,0,0,1-.36-.43,2.43,2.43,0,0,1-.24-.32,7.89,7.89,0,0,1-.69-1.16c-.08-.17-.16-.35-.23-.54a6.28,6.28,0,0,1-.24-.69c-.06-.21-.11-.41-.16-.63s-.06-.32-.08-.49,0-.24,0-.35a7.43,7.43,0,0,1,0-1.54c0-.11,0-.23,0-.35s0-.27.07-.41,0-.13,0-.2a1.17,1.17,0,0,1,.05-.2c0-.1,0-.21.08-.31a6.28,6.28,0,0,1,.24-.69c.07-.19.15-.37.23-.54a7.89,7.89,0,0,1,.69-1.16,2.43,2.43,0,0,1,.24-.32,4.82,4.82,0,0,1,.36-.43l.54-.54a4.82,4.82,0,0,1,.43-.36,2.43,2.43,0,0,1,.32-.24,7.89,7.89,0,0,1,1.16-.69c.17-.08.35-.16.54-.23a6.28,6.28,0,0,1,.69-.24l.31-.08.2-.05.2,0,.41-.07.35,0a7.43,7.43,0,0,1,1.54,0l.35,0,.41.07.2,0,.2.05.31.08a6.28,6.28,0,0,1,.69.24c.19.07.37.15.54.23a7.89,7.89,0,0,1,1.16.69,2.43,2.43,0,0,1,.32.24,4.82,4.82,0,0,1,.43.36,6.88,6.88,0,0,1,.54.54,4.82,4.82,0,0,1,.36.43,2.43,2.43,0,0,1,.24.32,7.89,7.89,0,0,1,.69,1.16c.08.17.16.35.23.54a6.28,6.28,0,0,1,.24.69c0,.1.06.21.08.31a1.17,1.17,0,0,1,.05.2c0,.07,0,.13,0,.2s0,.27.07.41,0,.23,0,.35A6.51,6.51,0,0,1,264,40Z" transform="translate(-8 -16)"/><polygon class="cls-1" points="32 171.3 32 436.7 16 452.7 16 155.3 32 171.3"/><polygon class="cls-1" points="468.7 464 27.3 464 43.3 448 452.7 448 468.7 464"/><polygon class="cls-1" points="480 155.3 480 452.7 464 436.7 464 171.3 480 155.3"/><polygon class="cls-1" points="447.9 432 244.1 432 203.5 375.7 304 245.1 447.9 432"/><polygon class="cls-1" points="224.4 432 48 432 48 431.5 136 309.6 224.4 432"/><path class="cls-1" d="M56,192V420.2l81.4-112.9a7.69,7.69,0,0,1,1.8-1.8,8,8,0,0,1,11.2,1.8l51.2,70.9,104-135.1a10.61,10.61,0,0,1,1.5-1.5,8,8,0,0,1,11.2,1.5L456,422V192Zm88,96a40,40,0,1,1,40-40A40,40,0,0,1,144,288Z" transform="translate(-8 -16)"/><polygon class="cls-1" points="468.7 144 452.7 160 43.3 160 27.3 144 468.7 144"/><path class="cls-2" d="M432.3,144H79.7L239.9,57.8a23.93,23.93,0,0,0,32.2,0Z" transform="translate(-8 -16)"/><path d="M144,208a40,40,0,1,0,40,40A40,40,0,0,0,144,208Zm23.51,44.85a19,19,0,0,1-.59,2.28c-.11.35-.22.69-.35,1,0,.12-.08.24-.13.36-.1.28-.21.55-.33.82a23.77,23.77,0,0,1-12.77,12.77c-.27.12-.54.23-.82.33l-.36.13c-.34.13-.68.24-1,.35a19,19,0,0,1-2.28.59,24.25,24.25,0,0,1-9.7,0,19,19,0,0,1-2.28-.59c-.35-.11-.69-.22-1-.35l-.36-.13c-.28-.1-.55-.21-.82-.33a23.77,23.77,0,0,1-12.77-12.77c-.12-.27-.23-.54-.33-.82,0-.12-.09-.24-.13-.36-.13-.34-.24-.68-.35-1a19,19,0,0,1-.59-2.28A24.18,24.18,0,0,1,120,248c0-.34,0-.69,0-1,0-.18,0-.37,0-.55a3.59,3.59,0,0,1,0-.47c0-.24,0-.48.07-.71s.07-.6.12-.9.12-.74.2-1.11a1.55,1.55,0,0,1,0-.23c.06-.34.14-.67.23-1s.2-.76.32-1.14.23-.69.35-1,.26-.7.41-1,.19-.44.29-.67c.2-.44.41-.87.64-1.3l.35-.64q.36-.63.75-1.23a24.2,24.2,0,0,1,7.09-7.09q.6-.39,1.23-.75l.64-.35a14.21,14.21,0,0,1,1.3-.64l.67-.29c.34-.15.69-.29,1-.41l1-.35c.38-.12.76-.23,1.14-.32s.66-.17,1-.23l.23-.05c.37-.08.74-.15,1.11-.2s.6-.09.9-.12l.71-.07a3.59,3.59,0,0,1,.47,0l.55,0,1,0a24.18,24.18,0,0,1,4.85.49,19,19,0,0,1,2.28.59c.35.11.69.22,1,.35l.36.13c.28.1.55.21.82.33a23.77,23.77,0,0,1,12.77,12.77c.12.27.23.54.33.82.05.12.09.24.13.36.13.34.24.68.35,1a19,19,0,0,1,.59,2.28,24.25,24.25,0,0,1,0,9.7Z" transform="translate(-8 -16)"/><path class="cls-1" d="M168,248a24.18,24.18,0,0,1-.49,4.85c-.16.78-.36,1.54-.59,2.28-.11.35-.22.69-.35,1,0,.12-.08.24-.13.36-.1.27-.21.55-.33.82a24.1,24.1,0,0,1-12.77,12.77c-.27.12-.55.23-.82.33l-.36.13c-.34.13-.68.24-1,.35-.74.23-1.5.43-2.28.59a24.25,24.25,0,0,1-9.7,0c-.78-.16-1.54-.36-2.28-.59-.35-.11-.69-.22-1-.35l-.36-.13c-.27-.1-.55-.21-.82-.33a24.1,24.1,0,0,1-12.77-12.77c-.12-.27-.23-.55-.33-.82,0-.12-.09-.24-.13-.36-.13-.34-.24-.68-.35-1-.23-.74-.43-1.5-.59-2.28A24.18,24.18,0,0,1,120,248c0-.34,0-.69,0-1,0-.18,0-.37,0-.55a3.59,3.59,0,0,1,0-.47c0-.24,0-.48.07-.71s.07-.6.12-.9.12-.75.2-1.11a1.55,1.55,0,0,1,0-.23c.06-.34.14-.67.23-1s.2-.77.32-1.14.22-.69.35-1,.26-.7.41-1,.19-.44.29-.67c.2-.44.41-.87.64-1.3l.35-.64q.36-.63.75-1.23a24.2,24.2,0,0,1,7.09-7.09q.6-.39,1.23-.75l.64-.35c.43-.23.86-.44,1.3-.64l.67-.29c.34-.15.69-.29,1-.41s.68-.24,1-.35.75-.22,1.14-.32.66-.17,1-.23l.23-.05c.36-.08.74-.15,1.11-.2s.6-.09.9-.12l.71-.07a3.59,3.59,0,0,1,.47,0l.55,0,1,0a24.18,24.18,0,0,1,4.85.49c.78.16,1.54.36,2.28.59.35.11.69.22,1,.35l.36.13c.27.1.55.21.82.33a24.1,24.1,0,0,1,12.77,12.77c.12.27.23.55.33.82s.09.24.13.36c.13.34.24.68.35,1,.23.74.43,1.5.59,2.28A24.18,24.18,0,0,1,168,248Z" transform="translate(-8 -16)"/><path d="M131,227.87a24.2,24.2,0,0,0-7.09,7.09A23.5,23.5,0,0,1,131,227.87Z" transform="translate(-8 -16)"/></svg>