<?xml version="1.0" encoding="iso-8859-1"?>
<!-- Generator: Adobe Illustrator 19.0.0, SVG Export Plug-In . SVG Version: 6.00 Build 0)  -->
<svg version="1.1" id="Layer_1" xmlns="http://www.w3.org/2000/svg" xmlns:xlink="http://www.w3.org/1999/xlink" x="0px" y="0px"
	 viewBox="0 0 512 512" style="enable-background:new 0 0 512 512;" xml:space="preserve">
<g>
	<g>
		<path d="M496,88H16c-8.832,0-16,7.168-16,16c0,8.832,7.168,16,16,16h480c8.832,0,16-7.168,16-16C512,95.168,504.832,88,496,88z"/>
	</g>
</g>
<g>
	<g>
		<path d="M480,88c-8.832,0-16,7.168-16,16l1.312,256L48,360.496V104c0-8.832-7.168-16-16-16c-8.832,0-16,7.168-16,16v256.496
			C16,377.872,29.872,392,46.928,392h418.384C482.24,392,496,377.872,496,360.496V104C496,95.168,488.832,88,480,88z"/>
	</g>
</g>
<g>
	<g>
		<path d="M256,88c-8.832,0-16,7.168-16,16v272c0,8.832,7.168,16,16,16c8.832,0,16-7.168,16-16V104C272,95.168,264.832,88,256,88z"
			/>
	</g>
</g>
<g>
	<g>
		<path d="M64,360c-8.832,0-16,7.168-16,16v32c0,8.832,7.168,16,16,16c8.832,0,16-7.168,16-16v-32C80,367.168,72.832,360,64,360z"/>
	</g>
</g>
<g>
	<g>
		<path d="M448,360c-8.832,0-16,7.168-16,16v32c0,8.832,7.168,16,16,16c8.832,0,16-7.168,16-16v-32C464,367.168,456.832,360,448,360
			z"/>
	</g>
</g>
<g>
	<g>
		<path d="M207.792,215.888c-8.832,0-16.208,7.28-16.208,16.112c0,8.832,7.376,16.112,16.208,16.112
			c8.848,0,16.208-7.28,16.208-16.112C224,223.168,216.624,215.888,207.792,215.888z"/>
	</g>
</g>
<g>
	<g>
		<path d="M304,215.888c-8.848,0-16.208,7.28-16.208,16.112c0,8.832,7.376,16.112,16.208,16.112c8.832,0,16.208-7.28,16.208-16.112
			C320.208,223.168,312.848,215.888,304,215.888z"/>
	</g>
</g>
<g>
</g>
<g>
</g>
<g>
</g>
<g>
</g>
<g>
</g>
<g>
</g>
<g>
</g>
<g>
</g>
<g>
</g>
<g>
</g>
<g>
</g>
<g>
</g>
<g>
</g>
<g>
</g>
<g>
</g>
</svg>
