<svg id="Layer_1" data-name="Layer 1" xmlns="http://www.w3.org/2000/svg" viewBox="0 0 479.52 488.03"><defs><style>.cls-1{fill:#fff;}.cls-2{fill:#ebebeb;}</style></defs><path d="M426.35,307.21q.25.41.54.81l.7,1Zm-4.19-6.52.33.55a3.13,3.13,0,0,0,.21.34l.16.25c.18.3.37.6.57.89C423,302.05,422.58,301.37,422.16,300.69Zm2.47,3.89c.1.16.2.33.31.49.2.32.41.64.62,1l.25.36C425.42,305.79,425,305.19,424.63,304.58Zm-1.2-1.86.37.59c.18.28.36.57.55.85s.18.28.28.42Q424,303.65,423.43,302.72Zm-3.95-6.42c.06.12.13.23.2.35.35.58.7,1.17,1.06,1.75Zm-5.3-9.41.52,1a1.59,1.59,0,0,0,.13.22C414.61,287.69,414.39,287.29,414.18,286.89Zm15.93,25.77a.57.57,0,0,0,.08.13l.16.23a.61.61,0,0,0,.07.1l.13.17c.24.36.5.71.76,1.07s.51.7.78,1.05C431.42,314.51,430.77,313.58,430.11,312.66Zm-3.76-5.45q.25.41.54.81l.7,1Zm-1.72-2.63c.1.16.2.33.31.49.2.32.41.64.62,1l.25.36C425.42,305.79,425,305.19,424.63,304.58Zm-1.2-1.86.37.59c.18.28.36.57.55.85s.18.28.28.42Q424,303.65,423.43,302.72Zm-1.27-2c-.48-.76-1-1.52-1.42-2.29.57,1,1.15,1.9,1.75,2.84a3.13,3.13,0,0,0,.21.34l.16.25c.18.3.37.6.57.89C423,302.05,422.58,301.37,422.16,300.69Zm-2.68-4.39c.06.12.13.23.2.35.35.58.7,1.17,1.06,1.75Zm-5.3-9.41.52,1a1.59,1.59,0,0,0,.13.22C414.61,287.69,414.39,287.29,414.18,286.89Zm-1-1.92-.36-.68c.17.35.35.69.53,1l.14.26C413.38,285.38,413.28,285.17,413.17,285ZM38,328.87q.81-.94,1.59-1.89c.2-.24.4-.49.59-.74C39.44,327.12,38.71,328,38,328.87Zm4.9-6c-.8,1-1.61,2-2.42,3q1.71-2.07,3.34-4.17l1-1.33C44.2,321.21,43.53,322,42.88,322.85Zm-6,7.36.55-.63.53-.64C37.57,329.36,37.21,329.79,36.84,330.21ZM17.65,283.07c-.06.46-.11.92-.16,1.39q.07-.75.18-1.5A.43.43,0,0,0,17.65,283.07Zm412.46,29.59a.57.57,0,0,0,.08.13l.16.23a.61.61,0,0,0,.07.1l.13.17c.24.36.5.71.76,1.07s.51.7.78,1.05C431.42,314.51,430.77,313.58,430.11,312.66Zm-3.76-5.45q.25.41.54.81l.7,1Zm-1.72-2.63c.1.16.2.33.31.49.2.32.41.64.62,1l.25.36C425.42,305.79,425,305.19,424.63,304.58Zm-1.2-1.86.37.59c.18.28.36.57.55.85s.18.28.28.42Q424,303.65,423.43,302.72Zm-1.27-2c-.48-.76-1-1.52-1.42-2.29.57,1,1.15,1.9,1.75,2.84a3.13,3.13,0,0,0,.21.34l.16.25c.18.3.37.6.57.89C423,302.05,422.58,301.37,422.16,300.69Zm-2.68-4.39c.06.12.13.23.2.35.35.58.7,1.17,1.06,1.75Zm-5.3-9.41.52,1a1.59,1.59,0,0,0,.13.22C414.61,287.69,414.39,287.29,414.18,286.89Zm-1-1.92-.36-.68c.17.35.35.69.53,1l.14.26C413.38,285.38,413.28,285.17,413.17,285ZM42.88,322.85c-.8,1-1.61,2-2.42,3q1.71-2.07,3.34-4.17l1-1.33C44.2,321.21,43.53,322,42.88,322.85Zm-4.9,6q.81-.94,1.59-1.89c.2-.24.4-.49.59-.74C39.44,327.12,38.71,328,38,328.87Zm-1.14,1.34.55-.63.53-.64C37.57,329.36,37.21,329.79,36.84,330.21ZM17.65,283.07c-.06.46-.11.92-.16,1.39q.07-.75.18-1.5A.43.43,0,0,0,17.65,283.07Zm22.81,42.81q1.71-2.07,3.34-4.17l1-1.33c-.64.83-1.31,1.65-2,2.47C42.08,323.86,41.27,324.88,40.46,325.88Zm-.89,1.1c.2-.24.4-.49.59-.74-.72.88-1.45,1.75-2.18,2.63Q38.79,327.93,39.57,327Zm-2.18,2.6.53-.64c-.35.42-.71.85-1.08,1.27ZM17.65,283.07c-.06.46-.11.92-.16,1.39q.07-.75.18-1.5A.43.43,0,0,0,17.65,283.07ZM448,228.24l-14.4-10.7a10.63,10.63,0,0,0-1.6-1.4c-2.4-1.6-59-38.4-120.5-.1-17.9,11.2-32.2,27.3-43.6,44.5,7.8-24.2,18.1-49.6,31.4-71.4a186.82,186.82,0,0,0,121.1-102.6l1.5-3.3a8.15,8.15,0,0,0-1.3-8.7,8,8,0,0,0-8.5-2.3c-2,.7-50.7,17.4-107.5,82.3-28.6,32.7-47,80.7-58.2,121.1l-.3-94.5.9-.3-.9-3-.4-169.9a8,8,0,0,0-15.3-3.1l-30,69.1a7.48,7.48,0,0,0-.3,5.5l30.2,101.1.2,65.8c-10.6-53.8-26.1-111.2-46.3-128.5-40.2-34.6-74.5-51.4-104.9-51.4-31.5,0-73.8,26.5-75.6,27.6a7.89,7.89,0,0,0-3.5,8.6,8.09,8.09,0,0,0,6.9,6.2l30.6,3.4a327.85,327.85,0,0,1,94.7,25.2l7.5,3.3,57,36.1c8.6,27.4,16,62.2,21.9,94.9-11.8-21.1-27.9-41.9-49.7-55.5-61.5-38.3-118.1-1.5-120.5.1a10.63,10.63,0,0,0-1.6,1.4l-14.4,10.7a77.68,77.68,0,0,0-31.2,68l5,72.4a8,8,0,0,0,7.2,7.4h.8a7.9,7.9,0,0,0,5.9-2.8l.1.1,26.9-30.6a257,257,0,0,0,54.3-100.5l7.6-27.5a94.78,94.78,0,0,1,51.4,14.8c44.3,27.6,63.3,91.6,68.8,114.4h-78.6a8,8,0,0,0-8,8c0,50.7,11.8,98.9,32.3,132.2a8.15,8.15,0,0,0,6.8,3.8h113.8a7.8,7.8,0,0,0,6.8-3.8c20.5-33.5,32.3-81.7,32.3-132.4a8,8,0,0,0-8-8H249c6.6-24.1,27.4-87.2,71-114.3a94.78,94.78,0,0,1,51.4-14.8l7.6,27.5a259.6,259.6,0,0,0,54.3,100.5l26.9,30.6.1-.1a7.9,7.9,0,0,0,5.9,2.8h.8a7.93,7.93,0,0,0,7.2-7.4l5.1-72.4A78,78,0,0,0,448,228.24ZM315.54,166.8h0c.45-.55.82-1.09,1.28-1.55,1.73-2,3.45-3.91,5.18-5.79.73-.81,1.47-1.61,2.21-2.41q.18-.21.39-.42l.32-.34q1.11-1.2,2.22-2.37c1.08-1.15,2.17-2.29,3.26-3.4l1.09-1.13.71-.73.36-.35v0l.36-.36c.48-.49.95-1,1.43-1.44l1.43-1.42c.48-.48.95-.95,1.42-1.4.94-.93,1.89-1.84,2.82-2.74s1.87-1.78,2.8-2.65,1.85-1.73,2.77-2.57l2.74-2.49q5.45-4.91,10.64-9.16c.86-.72,1.72-1.42,2.57-2.1l2.3-1.84c.92-.73,1.82-1.44,2.72-2.13s1.64-1.27,2.45-1.88c1-.74,1.92-1.45,2.86-2.14l1.92-1.4,2.31-1.67q3.43-2.44,6.66-4.59c.72-.49,1.42-1,2.12-1.4q4.19-2.75,7.92-5l1.84-1.1,1.77-1,.1-.06a171.06,171.06,0,0,1-81.1,69.2ZM230,123.6l-13.79-46v0l13.6-31.46.3,77.8ZM53.48,87.49c1.55-.53,3.09-1,4.64-1.52s2.93-.87,4.39-1.26L65.42,84c1-.22,1.93-.42,2.89-.61a58.84,58.84,0,0,1,11-1.16c26.4,0,57.3,15.6,94.4,47.6.15.13.31.27.46.42l.69.64a25.9,25.9,0,0,1,2,2.21l.45.54.45.56c.7.89,1.39,1.84,2.08,2.86.2.3.4.59.6.9.75,1.16,1.5,2.4,2.24,3.71l.75,1.35c.18.33.36.66.53,1s.46.86.68,1.3c.49,1,1,1.94,1.46,3,.28.59.56,1.18.83,1.79s.56,1.23.84,1.86L147.92,126.6a10.59,10.59,0,0,0-1.1-.6l-8.1-3.5A341.8,341.8,0,0,0,39.42,96l-4.93-.57h-.24A195.25,195.25,0,0,1,53.48,87.49ZM19,319.44l-1.7-24.3q0-.51-.06-1c0-.1,0-.2,0-.29a3,3,0,0,1,0-.42,1.63,1.63,0,0,1,0-.31h0c0-.13,0-.25,0-.37s0-.21,0-.31c0-.39,0-.78,0-1.16v-.4c0-.15,0-.3,0-.45,0-.48,0-1,0-1.45v-.11c0-.16,0-.32,0-.48a.37.37,0,0,1,0-.11.66.66,0,0,1,0-.14.13.13,0,0,1,0-.06,1.08,1.08,0,0,1,0-.18c0-.08,0-.15,0-.23s0-.11,0-.17a1.09,1.09,0,0,1,0-.18,2.28,2.28,0,0,1,0-.26.76.76,0,0,1,0-.15c0-.34,0-.69.07-1s.07-.93.12-1.39.11-1,.18-1.5.12-.89.18-1.33.1-.68.16-1,.13-.8.21-1.2a.3.3,0,0,1,0-.1c.09-.48.18-.95.29-1.43a2.38,2.38,0,0,1,0-.26c.08-.36.16-.72.25-1.07s.17-.76.27-1.13.22-.83.33-1.25.21-.76.33-1.13.23-.76.35-1.14.15-.47.23-.7q.39-1.2.84-2.37c.24-.64.49-1.27.75-1.9.39-.94.8-1.86,1.24-2.78.26-.55.53-1.1.81-1.64s.5-1,.76-1.43.67-1.22,1-1.82c.17-.29.34-.59.53-.88a2.29,2.29,0,0,1,.18-.29c.24-.4.5-.8.76-1.2s.54-.83.83-1.24.75-1.08,1.14-1.61l.42-.58.44-.56.31-.39c.26-.33.51-.67.78-1l.77-.91.85-1,.88-1,.91-1h0l.93-.94,1.19-1.15,1.23-1.12c.43-.38.9-.76,1.3-1.13Zm40.8-91.5c.78-.44,1.73-.95,2.83-1.52l1.75-.88c.39-.2.8-.39,1.22-.59.84-.41,1.75-.82,2.71-1.24l1.16-.5a2.63,2.63,0,0,0,.35-.15l1.7-.69.41-.17.88-.34.52-.2c.61-.24,1.22-.46,1.83-.68.3-.11.59-.22.89-.31.8-.29,1.63-.56,2.48-.84l1-.31.6-.19,1.59-.5c.71-.22,1.45-.42,2.19-.62l.71-.19c.84-.22,1.7-.44,2.57-.64l1.32-.3,2.4-.51,1.24-.25v0l-6,21.58c-.16.58-.33,1.16-.49,1.74l-.81,2.77c0,.12-.07.23-.1.35h0l-.06.21c-.46,1.54-1,3.08-1.45,4.61a.06.06,0,0,1,0,0c-.17.53-.35,1.07-.53,1.6l-.54,1.61c-.06.19-.12.37-.19.56-.3.88-.61,1.75-.92,2.62a1.33,1.33,0,0,1-.1.28.05.05,0,0,1,0,0c-.72,2-1.46,4-2.22,6a.06.06,0,0,1,0,0c-.4,1-.81,2.07-1.23,3.1s-.85,2.09-1.29,3.12-.85,2-1.29,3a1.54,1.54,0,0,1-.08.19.88.88,0,0,1-.09.2.38.38,0,0,1-.06.13.14.14,0,0,1,0,.06,0,0,0,0,1,0,0l0,.1c0,.1-.08.2-.13.3s-.14.33-.22.5l-.48,1.06s0,0,0,.05c-.11.27-.24.54-.37.81-.41.9-.82,1.79-1.24,2.68a.38.38,0,0,1-.06.13h0c-.24.52-.49,1-.73,1.54-.06.14-.13.28-.2.42h0a.11.11,0,0,1,0,.07,1.86,1.86,0,0,1-.1.2l0,.06a.76.76,0,0,1-.09.18,1.3,1.3,0,0,1-.08.17l-.09.18s0,0,0,0c-.28.58-.57,1.16-.86,1.73l-.18.37-.18.37-.35.69v0h0c-.35.7-.71,1.4-1.07,2.09l-.45.86s0,0,0,0h0c-.51,1-1,1.95-1.56,2.92v0h0c-.33.61-.66,1.22-1,1.82l-.6,1.08c-.23.42-.47.84-.71,1.26s-.53.92-.79,1.39c-.45.79-.91,1.58-1.38,2.36-.37.63-.75,1.26-1.13,1.89q-1.14,1.92-2.35,3.82c-.41.66-.83,1.33-1.26,2-.55.86-1.1,1.72-1.67,2.57,0,.09-.11.17-.17.26-.32.49-.65,1-1,1.46s-.63.95-1,1.42l0,.06c-.22.32-.44.65-.67,1l-.4.59c-.45.65-.91,1.31-1.38,2l-.55.78-.77,1.06c-.18.26-.38.53-.57.79l-.63.86-1.59,2.14c-.48.65-1,1.31-1.49,1.95-.64.83-1.31,1.65-2,2.47-.8,1-1.61,2-2.42,3l-.3.36c-.72.88-1.45,1.75-2.18,2.63a.19.19,0,0,1-.06.07c-.35.42-.71.85-1.08,1.27,0,0,0,0,0,0l0,0c-.53.63-1.07,1.26-1.62,1.88L31,336.93l0,.05h0l-.1.11Zm258.9,132c-1.1,42.9-11,83.1-27.5,112H186.42c-16.6-28.9-26.4-69.1-27.5-112Zm131-23-.06-.07-4.2-4.77q-7.06-8.07-13.37-16.69c-.67-.9-1.32-1.83-2-2.75l0,0a.05.05,0,0,1,0,0,1.43,1.43,0,0,1-.16-.24l-.28-.38s0,0,0,0a3.29,3.29,0,0,1-.23-.33c-.41-.57-.8-1.14-1.19-1.71a.05.05,0,0,1,0-.05l-.07-.09c-.17-.24-.34-.48-.49-.73l-1.24-1.83-.21-.32a.24.24,0,0,1-.06-.09s0,0,0,0l-.05-.06a1.74,1.74,0,0,1-.11-.18.05.05,0,0,1,0,0,.27.27,0,0,1-.06-.1c-.39-.6-.79-1.2-1.18-1.81s-.81-1.24-1.2-1.86-.85-1.35-1.27-2-1-1.52-1.42-2.29l-1.26-2.1c-.14-.22-.27-.45-.4-.67s-.16-.26-.23-.4-.12-.19-.17-.29,0,0,0-.05c-.15-.24-.29-.49-.43-.74s-.41-.7-.61-1-.4-.7-.6-1.05l-.69-1.23h0l-.05-.1-.69-1.26c-.06-.11-.13-.22-.19-.34-.21-.37-.41-.75-.62-1.13l-.06-.12a1.59,1.59,0,0,0,.13.22c-.22-.4-.44-.8-.65-1.2h0a2.15,2.15,0,0,1-.14-.26c-.19-.34-.37-.69-.55-1-.1-.2-.2-.41-.31-.61l-.36-.68c-.05-.08-.09-.16-.13-.24l-.37-.71-.09-.19a3.59,3.59,0,0,1-.17-.34l-.1-.17s0-.07-.05-.1a.36.36,0,0,0,0-.09l0,0s0,0,0,0c-.31-.59-.61-1.19-.9-1.79-.09-.16-.17-.32-.25-.49l-.43-.86-.84-1.74-.78-1.64h0l-.45-1-1-2.06q-1.38-3.06-2.69-6.17h0c-.4-.95-.8-1.91-1.19-2.87l-.09-.25q-.33-.78-.63-1.56c-.21-.52-.41-1-.61-1.57q-.62-1.58-1.2-3.15h0c-.3-.79-.59-1.58-.87-2.38l-.63-1.75c-.26-.74-.52-1.48-.77-2.22l-.27-.82c-.18-.53-.35-1.06-.53-1.6-.09-.27-.18-.53-.26-.8s-.12-.35-.17-.52c-.3-.9-.58-1.79-.86-2.69-.67-2.15-1.3-4.31-1.91-6.49l-6-21.58h0l2.1.41c1.4.29,2.79.6,4.18.95l2.08.54c.69.18,1.38.37,2.07.58,2.08.59,4.14,1.26,6.18,2a105.62,105.62,0,0,1,15.67,7.11l29,109.2Zm13.6-41.8-1.7,24.4-20.2-76.1A61.63,61.63,0,0,1,463.32,295.14ZM17.65,283.07c-.06.46-.11.92-.16,1.39q.07-.75.18-1.5A.43.43,0,0,0,17.65,283.07Zm19.19,47.14.55-.63.53-.64C37.57,329.36,37.21,329.79,36.84,330.21ZM38,328.87q.81-.94,1.59-1.89c.2-.24.4-.49.59-.74C39.44,327.12,38.71,328,38,328.87Zm4.9-6c-.8,1-1.61,2-2.42,3q1.71-2.07,3.34-4.17l1-1.33C44.2,321.21,43.53,322,42.88,322.85ZM17.65,283.07c-.06.46-.11.92-.16,1.39q.07-.75.18-1.5A.43.43,0,0,0,17.65,283.07Zm19.19,47.14.55-.63.53-.64C37.57,329.36,37.21,329.79,36.84,330.21ZM38,328.87q.81-.94,1.59-1.89c.2-.24.4-.49.59-.74C39.44,327.12,38.71,328,38,328.87Zm4.9-6c-.8,1-1.61,2-2.42,3q1.71-2.07,3.34-4.17l1-1.33C44.2,321.21,43.53,322,42.88,322.85ZM413.17,285l-.36-.68c.17.35.35.69.53,1l.14.26C413.38,285.38,413.28,285.17,413.17,285Zm1,1.92.52,1a1.59,1.59,0,0,0,.13.22C414.61,287.69,414.39,287.29,414.18,286.89Zm5.3,9.41c.06.12.13.23.2.35.35.58.7,1.17,1.06,1.75Zm2.68,4.39c-.48-.76-1-1.52-1.42-2.29.57,1,1.15,1.9,1.75,2.84a3.13,3.13,0,0,0,.21.34l.16.25c.18.3.37.6.57.89C423,302.05,422.58,301.37,422.16,300.69Zm2.47,3.89c.1.16.2.33.31.49.2.32.41.64.62,1l.25.36C425.42,305.79,425,305.19,424.63,304.58Zm-1.2-1.86.37.59c.18.28.36.57.55.85s.18.28.28.42Q424,303.65,423.43,302.72Zm2.92,4.49q.25.41.54.81l.7,1Zm3.76,5.45a.57.57,0,0,0,.08.13l.16.23a.61.61,0,0,0,.07.1l.13.17c.24.36.5.71.76,1.07s.51.7.78,1.05C431.42,314.51,430.77,313.58,430.11,312.66ZM38,328.87a.19.19,0,0,1-.06.07l-.53.64c.55-.64,1.1-1.29,1.64-1.94l.54-.66c.2-.24.4-.49.59-.74C39.44,327.12,38.71,328,38,328.87Zm4.9-6c-.8,1-1.61,2-2.42,3q1.71-2.07,3.34-4.17l1-1.33C44.2,321.21,43.53,322,42.88,322.85Zm371.3-36,.52,1a1.59,1.59,0,0,0,.13.22C414.61,287.69,414.39,287.29,414.18,286.89Zm5.3,9.41c.06.12.13.23.2.35.35.58.7,1.17,1.06,1.75Zm2.68,4.39.33.55a3.13,3.13,0,0,0,.21.34l.16.25c.18.3.37.6.57.89C423,302.05,422.58,301.37,422.16,300.69Zm2.47,3.89c.1.16.2.33.31.49.2.32.41.64.62,1l.25.36C425.42,305.79,425,305.19,424.63,304.58Zm-1.2-1.86.37.59c.18.28.36.57.55.85s.18.28.28.42Q424,303.65,423.43,302.72Zm2.92,4.49q.25.41.54.81l.7,1Zm3.76,5.45,0,0,.11.16.16.23a.61.61,0,0,0,.07.1l.13.17c.24.36.5.71.76,1.07s.51.7.78,1.05C431.42,314.51,430.77,313.58,430.11,312.66Zm-.22-.31-.28-.38c.14.21.29.42.44.62A1.43,1.43,0,0,1,429.89,312.35Z" transform="translate(0.01 -0.11)"/><path class="cls-1" d="M158.92,359.94c1.1,42.9,10.9,83.1,27.5,112h104.8c16.5-28.9,26.4-69.1,27.5-112ZM280,454.34l-13.8-8.1c12-20.3,19.5-62.8,19.6-63.2l15.8,2.8C301.32,387.74,293.52,431.54,280,454.34Z" transform="translate(0.01 -0.11)"/><path d="M301.62,385.84c-.3,1.9-8.1,45.7-21.6,68.5l-13.8-8.1c12-20.3,19.5-62.8,19.6-63.2Z" transform="translate(0.01 -0.11)"/><path class="cls-1" d="M39.22,243.34,19,319.44l-1.7-24.3a60.53,60.53,0,0,1-.05-7.85c0-.48.06-1,.1-1.44.07-.93.16-1.86.28-2.78.06-.48.13-1,.2-1.44s.1-.68.16-1,.13-.8.21-1.2a.3.3,0,0,1,0-.1c.09-.48.18-.95.29-1.43a2.38,2.38,0,0,1,0-.26c.08-.36.16-.72.25-1.07s.17-.76.27-1.13.22-.83.33-1.25.21-.76.33-1.13.23-.76.35-1.14.15-.47.23-.7q.39-1.2.84-2.37c.24-.64.49-1.27.75-1.9.39-.94.81-1.87,1.24-2.78.26-.55.53-1.1.81-1.64s.5-1,.76-1.43.67-1.22,1-1.82c.17-.29.34-.59.53-.88a2.29,2.29,0,0,1,.18-.29c.24-.4.5-.8.76-1.2s.55-.83.83-1.24.75-1.08,1.14-1.61l.86-1.14c.27-.36.55-.71.83-1.06l.26-.33.77-.91q1.7-2,3.57-3.87l1.19-1.15,1.23-1.12C38.35,244.09,38.82,243.71,39.22,243.34Z" transform="translate(0.01 -0.11)"/><path d="M17.32,295.14c-.07-.91-.1-1.82-.13-2.73C17.22,293.32,17.25,294.23,17.32,295.14Z" transform="translate(0.01 -0.11)"/><path d="M17.18,290.4a61.61,61.61,0,0,1,16.48-41.75c-.59.65-1.17,1.3-1.73,2l-.77.91-.26.33c-.28.35-.56.7-.83,1.06l-.86,1.14c-.39.53-.77,1.06-1.14,1.61s-.56.82-.83,1.24-.52.8-.76,1.2a2.29,2.29,0,0,0-.18.29c-.19.29-.36.59-.53.88-.36.6-.7,1.2-1,1.82s-.52,1-.76,1.43-.55,1.09-.81,1.64c-.43.91-.85,1.84-1.24,2.78-.26.63-.51,1.26-.75,1.9s-.58,1.57-.84,2.37c-.08.23-.16.46-.23.7s-.24.76-.35,1.14-.23.75-.33,1.13l-.33,1.25c-.1.37-.19.75-.27,1.13s-.17.71-.25,1.07a2.38,2.38,0,0,0,0,.26c-.11.48-.2.95-.29,1.43a.3.3,0,0,0,0,.1q-.12.6-.21,1.2c-.06.33-.11.67-.16,1s-.14,1-.2,1.44c-.12.92-.21,1.85-.28,2.78,0,.48-.07,1-.1,1.44C17.21,288.32,17.18,289.36,17.18,290.4Z" transform="translate(0.01 -0.11)"/><path d="M35.5,246.74c-.63.62-1.24,1.27-1.84,1.91C34.26,248,34.87,247.37,35.5,246.74Z" transform="translate(0.01 -0.11)"/><path d="M17.18,290.4c0,.28,0,.56,0,.85C17.17,291,17.17,290.68,17.18,290.4Z" transform="translate(0.01 -0.11)"/><path d="M17.17,291.25c0,.38,0,.77,0,1.16C17.18,292,17.17,291.63,17.17,291.25Z" transform="translate(0.01 -0.11)"/><path class="cls-1" d="M92.11,216.36l-6,21.58q-1.36,4.88-2.92,9.68a.06.06,0,0,1,0,0c-.7,2.14-1.42,4.28-2.18,6.39s-1.54,4.21-2.34,6.29c0,0,0,0,0,0l-1.23,3.1q-.63,1.57-1.29,3.12-2.58,6.13-5.49,12.12c-.51,1.06-1,2.11-1.57,3.16l0,.05c-.5,1-1,2-1.52,2.95a.08.08,0,0,0,0,.05c-.51,1-1,1.95-1.56,2.92,0,0,0,0,0,0-.52,1-1.06,1.94-1.6,2.9s-.93,1.66-1.41,2.49q-1.26,2.22-2.6,4.41-1.14,1.92-2.35,3.82c-2,3.16-4,6.27-6.15,9.32-1.28,1.84-2.58,3.65-3.9,5.45-.68.92-1.36,1.84-2.06,2.75s-1.36,1.78-2.06,2.67q-4.15,5.32-8.62,10.43L31,336.93l28.86-109c.78-.44,1.73-.95,2.83-1.52l1.75-.88c1.68-.82,3.38-1.59,5.09-2.33a2.63,2.63,0,0,0,.35-.15l1.7-.69q.64-.27,1.29-.51l.52-.2c.61-.24,1.22-.46,1.83-.68.3-.11.59-.22.89-.31.8-.29,1.63-.56,2.48-.84l1-.31.6-.19A107.42,107.42,0,0,1,92.11,216.36Z" transform="translate(0.01 -0.11)"/><path class="cls-2" d="M51.82,310.84q1.55-2.23,3-4.5a240.9,240.9,0,0,1-19.66,25.8L31,336.93l4.22-4.79q4.47-5.1,8.62-10.43c.7-.89,1.38-1.78,2.06-2.67s1.38-1.83,2.06-2.75Q49.92,313.59,51.82,310.84Z" transform="translate(0.01 -0.11)"/><path class="cls-2" d="M54.87,306.34c.06-.09.12-.17.17-.26C55,306.17,54.93,306.25,54.87,306.34Z" transform="translate(0.01 -0.11)"/><path class="cls-2" d="M60.32,297.7c.86-1.41,1.69-2.82,2.51-4.25-1.18,2.05-2.38,4.09-3.62,6.11h0q-2,3.29-4.16,6.51,1.5-2.26,2.93-4.56Q59.19,299.62,60.32,297.7Z" transform="translate(0.01 -0.11)"/><path class="cls-2" d="M64.33,290.8c.54-1,1.08-1.93,1.6-2.9-.53,1-1.07,2-1.61,2.94h0c-.46.82-.92,1.63-1.39,2.44l-.09.16c.15-.27.3-.54.46-.81Z" transform="translate(0.01 -0.11)"/><path class="cls-2" d="M66,287.85c.53-1,1-2,1.56-2.92-.51,1-1,2-1.57,3h0S65.94,287.87,66,287.85Z" transform="translate(0.01 -0.11)"/><path class="cls-2" d="M67.53,284.88c.52-1,1-2,1.52-2.95-.5,1-1,2-1.53,3h0A.08.08,0,0,1,67.53,284.88Z" transform="translate(0.01 -0.11)"/><path class="cls-2" d="M69.07,281.88c.24-.47.47-.95.71-1.43-.24.49-.47,1-.72,1.47h0Z" transform="translate(0.01 -0.11)"/><path class="cls-2" d="M70.91,278.16c.81-1.7,1.62-3.41,2.4-5.12-.58,1.28-1.17,2.55-1.77,3.82q-.44.93-.9,1.86c-.28.58-.57,1.16-.86,1.73C70.16,279.69,70.53,278.92,70.91,278.16Z" transform="translate(0.01 -0.11)"/><path class="cls-2" d="M73.51,272.61c-.07.14-.14.28-.2.43C73.37,272.89,73.44,272.75,73.51,272.61Z" transform="translate(0.01 -0.11)"/><path class="cls-2" d="M76.13,266.6c-.84,2-1.72,4-2.62,6C74.41,270.62,75.28,268.61,76.13,266.6Z" transform="translate(0.01 -0.11)"/><path class="cls-2" d="M81,254.05c-.37,1.07-.76,2.12-1.15,3.18s-.78,2.08-1.19,3.11Q79.86,257.22,81,254.05Z" transform="translate(0.01 -0.11)"/><path d="M92.22,216.34l-6,21.6a241.64,241.64,0,0,1-50.9,94.2l-4.4,5V337l0-.05,4.22-4.79q4.47-5.1,8.62-10.43c.7-.89,1.38-1.78,2.06-2.67s1.38-1.83,2.06-2.75q2-2.7,3.9-5.45,1.55-2.23,3-4.5c.06-.09.12-.17.17-.26q1.5-2.26,2.93-4.56c.42-.65.82-1.3,1.23-1.95h0c.37-.62.75-1.24,1.11-1.86.86-1.41,1.69-2.82,2.51-4.25.49-.87,1-1.73,1.48-2.6h0v0c.54-1,1.08-1.93,1.6-2.9h0v0c.53-1,1-2,1.56-2.92h0s0,0,0,0c.52-1,1-2,1.52-2.95h0v0c.24-.47.47-.95.71-1.43.59-1.19,1.18-2.38,1.76-3.59,1.61-3.38,3.15-6.8,4.59-10.26q.66-1.55,1.29-3.12c.42-1,.83-2.06,1.23-3.1s.81-2.1,1.2-3.15q1.77-4.74,3.33-9.57a.06.06,0,0,0,0,0q1.57-4.8,2.93-9.68l6-21.58Z" transform="translate(0.01 -0.11)"/><path class="cls-1" d="M463.32,295.14l-1.7,24.4-20.2-76.1A61.63,61.63,0,0,1,463.32,295.14Z" transform="translate(0.01 -0.11)"/><path class="cls-1" d="M449.66,336.87l-4.2-4.77q-7.06-8.07-13.37-16.69c-.67-.9-1.32-1.83-2-2.75l0,0a.05.05,0,0,1,0,0,1.43,1.43,0,0,1-.16-.24l-.29-.4a2.75,2.75,0,0,1-.23-.33l-1.19-1.71a.05.05,0,0,1,0-.05l-.07-.09c-.17-.24-.34-.48-.49-.73L426.21,307a.36.36,0,0,1-.07-.1l-.06-.09s0,0,0,0l-.16-.24a.05.05,0,0,1,0,0,.33.33,0,0,1-.06-.1c-.39-.6-.79-1.2-1.18-1.81s-.81-1.24-1.2-1.86-.85-1.35-1.27-2-1-1.52-1.42-2.29l-1.26-2.1c-.14-.22-.27-.45-.4-.67s-.16-.26-.23-.4l-.16-.28h0s0,0,0-.05l-.39-.68,0-.06c-.41-.69-.81-1.39-1.21-2.1l-.69-1.23-.06-.1-.69-1.26c-.06-.11-.13-.22-.19-.34-.21-.37-.41-.75-.62-1.13l-.06-.12a1.59,1.59,0,0,0,.13.22c-.22-.4-.44-.8-.65-1.2h0a2.15,2.15,0,0,1-.14-.26c-.19-.34-.37-.69-.55-1-.1-.2-.2-.41-.31-.61l-.36-.68c-.05-.08-.09-.16-.13-.24-.16-.3-.31-.6-.46-.9a3.59,3.59,0,0,1-.17-.34c-.07-.12-.13-.24-.19-.36a.15.15,0,0,1,0-.07c-.31-.6-.61-1.19-.9-1.79-.09-.16-.17-.32-.25-.49l-.43-.86-.84-1.74-.78-1.64h0c-.16-.33-.31-.66-.46-1l-1-2.06q-1.38-3.06-2.69-6.17h0q-.66-1.56-1.29-3.12c-.84-2.08-1.65-4.18-2.44-6.28h0c-1.17-3.17-2.29-6.36-3.33-9.57s-2-6.46-2.93-9.72l-6-21.56,2.1.41c1.4.29,2.8.61,4.18.95l2.08.54,2.07.58a106.26,106.26,0,0,1,21.75,9.1Z" transform="translate(0.01 -0.11)"/><path class="cls-2" d="M400.79,257.21c-.79-2.1-1.54-4.22-2.27-6.35-.36-1.07-.72-2.15-1.06-3.22s-.7-2.14-1-3.21c-.67-2.15-1.3-4.31-1.91-6.49l-6-21.58h0l6,21.56q1.22,4.35,2.6,8.66c.23.74.47,1.47.72,2.21Q399.24,253,400.79,257.21Z" transform="translate(0.01 -0.11)"/><path class="cls-2" d="M403.23,263.5q.63,1.56,1.29,3.12h0c-.4-.95-.8-1.91-1.19-2.87l-.72-1.81c-.62-1.56-1.23-3.14-1.81-4.72C401.58,259.32,402.39,261.42,403.23,263.5Z" transform="translate(0.01 -0.11)"/><path class="cls-2" d="M408.17,274.86c.15.33.3.66.46,1h0c-.48-1-.95-2-1.41-3.05Z" transform="translate(0.01 -0.11)"/><path class="cls-2" d="M412.22,283.15c.15.3.3.6.46.9-.13-.23-.25-.47-.37-.71s-.25-.47-.36-.7c-.44-.84-.86-1.69-1.27-2.54.08.17.16.33.25.49.29.6.59,1.19.9,1.79a.15.15,0,0,0,0,.07c.06.12.12.24.19.36A3.59,3.59,0,0,0,412.22,283.15Z" transform="translate(0.01 -0.11)"/><path class="cls-2" d="M413.48,285.58c.18.35.36.7.55,1-.24-.43-.47-.87-.69-1.3s-.45-.84-.66-1.27c0,.08.08.16.13.24l.36.68C413.28,285.17,413.38,285.38,413.48,285.58Z" transform="translate(0.01 -0.11)"/><path class="cls-2" d="M414.83,288.09a1.59,1.59,0,0,1-.13-.22l.06.12c-.2-.36-.4-.73-.59-1.11h0C414.39,287.29,414.61,287.69,414.83,288.09Z" transform="translate(0.01 -0.11)"/><path class="cls-2" d="M416.32,290.82l.69,1.23c-.24-.41-.47-.82-.7-1.23l-.05-.1Z" transform="translate(0.01 -0.11)"/><path class="cls-2" d="M418.26,294.21l.39.68-.43-.74c-.41-.69-.81-1.39-1.21-2.1q.6,1.06,1.23,2.13Z" transform="translate(0.01 -0.11)"/><path class="cls-2" d="M418.69,295l.16.28a3,3,0,0,1-.2-.34s0,0,0,.05Z" transform="translate(0.01 -0.11)"/><path class="cls-2" d="M419.48,296.3l1.26,2.1c-.36-.58-.71-1.17-1.06-1.75C419.61,296.53,419.54,296.42,419.48,296.3Z" transform="translate(0.01 -0.11)"/><path class="cls-2" d="M424.63,304.58c.39.61.79,1.21,1.18,1.81l-.25-.36c-.59-.9-1.18-1.81-1.76-2.72l-.6-.92c-.17-.27-.34-.54-.5-.81a3.13,3.13,0,0,1-.21-.34c-.6-.94-1.18-1.89-1.75-2.84.47.77.94,1.53,1.42,2.29s.84,1.36,1.27,2S424.22,304,424.63,304.58Z" transform="translate(0.01 -0.11)"/><path class="cls-2" d="M426.21,307l1.38,2.05-.7-1C426.66,307.68,426.43,307.34,426.21,307Z" transform="translate(0.01 -0.11)"/><path class="cls-2" d="M429.6,312l.29.4c-.1-.12-.19-.25-.28-.38S429.6,312,429.6,312Z" transform="translate(0.01 -0.11)"/><path class="cls-2" d="M430.11,312.66c.66.92,1.31,1.85,2,2.75-.53-.7-1-1.4-1.54-2.12l-.32-.45a.1.1,0,0,1,0,0A.57.57,0,0,1,430.11,312.66Z" transform="translate(0.01 -0.11)"/><path class="cls-2" d="M449.68,336.94l-4.25-4.82q-6.71-7.67-12.71-15.83c-.22-.29-.43-.59-.63-.88q6.3,8.61,13.37,16.69l4.2,4.77Z" transform="translate(0.01 -0.11)"/><path d="M449.72,337.14l-4.4-5a241.64,241.64,0,0,1-50.9-94.2l-6-21.6h.11v0l6,21.56q1.22,4.35,2.6,8.66c.23.74.47,1.47.72,2.21q1.39,4.23,2.94,8.42h0c.79,2.1,1.6,4.2,2.44,6.28q.63,1.56,1.29,3.12h0q1.31,3.11,2.69,6.17l1,2.06c.15.33.3.66.46,1h0l.78,1.64.84,1.74.43.86c.08.17.16.33.25.49.29.6.59,1.2.9,1.79a.15.15,0,0,0,0,.07c.06.12.12.24.19.36a3.59,3.59,0,0,0,.17.34c.15.3.3.6.46.9,0,.08.08.16.13.24.17.35.35.69.53,1l.14.26c.18.35.36.7.55,1a2.15,2.15,0,0,0,.14.26h0l.52,1,.06.12c.21.38.41.76.62,1.13.06.12.13.23.19.34l.69,1.26.06.1.69,1.23c.53.95,1.08,1.9,1.64,2.84,0,0,0,0,0,.05s.11.19.17.29.15.27.23.4l.6,1c.35.58.7,1.17,1.06,1.75.57,1,1.15,1.9,1.75,2.84a3.13,3.13,0,0,0,.21.34l.16.25.34.56.6.92c.58.91,1.17,1.82,1.76,2.72l.25.36a.27.27,0,0,0,.06.1.05.05,0,0,0,0,0,1.74,1.74,0,0,0,.11.18l.05.06s0,0,0,0a.24.24,0,0,0,.06.09c.24.38.49.75.75,1.13l.7,1c.15.25.32.49.49.73l.07.09a.05.05,0,0,0,0,.05c.39.57.78,1.14,1.19,1.71a3.29,3.29,0,0,0,.23.33s0,0,0,0c.14.21.29.42.44.62a.05.05,0,0,0,0,0l.11.16.16.23a.61.61,0,0,0,.07.1c.75,1.06,1.52,2.12,2.3,3.17q6,8.16,12.71,15.83l4.25,4.82v0Z" transform="translate(0.01 -0.11)"/><path class="cls-1" d="M396.42,97.8a171,171,0,0,1-80.88,69h0c.45-.55.82-1.09,1.28-1.55,1.73-2,3.45-3.91,5.18-5.79.73-.81,1.47-1.61,2.21-2.41q.18-.21.39-.42c.1-.12.21-.23.32-.34q1.11-1.2,2.22-2.37c1.08-1.15,2.17-2.29,3.26-3.4l1.09-1.13,1.07-1.08s0,0,0,0l.36-.36c.48-.49.95-1,1.43-1.44l1.43-1.42,1.42-1.4c.94-.93,1.89-1.84,2.82-2.74s1.87-1.78,2.8-2.65,1.85-1.73,2.77-2.57l2.74-2.49q5.45-4.91,10.64-9.16l2.57-2.1,2.3-1.84c.92-.73,1.82-1.44,2.72-2.13L369,116.1c1-.74,1.92-1.45,2.86-2.14l1.92-1.4,2.31-1.67q3.43-2.44,6.66-4.59c.72-.48,1.42-1,2.12-1.4q4.19-2.75,7.92-5l1.84-1.1Z" transform="translate(0.01 -0.11)"/><path class="cls-2" d="M325.67,155.46l1.47-1.55q-1.11,1.17-2.22,2.37Z" transform="translate(0.01 -0.11)"/><path d="M396.52,97.64l-.1.16-1.77,1-1.84,1.1q-3.74,2.23-7.92,5c-.7.45-1.4.92-2.12,1.4q-3.22,2.15-6.66,4.59l-2.31,1.67-1.92,1.4c-.94.69-1.89,1.4-2.86,2.14L366.57,118c-.9.69-1.8,1.4-2.72,2.13l-2.3,1.84c-.85.68-1.71,1.38-2.57,2.1q-5.19,4.26-10.64,9.16l-2.74,2.49c-.92.84-1.84,1.7-2.77,2.57S341,140,340,140.92s-1.88,1.81-2.82,2.74l-1.42,1.4-1.43,1.42c-.48.47-.95,1-1.43,1.44l-.36.36-.37.37-.71.73-1.09,1.13c-1.09,1.11-2.18,2.25-3.26,3.4l-1.47,1.55c-.36.38-.72.77-1.07,1.16q-.21.21-.39.42c-.74.8-1.48,1.6-2.21,2.41-1.73,1.88-3.45,3.81-5.18,5.79-.46.46-.83,1-1.28,1.55l-.12.05,1.4-1.7C348.62,128.84,377.92,108.34,396.52,97.64Z" transform="translate(0.01 -0.11)"/><polygon class="cls-1" points="230.03 123.49 216.24 77.51 229.83 46.03 230.03 123.49"/><polygon class="cls-2" points="230.03 123.49 216.23 77.53 216.24 77.51 230.03 123.49"/><polygon points="230.03 123.49 230.03 123.93 216.23 77.53 230.03 123.49"/><path class="cls-1" d="M187.81,151.92,147.92,126.6a10.59,10.59,0,0,0-1.1-.6l-8.1-3.5A341.8,341.8,0,0,0,39.42,96l-4.93-.57A175.8,175.8,0,0,1,58.12,86c1.47-.45,2.93-.87,4.39-1.26L65.42,84c1-.22,1.93-.42,2.89-.61a58.84,58.84,0,0,1,11-1.16c26.4,0,57.3,15.6,94.4,47.6l.46.4a28.78,28.78,0,0,1,2.73,2.85l.45.54.45.56c.7.89,1.39,1.84,2.08,2.86.2.3.4.59.6.9.75,1.16,1.5,2.4,2.24,3.71l.75,1.35c.18.33.36.66.53,1s.46.86.68,1.3c.49,1,1,1.94,1.46,3,.28.59.56,1.18.83,1.79S187.53,151.29,187.81,151.92Z" transform="translate(0.01 -0.11)"/><path class="cls-2" d="M187.82,151.94l-39.9-25.3a10.59,10.59,0,0,0-1.1-.6l-8.1-3.5a340.73,340.73,0,0,0-70.64-22.09Q53.85,97.63,39.39,96l-5-.58.06,0h0l4.93.57a341.8,341.8,0,0,1,99.3,26.5l8.1,3.5a10.59,10.59,0,0,1,1.1.6l39.89,25.32S187.82,151.93,187.82,151.94Z" transform="translate(0.01 -0.11)"/><path d="M187.82,151.94l-39.9-25.2a10.59,10.59,0,0,0-1.1-.6l-8.1-3.5a341.8,341.8,0,0,0-99.3-26.5l-5.2-.6.17-.08,5,.58a341.8,341.8,0,0,1,99.3,26.5l8.1,3.5a10.59,10.59,0,0,1,1.1.6Z" transform="translate(0.01 -0.11)"/><path d="M301.62,385.84c-.3,1.9-8.1,45.7-21.6,68.5l-13.8-8.1c12-20.3,19.5-62.8,19.6-63.2Z" transform="translate(0.01 -0.11)"/></svg>