<?xml version="1.0" encoding="utf-8"?>
<!-- Generator: Adobe Illustrator 24.3.0, SVG Export Plug-In . SVG Version: 6.00 Build 0)  -->
<svg version="1.1" id="Layer_1_1_" xmlns="http://www.w3.org/2000/svg" xmlns:xlink="http://www.w3.org/1999/xlink" x="0px" y="0px"
	 viewBox="0 0 512 512" style="enable-background:new 0 0 512 512;" xml:space="preserve">
<style type="text/css">
	.st0{fill:#FFC300;}
</style>
<path class="st0" d="M465.2,236.3l-14.4-10.7c-0.5-0.5-1-1-1.6-1.4c-2.4-1.6-59-38.4-120.5-0.1c-17.9,11.2-32.2,27.3-43.6,44.5
	c7.8-24.2,18.1-49.6,31.4-71.4c53.7-14.6,97.8-51.9,121.1-102.6l1.5-3.3c1.3-2.9,0.8-6.3-1.3-8.7c-2.1-2.4-5.5-3.3-8.5-2.3
	c-2,0.7-50.7,17.4-107.5,82.3c-28.6,32.7-47,80.7-58.2,121.1l-0.3-94.5l0.9-0.3l-0.9-3L262.9,16c0-3.8-2.7-7-6.4-7.8
	c-3.7-0.7-7.4,1.2-8.9,4.7l-30,69.1c-0.8,1.7-0.9,3.7-0.3,5.5l30.2,101.1l0.2,65.8c-10.6-53.8-26.1-111.2-46.3-128.5
	c-40.2-34.6-74.5-51.4-104.9-51.4c-31.5,0-73.8,26.5-75.6,27.6c-2.9,1.8-4.3,5.2-3.5,8.6c0.8,3.3,3.5,5.8,6.9,6.2l30.6,3.4
	c32.7,3.6,64.5,12.1,94.7,25.2l7.5,3.3l57,36.1c8.6,27.4,16,62.2,21.9,94.9c-11.8-21.1-27.9-41.9-49.7-55.5
	c-61.5-38.3-118.1-1.5-120.5,0.1c-0.6,0.4-1.1,0.9-1.6,1.4l-14.4,10.7c-21.4,16-33.1,41.4-31.2,68l5,72.4c0.3,3.9,3.3,7,7.2,7.4
	c0.3,0,0.5,0,0.8,0c2.3,0,4.4-1.1,5.9-2.8l0.1,0.1l26.9-30.6c25.3-28.8,44.1-63.6,54.3-100.5l7.6-27.5c15.5-0.1,33.2,3.5,51.4,14.8
	c44.3,27.6,63.3,91.6,68.8,114.4H168c-4.4,0-8,3.6-8,8c0,50.7,11.8,98.9,32.3,132.2c1.5,2.3,4,3.8,6.8,3.8h113.8
	c2.8,0,5.4-1.4,6.8-3.8C340.2,458.9,352,410.7,352,360c0-4.4-3.6-8-8-8h-77.8c6.6-24.1,27.4-87.2,71-114.3
	c18.2-11.3,35.9-14.9,51.4-14.8l7.6,27.5c10.3,36.9,29.1,71.7,54.3,100.5l26.9,30.6l0.1-0.1c1.5,1.7,3.6,2.8,5.9,2.8
	c0.2,0,0.5,0,0.8,0c3.9-0.4,7-3.5,7.2-7.4l5.1-72.4C498.3,277.7,486.6,252.2,465.2,236.3z M334,173.3c31.8-36.3,61.1-56.8,79.7-67.5
	c-19.1,31.2-47.4,55.4-81.1,69.2C333.1,174.4,333.5,173.8,334,173.3z M233.4,85.7L247,54.2l0.3,77.8L233.4,85.7z M165.1,134.7
	c-0.3-0.2-0.7-0.4-1.1-0.6l-8.1-3.5c-31.6-13.8-65-22.7-99.3-26.5l-5.2-0.6C65,97.1,82.5,90.3,96.5,90.3c26.4,0,57.3,15.6,94.4,47.6
	c4.9,4.2,9.6,11.9,14.1,22.1L165.1,134.7z M36.2,327.5l-1.7-24.3c-1.4-19.9,6.8-39,21.9-51.8L36.2,327.5z M103.3,246
	c-9.6,34.6-27.2,67.2-50.9,94.2l-4.4,5L77,236c4.9-2.8,16.7-8.7,32.3-11.6L103.3,246z M335.9,368c-1.1,42.9-11,83.1-27.5,112H203.6
	c-16.6-28.9-26.4-69.1-27.5-112H335.9z M462.6,340.2c-23.7-27-41.3-59.6-50.9-94.2l-6-21.6c15.7,2.9,27.4,8.8,32.3,11.6l29,109.2
	L462.6,340.2z M480.5,303.2l-1.7,24.4l-20.2-76.1C473.7,264.2,481.9,283.2,480.5,303.2z"/>
<path d="M335.9,368c-1.1,42.9-11,83.1-27.5,112H203.6c-16.6-28.9-26.4-69.1-27.5-112H335.9z"/>
<path d="M56.4,251.4l-20.2,76.1l-1.7-24.3C33.1,283.2,41.2,264.2,56.4,251.4z"/>
<path d="M109.4,224.4l-6,21.6c-9.6,34.6-27.2,67.2-50.9,94.2l-4.4,5L77,236C82,233.2,93.7,227.3,109.4,224.4z"/>
<path d="M480.5,303.2l-1.7,24.4l-20.2-76.1C473.7,264.2,481.9,283.2,480.5,303.2z"/>
<path d="M466.9,345.2l-4.4-5c-23.7-27-41.3-59.6-50.9-94.2l-6-21.6c15.7,2.9,27.4,8.8,32.3,11.6L466.9,345.2z"/>
<path d="M413.7,105.7c-19.1,31.2-47.4,55.4-81.1,69.2c0.5-0.6,0.9-1.1,1.4-1.7C365.8,136.9,395.1,116.4,413.7,105.7z"/>
<polygon points="247.2,132.1 233.4,85.7 247,54.2 "/>
<path d="M205,160l-39.9-25.2c-0.3-0.2-0.7-0.4-1.1-0.6l-8.1-3.5c-31.6-13.8-65-22.7-99.3-26.5l-5.2-0.6C65,97.1,82.5,90.3,96.5,90.3
	c26.4,0,57.3,15.6,94.4,47.6C195.8,142.1,200.5,149.8,205,160z"/>
<path class="st0" d="M318.8,393.9l-15.8-2.8c-0.1,0.4-7.6,42.9-19.6,63.2l13.8,8.1C310.7,439.6,318.5,395.8,318.8,393.9L318.8,393.9
	z"/>
</svg>
