<svg id="Calque_1" data-name="Calque 1" xmlns="http://www.w3.org/2000/svg" viewBox="0 0 496 480"><defs><style>.cls-1{fill:#fff;}.cls-2{fill:#ebebeb;}.cls-3{fill:#ccc;}</style></defs><path d="M472,128H458L271.7,27.7A22.89,22.89,0,0,0,272,24a24,24,0,0,0-48,0,22.89,22.89,0,0,0,.3,3.7L38,128H24A24.07,24.07,0,0,0,0,152V456a24.07,24.07,0,0,0,24,24H472a24.07,24.07,0,0,0,24-24V152A24.07,24.07,0,0,0,472,128ZM239.92,23.23H240v-.35a.89.89,0,0,1,.07-.41c.07-.14,0-.13,0-.2a1.46,1.46,0,0,1,.05-.2.45.45,0,0,1,.08-.31q.11-.35.24-.69c.07-.19.15-.37.23-.54a8.45,8.45,0,0,1,.69-1.16,2.43,2.43,0,0,1,.24-.32,4.82,4.82,0,0,1,.36-.43l.54-.54a4.82,4.82,0,0,1,.43-.36,2.43,2.43,0,0,1,.32-.24,8.45,8.45,0,0,1,1.16-.69c.17-.08.35-.16.54-.23l.69-.24.31-.08.2,0h.2l.41-.07h.35c.18,0,.36,0,.54,0s.41,0,.62,0l.38,0H249l.41.07h.2l.2,0,.31.08q.34.11.69.24c.19.07.37.15.54.23a8.45,8.45,0,0,1,1.16.69,2.43,2.43,0,0,1,.32.24,4.82,4.82,0,0,1,.43.36,6.88,6.88,0,0,1,.54.54,4.82,4.82,0,0,1,.36.43,2.43,2.43,0,0,1,.24.32,8.45,8.45,0,0,1,.69,1.16c.08.17.16.35.23.54s.17.46.24.69a1.77,1.77,0,0,0,.08.31,1.46,1.46,0,0,1,.05.2v.2a1,1,0,0,0,.07.41c.07.14,0,.23,0,.35a7.92,7.92,0,0,1,0,1.54v.35a3.54,3.54,0,0,1-.08.49c0,.16-.1.42-.16.63s-.15.46-.24.69-.15.37-.23.54a8.45,8.45,0,0,1-.69,1.16,2.43,2.43,0,0,1-.24.32,4.82,4.82,0,0,1-.36.43,6.88,6.88,0,0,1-.54.54,4.82,4.82,0,0,1-.43.36,2.43,2.43,0,0,1-.32.24,8.45,8.45,0,0,1-1.16.69c-.17.08-.35.16-.54.23l-.69.24-.63.16-.49.08h-.35l-.53,0h-.39c-.21,0-.42,0-.62,0h-.35l-.49-.08-.63-.16q-.34-.11-.69-.24c-.19-.07-.37-.15-.54-.23a8.45,8.45,0,0,1-1.16-.69,2.43,2.43,0,0,1-.32-.24,4.82,4.82,0,0,1-.43-.36,6.88,6.88,0,0,1-.54-.54,4.82,4.82,0,0,1-.36-.43,2.43,2.43,0,0,1-.24-.32,8.45,8.45,0,0,1-.69-1.16c-.08-.17-.16-.35-.23-.54s-.17-.46-.24-.69-.11-.41-.16-.63a3.79,3.79,0,0,1-.08-.49,2,2,0,0,1,0-.35A7.92,7.92,0,0,1,239.92,23.23Zm-8,18.57a23.93,23.93,0,0,0,32.2,0L424.3,128H71.7ZM468.7,144l-16,16H43.3l-16-16ZM203.5,375.7,304,245.1,447.9,432H244.1ZM224.4,432H48v-.5l88-121.9Zm85.9-204.9a8,8,0,0,0-11.2-1.5,10.63,10.63,0,0,0-1.5,1.5l-104,135.1-51.2-70.9,0,0a5.75,5.75,0,0,0-.44-.54.05.05,0,0,0,0,0,5.61,5.61,0,0,0-.48-.5,1.51,1.51,0,0,0-.23-.21l-.52-.43a7,7,0,0,0-.67-.44,2,2,0,0,0-.32-.18,2.48,2.48,0,0,0-.32-.17,5.44,5.44,0,0,0-.66-.28,2.06,2.06,0,0,0-.35-.12l-.34-.1-.36-.09a5.71,5.71,0,0,0-.72-.13l-.37,0c-.22,0-.45,0-.67,0a8,8,0,0,0-4.7,1.53,7.69,7.69,0,0,0-1.8,1.8L48,404.2V176H448V406ZM16,452.7V155.3l16,16V436.7ZM27.3,464l16-16H452.7l16,16ZM480,452.7l-16-16V171.3l16-16Z"/><path class="cls-1" d="M255.76,24.77v.35a3.54,3.54,0,0,1-.08.49c0,.16-.1.42-.16.63s-.15.46-.24.69-.15.37-.23.54a8.45,8.45,0,0,1-.69,1.16,2.43,2.43,0,0,1-.24.32,4.82,4.82,0,0,1-.36.43,6.88,6.88,0,0,1-.54.54,4.82,4.82,0,0,1-.43.36,2.43,2.43,0,0,1-.32.24,8.45,8.45,0,0,1-1.16.69c-.17.08-.35.16-.54.23l-.69.24-.63.16-.49.08h-.35l-.53,0h-.39l-.38,0H247l-.49-.08-.63-.16q-.34-.11-.69-.24c-.19-.07-.37-.15-.54-.23a8.45,8.45,0,0,1-1.16-.69,2.43,2.43,0,0,1-.32-.24,4.82,4.82,0,0,1-.43-.36,6.88,6.88,0,0,1-.54-.54,4.82,4.82,0,0,1-.36-.43,2.43,2.43,0,0,1-.24-.32,8.45,8.45,0,0,1-.69-1.16c-.08-.17-.16-.35-.23-.54s-.17-.46-.24-.69-.11-.41-.16-.63a3.79,3.79,0,0,1-.08-.49,2,2,0,0,1,0-.35,7.92,7.92,0,0,1,0-1.54v-.35a.89.89,0,0,1,.07-.41c.07-.14,0-.13,0-.2a1.46,1.46,0,0,1,.05-.2.45.45,0,0,1,.08-.31q.1-.35.24-.69c.07-.19.15-.37.23-.54a8.45,8.45,0,0,1,.69-1.16,2.43,2.43,0,0,1,.24-.32,4.82,4.82,0,0,1,.36-.43l.54-.54a4.82,4.82,0,0,1,.43-.36,2.43,2.43,0,0,1,.32-.24,8.45,8.45,0,0,1,1.16-.69c.17-.08.35-.16.54-.23s.46-.17.69-.24l.31-.08.2,0h.2l.41-.07h.35l.38,0c.21,0,.41,0,.62,0l.38,0H249l.41.07h.2l.2,0,.31.08q.34.11.69.24c.19.07.37.15.54.23a8.45,8.45,0,0,1,1.16.69,2.43,2.43,0,0,1,.32.24,4.82,4.82,0,0,1,.43.36,6.88,6.88,0,0,1,.54.54,4.82,4.82,0,0,1,.36.43,2.43,2.43,0,0,1,.24.32,8.45,8.45,0,0,1,.69,1.16c.08.17.16.35.23.54s.17.46.24.69a1.77,1.77,0,0,0,.08.31,1.46,1.46,0,0,1,.05.2v.2a1,1,0,0,0,.07.41c.07.14,0,.23,0,.35A7.92,7.92,0,0,1,255.76,24.77Z"/><path class="cls-2" d="M248.65,16.12l-.38,0,.54,0Z"/><path class="cls-2" d="M248.61,31.92h.24c-.25,0-.51,0-.77,0Z"/><polygon class="cls-2" points="249.41 16.19 249 16.12 249.16 16.12 249.57 16.19 249.41 16.19"/><path class="cls-2" d="M256,24a5,5,0,0,1,0,.77v.35a3.54,3.54,0,0,1-.08.49c0,.16-.1.42-.16.63s-.15.46-.24.69-.15.37-.23.54a8.45,8.45,0,0,1-.69,1.16,2.43,2.43,0,0,1-.24.32,4.82,4.82,0,0,1-.36.43,6.88,6.88,0,0,1-.54.54,4.82,4.82,0,0,1-.43.36,2.43,2.43,0,0,1-.32.24,8.45,8.45,0,0,1-1.16.69c-.17.08-.35.16-.54.23s-.46.17-.69.24l-.63.16-.49.08H249l.49-.08.63-.16.69-.24c.19-.07.37-.15.54-.23a8.45,8.45,0,0,0,1.16-.69,2.43,2.43,0,0,0,.32-.24,4.82,4.82,0,0,0,.43-.36,6.88,6.88,0,0,0,.54-.54,4.82,4.82,0,0,0,.36-.43,2.43,2.43,0,0,0,.24-.32,8.45,8.45,0,0,0,.69-1.16c.08-.17.16-.35.23-.54s.17-.46.24-.69.13-.47.16-.63a3.54,3.54,0,0,0,.08-.49v-.35a7.92,7.92,0,0,0,0-1.54c0-.12.07-.21,0-.35a1,1,0,0,1-.07-.41v-.2a1.46,1.46,0,0,0-.05-.2,1.77,1.77,0,0,1-.08-.31q-.1-.35-.24-.69c-.07-.19-.15-.37-.23-.54a8.45,8.45,0,0,0-.69-1.16,2.43,2.43,0,0,0-.24-.32,4.82,4.82,0,0,0-.36-.43,6.88,6.88,0,0,0-.54-.54,4.82,4.82,0,0,0-.43-.36,2.43,2.43,0,0,0-.32-.24,8.45,8.45,0,0,0-1.16-.69c-.17-.08-.35-.16-.54-.23s-.46-.17-.69-.24l-.31-.08-.2,0h.16l.2,0,.31.08q.34.11.69.24c.19.07.37.15.54.23a8.45,8.45,0,0,1,1.16.69,2.43,2.43,0,0,1,.32.24,4.82,4.82,0,0,1,.43.36,6.88,6.88,0,0,1,.54.54,4.82,4.82,0,0,1,.36.43,2.43,2.43,0,0,1,.24.32,8.45,8.45,0,0,1,.69,1.16c.08.17.16.35.23.54s.17.46.24.69a1.77,1.77,0,0,0,.08.31,1.46,1.46,0,0,1,0,.2v.2a1,1,0,0,0,.07.41c.07.14,0,.23,0,.35A6.48,6.48,0,0,1,256,24Z"/><polygon class="cls-1" points="32 171.3 32 436.7 16 452.7 16 155.3 32 171.3"/><polygon class="cls-1" points="468.7 464 27.3 464 43.3 448 452.7 448 468.7 464"/><polygon class="cls-1" points="480 155.3 480 452.7 464 436.7 464 171.3 480 155.3"/><polygon class="cls-1" points="447.9 432 244.1 432 203.5 375.7 304 245.1 447.9 432"/><polygon class="cls-1" points="224.4 432 48 432 48 431.5 136 309.6 224.4 432"/><path class="cls-1" d="M48,176V404.2l81.4-112.9a7.69,7.69,0,0,1,1.8-1.8,8,8,0,0,1,4.7-1.53c.22,0,.45,0,.67,0l.37,0a5.71,5.71,0,0,1,.72.13l.36.09.34.1a2.06,2.06,0,0,1,.35.12,5.44,5.44,0,0,1,.66.28,2.48,2.48,0,0,1,.32.17,2,2,0,0,1,.32.18,7,7,0,0,1,.67.44,5.15,5.15,0,0,1,.52.43,2.29,2.29,0,0,1,.23.21,5.61,5.61,0,0,1,.48.5.05.05,0,0,1,0,0,5.75,5.75,0,0,1,.44.54l0,0,51.2,70.9,104-135.1a10.63,10.63,0,0,1,1.5-1.5,8,8,0,0,1,11.2,1.5L448,406V176Zm88,96a40,40,0,1,1,40-40A40,40,0,0,1,136,272Z"/><polygon class="cls-1" points="468.7 144 452.7 160 43.3 160 27.3 144 468.7 144"/><path class="cls-3" d="M424.3,128H71.7L231.9,41.8a23.93,23.93,0,0,0,32.2,0Z"/><path d="M136,192a40,40,0,1,0,40,40A40,40,0,0,0,136,192Zm22.92,47.13c-.11.35-.22.69-.35,1a1,1,0,0,1-.13.36c-.1.27-.21.55-.33.82-.31.72-.65,1.43-1,2.11a19.92,19.92,0,0,1-1.2,2,23.6,23.6,0,0,1-9.49,8.21c-.35.17-.71.33-1.07.48s-.55.23-.82.33l-.36.13c-.34.13-.68.24-1,.35a20.08,20.08,0,0,1-2.28.59,24.37,24.37,0,0,1-9.7,0,20.08,20.08,0,0,1-2.28-.59c-.35-.11-.69-.22-1-.35l-.36-.13c-.27-.1-.55-.21-.82-.33s-.72-.31-1.07-.48a23.6,23.6,0,0,1-9.49-8.21,19.92,19.92,0,0,1-1.2-2c-.36-.68-.7-1.39-1-2.11-.12-.27-.23-.55-.33-.82a1.3,1.3,0,0,0-.13-.36c-.13-.34-.24-.68-.35-1a20.08,20.08,0,0,1-.59-2.28A24,24,0,0,1,112,232v-1.55a3.69,3.69,0,0,1,0-.47,2.41,2.41,0,0,1,.07-.71c.07-.23.07-.6.12-.9s.12-.75.2-1.11a.89.89,0,0,1,0-.23c.06-.34.14-.67.23-1s.2-.77.32-1.14.22-.69.35-1c.06-.15.12-.33.2-.5a4.7,4.7,0,0,1,.21-.5c.15-.3.19-.44.29-.67.2-.44.41-.87.64-1.3l.35-.64q.36-.63.75-1.23a24.2,24.2,0,0,1,7.09-7.09q.6-.39,1.23-.75l.64-.35a13,13,0,0,1,1.3-.64l.67-.29c.34-.15.69-.29,1-.41s.68-.24,1-.35.75-.22,1.14-.32.66-.17,1-.23l.23-.05c.36-.08.74-.15,1.11-.2l.9-.12.71-.07a3.69,3.69,0,0,1,.47,0h1.55a24,24,0,0,1,4.85.49,20.08,20.08,0,0,1,2.28.59c.35.11.69.22,1,.35l.36.13c.27.1.55.21.82.33a26.45,26.45,0,0,1,3.18,1.63,10.61,10.61,0,0,1,.9.58,23.24,23.24,0,0,1,6.48,6.48,10.61,10.61,0,0,1,.58.9,26.45,26.45,0,0,1,1.63,3.18c.12.27.23.55.33.82l.13.36c.13.34.24.68.35,1a20.08,20.08,0,0,1,.59,2.28,24.37,24.37,0,0,1,0,9.7l.26-.15A20.08,20.08,0,0,1,158.92,239.13Z"/><path class="cls-1" d="M159.25,227.3c-.16-.78-.36-1.54-.59-2.28-.11-.32-.22-.66-.35-1l-.13-.36c-.1-.27-.21-.55-.33-.82a26.45,26.45,0,0,0-1.63-3.18c-.19-.3-.38-.61-.58-.9a24.36,24.36,0,0,0-6.48-6.48c-.29-.2-.6-.39-.9-.58a26.45,26.45,0,0,0-3.18-1.63c-.27-.12-.55-.23-.82-.33l-.36-.13c-.31-.13-.65-.24-1-.35-.74-.23-1.5-.43-2.28-.59a24,24,0,0,0-4.85-.49h-1.55a3.69,3.69,0,0,0-.47,0l-.71.07-.9.12c-.37,0-.75.12-1.11.2l-.23.05c-.34.06-.61.13-1,.23s-.82.21-1.14.32-.69.23-1,.35-.66.26-1,.41l-.67.29c-.44.2-.87.41-1.3.64l-.64.35q-.63.36-1.23.75a24.2,24.2,0,0,0-7.09,7.09q-.39.6-.75,1.23l-.35.64c-.23.43-.44.86-.64,1.3-.1.23-.14.37-.29.67a4.7,4.7,0,0,0-.21.5c-.07.17-.13.35-.2.5-.13.31-.23.63-.35,1s-.23.81-.32,1.14-.17.66-.23,1a.89.89,0,0,0,0,.23c-.08.36-.15.81-.2,1.11s0,.67-.12.9a2.41,2.41,0,0,0-.07.71,3.69,3.69,0,0,0,0,.47V232a24,24,0,0,0,.55,4.85c.16.78.36,1.54.59,2.28.11.32.22.66.35,1a1.3,1.3,0,0,1,.13.36c.1.27.21.55.33.82.31.72.65,1.43,1,2.11s.78,1.33,1.2,2a24.24,24.24,0,0,0,9.49,8.21c.35.17.71.33,1.07.48s.55.23.82.33l.36.13c.31.13.65.24,1,.35.74.23,1.5.43,2.28.59a24.37,24.37,0,0,0,9.7,0c.78-.16,1.54-.36,2.28-.59.32-.11.66-.22,1-.35l.36-.13c.27-.1.55-.21.82-.33s.72-.31,1.07-.48a24.24,24.24,0,0,0,9.49-8.21c.42-.64.82-1.3,1.2-2s.7-1.39,1-2.11c.12-.27.23-.55.33-.82a1,1,0,0,0,.13-.36c.13-.31.24-.65.35-1,.23-.74.43-1.5.59-2.28l-.26.15A24.37,24.37,0,0,0,159.25,227.3ZM115.91,219a23.5,23.5,0,0,1,7.09-7.09A24.2,24.2,0,0,0,115.91,219Z"/><path class="cls-2" d="M123,211.87a24.2,24.2,0,0,0-7.09,7.09A23.5,23.5,0,0,1,123,211.87Z"/><path class="cls-2" d="M160,232a24,24,0,0,1-.49,4.85l-.26.15a24.37,24.37,0,0,0,0-9.7A24.11,24.11,0,0,1,160,232Z"/><path d="M123,211.87a24.2,24.2,0,0,0-7.09,7.09A23.5,23.5,0,0,1,123,211.87Z"/></svg>