<svg id="Layer_1" data-name="Layer 1" xmlns="http://www.w3.org/2000/svg" viewBox="0 0 512 336"><defs><style>.cls-1{fill:#ebebeb;}</style></defs><path d="M32,88a16,16,0,0,0-16,16v16a16,16,0,0,1,0-32Z" transform="translate(0 -88)"/><path d="M256,88a16,16,0,0,0-16,16v16H48V104A16,16,0,0,0,32,88Z" transform="translate(0 -88)"/><path d="M512,104a16,16,0,0,1-16,16V104a16,16,0,0,0-32,.1l.1,15.9H272V104a16,16,0,0,0-16-16H496A16,16,0,0,1,512,104Z" transform="translate(0 -88)"/><path d="M496,120V360.5c0,17.4-13.8,31.5-30.7,31.5H464V376a16.07,16.07,0,0,0-14.18-15.9H465.3V360l-1.2-240Z" transform="translate(0 -88)"/><path d="M446.17,360.1A16.07,16.07,0,0,0,432,376v16H256a16,16,0,0,0,16-16V360.3Z" transform="translate(0 -88)"/><path d="M80,392V376a16,16,0,0,0-12.1-15.5l172.1-.2V376a16,16,0,0,0,16,16Z" transform="translate(0 -88)"/><path d="M60.1,360.5A15.89,15.89,0,0,0,48,376v16H46.9c-17,0-30.9-14.1-30.9-31.5V120H48V360.5Z" transform="translate(0 -88)"/><path d="M48,104v16H16V104a16,16,0,0,1,32,0Z" transform="translate(0 -88)"/><path d="M496,104v16H464.1l-.1-15.9a16,16,0,0,1,32-.1Z" transform="translate(0 -88)"/><path d="M272,360.3V376a16,16,0,0,1-32,0V360.3Z" transform="translate(0 -88)"/><rect x="240" y="32" width="32" height="240.3"/><path d="M272,104v16H240V104a16,16,0,0,1,32,0Z" transform="translate(0 -88)"/><path d="M80,376v16H48V376a15.89,15.89,0,0,1,12.1-15.5h7.8A16,16,0,0,1,80,376Z" transform="translate(0 -88)"/><path d="M67.9,360.5H60.1A17.37,17.37,0,0,1,64,360,16.66,16.66,0,0,1,67.9,360.5Z" transform="translate(0 -88)"/><path d="M80,392v16a16,16,0,0,1-32,0V392Z" transform="translate(0 -88)"/><path d="M464,376v16H432V376a16.07,16.07,0,0,1,14.17-15.9h3.65A16.07,16.07,0,0,1,464,376Z" transform="translate(0 -88)"/><path d="M449.82,360.1h-3.64c.34-.05.68-.08,1-.1h1.6C449.14,360,449.48,360.05,449.82,360.1Z" transform="translate(0 -88)"/><path d="M464,392v16a16,16,0,0,1-32,0V392Z" transform="translate(0 -88)"/><path d="M223.81,229.57c.08.53.14,1.06.17,1.6A14.22,14.22,0,0,0,223.81,229.57Zm0,4.86a14.22,14.22,0,0,0,.17-1.6C224,233.37,223.89,233.9,223.81,234.43Zm-.43-6.82a4.91,4.91,0,0,0-.15-.51.11.11,0,0,0,0-.07c-.06-.22-.14-.43-.22-.64s-.21-.55-.33-.81-.23-.52-.35-.77c-.05-.09-.09-.18-.14-.26-.14-.28-.3-.55-.46-.82a14.42,14.42,0,0,0-1-1.51c-.12-.17-.25-.32-.38-.48-.26-.31-.54-.62-.82-.91l-.39-.39-.09-.08c-.25-.24-.5-.47-.76-.68s-.45-.37-.68-.54-.26-.2-.4-.29a14.27,14.27,0,0,0-1.43-.9l-.57-.3-.37-.18a6.28,6.28,0,0,0-.59-.27l-.57-.23-.43-.15-.46-.14.49.17h0c.35.13.7.27,1,.42a7.48,7.48,0,0,1,.7.34,4.11,4.11,0,0,1,.42.21c.28.15.56.31.84.49s.62.39.92.61.49.36.72.54l.16.13c.28.23.56.48.83.73s.51.49.75.75l.11.12c.18.19.35.39.52.59a2.39,2.39,0,0,1,.21.26c.21.25.4.51.59.78s.42.6.61.92a10.63,10.63,0,0,1,.53.93,2.44,2.44,0,0,1,.14.28c.13.25.25.5.36.76s.25.58.36.88a0,0,0,0,0,0,0l.12.35c.09.25.17.51.24.77A.61.61,0,0,0,223.38,227.61Zm.19.72a2.68,2.68,0,0,1-.07-.27c.07.28.14.57.2.86C223.66,228.72,223.62,228.53,223.57,228.33Zm-.4,8.7-.12.35a0,0,0,0,0,0,0c-.11.3-.23.59-.36.88s-.23.51-.36.76a2.44,2.44,0,0,1-.14.28,10.63,10.63,0,0,1-.53.93c-.19.32-.39.62-.61.92s-.38.53-.59.78a12.67,12.67,0,0,1-.84,1q-.36.39-.75.75c-.27.25-.55.5-.83.73l-.16.13c-.23.18-.47.37-.72.54s-.61.42-.92.61-.56.34-.84.49a4.11,4.11,0,0,1-.42.21,7.48,7.48,0,0,1-.7.34c-.34.15-.69.29-1,.42h0l-.49.17a.66.66,0,0,0,.2-.06c.24-.07.46-.14.69-.23l.57-.23a6.28,6.28,0,0,0,.59-.27l.37-.18.57-.3a15.17,15.17,0,0,0,1.81-1.18l.37-.28c.24-.19.47-.38.69-.58a2.4,2.4,0,0,0,.24-.22c.22-.2.43-.4.64-.62a2,2,0,0,0,.24-.26c.2-.21.4-.43.58-.65a15.21,15.21,0,0,0,1.33-1.85c.19-.31.38-.63.55-1q.15-.27.27-.54c.08-.16.15-.33.22-.49s.23-.53.33-.81.16-.42.22-.64a.11.11,0,0,0,0-.07,4.91,4.91,0,0,0,.15-.51.61.61,0,0,0,0-.13C223.34,236.52,223.26,236.78,223.17,237Zm.33-1.09a2.68,2.68,0,0,1,.07-.27c.05-.2.09-.39.13-.59C223.64,235.37,223.57,235.66,223.5,235.94ZM202,217l-.86.35c-.28.13-.56.26-.84.41l-.81.45a15.74,15.74,0,0,0-1.53,1c-.32.25-.64.5-.94.78q-.22.19-.45.42t-.42.42L196,221a5.92,5.92,0,0,0-.41.45l-.27.31c-.13.16-.26.31-.38.48s-.18.23-.26.35a13.68,13.68,0,0,0-.89,1.35c-.11.18-.21.36-.31.55s-.18.35-.26.52-.17.36-.25.54-.16.36-.23.54a14.47,14.47,0,0,0-.71,2.26,16.53,16.53,0,0,1,11.51-11.85A13.78,13.78,0,0,0,202,217Zm-10.1,18.11c0,.2.08.39.13.59a2.68,2.68,0,0,1,.07.27C192,235.66,192,235.37,191.9,235.08Zm10.49,12.07h0c-.35-.13-.7-.27-1-.42a7.48,7.48,0,0,1-.7-.34,4.11,4.11,0,0,1-.42-.21c-.28-.15-.56-.31-.84-.49s-.62-.39-.92-.61-.49-.36-.72-.54l-.16-.13c-.28-.23-.56-.48-.83-.73s-.51-.49-.75-.75a12.67,12.67,0,0,1-.84-1c-.21-.25-.4-.51-.59-.78s-.42-.6-.61-.92a10.63,10.63,0,0,1-.53-.93,2.44,2.44,0,0,1-.14-.28c-.13-.25-.25-.5-.36-.76s-.25-.58-.36-.88a0,0,0,0,0,0,0l-.12-.35c-.09-.25-.17-.51-.24-.77a.61.61,0,0,0,0,.13,4.91,4.91,0,0,0,.15.51.11.11,0,0,0,0,.07c.06.22.14.43.22.64s.21.55.33.81.14.33.22.49.17.36.27.54c.17.33.36.65.55,1a15.21,15.21,0,0,0,1.33,1.85c.18.22.38.44.58.65a2,2,0,0,0,.24.26c.21.22.42.42.64.62a2.4,2.4,0,0,0,.24.22c.22.2.45.39.69.58l.37.28a15.17,15.17,0,0,0,1.81,1.18l.57.3.37.18a6.28,6.28,0,0,0,.59.27l.58.23c.22.09.45.16.68.23a.76.76,0,0,0,.2.06Zm-10.77-16c0-.54.09-1.07.17-1.6A14.22,14.22,0,0,0,191.62,231.17Zm0,1.66a14.22,14.22,0,0,0,.17,1.6C191.71,233.9,191.65,233.37,191.62,232.83Z" transform="translate(0 -88)"/><path class="cls-1" d="M48,120V360.5H60.1A17.37,17.37,0,0,1,64,360a16.66,16.66,0,0,1,3.9.5l172.1-.2V120ZM224,232.83a14.22,14.22,0,0,1-.17,1.6s0,0,0,0c0,.21-.07.42-.11.63s-.08.39-.13.59a2.68,2.68,0,0,0-.07.27,1.33,1.33,0,0,1-.05.19s0,0,0,.05a.07.07,0,0,0,0,0l0,0a.61.61,0,0,1,0,.13,4.91,4.91,0,0,1-.15.51.11.11,0,0,1,0,.07c-.06.22-.14.43-.22.64s-.21.55-.33.81-.14.33-.22.49-.17.36-.27.54c-.17.33-.36.65-.55,1a15.21,15.21,0,0,1-1.33,1.85c-.18.22-.38.44-.58.65a2,2,0,0,1-.24.26c-.21.22-.42.42-.64.62a2.4,2.4,0,0,1-.24.22c-.22.2-.45.39-.69.58l-.37.28a15.17,15.17,0,0,1-1.81,1.18l-.57.3-.37.18a6.28,6.28,0,0,1-.59.27l-.57.23c-.23.09-.45.16-.69.23a4.33,4.33,0,0,1-.7.21l-.06,0h0l-.55.14-.06,0-.65.14-.65.11a15.63,15.63,0,0,1-4.86,0l-.65-.11-.65-.14-.06,0-.14,0-.14,0-.27-.07h0l-.06,0a4.33,4.33,0,0,1-.7-.21c-.23-.07-.46-.14-.68-.23l-.58-.23a6.28,6.28,0,0,1-.59-.27l-.37-.18-.57-.3a15.17,15.17,0,0,1-1.81-1.18l-.37-.28c-.24-.19-.47-.38-.69-.58a2.4,2.4,0,0,1-.24-.22c-.22-.2-.43-.4-.64-.62a2,2,0,0,1-.24-.26c-.2-.21-.4-.43-.58-.65a15.21,15.21,0,0,1-1.33-1.85c-.19-.31-.38-.63-.55-1q-.15-.27-.27-.54c-.08-.16-.15-.33-.22-.49s-.23-.53-.33-.81-.16-.42-.22-.64a.11.11,0,0,1,0-.07,4.91,4.91,0,0,1-.15-.51.61.61,0,0,1,0-.13l0,0a.07.07,0,0,0,0,0s0,0,0-.05a1.33,1.33,0,0,1-.05-.19,2.68,2.68,0,0,0-.07-.27c-.05-.2-.09-.39-.13-.59s-.08-.42-.11-.63c0,0,0,0,0,0a14.22,14.22,0,0,1-.17-1.6c0-.28,0-.55,0-.83s0-.55,0-.83a14.22,14.22,0,0,1,.17-1.6s0,0,0,0c0-.21.07-.42.11-.63s.08-.4.13-.59a14.47,14.47,0,0,1,.71-2.26c.07-.18.15-.37.23-.54s.16-.36.25-.54.17-.35.26-.52.2-.37.31-.55a13.68,13.68,0,0,1,.89-1.35c.08-.12.17-.24.26-.35s.25-.32.38-.48l.27-.31A5.92,5.92,0,0,1,196,221l.15-.15q.21-.22.42-.42T197,220a11.43,11.43,0,0,1,.94-.78,15.74,15.74,0,0,1,1.53-1l.81-.45c.28-.15.56-.28.84-.41L202,217a13.78,13.78,0,0,1,1.54-.49l.59-.15.59-.13.65-.11a15.63,15.63,0,0,1,4.86,0l.65.11.65.14.06,0,.55.14h0a7.47,7.47,0,0,1,1,.31c.15,0,.29.1.43.15l.57.23a6.28,6.28,0,0,1,.59.27l.37.18.57.3a14.27,14.27,0,0,1,1.43.9c.14.09.27.19.4.29s.46.35.68.54a9.51,9.51,0,0,1,.76.68l.09.08a4.78,4.78,0,0,1,.39.39c.28.29.56.6.82.91.13.16.26.31.38.48a14.42,14.42,0,0,1,1,1.51c.16.27.32.54.46.82.05.08.09.17.14.26.12.25.24.51.35.77s.23.53.33.81.16.42.22.64a.11.11,0,0,1,0,.07,4.91,4.91,0,0,1,.15.51.61.61,0,0,1,0,.13s0,.09,0,.13a1.33,1.33,0,0,1,.05.19,2.68,2.68,0,0,0,.07.27c.05.2.09.39.13.59s.08.42.11.63c0,0,0,0,0,0a14.22,14.22,0,0,1,.17,1.6c0,.28,0,.55,0,.83S224,232.55,224,232.83Z" transform="translate(0 -88)"/><path d="M224,232c0,.28,0,.55,0,.83,0,.54-.09,1.07-.17,1.6,0,0,0,0,0,0,0,.21-.07.42-.11.63s-.08.39-.13.59a2.68,2.68,0,0,0-.07.27,1.33,1.33,0,0,1-.05.19s0,0,0,.05l0,.08c-.07.26-.15.52-.24.77l-.12.35a0,0,0,0,0,0,0c-.11.3-.23.59-.36.88s-.23.51-.36.76a2.44,2.44,0,0,1-.14.28,10.63,10.63,0,0,1-.53.93c-.19.32-.39.62-.61.92s-.38.53-.59.78a12.67,12.67,0,0,1-.84,1q-.36.39-.75.75c-.27.25-.55.5-.83.73l-.16.13c-.23.18-.47.37-.72.54s-.61.42-.92.61-.56.34-.84.49a4.11,4.11,0,0,1-.42.21,7.48,7.48,0,0,1-.7.34c-.34.15-.69.29-1,.42h0l-.49.17-.5.15-.06,0h0l-.55.14-.06,0-.65.14-.65.11a15.63,15.63,0,0,1-4.86,0l-.65-.11-.65-.14-.06,0-.14,0-.14,0-.27-.07h0l-.06,0-.5-.15-.49-.17h0c-.35-.13-.7-.27-1-.42a7.48,7.48,0,0,1-.7-.34,4.11,4.11,0,0,1-.42-.21c-.28-.15-.56-.31-.84-.49s-.62-.39-.92-.61-.49-.36-.72-.54l-.16-.13c-.28-.23-.56-.48-.83-.73s-.51-.49-.75-.75a12.67,12.67,0,0,1-.84-1c-.21-.25-.4-.51-.59-.78s-.42-.6-.61-.92a10.63,10.63,0,0,1-.53-.93,2.44,2.44,0,0,1-.14-.28c-.13-.25-.25-.5-.36-.76s-.25-.58-.36-.88a0,0,0,0,0,0,0l-.12-.35c-.09-.25-.17-.51-.24-.77l0-.08s0,0,0-.05a1.33,1.33,0,0,1-.05-.19,2.68,2.68,0,0,0-.07-.27c-.05-.2-.09-.39-.13-.59s-.08-.42-.11-.63c0,0,0,0,0,0-.08-.53-.14-1.06-.17-1.6,0-.28,0-.55,0-.83s0-.55,0-.83c0-.54.09-1.07.17-1.6,0,0,0,0,0,0,0-.21.07-.42.11-.63s.08-.4.13-.59a16.53,16.53,0,0,1,11.51-11.85l.59-.15.59-.13.65-.11a15.63,15.63,0,0,1,4.86,0l.65.11.65.14.06,0,.55.14h0l.06,0,.48.14h0l.49.17h0c.35.13.7.27,1,.42a7.48,7.48,0,0,1,.7.34,4.11,4.11,0,0,1,.42.21c.28.15.56.31.84.49s.62.39.92.61.49.36.72.54l.16.13c.28.23.56.48.83.73s.51.49.75.75l.11.12c.18.19.35.39.52.59a2.39,2.39,0,0,1,.21.26c.21.25.4.51.59.78s.42.6.61.92a10.63,10.63,0,0,1,.53.93,2.44,2.44,0,0,1,.14.28c.13.25.25.5.36.76s.25.58.36.88a0,0,0,0,0,0,0l.12.35c.09.25.17.51.24.77,0,0,0,.09,0,.13a1.33,1.33,0,0,1,.05.19,2.68,2.68,0,0,0,.07.27c.05.2.09.39.13.59s.08.42.11.63c0,0,0,0,0,0,.08.53.14,1.06.17,1.6C224,231.45,224,231.72,224,232Z" transform="translate(0 -88)"/><path d="M191.79,234.43a14.22,14.22,0,0,1-.17-1.6C191.65,233.37,191.71,233.9,191.79,234.43Z" transform="translate(0 -88)"/><path d="M191.79,229.57c-.08.53-.14,1.06-.17,1.6A14.22,14.22,0,0,1,191.79,229.57Z" transform="translate(0 -88)"/><path d="M192.1,235.94a2.68,2.68,0,0,0-.07-.27c-.05-.2-.09-.39-.13-.59C192,235.37,192,235.66,192.1,235.94Z" transform="translate(0 -88)"/><path d="M202.88,247.32a.76.76,0,0,1-.2-.06c-.23-.07-.46-.14-.68-.23l-.58-.23a6.28,6.28,0,0,1-.59-.27l-.37-.18-.57-.3a15.17,15.17,0,0,1-1.81-1.18l-.37-.28c-.24-.19-.47-.38-.69-.58a2.4,2.4,0,0,1-.24-.22c-.22-.2-.43-.4-.64-.62a2,2,0,0,1-.24-.26c-.2-.21-.4-.43-.58-.65a15.21,15.21,0,0,1-1.33-1.85c-.19-.31-.38-.63-.55-1q-.15-.27-.27-.54c-.08-.16-.15-.33-.22-.49s-.23-.53-.33-.81-.16-.42-.22-.64a.11.11,0,0,1,0-.07,4.91,4.91,0,0,1-.15-.51.61.61,0,0,1,0-.13c.07.26.15.52.24.77l.12.35a0,0,0,0,1,0,0c.11.3.23.59.36.88s.23.51.36.76a2.44,2.44,0,0,0,.14.28,10.63,10.63,0,0,0,.53.93c.19.32.39.62.61.92s.38.53.59.78a12.67,12.67,0,0,0,.84,1q.36.39.75.75c.27.25.55.5.83.73l.16.13c.23.18.47.37.72.54s.61.42.92.61.56.34.84.49a4.11,4.11,0,0,0,.42.21,7.48,7.48,0,0,0,.7.34c.34.15.69.29,1,.42h0Z" transform="translate(0 -88)"/><path d="M203.54,216.48A16.53,16.53,0,0,0,192,228.33a14.47,14.47,0,0,1,.71-2.26c.07-.18.15-.37.23-.54s.16-.36.25-.54.17-.35.26-.52.2-.37.31-.55a13.68,13.68,0,0,1,.89-1.35c.08-.12.17-.24.26-.35s.25-.32.38-.48l.27-.31A5.92,5.92,0,0,1,196,221l.15-.15q.21-.22.42-.42T197,220c.3-.28.62-.53.94-.78a15.74,15.74,0,0,1,1.53-1l.81-.45c.28-.15.56-.28.84-.41L202,217A13.78,13.78,0,0,1,203.54,216.48Z" transform="translate(0 -88)"/><path d="M223.41,236.26a.61.61,0,0,1,0,.13,4.91,4.91,0,0,1-.15.51.11.11,0,0,1,0,.07c-.06.22-.14.43-.22.64s-.21.55-.33.81-.14.33-.22.49-.17.36-.27.54c-.17.33-.36.65-.55,1a15.21,15.21,0,0,1-1.33,1.85c-.18.22-.38.44-.58.65a2,2,0,0,1-.24.26c-.21.22-.42.42-.64.62a2.4,2.4,0,0,1-.24.22c-.22.2-.45.39-.69.58l-.37.28a15.17,15.17,0,0,1-1.81,1.18l-.57.3-.37.18a6.28,6.28,0,0,1-.59.27l-.57.23c-.23.09-.45.16-.69.23a.66.66,0,0,1-.2.06l.49-.17h0c.35-.13.7-.27,1-.42a7.48,7.48,0,0,0,.7-.34,4.11,4.11,0,0,0,.42-.21c.28-.15.56-.31.84-.49s.62-.39.92-.61.49-.36.72-.54l.16-.13c.28-.23.56-.48.83-.73s.51-.49.75-.75a12.67,12.67,0,0,0,.84-1c.21-.25.4-.51.59-.78s.42-.6.61-.92a10.63,10.63,0,0,0,.53-.93,2.44,2.44,0,0,0,.14-.28c.13-.25.25-.5.36-.76s.25-.58.36-.88a0,0,0,0,1,0,0l.12-.35C223.26,236.78,223.34,236.52,223.41,236.26Z" transform="translate(0 -88)"/><path d="M223.7,235.08c0,.2-.08.39-.13.59a2.68,2.68,0,0,0-.07.27C223.57,235.66,223.64,235.37,223.7,235.08Z" transform="translate(0 -88)"/><path d="M223.41,227.74c-.07-.26-.15-.52-.24-.77l-.12-.35a0,0,0,0,1,0,0c-.11-.3-.23-.59-.36-.88s-.23-.51-.36-.76a2.44,2.44,0,0,0-.14-.28,10.63,10.63,0,0,0-.53-.93c-.19-.32-.39-.62-.61-.92s-.38-.53-.59-.78a2.39,2.39,0,0,0-.21-.26c-.17-.2-.34-.4-.52-.59l-.11-.12q-.36-.39-.75-.75c-.27-.25-.55-.5-.83-.73l-.16-.13c-.23-.18-.47-.37-.72-.54s-.61-.42-.92-.61-.56-.34-.84-.49a4.11,4.11,0,0,0-.42-.21,7.48,7.48,0,0,0-.7-.34c-.34-.15-.69-.29-1-.42h0l-.49-.17.46.14.43.15.57.23a6.28,6.28,0,0,1,.59.27l.37.18.57.3a14.27,14.27,0,0,1,1.43.9c.14.09.27.19.4.29s.46.35.68.54.51.44.76.68l.09.08.39.39c.28.29.56.6.82.91.13.16.26.31.38.48a14.42,14.42,0,0,1,1,1.51c.16.27.32.54.46.82.05.08.09.17.14.26.12.25.24.51.35.77s.23.53.33.81.16.42.22.64a.11.11,0,0,1,0,.07,4.91,4.91,0,0,1,.15.51A.61.61,0,0,1,223.41,227.74Z" transform="translate(0 -88)"/><path d="M223.7,228.92c-.06-.29-.13-.58-.2-.86a2.68,2.68,0,0,0,.07.27C223.62,228.53,223.66,228.72,223.7,228.92Z" transform="translate(0 -88)"/><path d="M224,232.83a14.22,14.22,0,0,1-.17,1.6C223.89,233.9,224,233.37,224,232.83Z" transform="translate(0 -88)"/><path d="M224,231.17c0-.54-.09-1.07-.17-1.6A14.22,14.22,0,0,1,224,231.17Z" transform="translate(0 -88)"/><path d="M320,229.57c.08.53.14,1.06.17,1.6A14.22,14.22,0,0,0,320,229.57Zm0,4.86a14.22,14.22,0,0,0,.17-1.6C320.15,233.37,320.09,233.9,320,234.43Zm-1.16-8.85c-.14-.33-.29-.65-.45-1l0,0c-.15-.29-.31-.57-.48-.85l-.13-.21c-.17-.28-.35-.54-.54-.81a16.09,16.09,0,0,0-5.32-4.76l-.57-.3-.37-.18a6.28,6.28,0,0,0-.59-.27L310,217l-.48-.18a9.18,9.18,0,0,0-.89-.28l.58.2.77.29.23.09.85.4h0c.29.14.58.3.86.45l.19.11.74.47a16.48,16.48,0,0,1,3.14,2.69q.3.33.6.69l.07.09c.22.27.42.55.62.83s.39.57.57.86.35.6.51.91.32.62.46.93.23.53.34.8C319.06,226.12,319,225.84,318.85,225.58Zm-11.11-9.24h-.07l.35.09.6.16a3.5,3.5,0,0,0-.46-.14Zm11.08,22.07c-.14.31-.29.63-.46.93s-.33.61-.51.91-.37.58-.57.86-.4.56-.62.83l-.07.09q-.3.36-.6.69a16.48,16.48,0,0,1-3.14,2.69l-.74.47-.19.11c-.28.15-.57.31-.86.45h0l-.85.4-.23.09-.77.29-.58.2a9.18,9.18,0,0,0,.89-.28L310,247l.39-.16a6.28,6.28,0,0,0,.59-.27l.37-.18.57-.3a15.17,15.17,0,0,0,1.81-1.18l.37-.28a16.13,16.13,0,0,0,3.14-3.3c.2-.29.4-.58.58-.88s.39-.65.57-1l0,0c.16-.31.31-.64.45-1s.21-.54.31-.81C319.05,237.88,318.94,238.15,318.82,238.41Zm-11.15,9.26h.07l.42-.1a3.5,3.5,0,0,0,.46-.14l-.6.16Zm-7.84-31.23-.75.22c-.29.09-.59.2-.88.31l-.86.35h0l-.83.41-.81.45c-.21.12-.42.26-.63.4a3.51,3.51,0,0,0-.4.27c-.17.11-.33.23-.5.36-.32.25-.64.5-.94.78q-.23.19-.45.42t-.42.42l-.15.15a15.5,15.5,0,0,0-2.21,2.94c-.11.18-.21.36-.31.55a15.36,15.36,0,0,0-1.15,2.78,16.56,16.56,0,0,1,11.66-10.89Zm.15,31.14-.6-.16a3.5,3.5,0,0,0,.46.14l.42.1h.07Zm-2-.65-.23-.09-.85-.4h0c-.29-.14-.58-.3-.86-.45l-.19-.11-.74-.47a16.48,16.48,0,0,1-3.14-2.69q-.3-.33-.6-.69l-.07-.09c-.22-.27-.42-.55-.62-.83s-.39-.57-.57-.86-.35-.6-.51-.91-.32-.62-.46-.93-.23-.53-.34-.8c.1.27.19.55.31.81s.29.66.45,1l0,0q.27.51.57,1c.18.3.38.59.58.88a16.13,16.13,0,0,0,3.14,3.3l.37.28a15.17,15.17,0,0,0,1.81,1.18l.57.3.37.18a6.28,6.28,0,0,0,.59.27l.39.16.48.18a9.18,9.18,0,0,0,.89.28l-.58-.2Zm-10.21-15.76c0-.54.09-1.07.17-1.6A14.22,14.22,0,0,0,287.82,231.17Zm0,1.66a14.22,14.22,0,0,0,.17,1.6C287.91,233.9,287.85,233.37,287.82,232.83Z" transform="translate(0 -88)"/><path class="cls-1" d="M464.1,120H272V360.2l175.2-.2h18.1ZM320.18,232.83a14.22,14.22,0,0,1-.17,1.6s0,0,0,0c0,.21-.07.42-.11.63s-.08.4-.13.59h0a15.21,15.21,0,0,1-.92,2.74c-.14.33-.29.66-.45,1l0,0q-.27.51-.57,1c-.18.3-.38.59-.58.88a16.13,16.13,0,0,1-3.14,3.3l-.37.28a15.17,15.17,0,0,1-1.81,1.18l-.57.3-.37.18a6.28,6.28,0,0,1-.59.27L310,247l-.48.18a9.18,9.18,0,0,1-.89.28,3.5,3.5,0,0,1-.46.14l-.42.1h-.09l-.57.13-.65.11a15.63,15.63,0,0,1-4.86,0l-.65-.11-.57-.13h-.09l-.42-.1a3.5,3.5,0,0,1-.46-.14,9.18,9.18,0,0,1-.89-.28L298,247l-.39-.16a6.28,6.28,0,0,1-.59-.27l-.37-.18-.57-.3a15.17,15.17,0,0,1-1.81-1.18l-.37-.28a16.13,16.13,0,0,1-3.14-3.3c-.2-.29-.4-.58-.58-.88s-.39-.65-.57-1l0,0c-.16-.31-.31-.64-.45-1a15.21,15.21,0,0,1-.92-2.74h0c-.05-.19-.09-.39-.13-.59s-.08-.42-.11-.63c0,0,0,0,0,0a14.22,14.22,0,0,1-.17-1.6c0-.28,0-.55,0-.83s0-.55,0-.83a14.22,14.22,0,0,1,.17-1.6s0,0,0,0c0-.21.07-.42.11-.63s.08-.39.13-.59c.09-.36.18-.72.3-1.08a15.36,15.36,0,0,1,1.15-2.78c.1-.19.2-.37.31-.55A15.5,15.5,0,0,1,292.2,221l.15-.15q.21-.22.42-.42t.45-.42a11.43,11.43,0,0,1,.94-.78c.17-.13.33-.25.5-.36a3.51,3.51,0,0,1,.4-.27c.21-.14.42-.28.63-.4l.81-.45.83-.41h0l.86-.35c.29-.11.59-.22.88-.31l.75-.22.36-.08.73-.16.65-.11a15.63,15.63,0,0,1,4.86,0l.65.11.47.1.12,0h.07l.42.1a3.5,3.5,0,0,1,.46.14,9.18,9.18,0,0,1,.89.28l.48.18.39.16a6.28,6.28,0,0,1,.59.27l.37.18.57.3a16.09,16.09,0,0,1,5.32,4.76c.19.27.37.53.54.81l.13.21c.17.28.33.56.48.85l0,0c.16.32.31.64.45,1a15.21,15.21,0,0,1,.92,2.74c0,.2.09.4.13.6s.08.42.11.63c0,0,0,0,0,0a14.22,14.22,0,0,1,.17,1.6c0,.28,0,.55,0,.83S320.19,232.55,320.18,232.83Z" transform="translate(0 -88)"/><path d="M320.2,232c0,.28,0,.55,0,.83,0,.54-.09,1.07-.17,1.6,0,0,0,0,0,0,0,.21-.07.42-.11.63s-.08.4-.13.59h0s0,0,0,0l-.18.65c-.1.34-.2.67-.32,1l0,.06-.06.17c-.11.27-.22.54-.34.8s-.29.63-.46.93-.33.61-.51.91-.37.58-.57.86-.4.56-.62.83l-.07.09q-.3.36-.6.69a16.48,16.48,0,0,1-3.14,2.69l-.74.47-.19.11c-.28.15-.57.31-.86.45h0l-.85.4-.23.09-.77.29-.58.2-.6.16-.35.09h0l-.57.13-.65.11a15.63,15.63,0,0,1-4.86,0l-.65-.11-.57-.13h0l-.35-.09-.6-.16-.58-.2-.77-.29-.23-.09-.85-.4h0c-.29-.14-.58-.3-.86-.45l-.19-.11-.74-.47a16.48,16.48,0,0,1-3.14-2.69q-.3-.33-.6-.69l-.07-.09c-.22-.27-.42-.55-.62-.83s-.39-.57-.57-.86-.35-.6-.51-.91-.32-.62-.46-.93-.23-.53-.34-.8l-.06-.17,0-.06c-.12-.33-.22-.66-.32-1l-.18-.65s0,0,0,0h0c-.05-.19-.09-.39-.13-.59s-.08-.42-.11-.63c0,0,0,0,0,0-.08-.53-.14-1.06-.17-1.6,0-.28,0-.55,0-.83s0-.55,0-.83c0-.54.09-1.07.17-1.6,0,0,0,0,0,0,0-.21.07-.42.11-.63s.08-.39.13-.59q.13-.56.3-1.08a16.56,16.56,0,0,1,11.66-10.89l.73-.16.65-.11a15.63,15.63,0,0,1,4.86,0l.65.11.47.1.12,0,.35.09.6.16.58.2.77.29.23.09.85.4h0c.29.14.58.3.86.45l.19.11.74.47a16.48,16.48,0,0,1,3.14,2.69q.3.33.6.69l.07.09c.22.27.42.55.62.83s.39.57.57.86.35.6.51.91.32.62.46.93.23.53.34.8l.06.17,0,.06c.05.16.11.33.17.5l0,0c0,.15.09.3.13.45s.13.43.18.65c0,0,0,0,0,0,0,.2.09.4.13.6s.08.42.11.63c0,0,0,0,0,0,.08.53.14,1.06.17,1.6C320.19,231.45,320.2,231.72,320.2,232Z" transform="translate(0 -88)"/><path d="M288,234.43a14.22,14.22,0,0,1-.17-1.6C287.85,233.37,287.91,233.9,288,234.43Z" transform="translate(0 -88)"/><path d="M288,229.57c-.08.53-.14,1.06-.17,1.6A14.22,14.22,0,0,1,288,229.57Z" transform="translate(0 -88)"/><path d="M288.75,237.38l0,.06Z" transform="translate(0 -88)"/><path d="M298.8,247.22l.58.2a9.18,9.18,0,0,1-.89-.28L298,247l-.39-.16a6.28,6.28,0,0,1-.59-.27l-.37-.18-.57-.3a15.17,15.17,0,0,1-1.81-1.18l-.37-.28a16.13,16.13,0,0,1-3.14-3.3c-.2-.29-.4-.58-.58-.88s-.39-.65-.57-1l0,0c-.16-.31-.31-.64-.45-1s-.21-.54-.31-.81c.11.27.22.54.34.8s.29.63.46.93.33.61.51.91.37.58.57.86.4.56.62.83l.07.09q.3.36.6.69a16.48,16.48,0,0,0,3.14,2.69l.74.47.19.11c.28.15.57.31.86.45h0l.85.4.23.09Z" transform="translate(0 -88)"/><path d="M300.33,247.67h-.07l-.42-.1a3.5,3.5,0,0,1-.46-.14l.6.16Z" transform="translate(0 -88)"/><path d="M288.43,236.38c.1.34.2.67.32,1C288.64,237.05,288.52,236.72,288.43,236.38Z" transform="translate(0 -88)"/><path d="M300.19,216.36a16.56,16.56,0,0,0-11.66,10.89,15.36,15.36,0,0,1,1.15-2.78c.1-.19.2-.37.31-.55A15.5,15.5,0,0,1,292.2,221l.15-.15q.21-.22.42-.42t.45-.42c.3-.28.62-.53.94-.78.17-.13.33-.25.5-.36a3.51,3.51,0,0,1,.4-.27c.21-.14.42-.28.63-.4l.81-.45.83-.41h0l.86-.35c.29-.11.59-.22.88-.31l.75-.22Z" transform="translate(0 -88)"/><path d="M308,247.58l.6-.16a3.5,3.5,0,0,1-.46.14l-.42.1h-.07Z" transform="translate(0 -88)"/><path d="M319.16,237.61c-.1.27-.19.55-.31.81s-.29.66-.45,1l0,0q-.27.51-.57,1c-.18.3-.38.59-.58.88a16.13,16.13,0,0,1-3.14,3.3l-.37.28a15.17,15.17,0,0,1-1.81,1.18l-.57.3-.37.18a6.28,6.28,0,0,1-.59.27L310,247l-.48.18a9.18,9.18,0,0,1-.89.28l.58-.2.77-.29.23-.09.85-.4h0c.29-.14.58-.3.86-.45l.19-.11.74-.47a16.48,16.48,0,0,0,3.14-2.69q.3-.33.6-.69l.07-.09c.22-.27.42-.55.62-.83s.39-.57.57-.86.35-.6.51-.91.32-.62.46-.93S319.05,237.88,319.16,237.61Z" transform="translate(0 -88)"/><path d="M319.25,237.38l0,.06Z" transform="translate(0 -88)"/><path d="M319.57,236.38c-.09.34-.21.67-.32,1C319.37,237.05,319.47,236.72,319.57,236.38Z" transform="translate(0 -88)"/><path d="M319.25,226.62c.11.33.23.66.32,1C319.47,227.28,319.37,227,319.25,226.62Z" transform="translate(0 -88)"/><path d="M308.16,216.44a3.5,3.5,0,0,1,.46.14l-.6-.16-.35-.09h.07Z" transform="translate(0 -88)"/><path d="M319.16,226.39c-.11-.27-.22-.54-.34-.8s-.29-.63-.46-.93-.33-.61-.51-.91-.37-.58-.57-.86-.4-.56-.62-.83l-.07-.09q-.3-.36-.6-.69a16.48,16.48,0,0,0-3.14-2.69l-.74-.47-.19-.11c-.28-.15-.57-.31-.86-.45h0l-.85-.4-.23-.09-.77-.29-.58-.2a9.18,9.18,0,0,1,.89.28l.48.18.39.16a6.28,6.28,0,0,1,.59.27l.37.18.57.3a16.09,16.09,0,0,1,5.32,4.76c.19.27.37.53.54.81l.13.21c.17.28.33.56.48.85l0,0c.16.32.31.64.45,1S319.06,226.12,319.16,226.39Z" transform="translate(0 -88)"/><path d="M319.22,226.56l0,.06Z" transform="translate(0 -88)"/><path d="M319.57,227.62c.13.43.24.86.33,1.3C319.82,228.48,319.69,228.05,319.57,227.62Z" transform="translate(0 -88)"/><path d="M320.18,232.83a14.22,14.22,0,0,1-.17,1.6C320.09,233.9,320.15,233.37,320.18,232.83Z" transform="translate(0 -88)"/><path d="M320.18,231.17c0-.54-.09-1.07-.17-1.6A14.22,14.22,0,0,1,320.18,231.17Z" transform="translate(0 -88)"/></svg>