<?xml version="1.0" encoding="utf-8"?>
<!-- Generator: Adobe Illustrator 24.3.0, SVG Export Plug-In . SVG Version: 6.00 Build 0)  -->
<svg version="1.1" xmlns="http://www.w3.org/2000/svg" xmlns:xlink="http://www.w3.org/1999/xlink" x="0px" y="0px"
	 viewBox="0 0 1280 1024" style="enable-background:new 0 0 1280 1024;" xml:space="preserve">
<style type="text/css">
	.st0{display:none;}
	.st1{display:inline;fill:#143642;}
	.st2{fill:#CE703C;}
</style>
<g id="Calque_2" class="st0">
	<rect x="257" y="117" class="st1" width="839" height="747"/>
</g>
<g id="Calque_1">
	<g>
		<g>
			
				<image style="overflow:visible;opacity:0.65;" width="602" height="542" xlink:href="4985951013EC371A.png"  transform="matrix(1 0 0 1 385 236)">
			</image>
			<g>
				<path class="st2" d="M899.5,281h-427c-23.5,0-42.5,19.1-42.5,42.6v332.6c0,20.3,14.2,37.7,34,41.8v9.4
					c0,14.1,11.4,25.6,25.5,25.6h51.9c14.1,0,25.6-11.4,25.6-25.5V699h239v8.5c0,14.1,11.5,25.5,25.6,25.5h50.9
					c14.1,0,25.5-11.5,25.5-25.6V698c19.8-4.1,34-21.5,34-41.8V323.6C942,300.1,923,281,899.5,281z M686.2,511.3
					c-14.1,0-25.6-11.5-25.6-25.6c0-14.1,11.5-25.6,25.6-25.6c14.1,0,25.6,11.5,25.6,25.6C711.8,499.8,700.3,511.3,686.2,511.3z
					 M686.2,622.2c-14.1,0-25.6-11.5-25.6-25.6c0-14.1,11.5-25.6,25.6-25.6c14.1,0,25.6,11.5,25.6,25.6
					C711.8,610.7,700.3,622.2,686.2,622.2z"/>
			</g>
		</g>
		<g>
			<path class="st2" d="M481,554v94h410v-94H481z M686.2,622.2c-14.1,0-25.6-11.5-25.6-25.6c0-14.1,11.5-25.6,25.6-25.6
				c14.1,0,25.6,11.5,25.6,25.6C711.8,610.7,700.3,622.2,686.2,622.2z M481,443v94h410v-94H481z M686.2,511.3
				c-14.1,0-25.6-11.5-25.6-25.6c0-14.1,11.5-25.6,25.6-25.6c14.1,0,25.6,11.5,25.6,25.6C711.8,499.8,700.3,511.3,686.2,511.3z
				 M481,332v94h410v-94H481z"/>
		</g>
		<g>
			
				<image style="overflow:visible;opacity:0.3;" width="500" height="184" xlink:href="4985951013EC371E.png"  transform="matrix(1 0 0 1 436 509)">
			</image>
			<g>
				<path class="st2" d="M481,554v94h410v-94H481z M686.2,622.2c-14.1,0-25.6-11.5-25.6-25.6c0-14.1,11.5-25.6,25.6-25.6
					c14.1,0,25.6,11.5,25.6,25.6C711.8,610.7,700.3,622.2,686.2,622.2z"/>
			</g>
		</g>
		<g>
			
				<image style="overflow:visible;opacity:0.65;" width="142" height="142" xlink:href="4985951013EC3719.png"  transform="matrix(1 0 0 1 615 526)">
			</image>
			<g>
				<path class="st2" d="M711.8,596.6c0,14.1-11.5,25.6-25.6,25.6c-14.1,0-25.6-11.5-25.6-25.6c0-14.1,11.5-25.6,25.6-25.6
					C700.3,571,711.8,582.5,711.8,596.6z"/>
			</g>
		</g>
		<g>
			
				<image style="overflow:visible;opacity:0.3;" width="500" height="184" xlink:href="4985951013EC371B.png"  transform="matrix(1 0 0 1 436 398)">
			</image>
			<g>
				<path class="st2" d="M481,443v94h410v-94H481z M686.2,511.3c-14.1,0-25.6-11.5-25.6-25.6c0-14.1,11.5-25.6,25.6-25.6
					c14.1,0,25.6,11.5,25.6,25.6C711.8,499.8,700.3,511.3,686.2,511.3z"/>
			</g>
		</g>
		<g>
			
				<image style="overflow:visible;opacity:0.65;" width="142" height="142" xlink:href="4985951013EC3718.png"  transform="matrix(1 0 0 1 615 415)">
			</image>
			<g>
				
					<ellipse transform="matrix(0.7071 -0.7071 0.7071 0.7071 -142.4531 627.4478)" class="st2" cx="686.2" cy="485.7" rx="25.6" ry="25.6"/>
			</g>
		</g>
		<g>
			
				<image style="overflow:visible;opacity:0.3;" width="500" height="184" xlink:href="4985951013EC3726.png"  transform="matrix(1 0 0 1 436 287)">
			</image>
			<g>
				<path class="st2" d="M481,332v94h410v-94H481z M686.2,400.3c-14.1,0-25.6-11.5-25.6-25.6s11.5-25.6,25.6-25.6
					c14.1,0,25.6,11.5,25.6,25.6S700.3,400.3,686.2,400.3L686.2,400.3z"/>
			</g>
		</g>
		<g>
			
				<image style="overflow:visible;opacity:0.65;" width="142" height="142" xlink:href="4985951013EC3729.png"  transform="matrix(1 0 0 1 615 304)">
			</image>
			<g>
				<path class="st2" d="M686.2,349.1c-14.1,0-25.6,11.5-25.6,25.6s11.5,25.6,25.6,25.6s25.6-11.5,25.6-25.6
					S700.3,349.1,686.2,349.1L686.2,349.1z"/>
			</g>
		</g>
	</g>
</g>
</svg>
