<?xml version="1.0" encoding="utf-8"?>
<!-- Generator: Adobe Illustrator 24.3.0, SVG Export Plug-In . SVG Version: 6.00 Build 0)  -->
<svg version="1.1" xmlns="http://www.w3.org/2000/svg" xmlns:xlink="http://www.w3.org/1999/xlink" x="0px" y="0px"
	 viewBox="0 0 303.5 289.1" style="enable-background:new 0 0 303.5 289.1;" xml:space="preserve">
<style type="text/css">
	.st0{display:none;}
	.st1{fill:#143642;}
	.st2{fill:#A56659;stroke:#000000;stroke-miterlimit:10;}
	.st3{fill:#2A7C51;stroke:#000000;stroke-miterlimit:10;}
	.st4{fill:none;stroke:#000000;stroke-miterlimit:10;}
	.st5{fill:#686160;stroke:#000000;stroke-miterlimit:10;}
	.st6{fill:#FFCC66;stroke:#000000;stroke-miterlimit:10;}
	.st7{fill:#6699CC;stroke:#000000;stroke-miterlimit:10;}
	.st8{fill:#FFD8CA;stroke:#000000;stroke-miterlimit:10;}
	.st9{fill:#7C4C40;stroke:#000000;stroke-miterlimit:10;}
	.st10{stroke:#000000;stroke-miterlimit:10;}
	.st11{fill:#336699;stroke:#000000;stroke-miterlimit:10;}
	.st12{fill:none;stroke:#000000;stroke-linecap:round;stroke-miterlimit:10;}
	.st13{fill:#DB4F4F;stroke:#000000;stroke-linecap:round;stroke-miterlimit:10;}
	.st14{fill:#496E8C;stroke:#000000;stroke-miterlimit:10;}
	.st15{fill:#B59D95;stroke:#000000;stroke-miterlimit:10;}
	.st16{opacity:0.15;fill:#FFFFFF;}
	.st17{fill:#E7B8CC;}
	.st18{fill:#B76935;}
	.st19{fill:#143642;stroke:#FFFFFF;stroke-width:3;stroke-miterlimit:10;}
	.st20{fill:#FFFFFF;}
	.st21{fill:none;stroke:#FFFFFF;stroke-width:2;stroke-miterlimit:10;}
	.st22{fill:none;stroke:#FFFFFF;stroke-width:2;stroke-linecap:round;stroke-miterlimit:10;}
	.st23{fill:#FFFFFF;stroke:#FFFFFF;stroke-width:2;stroke-miterlimit:10;}
</style>
<g id="Calque_1" class="st0">
</g>
<g id="fond">
</g>
<g id="plante">
</g>
<g id="lampe">
</g>
<g id="buffet">
</g>
<g id="horloge">
</g>
<g id="talons">
</g>
<g id="talon3">
</g>
<g id="forme">
</g>
<g id="couleurs">
</g>
<g id="plante2">
</g>
<g id="plante3">
	<path class="st2" d="M153.1,245.2l-3.4,32.6c-0.3,3.2-3,5.7-6.3,5.7h-32.8c-3.2,0-5.9-2.4-6.3-5.7l-3.4-32.6H153.1z"/>
	<path class="st2" d="M159.5,229.5v12.9c0,1.6-1.3,2.8-2.8,2.8H97.4c-1.6,0-2.8-1.3-2.8-2.8v-12.9c0-1.6,1.3-2.8,2.8-2.8h59.3
		C158.2,226.7,159.5,228,159.5,229.5z"/>
	<g>
		<path class="st3" d="M296.7,61.1c-3,7.4-10.8,11.9-10.8,11.9c-5.5,1.5-10.8,10.2-10.8,10.2c-2.1,7-22.5,7-22.5,7
			c3.5,2.8,9.2,3,12.6,2.8c1.5-0.1,2.6,1.5,1.9,2.8c-6.4,12.7-35.3,5.1-35.3,5.1c1,2.8,5.9,4.5,9,5.4c1.3,0.3,1.9,1.9,1.2,3
			c-12.1,18.6-34.8,11.7-34.8,11.7c2.3,2.8,4.8,3.9,6.7,4.3c1.4,0.3,2.1,2,1.2,3.1c-6,7.8-18.2,3.6-18.2,3.6
			c-14.4-2.8-15.1,1.1-15.1,1.1c7.6,1.7,2.1,4.7,2.1,4.7c-1.1,1.1-3.8,4.2-3.8,4.2c-2.8,3-17.2,8.5-17.2,8.5
			c-17.2,18.2-31.3,76.1-31.3,76.1H124c1-23.2-7-35.4-7-35.4c-2.7-5.2-14.6-9.5-14.6-9.5C75,171.5,63.7,147,63.7,147
			c-0.4-6.2-5.2-12.4-7.3-14.8c-0.6-0.7-0.7-1.9,0-2.6c3.5-3.8,11.3-3.5,12.8-3.4c-43.5-4.5-42.9-23.7-42.9-23.7
			c-1-8.2-3-12.7-4.5-15.1c-0.8-1.2,0-2.9,1.5-3c5.2-0.6,10.9,1.3,11.2,1.4c-4.5-5.4-12-6.2-12-6.2C4.9,77.3,3.5,63.2,3.7,57.4
			c0-1.3,1.3-2.2,2.5-1.9c95.1,27.1,118.8,145,118.8,145c1.4-33.8-5-53.6-5-53.6c-1.3-3.4-5.2-4.9-5.2-4.9
			c-11.9-5.8-15.7-18.7-16.9-25.6c-0.3-1.6,1.4-2.9,2.9-2.1c4.3,2.3,6.6,0.2,6.6,0.2c-21.1-16.3-23-30.7-22.2-37.6
			c0.2-1.7,2.3-2.4,3.5-1.1c5.4,6.1,10.8,5.5,10.8,5.5C88,68.6,89,59.5,89,59.5c1.4-5.3-0.7-14.3-0.7-14.3C83.8,6.5,96.9,6,96.9,6
			c46,59.7,34.6,100.8,34.6,100.8c-2.6,6-1.5,13.1-1.5,13.1c3.9,15.2-5.2,25.7-5.2,25.7c4.7,18.7,3.4,45.4,3.4,45.4
			c5.1-11.2,9.2-39.7,9.2-39.7c-9.4-8.2-2.4-33.3-2.4-33.3c3.6-7.9,2.1-12.5,2.1-12.5c-4.7-10.9,2.4-21.9,2.4-21.9
			c-0.2-4.3,2.6-7.5,2.6-7.5c9.2,8.6,21,9,21,9c4.4,2.4,6.4,5.1,7.2,7.4c0.5,1.3,0.6,2.5,0.5,3.4c0,1,0.6,1.9,1.5,2.1
			c6.8,1.4,10.6-0.6,12-1.6c0.1-0.1,0.2-0.1,0.3-0.1c0.2,0,0.3,0.2,0.3,0.4c0.8,9.8-10.5,15.7-10.5,15.7
			c-9.5,5.9-10.1,12.7-10.1,12.7c1.2,13.5-22.9,25.1-22.9,25.1c-8.4,32.5-10,59.2-10,59.2C190.1,42.4,293.7,52.8,293.7,52.8
			C303.4,54.3,296.7,61.1,296.7,61.1z"/>
		<path class="st3" d="M175.5,91.6c-1.8-0.2-4-0.1-5.3,0.7c-0.8-2.3-2.8-5-7.2-7.4c0,0,7.6,0.1,13.2,4.9
			C177,90.4,176.5,91.6,175.5,91.6z"/>
		<path class="st3" d="M193.7,85.6c-1.8,1.2-4,3-4.5,5.2c0,0-2.4,4.6-4.6,5.2c-0.1,0-0.2,0-0.3,0.1c-1.4,1-5.2,3.1-12,1.6
			c-1-0.2-1.6-1.1-1.5-2.1c0-0.9-0.1-2-0.5-3.4c1.3-0.8,3.5-0.9,5.3-0.7c1,0.1,1.5-1.1,0.7-1.8c-5.6-4.8-13.2-4.9-13.2-4.9
			s-11.8-0.4-21-9c0,0-1.8-3.8-2.6-6.5c-0.3-1.2,0.5-2.4,1.7-2.6c6.9-0.7,30.1-1.6,52.7,15.5C194.9,83.2,194.9,84.9,193.7,85.6z"/>
	</g>
</g>
<g id="horloge2">
</g>
<g id="buffet2">
</g>
<g id="buffet3">
</g>
<g id="talon2">
</g>
<g id="tapis3">
</g>
<g id="lanmpe3">
</g>
<g id="horloge3">
</g>
</svg>
