<?xml version="1.0" encoding="utf-8"?>
<!-- Generator: Adobe Illustrator 24.3.0, SVG Export Plug-In . SVG Version: 6.00 Build 0)  -->
<svg version="1.1" xmlns="http://www.w3.org/2000/svg" xmlns:xlink="http://www.w3.org/1999/xlink" x="0px" y="0px"
	 viewBox="0 0 1280 1024" style="enable-background:new 0 0 1280 1024;" xml:space="preserve">
<style type="text/css">
	.st0{display:none;}
	.st1{display:inline;}
	.st2{fill:#143642;}
	.st3{opacity:0.2;}
	.st4{fill:#B76935;}
	.st5{fill:url(#SVGID_1_);}
	.st6{fill:url(#SVGID_2_);}
	.st7{fill:url(#SVGID_3_);}
	.st8{fill:url(#SVGID_4_);}
	.st9{fill:url(#SVGID_5_);}
	.st10{fill:url(#SVGID_6_);}
	.st11{fill:url(#SVGID_7_);}
	.st12{fill:url(#SVGID_8_);}
	.st13{fill:#669966;}
	.st14{fill:url(#SVGID_9_);}
</style>
<g id="Calque_2" class="st0">
	<g class="st1">
		<rect x="2" class="st2" width="1276" height="1024"/>
	</g>
</g>
<g id="Calque_3">
	<g class="st3">
		<ellipse cx="691.5" cy="704.5" rx="117.5" ry="10.5"/>
	</g>
</g>
<g id="Calque_1">
	<g>
		<g>
			<path class="st4" d="M418,516.6v-0.8C418,516,418,516.3,418,516.6z"/>
		</g>
		<g>
			<linearGradient id="SVGID_1_" gradientUnits="userSpaceOnUse" x1="543.38" y1="642.0004" x2="735.21" y2="642.0004">
				<stop  offset="0" style="stop-color:#6A3600"/>
				<stop  offset="0.1449" style="stop-color:#834712"/>
				<stop  offset="0.3854" style="stop-color:#A9602B"/>
				<stop  offset="0.5126" style="stop-color:#B76935"/>
				<stop  offset="0.6383" style="stop-color:#BE6F2D"/>
				<stop  offset="0.8283" style="stop-color:#D27E19"/>
				<stop  offset="1" style="stop-color:#E99000"/>
			</linearGradient>
			<path class="st5" d="M735.2,578c0,50.6-11.8,98.8-32.2,132.2c-1.4,2.4-4,3.8-6.8,3.8h-114c-2.7,0-5.3-1.5-6.8-3.8
				c-20.4-33.1-32.1-80.9-32.1-131.3c0-4.4,3.6-8,8-8h78.5l19.6-1h77.8C731.6,570,735.2,573.6,735.2,578z"/>
		</g>
		<g>
			<linearGradient id="SVGID_2_" gradientUnits="userSpaceOnUse" x1="543.38" y1="642.0004" x2="735.21" y2="642.0004">
				<stop  offset="0" style="stop-color:#FFFFFF"/>
				<stop  offset="0.1963" style="stop-color:#C4C4C4"/>
				<stop  offset="0.49" style="stop-color:#717171"/>
				<stop  offset="0.7313" style="stop-color:#343434"/>
				<stop  offset="0.9074" style="stop-color:#0E0E0E"/>
				<stop  offset="1" style="stop-color:#000000"/>
			</linearGradient>
			<path class="st6" d="M735.2,578c0,50.6-11.8,98.8-32.2,132.2c-1.4,2.4-4,3.8-6.8,3.8h-114c-2.7,0-5.3-1.5-6.8-3.8
				c-20.4-33.1-32.1-80.9-32.1-131.3c0-4.4,3.6-8,8-8h78.5l19.6-1h77.8C731.6,570,735.2,573.6,735.2,578z"/>
		</g>
		<g>
			<linearGradient id="SVGID_3_" gradientUnits="userSpaceOnUse" x1="640.3241" y1="371.1037" x2="637.8288" y2="591.2509">
				<stop  offset="0" style="stop-color:#FFFFFF;stop-opacity:0"/>
				<stop  offset="0.5393" style="stop-color:#669966"/>
				<stop  offset="0.9868" style="stop-color:#F2F6F2;stop-opacity:4.557531e-02"/>
			</linearGradient>
			<path class="st7" d="M771.8,425c-18-0.1-38.7,4.1-59.9,17.4c-17.9,11.2-32.2,27.3-43.6,44.5c7.8-24.2,18.1-49.6,31.4-71.4
				c-12.3,1.5-11.3-12.3-11.3-12.3C669,433.3,655.5,470,646,502v-95l-15-0.1v65.8c-4.6-23.4-10.2-47.5-16.7-68.7l-17-0.8
				c8.6,27.4,16,62.2,21.9,94.9c-11.8-21.1-27.9-41.9-49.7-55.5c-22-13.7-43.4-17.8-61.9-17.3h-0.2l2.2,16c18.2-0.1,36,5,51.4,14.8
				c44.3,27.6,68.8,114.9,68.8,114.9l19.6-1c0,0,27.4-86.9,71-114c15.4-9.8,33.2-14.9,51.4-14.8C771.8,441.2,768.7,430,771.8,425z"
				/>
		</g>
		<g>
			<linearGradient id="SVGID_4_" gradientUnits="userSpaceOnUse" x1="374.7917" y1="608.5378" x2="514.5967" y2="427.2111">
				<stop  offset="0" style="stop-color:#FFFFFF;stop-opacity:0"/>
				<stop  offset="0.2276" style="stop-color:#D6E4D6;stop-opacity:0.2276"/>
				<stop  offset="0.5911" style="stop-color:#9ABC9A;stop-opacity:0.5911"/>
				<stop  offset="0.859" style="stop-color:#74A374;stop-opacity:0.859"/>
				<stop  offset="1" style="stop-color:#669966"/>
			</linearGradient>
			<path class="st8" d="M509.6,441.3l-7.6,27.5c-10.3,37.2-28.9,71.5-54.3,100.5l-26.9,30.6l-0.1-0.1c-1.5,1.7-3.6,2.8-5.9,3.2H414
				c8-26.1,16.6-54,24.4-79.4c14-45.5,25.6-83.2,27.3-88.9c0.1-0.2,0.1-0.3,0.1-0.5c0-0.1,0-0.1,0-0.2c0,0,0,0,0,0
				c10.3-4.2,24.7-8.4,41.4-8.8L509.6,441.3z"/>
		</g>
		<g>
			<linearGradient id="SVGID_5_" gradientUnits="userSpaceOnUse" x1="692.6946" y1="413.9703" x2="824.1273" y2="304.7826">
				<stop  offset="0" style="stop-color:#FFFFFF;stop-opacity:0"/>
				<stop  offset="0.2276" style="stop-color:#D6E4D6;stop-opacity:0.2276"/>
				<stop  offset="0.5911" style="stop-color:#9ABC9A;stop-opacity:0.5911"/>
				<stop  offset="0.859" style="stop-color:#74A374;stop-opacity:0.859"/>
				<stop  offset="1" style="stop-color:#669966"/>
			</linearGradient>
			<path class="st9" d="M822.3,309.6l-1.5,3.3c-23.1,50.5-67.5,88.1-121.1,102.6c0,0,0,0,0,0c-12.3,1.5-11.3-12.3-11.3-12.3
				c5.1-8,10.7-15.5,16.6-22.3c56.8-64.9,105.5-81.6,107.5-82.3c3-1,6.4-0.1,8.5,2.3C823.1,303.3,823.6,306.7,822.3,309.6z"/>
		</g>
		<g>
			<linearGradient id="SVGID_6_" gradientUnits="userSpaceOnUse" x1="606.513" y1="326.2333" x2="648.9833" y2="314.7034">
				<stop  offset="0" style="stop-color:#FFFFFF;stop-opacity:0"/>
				<stop  offset="0.2276" style="stop-color:#D6E4D6;stop-opacity:0.2276"/>
				<stop  offset="0.5911" style="stop-color:#9ABC9A;stop-opacity:0.5911"/>
				<stop  offset="0.859" style="stop-color:#74A374;stop-opacity:0.859"/>
				<stop  offset="1" style="stop-color:#669966"/>
			</linearGradient>
			<path class="st10" d="M647,234.3L646,407l-15-0.1l-30.5-101.1c-0.6-1.8-0.5-3.8,0.3-5.5l30-69.1c1.3-2.8,4-4.7,7.1-4.7
				C642.4,226.4,647,234.3,647,234.3z"/>
		</g>
		<g>
			<linearGradient id="SVGID_7_" gradientUnits="userSpaceOnUse" x1="505.5922" y1="369.6759" x2="534.6272" y2="290.903">
				<stop  offset="0" style="stop-color:#FFFFFF;stop-opacity:0"/>
				<stop  offset="0.2276" style="stop-color:#D6E4D6;stop-opacity:0.2276"/>
				<stop  offset="0.5911" style="stop-color:#9ABC9A;stop-opacity:0.5911"/>
				<stop  offset="0.859" style="stop-color:#74A374;stop-opacity:0.859"/>
				<stop  offset="1" style="stop-color:#669966"/>
			</linearGradient>
			<path class="st11" d="M614.3,404l-17-0.8l-57-36.1l-7.5-3.3c-30.1-13.1-62.1-21.6-94.7-25.2l-30.6-3.4c-3.4-0.4-6.1-2.9-6.9-6.2
				c-0.8-3.3,0.6-6.8,3.5-8.6c1.8-1.1,44.1-27.6,75.6-27.6c30.4,0,64.7,16.8,104.9,51.4C596,354,606,376.5,614.3,404z"/>
		</g>
		<g>
			<linearGradient id="SVGID_8_" gradientUnits="userSpaceOnUse" x1="770.4355" y1="513.566" x2="879.9332" y2="513.566">
				<stop  offset="0" style="stop-color:#FFFFFF"/>
				<stop  offset="0.2276" style="stop-color:#D6E4D6"/>
				<stop  offset="0.5911" style="stop-color:#9ABC9A"/>
				<stop  offset="0.859" style="stop-color:#74A374"/>
				<stop  offset="1" style="stop-color:#669966"/>
			</linearGradient>
			<path class="st12" d="M879.7,522.7l-5.1,72.4c-0.2,3.9-3.3,7.1-7.2,6.9h-0.8c-2.3,0.4-4.4-0.6-5.9-2.3l-0.1,0.1l-26.9-30.6
				c-25.3-29-43.9-63.4-54.3-100.5l-7.6-27.5c0,0-3.2-11.1,0-16.2c34.2,0.2,59,16.4,60.6,17.5c0.6,0.4,1.1,0.9,1.6,1.4l14.4,10.7
				C869.8,470.5,881.6,496.1,879.7,522.7z"/>
		</g>
		<g>
			<g>
				<path class="st13" d="M418,516.6v-0.8C418,516,418,516.3,418,516.6z"/>
			</g>
		</g>
		<g>
			<linearGradient id="SVGID_9_" gradientUnits="userSpaceOnUse" x1="396.061" y1="603.4553" x2="440.9351" y2="445.0656">
				<stop  offset="0" style="stop-color:#FFFFFF;stop-opacity:0"/>
				<stop  offset="0.2276" style="stop-color:#D6E4D6;stop-opacity:0.2276"/>
				<stop  offset="0.5911" style="stop-color:#9ABC9A;stop-opacity:0.5911"/>
				<stop  offset="0.859" style="stop-color:#74A374;stop-opacity:0.859"/>
				<stop  offset="1" style="stop-color:#669966"/>
			</linearGradient>
			<path class="st14" d="M449,442.7c-0.6,0.4-1.1,0.9-1.6,1.4L433,454.8c-21.3,15.8-33.1,41.5-31.2,68l5,72.4c0.2,3,0.8,3.8,1.3,3.9
				c4.3,1.1,17.5-36.1,30.3-75.5c14-45.5,25.6-83.2,27.3-88.9c0.1-0.2,0.1-0.3,0.1-0.5c0-0.1,0-0.1,0-0.2
				C456,438.2,449.8,442.2,449,442.7z M418,516.6c0-0.2,0-0.6,0-0.8V516.6z"/>
		</g>
	</g>
	<path class="st13" d="M469,503L469,503z"/>
	<path class="st13" d="M513,491L513,491z"/>
	<path class="st13" d="M509.6,441.3l-2.2-16l0-0.2c0.1,0.1,0.2,0.1,0.2,0.2C516.6,433.2,509.6,441.3,509.6,441.3z"/>
</g>
<g id="Calque_4">
	<path d="M408.2,599.1"/>
</g>
</svg>
