<?xml version="1.0" encoding="utf-8"?>
<!-- Generator: Adobe Illustrator 24.3.0, SVG Export Plug-In . SVG Version: 6.00 Build 0)  -->
<svg version="1.1" xmlns="http://www.w3.org/2000/svg" xmlns:xlink="http://www.w3.org/1999/xlink" x="0px" y="0px"
	 viewBox="0 0 122.6 91.1" style="enable-background:new 0 0 122.6 91.1;" xml:space="preserve">
<style type="text/css">
	.st0{display:none;}
	.st1{fill:#143642;}
	.st2{fill:#A56659;stroke:#000000;stroke-miterlimit:10;}
	.st3{fill:#2A7C51;stroke:#000000;stroke-miterlimit:10;}
	.st4{fill:none;stroke:#000000;stroke-miterlimit:10;}
	.st5{fill:#686160;stroke:#000000;stroke-miterlimit:10;}
	.st6{fill:#FFCC66;stroke:#000000;stroke-miterlimit:10;}
	.st7{fill:#6699CC;stroke:#000000;stroke-miterlimit:10;}
	.st8{fill:#FFD8CA;stroke:#000000;stroke-miterlimit:10;}
	.st9{fill:#7C4C40;stroke:#000000;stroke-miterlimit:10;}
	.st10{stroke:#000000;stroke-miterlimit:10;}
	.st11{fill:#336699;stroke:#000000;stroke-miterlimit:10;}
	.st12{fill:none;stroke:#000000;stroke-linecap:round;stroke-miterlimit:10;}
	.st13{fill:#DB4F4F;stroke:#000000;stroke-linecap:round;stroke-miterlimit:10;}
	.st14{fill:#496E8C;stroke:#000000;stroke-miterlimit:10;}
	.st15{fill:#B59D95;stroke:#000000;stroke-miterlimit:10;}
	.st16{opacity:0.15;fill:#FFFFFF;}
	.st17{fill:#E7B8CC;}
	.st18{fill:#B76935;}
	.st19{fill:#143642;stroke:#FFFFFF;stroke-width:3;stroke-miterlimit:10;}
	.st20{fill:#FFFFFF;}
	.st21{fill:none;stroke:#FFFFFF;stroke-width:2;stroke-miterlimit:10;}
	.st22{fill:none;stroke:#FFFFFF;stroke-width:2;stroke-linecap:round;stroke-miterlimit:10;}
	.st23{fill:#FFFFFF;stroke:#FFFFFF;stroke-width:2;stroke-miterlimit:10;}
</style>
<g id="talon3">
	<path class="st13" d="M20.3,42.7l3.5,42.4c0,0.5,0.4,0.8,0.9,0.8H28c0.5,0,0.9-0.4,0.9-0.9l2-34.6"/>
	<path class="st13" d="M84.4,63.7c0,0,22.5-8.9,34.7,19.8c0.3,0.7-0.2,1.5-1,1.5h-10.4"/>
	<path class="st13" d="M20.3,8.4c0,0,1.2-2.5,9.4-1.4c1.4,0.2,2.8,0.9,3.7,2.1L77,64.6l-6.4,6L22.4,24.3L20.3,8.4z"/>
	<path class="st13" d="M106.2,86H55.1c-0.8,0-1.6-0.5-2-1.3c-8.2-17.8-16.2-28.2-22.3-34.2c0,0,0,0,0,0c-6.1-6.1-10.2-7.6-10.5-7.7
		l0,0l-2.7,42c0,0.7-0.6,1.3-1.4,1.3h-2.3c-0.7,0-1.3-0.6-1.4-1.3c-0.4-9.4-3.9-47.9-3.9-47.9c-3.3-15.9,1.9-24.9,5.6-29
		C15.7,6,18.4,6,19.9,7.9l0.4,0.5l0,0l44,55.8c1.7,2.2,4.6,3,7.2,2.2l5.6-1.8c2.6-0.8,5.1-1,7.4-0.9c13.2,1,20.6,15.8,22.7,20.7
		c0,0.1,0,0.1,0.1,0.2C107.4,85.3,106.9,86,106.2,86z"/>
</g>
</svg>
