<svg enable-background="new 0 0 248.8 126" viewBox="0 0 248.8 126" xmlns="http://www.w3.org/2000/svg"><g stroke="#000" stroke-miterlimit="10"><path d="m118.8 16.2h16.6c-.5 4.1-4 7.3-8.3 7.3-4.3.1-7.8-3.1-8.3-7.3z" fill="#7c4c40"/><path d="m226.3 8.9h-199.9c-4.7 0-8.4 3.8-8.4 8.4v26.7c0 4.7 3.8 8.4 8.4 8.4h199.9c4.7 0 8.4-3.8 8.4-8.4v-26.7c.1-4.6-3.7-8.4-8.4-8.4zm-138.1 31.7c0 2-1.6 3.7-3.7 3.7h-55.3c-2 0-3.7-1.6-3.7-3.7v-21.3c0-2 1.7-3.7 3.7-3.7h19.4c.6 4 4.1 7.1 8.2 7.1s7.7-3.1 8.3-7.1h19.4c2 0 3.7 1.6 3.7 3.7zm69.5 0c0 2-1.6 3.7-3.7 3.7h-55.3c-2 0-3.7-1.6-3.7-3.7v-21.3c0-2 1.6-3.7 3.7-3.7h55.3c2 0 3.7 1.6 3.7 3.7zm69 0c0 2-1.6 3.7-3.7 3.7h-55.3c-2 0-3.7-1.6-3.7-3.7v-21.3c0-2 1.6-3.7 3.7-3.7h19.4c.6 4 4.1 7.1 8.2 7.1 4.2 0 7.7-3.1 8.2-7.1h19.4c2 0 3.7 1.6 3.7 3.7v21.3z" fill="#7c4c40"/><path d="m88.2 19.3v21.2c0 2-1.6 3.7-3.7 3.7h-55.3c-2 0-3.7-1.6-3.7-3.7v-21.2c0-2 1.7-3.7 3.7-3.7h19.4c.6 4 4.1 7.1 8.2 7.1s7.7-3.1 8.3-7.1h19.4c2.1.1 3.7 1.7 3.7 3.7z" fill="#a56659"/><path d="m65.2 15.7c-.6 4-4.1 7.1-8.3 7.1s-7.7-3.1-8.2-7.1z" fill="#7c4c40"/><path d="m154 15.7h-55.3c-2 0-3.7 1.6-3.7 3.7v21.2c0 2 1.6 3.7 3.7 3.7h55.3c2 0 3.7-1.6 3.7-3.7v-21.3c0-2-1.6-3.6-3.7-3.6zm-26.9 7.9c-4.3 0-7.8-3.2-8.3-7.3h16.6c-.5 4.1-4 7.3-8.3 7.3z" fill="#a56659"/><path d="m135.4 16.2c-.5 4.1-4 7.3-8.3 7.3s-7.8-3.2-8.3-7.3z" fill="#7c4c40"/><path d="m226.7 19.3v21.2c0 2-1.6 3.7-3.7 3.7h-55.3c-2 0-3.7-1.6-3.7-3.7v-21.2c0-2 1.6-3.7 3.7-3.7h19.4c.6 4 4.1 7.1 8.2 7.1 4.2 0 7.7-3.1 8.2-7.1h19.4c2.2.1 3.8 1.7 3.8 3.7z" fill="#a56659"/><path d="m203.7 15.7c-.6 4-4 7.1-8.2 7.1s-7.7-3.1-8.2-7.1z" fill="#7c4c40"/><path d="m65.2 15.5v.2c-.6 4-4.1 7.1-8.3 7.1s-7.7-3.1-8.2-7.1c0-.1 0-.1 0-.2z"/><path d="m135.4 16.2c-.5 4.1-4 7.3-8.3 7.3s-7.8-3.2-8.3-7.3z"/><path d="m203.7 15.5v.2c-.6 4-4 7.1-8.2 7.1s-7.7-3.1-8.2-7.1c0-.1 0-.1 0-.2z"/><g fill="#7c4c40"><path d="m13.8 119.5c1.6.5 3.3-.4 3.8-2l20.7-64.7h-6.7l-19.8 62.9c-.5 1.5.4 3.3 2 3.8z"/><path d="m237.9 119.5c-1.6.5-3.3-.4-3.8-2l-20.7-64.7h6.7l19.8 62.9c.5 1.5-.3 3.3-2 3.8z"/></g></g></svg>