<?xml version="1.0" encoding="utf-8"?>
<!-- Generator: Adobe Illustrator 24.3.0, SVG Export Plug-In . SVG Version: 6.00 Build 0)  -->
<svg version="1.1" xmlns="http://www.w3.org/2000/svg" xmlns:xlink="http://www.w3.org/1999/xlink" x="0px" y="0px"
	 viewBox="0 0 58.3 55.9" style="enable-background:new 0 0 58.3 55.9;" xml:space="preserve">
<style type="text/css">
	.st0{display:none;}
	.st1{fill:#143642;}
	.st2{fill:#A56659;stroke:#000000;stroke-miterlimit:10;}
	.st3{fill:#2A7C51;stroke:#000000;stroke-miterlimit:10;}
	.st4{fill:none;stroke:#000000;stroke-miterlimit:10;}
	.st5{fill:#686160;stroke:#000000;stroke-miterlimit:10;}
	.st6{fill:#FFCC66;stroke:#000000;stroke-miterlimit:10;}
	.st7{fill:#6699CC;stroke:#000000;stroke-miterlimit:10;}
	.st8{fill:#FFD8CA;stroke:#000000;stroke-miterlimit:10;}
	.st9{fill:#7C4C40;stroke:#000000;stroke-miterlimit:10;}
	.st10{stroke:#000000;stroke-miterlimit:10;}
	.st11{fill:#336699;stroke:#000000;stroke-miterlimit:10;}
	.st12{fill:none;stroke:#000000;stroke-linecap:round;stroke-miterlimit:10;}
	.st13{fill:#DB4F4F;stroke:#000000;stroke-linecap:round;stroke-miterlimit:10;}
	.st14{fill:#496E8C;stroke:#000000;stroke-miterlimit:10;}
	.st15{fill:#B59D95;stroke:#000000;stroke-miterlimit:10;}
	.st16{opacity:0.15;fill:#FFFFFF;}
	.st17{fill:#E7B8CC;}
	.st18{fill:#B76935;}
	.st19{fill:#143642;stroke:#FFFFFF;stroke-width:3;stroke-miterlimit:10;}
	.st20{fill:#FFFFFF;}
	.st21{fill:none;stroke:#FFFFFF;stroke-width:2;stroke-miterlimit:10;}
	.st22{fill:none;stroke:#FFFFFF;stroke-width:2;stroke-linecap:round;stroke-miterlimit:10;}
	.st23{fill:#FFFFFF;stroke:#FFFFFF;stroke-width:2;stroke-miterlimit:10;}
</style>
<g id="horloge3">
	<path class="st11" d="M28,10.5c-10.3,0-18.6,8.3-18.6,18.6c0,10.3,8.3,18.6,18.6,18.6c10.3,0,18.6-8.3,18.6-18.6
		C46.6,18.9,38.3,10.5,28,10.5z M28,42.1c-7.1,0-12.9-5.8-12.9-12.9S20.9,16.2,28,16.2C35.2,16.2,41,22,41,29.1S35.2,42.1,28,42.1z"
		/>
	<path class="st6" d="M41,29.1c0,7.1-5.8,12.9-12.9,12.9c-7.1,0-12.9-5.8-12.9-12.9S20.9,16.2,28,16.2C35.2,16.2,41,22,41,29.1z"/>
	<g>
	<line class="st12" x1="28" y1="29.1" x2="28" y2="20.8"/>
		<animateTransform
				attributeName="transform"
				dur="2s"
				type="rotate"
				from="0 28 29.1"
				to="360 28 29.1"
				repeatCount="indefinite" />
		</g>
	<g>
	<line class="st12" x1="28" y1="29.1" x2="23.9" y2="30.5"/>
		<animateTransform
				attributeName="transform"
				dur="6s"
				type="rotate"
				from="0 28 29.1"
				to="360 28 29.1"
				repeatCount="indefinite" />
		</g>
</g>
</svg>
