<?xml version="1.0" encoding="utf-8"?>
<!-- Generator: Adobe Illustrator 24.3.0, SVG Export Plug-In . SVG Version: 6.00 Build 0)  -->
<svg version="1.1" xmlns="http://www.w3.org/2000/svg" xmlns:xlink="http://www.w3.org/1999/xlink" x="0px" y="0px"
	 viewBox="0 0 96.3 128.1" style="enable-background:new 0 0 96.3 128.1;" xml:space="preserve">
<style type="text/css">
	.st0{display:none;}
	.st1{fill:#143642;}
	.st2{fill:#A56659;stroke:#000000;stroke-miterlimit:10;}
	.st3{fill:#2A7C51;stroke:#000000;stroke-miterlimit:10;}
	.st4{fill:none;stroke:#000000;stroke-miterlimit:10;}
	.st5{fill:#686160;stroke:#000000;stroke-miterlimit:10;}
	.st6{fill:#FFCC66;stroke:#000000;stroke-miterlimit:10;}
	.st7{fill:#6699CC;stroke:#000000;stroke-miterlimit:10;}
	.st8{fill:#FFD8CA;stroke:#000000;stroke-miterlimit:10;}
	.st9{fill:#7C4C40;stroke:#000000;stroke-miterlimit:10;}
	.st10{stroke:#000000;stroke-miterlimit:10;}
	.st11{fill:#336699;stroke:#000000;stroke-miterlimit:10;}
	.st12{fill:none;stroke:#000000;stroke-linecap:round;stroke-miterlimit:10;}
	.st13{fill:#DB4F4F;stroke:#000000;stroke-linecap:round;stroke-miterlimit:10;}
	.st14{fill:#496E8C;stroke:#000000;stroke-miterlimit:10;}
	.st15{fill:#B59D95;stroke:#000000;stroke-miterlimit:10;}
	.st16{opacity:0.15;fill:#FFFFFF;}
	.st17{fill:#E7B8CC;}
	.st18{fill:#B76935;}
	.st19{fill:#143642;stroke:#FFFFFF;stroke-width:3;stroke-miterlimit:10;}
	.st20{fill:#FFFFFF;}
	.st21{fill:none;stroke:#FFFFFF;stroke-width:2;stroke-miterlimit:10;}
	.st22{fill:none;stroke:#FFFFFF;stroke-width:2;stroke-linecap:round;stroke-miterlimit:10;}
	.st23{fill:#FFFFFF;stroke:#FFFFFF;stroke-width:2;stroke-miterlimit:10;}
</style>
<g id="Calque_1" class="st0">
</g>
<g id="fond">
</g>
<g id="plante">
</g>
<g id="lampe">
</g>
<g id="buffet">
</g>
<g id="horloge">
</g>
<g id="talons">
</g>
<g id="talon3">
</g>
<g id="forme">
</g>
<g id="couleurs">
</g>
<g id="plante2">
</g>
<g id="plante3">
</g>
<g id="horloge2">
</g>
<g id="buffet2">
</g>
<g id="buffet3">
</g>
<g id="talon2">
</g>
<g id="tapis3">
</g>
<g id="lanmpe3">
	<path class="st5" d="M46.9,105.7c-18,0.3-22.3,5.7-24.7,7.9c-1.7,1.6-3.8,2.7-6,3.1c-3.4,0.5-5.7-0.9-7.2-2.7
		c-0.2-0.2-0.3-0.4-0.5-0.6c-0.1-0.2-0.3-0.4-0.4-0.6c-0.1-0.2-0.2-0.4-0.3-0.5c-1.6-3.3-1-5.3,1.2-8.2c7.9-10.2,26.9-3,34.6,0.3
		C45.5,105,46.6,105.5,46.9,105.7C46.9,105.7,46.9,105.7,46.9,105.7z"/>
	<path class="st6" d="M59.1,113.6c0,4.5-3.6,8.1-8.1,8.1c-4.5,0-8.1-3.6-8.1-8.1c0-2.2,1-4.4,2.4-5.9c0.3-0.3,0.6-0.4,1-0.5
		c0.1,0,0.1,0,0.2,0c0.2,0,0.5,0,0.7,0.2c1.7,0.8,5.7,2.3,10.9,2.4c0.2,0,0.4,0.1,0.6,0.2C59.3,110.5,59.1,112.4,59.1,113.6z"/>
	<path class="st7" d="M66.1,4.7c-0.9,7.5-7.3,13.4-15.1,13.4c-7.8,0-14.2-5.8-15.1-13.3"/>
	<line class="st4" x1="36" y1="5.2" x2="65.9" y2="5.2"/>
	<line class="st4" x1="51" y1="74.5" x2="51" y2="18.1"/>
	<path class="st7" d="M55.2,76.8v5.3c0,0.8-0.7,1.5-1.5,1.5h-5.3c-0.8,0-1.5-0.7-1.5-1.5v-5.3c0-0.5,0.2-0.9,0.6-1.2
		c0.2-0.2,0.5-0.3,0.8-0.3c0,0,0,0,0,0h0c0,0,0,0,0,0h5.3C54.5,75.3,55.2,76,55.2,76.8z"/>
	<path class="st4" d="M59.8,108.7c-3.5-0.1-8.4-0.7-12.3-2.7c-0.2-0.1-0.4-0.2-0.6-0.3"/>
	<path class="st8" d="M7.2,107.1C10.7,96,17.5,91,33.9,85.9c4.9-1.6,10.5-1.9,16.3-1.9c18.3,0,33.9,6.7,40.8,16.3
		c-5.3,5.8-15.6,9.7-27.5,9.7c-0.6,0-2.2,0.1-4.3,0c-0.1-0.1-0.3-0.2-0.6-0.2c-5.1-0.1-9-1.6-10.8-2.4c-0.2-0.1-0.5-0.2-0.7-0.2
		c-0.3-0.1-0.5-0.2-0.7-0.3h0c0,0,0,0,0,0c-0.2-0.1-1.4-0.7-3.2-1.4C35.4,102.3,15.2,97,7.2,107.1"/>
	<line class="st4" x1="51" y1="75.3" x2="51" y2="74.5"/>
</g>
<g id="horloge3">
</g>
</svg>
